<svg width="2275" height="96" viewBox="0 0 2275 96" fill="none" xmlns="http://www.w3.org/2000/svg">
<rect width="230" height="96" rx="20" fill="black"/>
<path d="M41.5047 36.1562C42.7547 36.1562 43.8953 36.3594 44.9266 36.7656C45.9734 37.1562 46.8641 37.6953 47.5984 38.3828C48.3328 39.0703 48.9031 39.8828 49.3094 40.8203C49.7156 41.7422 49.9187 42.75 49.9187 43.8438V58H46.8016L45.8406 55.8438C45.4187 56.2969 44.9187 56.6953 44.3406 57.0391C43.825 57.3516 43.1766 57.6328 42.3953 57.8828C41.6141 58.1172 40.6766 58.2344 39.5828 58.2344C37.1766 58.2344 35.3328 57.6406 34.0516 56.4531C32.7859 55.25 32.1531 53.6875 32.1531 51.7656C32.1531 50.6719 32.3562 49.6875 32.7625 48.8125C33.1844 47.9219 33.8953 47.1719 34.8953 46.5625C35.9109 45.9375 37.2781 45.4531 38.9969 45.1094C40.7312 44.75 42.9266 44.5703 45.5828 44.5703V43.8438C45.5828 42.75 45.2391 41.875 44.5516 41.2188C43.8641 40.5625 42.8484 40.2344 41.5047 40.2344C40.0672 40.2344 39.0203 40.4922 38.3641 41.0078C37.7078 41.5234 37.3172 42.1484 37.1922 42.8828H32.8797C33.0047 40.9609 33.8094 39.3594 35.2937 38.0781C36.7781 36.7969 38.8484 36.1562 41.5047 36.1562ZM39.8406 54.3906C41.6687 54.3906 43.0828 53.9219 44.0828 52.9844C45.0828 52.0469 45.5828 50.9062 45.5828 49.5625V48.3906C43.6609 48.3906 42.1062 48.4844 40.9187 48.6719C39.7469 48.8438 38.825 49.0859 38.1531 49.3984C37.4812 49.6953 37.0281 50.0703 36.7937 50.5234C36.575 50.9609 36.4656 51.4531 36.4656 52C36.4656 52.6094 36.7547 53.1641 37.3328 53.6641C37.9109 54.1484 38.7469 54.3906 39.8406 54.3906ZM74.4875 36.3906V58H70.175V49.1172H59.8391V58H55.5266V36.3906H59.8391V45.0391H70.175V36.3906H74.4875ZM100.486 53.9219V63.0391H96.4078V58H81.525V63.0391H77.4469V53.9219H78.8766C79.3297 53.6094 79.7359 53.2578 80.0953 52.8672C80.4078 52.5078 80.7047 52.0859 80.9859 51.6016C81.2828 51.1016 81.4625 50.5156 81.525 49.8438L82.9781 36.3906H97.6031V53.9219H100.486ZM85.8375 49.8438C85.775 50.5156 85.65 51.1016 85.4625 51.6016C85.275 52.0859 85.0797 52.5078 84.8766 52.8672C84.6578 53.2578 84.4234 53.6094 84.1734 53.9219H93.2906V40.4688H86.7984L85.8375 49.8438ZM114.742 36.1562C116.18 36.1562 117.523 36.4297 118.773 36.9766C120.023 37.5234 121.117 38.2891 122.055 39.2734C123.008 40.2422 123.75 41.3984 124.281 42.7422C124.812 44.0859 125.078 45.5703 125.078 47.1953C125.078 48.8203 124.812 50.3125 124.281 51.6719C123.75 53.0156 123.008 54.1797 122.055 55.1641C121.117 56.1328 120.023 56.8906 118.773 57.4375C117.523 57.9688 116.18 58.2344 114.742 58.2344C113.711 58.2344 112.828 58.1172 112.094 57.8828C111.359 57.6484 110.742 57.3672 110.242 57.0391C109.664 56.6797 109.164 56.2812 108.742 55.8438V65.6875H104.43V36.3906H107.547L108.508 38.5703C108.93 38.1172 109.422 37.7109 109.984 37.3516C110.5 37.0703 111.148 36.8047 111.93 36.5547C112.711 36.2891 113.648 36.1562 114.742 36.1562ZM114.508 54.1562C115.336 54.1562 116.125 53.9922 116.875 53.6641C117.625 53.3203 118.289 52.8359 118.867 52.2109C119.445 51.5859 119.898 50.8516 120.227 50.0078C120.57 49.1641 120.742 48.2266 120.742 47.1953C120.742 46.1641 120.57 45.2266 120.227 44.3828C119.898 43.5391 119.445 42.8047 118.867 42.1797C118.289 41.5547 117.625 41.0781 116.875 40.75C116.125 40.4062 115.336 40.2344 114.508 40.2344C113.68 40.2344 112.883 40.4062 112.117 40.75C111.367 41.0781 110.703 41.5547 110.125 42.1797C109.562 42.8047 109.109 43.5469 108.766 44.4062C108.438 45.25 108.273 46.1797 108.273 47.1953C108.273 48.2266 108.438 49.1641 108.766 50.0078C109.109 50.8516 109.562 51.5859 110.125 52.2109C110.703 52.8359 111.367 53.3203 112.117 53.6641C112.883 53.9922 113.68 54.1562 114.508 54.1562ZM144.866 47.1953C144.866 46.1641 144.694 45.2266 144.35 44.3828C144.022 43.5391 143.584 42.8047 143.037 42.1797C142.491 41.5547 141.85 41.0781 141.116 40.75C140.381 40.4062 139.631 40.2344 138.866 40.2344C138.1 40.2344 137.35 40.4062 136.616 40.75C135.881 41.0781 135.241 41.5547 134.694 42.1797C134.147 42.8047 133.702 43.5469 133.358 44.4062C133.03 45.25 132.866 46.1797 132.866 47.1953C132.866 48.2266 133.03 49.1641 133.358 50.0078C133.702 50.8516 134.147 51.5859 134.694 52.2109C135.241 52.8359 135.881 53.3203 136.616 53.6641C137.35 53.9922 138.1 54.1562 138.866 54.1562C139.631 54.1562 140.381 53.9922 141.116 53.6641C141.85 53.3203 142.491 52.8359 143.037 52.2109C143.584 51.5859 144.022 50.8516 144.35 50.0078C144.694 49.1641 144.866 48.2266 144.866 47.1953ZM149.178 47.1953C149.178 48.8203 148.912 50.3125 148.381 51.6719C147.866 53.0156 147.131 54.1797 146.178 55.1641C145.241 56.1328 144.147 56.8906 142.897 57.4375C141.647 57.9688 140.303 58.2344 138.866 58.2344C137.428 58.2344 136.084 57.9688 134.834 57.4375C133.584 56.8906 132.483 56.1328 131.53 55.1641C130.592 54.1797 129.858 53.0156 129.327 51.6719C128.811 50.3281 128.553 48.8359 128.553 47.1953C128.553 45.5703 128.811 44.0859 129.327 42.7422C129.858 41.3984 130.592 40.2422 131.53 39.2734C132.483 38.2891 133.584 37.5234 134.834 36.9766C136.084 36.4297 137.428 36.1562 138.866 36.1562C140.303 36.1562 141.647 36.4297 142.897 36.9766C144.147 37.5234 145.241 38.2891 146.178 39.2734C147.131 40.2422 147.866 41.3984 148.381 42.7422C148.912 44.0859 149.178 45.5703 149.178 47.1953ZM172.809 36.3906V58H168.497V42.8828L158.161 58H153.848V36.3906H158.161V51.5312L168.497 36.3906H172.809ZM198.808 53.9219V63.0391H194.73V58H179.847V63.0391H175.769V53.9219H177.198C177.652 53.6094 178.058 53.2578 178.417 52.8672C178.73 52.5078 179.027 52.0859 179.308 51.6016C179.605 51.1016 179.784 50.5156 179.847 49.8438L181.3 36.3906H195.925V53.9219H198.808ZM184.159 49.8438C184.097 50.5156 183.972 51.1016 183.784 51.6016C183.597 52.0859 183.402 52.5078 183.198 52.8672C182.98 53.2578 182.745 53.6094 182.495 53.9219H191.613V40.4688H185.12L184.159 49.8438Z" fill="white"/>
<rect x="250" width="325" height="96" rx="20" fill="#3F8AE0"/>
<path d="M297.505 46.7266C298.083 47.0078 298.598 47.3906 299.052 47.875C299.442 48.2969 299.802 48.8281 300.13 49.4688C300.458 50.0938 300.622 50.8594 300.622 51.7656C300.622 52.6562 300.458 53.4844 300.13 54.25C299.817 55.0156 299.38 55.6719 298.817 56.2188C298.27 56.7656 297.591 57.2031 296.778 57.5312C295.981 57.8438 295.106 58 294.153 58H283.348V36.3906H293.427C294.38 36.3906 295.255 36.5469 296.052 36.8594C296.864 37.1562 297.544 37.5781 298.091 38.125C298.653 38.6719 299.091 39.3125 299.403 40.0469C299.731 40.7812 299.895 41.5625 299.895 42.3906C299.895 43.1875 299.77 43.8516 299.52 44.3828C299.27 44.9141 298.997 45.3594 298.7 45.7188C298.356 46.1094 297.958 46.4453 297.505 46.7266ZM287.661 40V45.2734H292.934C293.669 45.2734 294.294 45.0234 294.809 44.5234C295.325 44.0078 295.583 43.3828 295.583 42.6484C295.583 41.9141 295.325 41.2891 294.809 40.7734C294.309 40.2578 293.684 40 292.934 40H287.661ZM293.661 54.3906C294.395 54.3906 295.02 54.125 295.536 53.5938C296.052 53.0469 296.309 52.3594 296.309 51.5312C296.309 50.7969 296.052 50.1719 295.536 49.6562C295.02 49.1406 294.395 48.8828 293.661 48.8828H287.661V54.3906H293.661ZM320.409 47.1953C320.409 46.1641 320.237 45.2266 319.894 44.3828C319.566 43.5391 319.128 42.8047 318.581 42.1797C318.034 41.5547 317.394 41.0781 316.659 40.75C315.925 40.4062 315.175 40.2344 314.409 40.2344C313.644 40.2344 312.894 40.4062 312.159 40.75C311.425 41.0781 310.784 41.5547 310.237 42.1797C309.691 42.8047 309.245 43.5469 308.902 44.4062C308.573 45.25 308.409 46.1797 308.409 47.1953C308.409 48.2266 308.573 49.1641 308.902 50.0078C309.245 50.8516 309.691 51.5859 310.237 52.2109C310.784 52.8359 311.425 53.3203 312.159 53.6641C312.894 53.9922 313.644 54.1562 314.409 54.1562C315.175 54.1562 315.925 53.9922 316.659 53.6641C317.394 53.3203 318.034 52.8359 318.581 52.2109C319.128 51.5859 319.566 50.8516 319.894 50.0078C320.237 49.1641 320.409 48.2266 320.409 47.1953ZM324.722 47.1953C324.722 48.8203 324.456 50.3125 323.925 51.6719C323.409 53.0156 322.675 54.1797 321.722 55.1641C320.784 56.1328 319.691 56.8906 318.441 57.4375C317.191 57.9688 315.847 58.2344 314.409 58.2344C312.972 58.2344 311.628 57.9688 310.378 57.4375C309.128 56.8906 308.027 56.1328 307.073 55.1641C306.136 54.1797 305.402 53.0156 304.87 51.6719C304.355 50.3281 304.097 48.8359 304.097 47.1953C304.097 45.5703 304.355 44.0859 304.87 42.7422C305.402 41.3984 306.136 40.2422 307.073 39.2734C308.027 38.2891 309.128 37.5234 310.378 36.9766C311.628 36.4297 312.972 36.1562 314.409 36.1562C315.847 36.1562 317.191 36.4297 318.441 36.9766C319.691 37.5234 320.784 38.2891 321.722 39.2734C322.675 40.2422 323.409 41.3984 323.925 42.7422C324.456 44.0859 324.722 45.5703 324.722 47.1953ZM349.548 53.9219V63.0391H345.47V58H330.587V63.0391H326.509V53.9219H327.939C328.392 53.6094 328.798 53.2578 329.158 52.8672C329.47 52.5078 329.767 52.0859 330.048 51.6016C330.345 51.1016 330.525 50.5156 330.587 49.8438L332.041 36.3906H346.666V53.9219H349.548ZM334.9 49.8438C334.837 50.5156 334.712 51.1016 334.525 51.6016C334.337 52.0859 334.142 52.5078 333.939 52.8672C333.72 53.2578 333.486 53.6094 333.236 53.9219H342.353V40.4688H335.861L334.9 49.8438ZM370.039 36.3906V58H365.727V50.8047H361.414L356.844 58H352.039L357.078 50.0781C356.25 49.7656 355.531 49.3203 354.922 48.7422C354.375 48.2266 353.875 47.5625 353.422 46.75C352.984 45.9375 352.766 44.8906 352.766 43.6094C352.766 42.5781 352.945 41.625 353.305 40.75C353.68 39.8594 354.195 39.1016 354.852 38.4766C355.508 37.8359 356.289 37.3281 357.195 36.9531C358.117 36.5781 359.125 36.3906 360.219 36.3906H370.039ZM360.219 40.4688C359.391 40.4688 358.656 40.7812 358.016 41.4062C357.391 42.0312 357.078 42.7656 357.078 43.6094C357.078 44.4375 357.391 45.1641 358.016 45.7891C358.641 46.4141 359.375 46.7266 360.219 46.7266H365.727V40.4688H360.219ZM394.866 36.3906V58H390.553V49.1172H380.217V58H375.905V36.3906H380.217V45.0391H390.553V36.3906H394.866ZM415.825 47.1953C415.825 46.1641 415.653 45.2266 415.309 44.3828C414.981 43.5391 414.544 42.8047 413.997 42.1797C413.45 41.5547 412.809 41.0781 412.075 40.75C411.341 40.4062 410.591 40.2344 409.825 40.2344C409.059 40.2344 408.309 40.4062 407.575 40.75C406.841 41.0781 406.2 41.5547 405.653 42.1797C405.106 42.8047 404.661 43.5469 404.317 44.4062C403.989 45.25 403.825 46.1797 403.825 47.1953C403.825 48.2266 403.989 49.1641 404.317 50.0078C404.661 50.8516 405.106 51.5859 405.653 52.2109C406.2 52.8359 406.841 53.3203 407.575 53.6641C408.309 53.9922 409.059 54.1562 409.825 54.1562C410.591 54.1562 411.341 53.9922 412.075 53.6641C412.809 53.3203 413.45 52.8359 413.997 52.2109C414.544 51.5859 414.981 50.8516 415.309 50.0078C415.653 49.1641 415.825 48.2266 415.825 47.1953ZM420.137 47.1953C420.137 48.8203 419.872 50.3125 419.341 51.6719C418.825 53.0156 418.091 54.1797 417.137 55.1641C416.2 56.1328 415.106 56.8906 413.856 57.4375C412.606 57.9688 411.262 58.2344 409.825 58.2344C408.387 58.2344 407.044 57.9688 405.794 57.4375C404.544 56.8906 403.442 56.1328 402.489 55.1641C401.552 54.1797 400.817 53.0156 400.286 51.6719C399.77 50.3281 399.512 48.8359 399.512 47.1953C399.512 45.5703 399.77 44.0859 400.286 42.7422C400.817 41.3984 401.552 40.2422 402.489 39.2734C403.442 38.2891 404.544 37.5234 405.794 36.9766C407.044 36.4297 408.387 36.1562 409.825 36.1562C411.262 36.1562 412.606 36.4297 413.856 36.9766C415.106 37.5234 416.2 38.2891 417.137 39.2734C418.091 40.2422 418.825 41.3984 419.341 42.7422C419.872 44.0859 420.137 45.5703 420.137 47.1953ZM443.769 36.3906V58H439.456V42.8828L429.12 58H424.808V36.3906H429.12V51.5312L439.456 36.3906H443.769ZM434.159 33.2734C432.456 33.2734 431.05 32.75 429.941 31.7031C428.847 30.6406 428.175 29.3281 427.925 27.7656H431.277C431.402 28.5 431.73 29.125 432.261 29.6406C432.792 30.1406 433.425 30.3906 434.159 30.3906C434.894 30.3906 435.527 30.1406 436.058 29.6406C436.589 29.125 436.917 28.5 437.042 27.7656H440.394C440.144 29.3281 439.464 30.6406 438.355 31.7031C437.261 32.75 435.863 33.2734 434.159 33.2734ZM471.977 46.9609C472.523 47.2422 473 47.6094 473.406 48.0625C473.766 48.4531 474.102 48.9375 474.414 49.5156C474.742 50.0781 474.906 50.75 474.906 51.5312C474.906 53.4531 474.211 55.0547 472.82 56.3359C471.445 57.6016 469.5 58.2344 466.984 58.2344C464.328 58.2344 462.336 57.6094 461.008 56.3594C459.68 55.1094 458.945 53.3359 458.805 51.0391H463.141C463.266 51.9922 463.633 52.75 464.242 53.3125C464.852 53.875 465.766 54.1562 466.984 54.1562C468.328 54.1562 469.297 53.9062 469.891 53.4062C470.5 52.8906 470.805 52.2656 470.805 51.5312C470.805 50.7969 470.5 50.1719 469.891 49.6562C469.297 49.1406 468.328 48.8828 466.984 48.8828H465.062V45.0391H466.984C468.203 45.0391 469.062 44.7969 469.562 44.3125C470.078 43.8125 470.336 43.2578 470.336 42.6484C470.336 42.0391 470.078 41.4844 469.562 40.9844C469.047 40.4844 468.188 40.2344 466.984 40.2344C465.891 40.2344 465.047 40.4922 464.453 41.0078C463.859 41.5234 463.5 42.1484 463.375 42.8828H459.062C459.188 40.8359 459.906 39.2031 461.219 37.9844C462.531 36.7656 464.453 36.1562 466.984 36.1562C468.141 36.1562 469.172 36.3281 470.078 36.6719C470.984 37 471.758 37.4609 472.398 38.0547C473.039 38.6484 473.531 39.3359 473.875 40.1172C474.234 40.8984 474.414 41.7422 474.414 42.6484C474.414 43.3828 474.281 44.0234 474.016 44.5703C473.766 45.1016 473.484 45.5469 473.172 45.9062C472.828 46.3281 472.43 46.6797 471.977 46.9609ZM498.537 36.3906V58H494.225V49.1172H483.889V58H479.577V36.3906H483.889V45.0391H494.225V36.3906H498.537ZM512.77 36.1562C514.02 36.1562 515.161 36.3594 516.192 36.7656C517.239 37.1562 518.13 37.6953 518.864 38.3828C519.598 39.0703 520.169 39.8828 520.575 40.8203C520.981 41.7422 521.184 42.75 521.184 43.8438V58H518.067L517.106 55.8438C516.684 56.2969 516.184 56.6953 515.606 57.0391C515.091 57.3516 514.442 57.6328 513.661 57.8828C512.88 58.1172 511.942 58.2344 510.848 58.2344C508.442 58.2344 506.598 57.6406 505.317 56.4531C504.052 55.25 503.419 53.6875 503.419 51.7656C503.419 50.6719 503.622 49.6875 504.028 48.8125C504.45 47.9219 505.161 47.1719 506.161 46.5625C507.177 45.9375 508.544 45.4531 510.262 45.1094C511.997 44.75 514.192 44.5703 516.848 44.5703V43.8438C516.848 42.75 516.505 41.875 515.817 41.2188C515.13 40.5625 514.114 40.2344 512.77 40.2344C511.333 40.2344 510.286 40.4922 509.63 41.0078C508.973 41.5234 508.583 42.1484 508.458 42.8828H504.145C504.27 40.9609 505.075 39.3594 506.559 38.0781C508.044 36.7969 510.114 36.1562 512.77 36.1562ZM511.106 54.3906C512.934 54.3906 514.348 53.9219 515.348 52.9844C516.348 52.0469 516.848 50.9062 516.848 49.5625V48.3906C514.927 48.3906 513.372 48.4844 512.184 48.6719C511.012 48.8438 510.091 49.0859 509.419 49.3984C508.747 49.6953 508.294 50.0703 508.059 50.5234C507.841 50.9609 507.731 51.4531 507.731 52C507.731 52.6094 508.02 53.1641 508.598 53.6641C509.177 54.1484 510.012 54.3906 511.106 54.3906ZM539.753 58L531.339 47.6875V58H527.027V36.3906H531.339V45.7656L538.792 36.3906H543.831L535.441 46.4688L545.027 58H539.753Z" fill="white"/>
<rect x="595" width="416" height="96" rx="20" fill="#F2F3F5"/>
<path d="M642.456 46.7266C643.034 47.0078 643.55 47.3906 644.003 47.875C644.394 48.2969 644.753 48.8281 645.081 49.4688C645.409 50.0938 645.573 50.8594 645.573 51.7656C645.573 52.6562 645.409 53.4844 645.081 54.25C644.769 55.0156 644.331 55.6719 643.769 56.2188C643.222 56.7656 642.542 57.2031 641.73 57.5312C640.933 57.8438 640.058 58 639.105 58H628.3V36.3906H638.378C639.331 36.3906 640.206 36.5469 641.003 36.8594C641.816 37.1562 642.495 37.5781 643.042 38.125C643.605 38.6719 644.042 39.3125 644.355 40.0469C644.683 40.7812 644.847 41.5625 644.847 42.3906C644.847 43.1875 644.722 43.8516 644.472 44.3828C644.222 44.9141 643.948 45.3594 643.652 45.7188C643.308 46.1094 642.909 46.4453 642.456 46.7266ZM632.613 40V45.2734H637.886C638.62 45.2734 639.245 45.0234 639.761 44.5234C640.277 44.0078 640.534 43.3828 640.534 42.6484C640.534 41.9141 640.277 41.2891 639.761 40.7734C639.261 40.2578 638.636 40 637.886 40H632.613ZM638.613 54.3906C639.347 54.3906 639.972 54.125 640.488 53.5938C641.003 53.0469 641.261 52.3594 641.261 51.5312C641.261 50.7969 641.003 50.1719 640.488 49.6562C639.972 49.1406 639.347 48.8828 638.613 48.8828H632.613V54.3906H638.613ZM669.205 36.3906V58H664.892V42.8828L654.556 58H650.244V36.3906H654.556V51.5312L664.892 36.3906H669.205ZM685.359 36.1562C686.797 36.1562 688.141 36.4297 689.391 36.9766C690.641 37.5234 691.734 38.2891 692.672 39.2734C693.625 40.2422 694.367 41.3984 694.898 42.7422C695.43 44.0859 695.695 45.5703 695.695 47.1953C695.695 48.8203 695.43 50.3125 694.898 51.6719C694.367 53.0156 693.625 54.1797 692.672 55.1641C691.734 56.1328 690.641 56.8906 689.391 57.4375C688.141 57.9688 686.797 58.2344 685.359 58.2344C684.328 58.2344 683.445 58.1172 682.711 57.8828C681.977 57.6484 681.359 57.3672 680.859 57.0391C680.281 56.6797 679.781 56.2812 679.359 55.8438V65.6875H675.047V36.3906H678.164L679.125 38.5703C679.547 38.1172 680.039 37.7109 680.602 37.3516C681.117 37.0703 681.766 36.8047 682.547 36.5547C683.328 36.2891 684.266 36.1562 685.359 36.1562ZM685.125 54.1562C685.953 54.1562 686.742 53.9922 687.492 53.6641C688.242 53.3203 688.906 52.8359 689.484 52.2109C690.063 51.5859 690.516 50.8516 690.844 50.0078C691.188 49.1641 691.359 48.2266 691.359 47.1953C691.359 46.1641 691.188 45.2266 690.844 44.3828C690.516 43.5391 690.063 42.8047 689.484 42.1797C688.906 41.5547 688.242 41.0781 687.492 40.75C686.742 40.4062 685.953 40.2344 685.125 40.2344C684.297 40.2344 683.5 40.4062 682.734 40.75C681.984 41.0781 681.32 41.5547 680.742 42.1797C680.18 42.8047 679.727 43.5469 679.383 44.4062C679.055 45.25 678.891 46.1797 678.891 47.1953C678.891 48.2266 679.055 49.1641 679.383 50.0078C679.727 50.8516 680.18 51.5859 680.742 52.2109C681.32 52.8359 681.984 53.3203 682.734 53.6641C683.5 53.9922 684.297 54.1562 685.125 54.1562ZM697.741 36.3906H715.483V40.4688H708.78V58H704.444V40.4688H697.741V36.3906ZM716.802 36.3906H721.372L727.372 52L733.372 36.3906H737.942L728.802 59.4297C728.317 60.6484 727.841 61.6641 727.372 62.4766C726.919 63.3047 726.419 63.9688 725.872 64.4688C725.341 64.9844 724.747 65.3516 724.091 65.5703C723.434 65.8047 722.692 65.9219 721.864 65.9219C721.677 65.9219 721.497 65.9141 721.325 65.8984C721.169 65.8828 721.013 65.8594 720.856 65.8281C720.7 65.7969 720.552 65.75 720.411 65.6875V62.0781C721.63 62.0781 722.552 61.8203 723.177 61.3047C723.802 60.8047 724.239 60.1797 724.489 59.4297L725.216 57.2734L716.802 36.3906ZM749.784 36.1562C751.034 36.1562 752.175 36.3594 753.206 36.7656C754.253 37.1562 755.144 37.6953 755.878 38.3828C756.613 39.0703 757.183 39.8828 757.589 40.8203C757.995 41.7422 758.198 42.75 758.198 43.8438V58H755.081L754.12 55.8438C753.698 56.2969 753.198 56.6953 752.62 57.0391C752.105 57.3516 751.456 57.6328 750.675 57.8828C749.894 58.1172 748.956 58.2344 747.863 58.2344C745.456 58.2344 743.613 57.6406 742.331 56.4531C741.066 55.25 740.433 53.6875 740.433 51.7656C740.433 50.6719 740.636 49.6875 741.042 48.8125C741.464 47.9219 742.175 47.1719 743.175 46.5625C744.191 45.9375 745.558 45.4531 747.277 45.1094C749.011 44.75 751.206 44.5703 753.863 44.5703V43.8438C753.863 42.75 753.519 41.875 752.831 41.2188C752.144 40.5625 751.128 40.2344 749.784 40.2344C748.347 40.2344 747.3 40.4922 746.644 41.0078C745.988 41.5234 745.597 42.1484 745.472 42.8828H741.159C741.284 40.9609 742.089 39.3594 743.573 38.0781C745.058 36.7969 747.128 36.1562 749.784 36.1562ZM748.12 54.3906C749.948 54.3906 751.363 53.9219 752.363 52.9844C753.363 52.0469 753.863 50.9062 753.863 49.5625V48.3906C751.941 48.3906 750.386 48.4844 749.198 48.6719C748.027 48.8438 747.105 49.0859 746.433 49.3984C745.761 49.6953 745.308 50.0703 745.073 50.5234C744.855 50.9609 744.745 51.4531 744.745 52C744.745 52.6094 745.034 53.1641 745.613 53.6641C746.191 54.1484 747.027 54.3906 748.12 54.3906ZM781.572 36.3906V58H777.236V40.4688H770.041L769.314 50.8047C769.158 53.2109 768.47 55.0547 767.252 56.3359C766.048 57.6016 764.416 58.2344 762.353 58.2344C762.166 58.2344 761.994 58.2266 761.838 58.2109C761.681 58.1953 761.517 58.1719 761.345 58.1406C761.189 58.1094 761.048 58.0625 760.923 58V54.3906H761.392C763.595 54.3906 764.798 53.1953 765.002 50.8047L766.197 36.3906H781.572ZM797.023 43.6094C798.117 43.6094 799.117 43.7969 800.023 44.1719C800.945 44.5312 801.734 45.0312 802.391 45.6719C803.047 46.3125 803.555 47.0703 803.914 47.9453C804.289 48.8203 804.477 49.7734 804.477 50.8047C804.477 51.8359 804.289 52.7891 803.914 53.6641C803.555 54.5391 803.047 55.2969 802.391 55.9375C801.734 56.5781 800.945 57.0859 800.023 57.4609C799.117 57.8203 798.117 58 797.023 58H787.438V36.3906H791.75V43.6094H797.023ZM797.023 53.9219C797.852 53.9219 798.578 53.6094 799.203 52.9844C799.844 52.3594 800.164 51.6328 800.164 50.8047C800.164 49.9766 799.852 49.25 799.227 48.625C798.602 48 797.867 47.6875 797.023 47.6875H791.75V53.9219H797.023ZM827.639 36.3906V58H823.327V49.1172H812.991V58H808.678V36.3906H812.991V45.0391H823.327V36.3906H827.639ZM857.247 36.3906V58H852.911V36.3906H857.247ZM842.598 43.6094C843.692 43.6094 844.692 43.7969 845.598 44.1719C846.505 44.5312 847.286 45.0312 847.942 45.6719C848.598 46.3125 849.106 47.0703 849.466 47.9453C849.841 48.8203 850.028 49.7734 850.028 50.8047C850.028 51.8359 849.841 52.7891 849.466 53.6641C849.106 54.5391 848.598 55.2969 847.942 55.9375C847.286 56.5781 846.505 57.0859 845.598 57.4609C844.692 57.8203 843.692 58 842.598 58H833.481V36.3906H837.794V43.6094H842.598ZM842.598 53.9219C843.427 53.9219 844.153 53.6094 844.778 52.9844C845.403 52.3594 845.716 51.6328 845.716 50.8047C845.716 49.9766 845.403 49.25 844.778 48.625C844.153 48 843.427 47.6875 842.598 47.6875H837.794V53.9219H842.598ZM882.073 36.3906V58H877.761V42.8828L867.425 58H863.113V36.3906H867.425V51.5312L877.761 36.3906H882.073ZM872.464 33.2734C870.761 33.2734 869.355 32.75 868.245 31.7031C867.152 30.6406 866.48 29.3281 866.23 27.7656H869.581C869.706 28.5 870.034 29.125 870.566 29.6406C871.097 30.1406 871.73 30.3906 872.464 30.3906C873.198 30.3906 873.831 30.1406 874.363 29.6406C874.894 29.125 875.222 28.5 875.347 27.7656H878.698C878.448 29.3281 877.769 30.6406 876.659 31.7031C875.566 32.75 874.167 33.2734 872.464 33.2734ZM911.523 27.7656H915.836V37.6094C916.227 37.3594 916.656 37.1172 917.125 36.8828C917.547 36.7266 918.031 36.5703 918.578 36.4141C919.125 36.2422 919.734 36.1562 920.406 36.1562C921.656 36.1562 922.859 36.4297 924.016 36.9766C925.188 37.5234 926.211 38.2891 927.086 39.2734C927.977 40.2422 928.68 41.3984 929.195 42.7422C929.727 44.0859 929.992 45.5703 929.992 47.1953C929.992 48.8203 929.727 50.3125 929.195 51.6719C928.68 53.0156 927.977 54.1797 927.086 55.1641C926.211 56.1328 925.188 56.8906 924.016 57.4375C922.859 57.9688 921.656 58.2344 920.406 58.2344C919.734 58.2344 919.125 58.1641 918.578 58.0234C918.031 57.8828 917.547 57.7188 917.125 57.5312C916.641 57.3438 916.211 57.1016 915.836 56.8047V65.6875H911.523V56.8047C911.133 57.0859 910.703 57.3281 910.234 57.5312C909.812 57.7188 909.32 57.8828 908.758 58.0234C908.195 58.1641 907.594 58.2344 906.953 58.2344C905.703 58.2344 904.492 57.9688 903.32 57.4375C902.164 56.8906 901.141 56.1328 900.25 55.1641C899.375 54.1797 898.672 53.0156 898.141 51.6719C897.625 50.3281 897.367 48.8359 897.367 47.1953C897.367 45.5703 897.625 44.0859 898.141 42.7422C898.672 41.3984 899.375 40.2422 900.25 39.2734C901.141 38.2891 902.164 37.5234 903.32 36.9766C904.492 36.4297 905.703 36.1562 906.953 36.1562C907.594 36.1562 908.195 36.2422 908.758 36.4141C909.32 36.5703 909.812 36.7266 910.234 36.8828C910.719 37.1016 911.148 37.3438 911.523 37.6094V27.7656ZM911.523 42.1562C911.164 41.7969 910.781 41.4766 910.375 41.1953C910.016 40.9453 909.586 40.7266 909.086 40.5391C908.602 40.3359 908.055 40.2344 907.445 40.2344C906.68 40.2344 905.938 40.3984 905.219 40.7266C904.516 41.0391 903.898 41.5 903.367 42.1094C902.852 42.7188 902.438 43.4531 902.125 44.3125C901.828 45.1562 901.68 46.1172 901.68 47.1953C901.68 48.2891 901.828 49.2656 902.125 50.125C902.438 50.9844 902.852 51.7109 903.367 52.3047C903.898 52.8984 904.516 53.3594 905.219 53.6875C905.938 54 906.68 54.1562 907.445 54.1562C908.055 54.1562 908.602 54.0625 909.086 53.875C909.586 53.6875 910.016 53.4609 910.375 53.1953C910.797 52.9141 911.18 52.5938 911.523 52.2344V42.1562ZM915.836 52.2344C916.195 52.5938 916.578 52.9141 916.984 53.1953C917.344 53.4453 917.766 53.6719 918.25 53.875C918.75 54.0625 919.305 54.1562 919.914 54.1562C920.68 54.1562 921.414 54 922.117 53.6875C922.836 53.3594 923.453 52.8984 923.969 52.3047C924.5 51.7109 924.914 50.9844 925.211 50.125C925.523 49.2656 925.68 48.2891 925.68 47.1953C925.68 46.1016 925.523 45.1328 925.211 44.2891C924.914 43.4453 924.5 42.7188 923.969 42.1094C923.453 41.5 922.836 41.0391 922.117 40.7266C921.414 40.3984 920.68 40.2344 919.914 40.2344C919.305 40.2344 918.75 40.3359 918.25 40.5391C917.766 40.7266 917.344 40.9453 916.984 41.1953C916.562 41.4766 916.18 41.7969 915.836 42.1562V52.2344ZM949.78 47.1953C949.78 46.1641 949.608 45.2266 949.264 44.3828C948.936 43.5391 948.498 42.8047 947.952 42.1797C947.405 41.5547 946.764 41.0781 946.03 40.75C945.295 40.4062 944.545 40.2344 943.78 40.2344C943.014 40.2344 942.264 40.4062 941.53 40.75C940.795 41.0781 940.155 41.5547 939.608 42.1797C939.061 42.8047 938.616 43.5469 938.272 44.4062C937.944 45.25 937.78 46.1797 937.78 47.1953C937.78 48.2266 937.944 49.1641 938.272 50.0078C938.616 50.8516 939.061 51.5859 939.608 52.2109C940.155 52.8359 940.795 53.3203 941.53 53.6641C942.264 53.9922 943.014 54.1562 943.78 54.1562C944.545 54.1562 945.295 53.9922 946.03 53.6641C946.764 53.3203 947.405 52.8359 947.952 52.2109C948.498 51.5859 948.936 50.8516 949.264 50.0078C949.608 49.1641 949.78 48.2266 949.78 47.1953ZM954.092 47.1953C954.092 48.8203 953.827 50.3125 953.295 51.6719C952.78 53.0156 952.045 54.1797 951.092 55.1641C950.155 56.1328 949.061 56.8906 947.811 57.4375C946.561 57.9688 945.217 58.2344 943.78 58.2344C942.342 58.2344 940.998 57.9688 939.748 57.4375C938.498 56.8906 937.397 56.1328 936.444 55.1641C935.506 54.1797 934.772 53.0156 934.241 51.6719C933.725 50.3281 933.467 48.8359 933.467 47.1953C933.467 45.5703 933.725 44.0859 934.241 42.7422C934.772 41.3984 935.506 40.2422 936.444 39.2734C937.397 38.2891 938.498 37.5234 939.748 36.9766C940.998 36.4297 942.342 36.1562 943.78 36.1562C945.217 36.1562 946.561 36.4297 947.811 36.9766C949.061 37.5234 950.155 38.2891 951.092 39.2734C952.045 40.2422 952.78 41.3984 953.295 42.7422C953.827 44.0859 954.092 45.5703 954.092 47.1953ZM977.723 36.3906V58H973.411V49.1172H963.075V58H958.763V36.3906H963.075V45.0391H973.411V36.3906H977.723Z" fill="#3F8AE0"/>
<rect x="1031" width="201" height="96" rx="20" fill="#222222"/>
<path d="M1084.47 53.9219V63.0391H1080.39V58H1065.51V63.0391H1061.43V53.9219H1062.86C1063.31 53.6094 1063.72 53.2578 1064.08 52.8672C1064.39 52.5078 1064.69 52.0859 1064.97 51.6016C1065.27 51.1016 1065.45 50.5156 1065.51 49.8438L1066.96 36.3906H1081.59V53.9219H1084.47ZM1069.82 49.8438C1069.76 50.5156 1069.63 51.1016 1069.45 51.6016C1069.26 52.0859 1069.06 52.5078 1068.86 52.8672C1068.64 53.2578 1068.41 53.6094 1068.16 53.9219H1077.27V40.4688H1070.78L1069.82 49.8438ZM1107.37 36.3906V58H1103.06V42.8828L1092.73 58H1088.41V36.3906H1092.73V51.5312L1103.06 36.3906H1107.37ZM1124.93 46.9609C1125.48 47.2422 1125.96 47.6094 1126.36 48.0625C1126.72 48.4531 1127.06 48.9375 1127.37 49.5156C1127.7 50.0781 1127.86 50.75 1127.86 51.5312C1127.86 53.4531 1127.17 55.0547 1125.78 56.3359C1124.4 57.6016 1122.46 58.2344 1119.94 58.2344C1117.29 58.2344 1115.29 57.6094 1113.97 56.3594C1112.64 55.1094 1111.9 53.3359 1111.76 51.0391H1116.1C1116.22 51.9922 1116.59 52.75 1117.2 53.3125C1117.81 53.875 1118.72 54.1562 1119.94 54.1562C1121.29 54.1562 1122.25 53.9062 1122.85 53.4062C1123.46 52.8906 1123.76 52.2656 1123.76 51.5312C1123.76 50.7969 1123.46 50.1719 1122.85 49.6562C1122.25 49.1406 1121.29 48.8828 1119.94 48.8828H1118.02V45.0391H1119.94C1121.16 45.0391 1122.02 44.7969 1122.52 44.3125C1123.04 43.8125 1123.29 43.2578 1123.29 42.6484C1123.29 42.0391 1123.04 41.4844 1122.52 40.9844C1122 40.4844 1121.15 40.2344 1119.94 40.2344C1118.85 40.2344 1118 40.4922 1117.41 41.0078C1116.82 41.5234 1116.46 42.1484 1116.33 42.8828H1112.02C1112.15 40.8359 1112.86 39.2031 1114.18 37.9844C1115.49 36.7656 1117.41 36.1562 1119.94 36.1562C1121.1 36.1562 1122.13 36.3281 1123.04 36.6719C1123.94 37 1124.72 37.4609 1125.36 38.0547C1126 38.6484 1126.49 39.3359 1126.83 40.1172C1127.19 40.8984 1127.37 41.7422 1127.37 42.6484C1127.37 43.3828 1127.24 44.0234 1126.97 44.5703C1126.72 45.1016 1126.44 45.5469 1126.13 45.9062C1125.79 46.3281 1125.39 46.6797 1124.93 46.9609ZM1140.93 36.1562C1142.18 36.1562 1143.32 36.3594 1144.35 36.7656C1145.39 37.1562 1146.28 37.6953 1147.02 38.3828C1147.75 39.0703 1148.32 39.8828 1148.73 40.8203C1149.14 41.7422 1149.34 42.75 1149.34 43.8438V58H1146.22L1145.26 55.8438C1144.84 56.2969 1144.34 56.6953 1143.76 57.0391C1143.25 57.3516 1142.6 57.6328 1141.82 57.8828C1141.03 58.1172 1140.1 58.2344 1139 58.2344C1136.6 58.2344 1134.75 57.6406 1133.47 56.4531C1132.21 55.25 1131.57 53.6875 1131.57 51.7656C1131.57 50.6719 1131.78 49.6875 1132.18 48.8125C1132.6 47.9219 1133.32 47.1719 1134.32 46.5625C1135.33 45.9375 1136.7 45.4531 1138.42 45.1094C1140.15 44.75 1142.35 44.5703 1145 44.5703V43.8438C1145 42.75 1144.66 41.875 1143.97 41.2188C1143.28 40.5625 1142.27 40.2344 1140.93 40.2344C1139.49 40.2344 1138.44 40.4922 1137.78 41.0078C1137.13 41.5234 1136.74 42.1484 1136.61 42.8828H1132.3C1132.43 40.9609 1133.23 39.3594 1134.71 38.0781C1136.2 36.7969 1138.27 36.1562 1140.93 36.1562ZM1139.26 54.3906C1141.09 54.3906 1142.5 53.9219 1143.5 52.9844C1144.5 52.0469 1145 50.9062 1145 49.5625V48.3906C1143.08 48.3906 1141.53 48.4844 1140.34 48.6719C1139.17 48.8438 1138.25 49.0859 1137.57 49.3984C1136.9 49.6953 1136.45 50.0703 1136.21 50.5234C1136 50.9609 1135.89 51.4531 1135.89 52C1135.89 52.6094 1136.18 53.1641 1136.75 53.6641C1137.33 54.1484 1138.17 54.3906 1139.26 54.3906ZM1173.91 36.3906V58H1169.6V42.8828L1159.26 58H1154.95V36.3906H1159.26V51.5312L1169.6 36.3906H1173.91ZM1164.3 33.2734C1162.6 33.2734 1161.19 32.75 1160.08 31.7031C1158.99 30.6406 1158.31 29.3281 1158.06 27.7656H1161.42C1161.54 28.5 1161.87 29.125 1162.4 29.6406C1162.93 30.1406 1163.56 30.3906 1164.3 30.3906C1165.03 30.3906 1165.67 30.1406 1166.2 29.6406C1166.73 29.125 1167.06 28.5 1167.18 27.7656H1170.53C1170.28 29.3281 1169.6 30.6406 1168.49 31.7031C1167.4 32.75 1166 33.2734 1164.3 33.2734ZM1198.71 36.3906V58H1194.4V49.1172H1184.06V58H1179.75V36.3906H1184.06V45.0391H1194.4V36.3906H1198.71Z" fill="white"/>
<rect x="1252" width="330" height="96" rx="20" fill="#F2F3F5"/>
<path d="M1303.86 36.3906V58H1299.55V40.4688H1289.21V58H1284.9V36.3906H1303.86ZM1320.01 36.1562C1321.45 36.1562 1322.8 36.4297 1324.05 36.9766C1325.3 37.5234 1326.39 38.2891 1327.33 39.2734C1328.28 40.2422 1329.02 41.3984 1329.55 42.7422C1330.08 44.0859 1330.35 45.5703 1330.35 47.1953C1330.35 48.8203 1330.08 50.3125 1329.55 51.6719C1329.02 53.0156 1328.28 54.1797 1327.33 55.1641C1326.39 56.1328 1325.3 56.8906 1324.05 57.4375C1322.8 57.9688 1321.45 58.2344 1320.01 58.2344C1318.98 58.2344 1318.1 58.1172 1317.37 57.8828C1316.63 57.6484 1316.01 57.3672 1315.51 57.0391C1314.94 56.6797 1314.44 56.2812 1314.01 55.8438V65.6875H1309.7V36.3906H1312.82L1313.78 38.5703C1314.2 38.1172 1314.69 37.7109 1315.26 37.3516C1315.77 37.0703 1316.42 36.8047 1317.2 36.5547C1317.98 36.2891 1318.92 36.1562 1320.01 36.1562ZM1319.78 54.1562C1320.61 54.1562 1321.4 53.9922 1322.15 53.6641C1322.9 53.3203 1323.56 52.8359 1324.14 52.2109C1324.72 51.5859 1325.17 50.8516 1325.5 50.0078C1325.84 49.1641 1326.01 48.2266 1326.01 47.1953C1326.01 46.1641 1325.84 45.2266 1325.5 44.3828C1325.17 43.5391 1324.72 42.8047 1324.14 42.1797C1323.56 41.5547 1322.9 41.0781 1322.15 40.75C1321.4 40.4062 1320.61 40.2344 1319.78 40.2344C1318.95 40.2344 1318.15 40.4062 1317.39 40.75C1316.64 41.0781 1315.98 41.5547 1315.4 42.1797C1314.83 42.8047 1314.38 43.5469 1314.04 44.4062C1313.71 45.25 1313.55 46.1797 1313.55 47.1953C1313.55 48.2266 1313.71 49.1641 1314.04 50.0078C1314.38 50.8516 1314.83 51.5859 1315.4 52.2109C1315.98 52.8359 1316.64 53.3203 1317.39 53.6641C1318.15 53.9922 1318.95 54.1562 1319.78 54.1562ZM1351.57 36.3906V58H1347.25V50.8047H1342.94L1338.37 58H1333.57L1338.61 50.0781C1337.78 49.7656 1337.06 49.3203 1336.45 48.7422C1335.9 48.2266 1335.4 47.5625 1334.95 46.75C1334.51 45.9375 1334.29 44.8906 1334.29 43.6094C1334.29 42.5781 1334.47 41.625 1334.83 40.75C1335.21 39.8594 1335.72 39.1016 1336.38 38.4766C1337.04 37.8359 1337.82 37.3281 1338.72 36.9531C1339.65 36.5781 1340.65 36.3906 1341.75 36.3906H1351.57ZM1341.75 40.4688C1340.92 40.4688 1340.18 40.7812 1339.54 41.4062C1338.92 42.0312 1338.61 42.7656 1338.61 43.6094C1338.61 44.4375 1338.92 45.1641 1339.54 45.7891C1340.17 46.4141 1340.9 46.7266 1341.75 46.7266H1347.25V40.4688H1341.75ZM1367.51 58L1361.75 46V58H1357.43V36.3906H1361.28L1368.94 52.2344L1376.63 36.3906H1380.47V58H1376.16V46L1370.39 58H1367.51ZM1401.43 47.1953C1401.43 46.1641 1401.26 45.2266 1400.92 44.3828C1400.59 43.5391 1400.15 42.8047 1399.6 42.1797C1399.06 41.5547 1398.42 41.0781 1397.68 40.75C1396.95 40.4062 1396.2 40.2344 1395.43 40.2344C1394.67 40.2344 1393.92 40.4062 1393.18 40.75C1392.45 41.0781 1391.81 41.5547 1391.26 42.1797C1390.71 42.8047 1390.27 43.5469 1389.92 44.4062C1389.6 45.25 1389.43 46.1797 1389.43 47.1953C1389.43 48.2266 1389.6 49.1641 1389.92 50.0078C1390.27 50.8516 1390.71 51.5859 1391.26 52.2109C1391.81 52.8359 1392.45 53.3203 1393.18 53.6641C1393.92 53.9922 1394.67 54.1562 1395.43 54.1562C1396.2 54.1562 1396.95 53.9922 1397.68 53.6641C1398.42 53.3203 1399.06 52.8359 1399.6 52.2109C1400.15 51.5859 1400.59 50.8516 1400.92 50.0078C1401.26 49.1641 1401.43 48.2266 1401.43 47.1953ZM1405.74 47.1953C1405.74 48.8203 1405.48 50.3125 1404.95 51.6719C1404.43 53.0156 1403.7 54.1797 1402.74 55.1641C1401.81 56.1328 1400.71 56.8906 1399.46 57.4375C1398.21 57.9688 1396.87 58.2344 1395.43 58.2344C1393.99 58.2344 1392.65 57.9688 1391.4 57.4375C1390.15 56.8906 1389.05 56.1328 1388.1 55.1641C1387.16 54.1797 1386.42 53.0156 1385.89 51.6719C1385.38 50.3281 1385.12 48.8359 1385.12 47.1953C1385.12 45.5703 1385.38 44.0859 1385.89 42.7422C1386.42 41.3984 1387.16 40.2422 1388.1 39.2734C1389.05 38.2891 1390.15 37.5234 1391.4 36.9766C1392.65 36.4297 1393.99 36.1562 1395.43 36.1562C1396.87 36.1562 1398.21 36.4297 1399.46 36.9766C1400.71 37.5234 1401.81 38.2891 1402.74 39.2734C1403.7 40.2422 1404.43 41.3984 1404.95 42.7422C1405.48 44.0859 1405.74 45.5703 1405.74 47.1953ZM1429.38 36.3906V58H1425.06V42.8828L1414.73 58H1410.41V36.3906H1414.73V51.5312L1425.06 36.3906H1429.38ZM1419.77 33.2734C1418.06 33.2734 1416.66 32.75 1415.55 31.7031C1414.45 30.6406 1413.78 29.3281 1413.53 27.7656H1416.88C1417.01 28.5 1417.34 29.125 1417.87 29.6406C1418.4 30.1406 1419.03 30.3906 1419.77 30.3906C1420.5 30.3906 1421.13 30.1406 1421.66 29.6406C1422.2 29.125 1422.52 28.5 1422.65 27.7656H1426C1425.75 29.3281 1425.07 30.6406 1423.96 31.7031C1422.87 32.75 1421.47 33.2734 1419.77 33.2734ZM1453.79 36.1562C1455.22 36.1562 1456.57 36.4297 1457.82 36.9766C1459.07 37.5234 1460.16 38.2891 1461.1 39.2734C1462.05 40.2422 1462.79 41.3984 1463.3 42.7422C1463.83 44.0859 1464.1 45.5703 1464.1 47.1953C1464.1 48.8203 1463.83 50.3125 1463.3 51.6719C1462.79 53.0156 1462.05 54.1797 1461.1 55.1641C1460.16 56.1328 1459.07 56.8906 1457.82 57.4375C1456.57 57.9688 1455.22 58.2344 1453.79 58.2344C1452.54 58.2344 1451.37 58.0312 1450.29 57.625C1449.23 57.2031 1448.29 56.6406 1447.46 55.9375C1446.65 55.2344 1445.98 54.4219 1445.47 53.5C1444.97 52.5625 1444.61 51.5859 1444.41 50.5703H1448.98C1449.23 51.5234 1449.75 52.3594 1450.55 53.0781C1451.36 53.7969 1452.44 54.1562 1453.79 54.1562C1454.49 54.1562 1455.17 54.0234 1455.82 53.7578C1456.48 53.4766 1457.06 53.1094 1457.56 52.6562C1458.07 52.1875 1458.5 51.6484 1458.82 51.0391C1459.17 50.4297 1459.41 49.7891 1459.55 49.1172H1452.33V45.5312H1459.55C1459.43 44.8281 1459.19 44.1562 1458.85 43.5156C1458.5 42.875 1458.07 42.3125 1457.56 41.8281C1457.06 41.3438 1456.48 40.9609 1455.82 40.6797C1455.17 40.3828 1454.49 40.2344 1453.79 40.2344C1452.44 40.2344 1451.36 40.5938 1450.55 41.3125C1449.75 42.0312 1449.23 42.875 1448.98 43.8438H1444.41C1444.6 42.8125 1444.95 41.8359 1445.47 40.9141C1445.98 39.9922 1446.65 39.1797 1447.46 38.4766C1448.29 37.7578 1449.23 37.1953 1450.29 36.7891C1451.37 36.3672 1452.54 36.1562 1453.79 36.1562ZM1481.71 27.7656H1486.02V37.6094C1486.41 37.3594 1486.84 37.1172 1487.31 36.8828C1487.73 36.7266 1488.21 36.5703 1488.76 36.4141C1489.31 36.2422 1489.92 36.1562 1490.59 36.1562C1491.84 36.1562 1493.04 36.4297 1494.2 36.9766C1495.37 37.5234 1496.39 38.2891 1497.27 39.2734C1498.16 40.2422 1498.86 41.3984 1499.38 42.7422C1499.91 44.0859 1500.18 45.5703 1500.18 47.1953C1500.18 48.8203 1499.91 50.3125 1499.38 51.6719C1498.86 53.0156 1498.16 54.1797 1497.27 55.1641C1496.39 56.1328 1495.37 56.8906 1494.2 57.4375C1493.04 57.9688 1491.84 58.2344 1490.59 58.2344C1489.92 58.2344 1489.31 58.1641 1488.76 58.0234C1488.21 57.8828 1487.73 57.7188 1487.31 57.5312C1486.82 57.3438 1486.39 57.1016 1486.02 56.8047V65.6875H1481.71V56.8047C1481.32 57.0859 1480.89 57.3281 1480.42 57.5312C1480 57.7188 1479.5 57.8828 1478.94 58.0234C1478.38 58.1641 1477.78 58.2344 1477.14 58.2344C1475.89 58.2344 1474.68 57.9688 1473.5 57.4375C1472.35 56.8906 1471.32 56.1328 1470.43 55.1641C1469.56 54.1797 1468.85 53.0156 1468.32 51.6719C1467.81 50.3281 1467.55 48.8359 1467.55 47.1953C1467.55 45.5703 1467.81 44.0859 1468.32 42.7422C1468.85 41.3984 1469.56 40.2422 1470.43 39.2734C1471.32 38.2891 1472.35 37.5234 1473.5 36.9766C1474.68 36.4297 1475.89 36.1562 1477.14 36.1562C1477.78 36.1562 1478.38 36.2422 1478.94 36.4141C1479.5 36.5703 1480 36.7266 1480.42 36.8828C1480.9 37.1016 1481.33 37.3438 1481.71 37.6094V27.7656ZM1481.71 42.1562C1481.35 41.7969 1480.96 41.4766 1480.56 41.1953C1480.2 40.9453 1479.77 40.7266 1479.27 40.5391C1478.78 40.3359 1478.24 40.2344 1477.63 40.2344C1476.86 40.2344 1476.12 40.3984 1475.4 40.7266C1474.7 41.0391 1474.08 41.5 1473.55 42.1094C1473.03 42.7188 1472.62 43.4531 1472.31 44.3125C1472.01 45.1562 1471.86 46.1172 1471.86 47.1953C1471.86 48.2891 1472.01 49.2656 1472.31 50.125C1472.62 50.9844 1473.03 51.7109 1473.55 52.3047C1474.08 52.8984 1474.7 53.3594 1475.4 53.6875C1476.12 54 1476.86 54.1562 1477.63 54.1562C1478.24 54.1562 1478.78 54.0625 1479.27 53.875C1479.77 53.6875 1480.2 53.4609 1480.56 53.1953C1480.98 52.9141 1481.36 52.5938 1481.71 52.2344V42.1562ZM1486.02 52.2344C1486.38 52.5938 1486.76 52.9141 1487.17 53.1953C1487.53 53.4453 1487.95 53.6719 1488.43 53.875C1488.93 54.0625 1489.49 54.1562 1490.1 54.1562C1490.86 54.1562 1491.6 54 1492.3 53.6875C1493.02 53.3594 1493.64 52.8984 1494.15 52.3047C1494.68 51.7109 1495.1 50.9844 1495.39 50.125C1495.71 49.2656 1495.86 48.2891 1495.86 47.1953C1495.86 46.1016 1495.71 45.1328 1495.39 44.2891C1495.1 43.4453 1494.68 42.7188 1494.15 42.1094C1493.64 41.5 1493.02 41.0391 1492.3 40.7266C1491.6 40.3984 1490.86 40.2344 1490.1 40.2344C1489.49 40.2344 1488.93 40.3359 1488.43 40.5391C1487.95 40.7266 1487.53 40.9453 1487.17 41.1953C1486.75 41.4766 1486.36 41.7969 1486.02 42.1562V52.2344ZM1523.81 36.3906V58H1519.49V42.8828L1509.16 58H1504.85V36.3906H1509.16V51.5312L1519.49 36.3906H1523.81ZM1539.96 36.1562C1541.4 36.1562 1542.74 36.4297 1543.99 36.9766C1545.24 37.5234 1546.34 38.2891 1547.27 39.2734C1548.23 40.2422 1548.97 41.3984 1549.5 42.7422C1550.03 44.0859 1550.3 45.5703 1550.3 47.1953C1550.3 48.8203 1550.03 50.3125 1549.5 51.6719C1548.97 53.0156 1548.23 54.1797 1547.27 55.1641C1546.34 56.1328 1545.24 56.8906 1543.99 57.4375C1542.74 57.9688 1541.4 58.2344 1539.96 58.2344C1538.93 58.2344 1538.05 58.1172 1537.31 57.8828C1536.58 57.6484 1535.96 57.3672 1535.46 57.0391C1534.88 56.6797 1534.38 56.2812 1533.96 55.8438V65.6875H1529.65V36.3906H1532.77L1533.73 38.5703C1534.15 38.1172 1534.64 37.7109 1535.2 37.3516C1535.72 37.0703 1536.37 36.8047 1537.15 36.5547C1537.93 36.2891 1538.87 36.1562 1539.96 36.1562ZM1539.73 54.1562C1540.55 54.1562 1541.34 53.9922 1542.09 53.6641C1542.84 53.3203 1543.51 52.8359 1544.09 52.2109C1544.66 51.5859 1545.12 50.8516 1545.45 50.0078C1545.79 49.1641 1545.96 48.2266 1545.96 47.1953C1545.96 46.1641 1545.79 45.2266 1545.45 44.3828C1545.12 43.5391 1544.66 42.8047 1544.09 42.1797C1543.51 41.5547 1542.84 41.0781 1542.09 40.75C1541.34 40.4062 1540.55 40.2344 1539.73 40.2344C1538.9 40.2344 1538.1 40.4062 1537.34 40.75C1536.59 41.0781 1535.92 41.5547 1535.34 42.1797C1534.78 42.8047 1534.33 43.5469 1533.98 44.4062C1533.66 45.25 1533.49 46.1797 1533.49 47.1953C1533.49 48.2266 1533.66 49.1641 1533.98 50.0078C1534.33 50.8516 1534.78 51.5859 1535.34 52.2109C1535.92 52.8359 1536.59 53.3203 1537.34 53.6641C1538.1 53.9922 1538.9 54.1562 1539.73 54.1562Z" fill="black"/>
<rect x="1602" width="256" height="96" rx="20" fill="#3F8AE0"/>
<path d="M1649.07 46.7266C1649.65 47.0078 1650.16 47.3906 1650.62 47.875C1651.01 48.2969 1651.37 48.8281 1651.69 49.4688C1652.02 50.0938 1652.19 50.8594 1652.19 51.7656C1652.19 52.6562 1652.02 53.4844 1651.69 54.25C1651.38 55.0156 1650.94 55.6719 1650.38 56.2188C1649.83 56.7656 1649.15 57.2031 1648.34 57.5312C1647.55 57.8438 1646.67 58 1645.72 58H1634.91V36.3906H1644.99C1645.94 36.3906 1646.82 36.5469 1647.62 36.8594C1648.43 37.1562 1649.11 37.5781 1649.65 38.125C1650.22 38.6719 1650.65 39.3125 1650.97 40.0469C1651.3 40.7812 1651.46 41.5625 1651.46 42.3906C1651.46 43.1875 1651.33 43.8516 1651.08 44.3828C1650.83 44.9141 1650.56 45.3594 1650.26 45.7188C1649.92 46.1094 1649.52 46.4453 1649.07 46.7266ZM1639.22 40V45.2734H1644.5C1645.23 45.2734 1645.86 45.0234 1646.37 44.5234C1646.89 44.0078 1647.15 43.3828 1647.15 42.6484C1647.15 41.9141 1646.89 41.2891 1646.37 40.7734C1645.87 40.2578 1645.25 40 1644.5 40H1639.22ZM1645.22 54.3906C1645.96 54.3906 1646.58 54.125 1647.1 53.5938C1647.62 53.0469 1647.87 52.3594 1647.87 51.5312C1647.87 50.7969 1647.62 50.1719 1647.1 49.6562C1646.58 49.1406 1645.96 48.8828 1645.22 48.8828H1639.22V54.3906H1645.22ZM1669.82 58L1661.4 47.6875V58H1657.09V36.3906H1661.4V45.7656L1668.86 36.3906H1673.9L1665.5 46.4688L1675.09 58H1669.82ZM1692.23 47.1953C1692.23 46.1641 1692.06 45.2266 1691.71 44.3828C1691.39 43.5391 1690.95 42.8047 1690.4 42.1797C1689.85 41.5547 1689.21 41.0781 1688.48 40.75C1687.75 40.4062 1687 40.2344 1686.23 40.2344C1685.46 40.2344 1684.71 40.4062 1683.98 40.75C1683.25 41.0781 1682.6 41.5547 1682.06 42.1797C1681.51 42.8047 1681.07 43.5469 1680.72 44.4062C1680.39 45.25 1680.23 46.1797 1680.23 47.1953C1680.23 48.2266 1680.39 49.1641 1680.72 50.0078C1681.07 50.8516 1681.51 51.5859 1682.06 52.2109C1682.6 52.8359 1683.25 53.3203 1683.98 53.6641C1684.71 53.9922 1685.46 54.1562 1686.23 54.1562C1687 54.1562 1687.75 53.9922 1688.48 53.6641C1689.21 53.3203 1689.85 52.8359 1690.4 52.2109C1690.95 51.5859 1691.39 50.8516 1691.71 50.0078C1692.06 49.1641 1692.23 48.2266 1692.23 47.1953ZM1696.54 47.1953C1696.54 48.8203 1696.28 50.3125 1695.75 51.6719C1695.23 53.0156 1694.5 54.1797 1693.54 55.1641C1692.6 56.1328 1691.51 56.8906 1690.26 57.4375C1689.01 57.9688 1687.67 58.2344 1686.23 58.2344C1684.79 58.2344 1683.45 57.9688 1682.2 57.4375C1680.95 56.8906 1679.85 56.1328 1678.89 55.1641C1677.96 54.1797 1677.22 53.0156 1676.69 51.6719C1676.17 50.3281 1675.92 48.8359 1675.92 47.1953C1675.92 45.5703 1676.17 44.0859 1676.69 42.7422C1677.22 41.3984 1677.96 40.2422 1678.89 39.2734C1679.85 38.2891 1680.95 37.5234 1682.2 36.9766C1683.45 36.4297 1684.79 36.1562 1686.23 36.1562C1687.67 36.1562 1689.01 36.4297 1690.26 36.9766C1691.51 37.5234 1692.6 38.2891 1693.54 39.2734C1694.5 40.2422 1695.23 41.3984 1695.75 42.7422C1696.28 44.0859 1696.54 45.5703 1696.54 47.1953ZM1720.17 36.3906V58H1715.86V49.1172H1705.53V58H1701.21V36.3906H1705.53V45.0391H1715.86V36.3906H1720.17ZM1723.86 36.3906H1741.6V40.4688H1734.9V58H1730.56V40.4688H1723.86V36.3906ZM1753.49 36.1562C1754.74 36.1562 1755.88 36.3594 1756.91 36.7656C1757.96 37.1562 1758.85 37.6953 1759.58 38.3828C1760.32 39.0703 1760.89 39.8828 1761.3 40.8203C1761.7 41.7422 1761.9 42.75 1761.9 43.8438V58H1758.79L1757.83 55.8438C1757.4 56.2969 1756.9 56.6953 1756.33 57.0391C1755.81 57.3516 1755.16 57.6328 1754.38 57.8828C1753.6 58.1172 1752.66 58.2344 1751.57 58.2344C1749.16 58.2344 1747.32 57.6406 1746.04 56.4531C1744.77 55.25 1744.14 53.6875 1744.14 51.7656C1744.14 50.6719 1744.34 49.6875 1744.75 48.8125C1745.17 47.9219 1745.88 47.1719 1746.88 46.5625C1747.9 45.9375 1749.26 45.4531 1750.98 45.1094C1752.72 44.75 1754.91 44.5703 1757.57 44.5703V43.8438C1757.57 42.75 1757.22 41.875 1756.54 41.2188C1755.85 40.5625 1754.83 40.2344 1753.49 40.2344C1752.05 40.2344 1751.01 40.4922 1750.35 41.0078C1749.69 41.5234 1749.3 42.1484 1749.18 42.8828H1744.87C1744.99 40.9609 1745.8 39.3594 1747.28 38.0781C1748.76 36.7969 1750.83 36.1562 1753.49 36.1562ZM1751.83 54.3906C1753.65 54.3906 1755.07 53.9219 1756.07 52.9844C1757.07 52.0469 1757.57 50.9062 1757.57 49.5625V48.3906C1755.65 48.3906 1754.09 48.4844 1752.9 48.6719C1751.73 48.8438 1750.81 49.0859 1750.14 49.3984C1749.47 49.6953 1749.01 50.0703 1748.78 50.5234C1748.56 50.9609 1748.45 51.4531 1748.45 52C1748.45 52.6094 1748.74 53.1641 1749.32 53.6641C1749.9 54.1484 1750.73 54.3906 1751.83 54.3906ZM1780.47 58L1772.06 47.6875V58H1767.75V36.3906H1772.06V45.7656L1779.51 36.3906H1784.55L1776.16 46.4688L1785.75 58H1780.47ZM1786.08 36.3906H1803.82V40.4688H1797.12V58H1792.78V40.4688H1786.08V36.3906ZM1825.81 51.7656C1825.45 52.6562 1825 53.4922 1824.45 54.2734C1823.91 55.0547 1823.25 55.7422 1822.49 56.3359C1821.72 56.9297 1820.83 57.3984 1819.81 57.7422C1818.81 58.0703 1817.69 58.2344 1816.44 58.2344C1815 58.2344 1813.66 57.9688 1812.41 57.4375C1811.16 56.8906 1810.06 56.1328 1809.13 55.1641C1808.19 54.1797 1807.45 53.0156 1806.92 51.6719C1806.39 50.3281 1806.13 48.8359 1806.13 47.1953C1806.13 45.5703 1806.39 44.0859 1806.92 42.7422C1807.45 41.3984 1808.17 40.2422 1809.08 39.2734C1809.99 38.2891 1811.06 37.5234 1812.29 36.9766C1813.52 36.4297 1814.83 36.1562 1816.2 36.1562C1817.58 36.1562 1818.88 36.4297 1820.12 36.9766C1821.35 37.5234 1822.42 38.2891 1823.33 39.2734C1824.24 40.2422 1824.95 41.3984 1825.49 42.7422C1826.02 44.0859 1826.28 45.5703 1826.28 47.1953C1826.28 47.4453 1826.27 47.6953 1826.24 47.9453C1826.2 48.1797 1826.17 48.3828 1826.14 48.5547C1826.11 48.7734 1826.08 48.9609 1826.05 49.1172H1810.67C1810.74 49.7891 1810.93 50.4297 1811.26 51.0391C1811.59 51.6484 1811.99 52.1875 1812.48 52.6562C1812.98 53.1094 1813.57 53.4766 1814.26 53.7578C1814.95 54.0234 1815.67 54.1562 1816.44 54.1562C1817.75 54.1562 1818.79 53.875 1819.56 53.3125C1820.34 52.75 1820.9 52.2344 1821.24 51.7656H1825.81ZM1816.2 40.2344C1814.77 40.2344 1813.55 40.7266 1812.55 41.7109C1811.56 42.6797 1810.94 43.9531 1810.67 45.5312H1822.2C1821.95 43.9688 1821.31 42.6953 1820.28 41.7109C1819.27 40.7266 1817.91 40.2344 1816.2 40.2344Z" fill="white"/>
<rect x="1878" width="397" height="96" rx="20" fill="#F2F3F5"/>
<path d="M1930.32 36.3906V58H1926.01V40.4688H1915.67V58H1911.36V36.3906H1930.32ZM1951.28 47.1953C1951.28 46.1641 1951.11 45.2266 1950.76 44.3828C1950.44 43.5391 1950 42.8047 1949.45 42.1797C1948.9 41.5547 1948.26 41.0781 1947.53 40.75C1946.8 40.4062 1946.05 40.2344 1945.28 40.2344C1944.51 40.2344 1943.76 40.4062 1943.03 40.75C1942.3 41.0781 1941.65 41.5547 1941.11 42.1797C1940.56 42.8047 1940.12 43.5469 1939.77 44.4062C1939.44 45.25 1939.28 46.1797 1939.28 47.1953C1939.28 48.2266 1939.44 49.1641 1939.77 50.0078C1940.12 50.8516 1940.56 51.5859 1941.11 52.2109C1941.65 52.8359 1942.3 53.3203 1943.03 53.6641C1943.76 53.9922 1944.51 54.1562 1945.28 54.1562C1946.05 54.1562 1946.8 53.9922 1947.53 53.6641C1948.26 53.3203 1948.9 52.8359 1949.45 52.2109C1950 51.5859 1950.44 50.8516 1950.76 50.0078C1951.11 49.1641 1951.28 48.2266 1951.28 47.1953ZM1955.59 47.1953C1955.59 48.8203 1955.33 50.3125 1954.8 51.6719C1954.28 53.0156 1953.55 54.1797 1952.59 55.1641C1951.65 56.1328 1950.56 56.8906 1949.31 57.4375C1948.06 57.9688 1946.72 58.2344 1945.28 58.2344C1943.84 58.2344 1942.5 57.9688 1941.25 57.4375C1940 56.8906 1938.9 56.1328 1937.94 55.1641C1937.01 54.1797 1936.27 53.0156 1935.74 51.6719C1935.23 50.3281 1934.97 48.8359 1934.97 47.1953C1934.97 45.5703 1935.23 44.0859 1935.74 42.7422C1936.27 41.3984 1937.01 40.2422 1937.94 39.2734C1938.9 38.2891 1940 37.5234 1941.25 36.9766C1942.5 36.4297 1943.84 36.1562 1945.28 36.1562C1946.72 36.1562 1948.06 36.4297 1949.31 36.9766C1950.56 37.5234 1951.65 38.2891 1952.59 39.2734C1953.55 40.2422 1954.28 41.3984 1954.8 42.7422C1955.33 44.0859 1955.59 45.5703 1955.59 47.1953ZM1978.99 50.0781C1978.74 51.2344 1978.34 52.3125 1977.79 53.3125C1977.25 54.2969 1976.55 55.1562 1975.71 55.8906C1974.88 56.625 1973.93 57.2031 1972.85 57.625C1971.79 58.0312 1970.63 58.2344 1969.38 58.2344C1967.94 58.2344 1966.6 57.9688 1965.35 57.4375C1964.1 56.8906 1963 56.1328 1962.04 55.1641C1961.11 54.1797 1960.37 53.0156 1959.84 51.6719C1959.33 50.3281 1959.07 48.8359 1959.07 47.1953C1959.07 45.5703 1959.33 44.0859 1959.84 42.7422C1960.37 41.3984 1961.11 40.2422 1962.04 39.2734C1963 38.2891 1964.1 37.5234 1965.35 36.9766C1966.6 36.4297 1967.94 36.1562 1969.38 36.1562C1970.63 36.1562 1971.79 36.3672 1972.85 36.7891C1973.93 37.1953 1974.88 37.7734 1975.71 38.5234C1976.55 39.2578 1977.24 40.125 1977.77 41.125C1978.32 42.1094 1978.72 43.1719 1978.99 44.3125H1974.42C1974.06 43.0938 1973.47 42.1094 1972.64 41.3594C1971.81 40.6094 1970.72 40.2344 1969.38 40.2344C1968.61 40.2344 1967.86 40.4062 1967.13 40.75C1966.4 41.0781 1965.75 41.5547 1965.21 42.1797C1964.66 42.8047 1964.22 43.5469 1963.87 44.4062C1963.54 45.25 1963.38 46.1797 1963.38 47.1953C1963.38 48.2266 1963.54 49.1641 1963.87 50.0078C1964.22 50.8516 1964.66 51.5859 1965.21 52.2109C1965.75 52.8359 1966.4 53.3203 1967.13 53.6641C1967.86 53.9922 1968.61 54.1562 1969.38 54.1562C1970.72 54.1562 1971.81 53.7812 1972.64 53.0312C1973.48 52.2812 1974.08 51.2969 1974.42 50.0781H1978.99ZM1981.27 36.3906H1999.01V40.4688H1992.31V58H1987.97V40.4688H1981.27V36.3906ZM2010.9 36.1562C2012.15 36.1562 2013.29 36.3594 2014.32 36.7656C2015.37 37.1562 2016.26 37.6953 2016.99 38.3828C2017.73 39.0703 2018.3 39.8828 2018.7 40.8203C2019.11 41.7422 2019.31 42.75 2019.31 43.8438V58H2016.2L2015.24 55.8438C2014.81 56.2969 2014.31 56.6953 2013.74 57.0391C2013.22 57.3516 2012.57 57.6328 2011.79 57.8828C2011.01 58.1172 2010.07 58.2344 2008.98 58.2344C2006.57 58.2344 2004.73 57.6406 2003.45 56.4531C2002.18 55.25 2001.55 53.6875 2001.55 51.7656C2001.55 50.6719 2001.75 49.6875 2002.16 48.8125C2002.58 47.9219 2003.29 47.1719 2004.29 46.5625C2005.31 45.9375 2006.67 45.4531 2008.39 45.1094C2010.13 44.75 2012.32 44.5703 2014.98 44.5703V43.8438C2014.98 42.75 2014.63 41.875 2013.95 41.2188C2013.26 40.5625 2012.24 40.2344 2010.9 40.2344C2009.46 40.2344 2008.42 40.4922 2007.76 41.0078C2007.1 41.5234 2006.71 42.1484 2006.59 42.8828H2002.28C2002.4 40.9609 2003.2 39.3594 2004.69 38.0781C2006.17 36.7969 2008.24 36.1562 2010.9 36.1562ZM2009.24 54.3906C2011.06 54.3906 2012.48 53.9219 2013.48 52.9844C2014.48 52.0469 2014.98 50.9062 2014.98 49.5625V48.3906C2013.06 48.3906 2011.5 48.4844 2010.31 48.6719C2009.14 48.8438 2008.22 49.0859 2007.55 49.3984C2006.88 49.6953 2006.42 50.0703 2006.19 50.5234C2005.97 50.9609 2005.86 51.4531 2005.86 52C2005.86 52.6094 2006.15 53.1641 2006.73 53.6641C2007.31 54.1484 2008.14 54.3906 2009.24 54.3906ZM2039.08 46.7266C2039.66 47.0078 2040.17 47.3906 2040.62 47.875C2041.02 48.2969 2041.38 48.8281 2041.7 49.4688C2042.03 50.0938 2042.2 50.8594 2042.2 51.7656C2042.2 52.6562 2042.03 53.4844 2041.7 54.25C2041.39 55.0156 2040.95 55.6719 2040.39 56.2188C2039.84 56.7656 2039.16 57.2031 2038.35 57.5312C2037.55 57.8438 2036.68 58 2035.73 58H2024.92V36.3906H2035C2035.95 36.3906 2036.83 36.5469 2037.62 36.8594C2038.44 37.1562 2039.12 37.5781 2039.66 38.125C2040.23 38.6719 2040.66 39.3125 2040.98 40.0469C2041.3 40.7812 2041.47 41.5625 2041.47 42.3906C2041.47 43.1875 2041.34 43.8516 2041.09 44.3828C2040.84 44.9141 2040.57 45.3594 2040.27 45.7188C2039.93 46.1094 2039.53 46.4453 2039.08 46.7266ZM2029.23 40V45.2734H2034.51C2035.24 45.2734 2035.87 45.0234 2036.38 44.5234C2036.9 44.0078 2037.16 43.3828 2037.16 42.6484C2037.16 41.9141 2036.9 41.2891 2036.38 40.7734C2035.88 40.2578 2035.26 40 2034.51 40H2029.23ZM2035.23 54.3906C2035.97 54.3906 2036.59 54.125 2037.11 53.5938C2037.62 53.0469 2037.88 52.3594 2037.88 51.5312C2037.88 50.7969 2037.62 50.1719 2037.11 49.6562C2036.59 49.1406 2035.97 48.8828 2035.23 48.8828H2029.23V54.3906H2035.23ZM2056.45 43.6094C2057.55 43.6094 2058.55 43.7969 2059.45 44.1719C2060.37 44.5312 2061.16 45.0312 2061.82 45.6719C2062.48 46.3125 2062.98 47.0703 2063.34 47.9453C2063.72 48.8203 2063.9 49.7734 2063.9 50.8047C2063.9 51.8359 2063.72 52.7891 2063.34 53.6641C2062.98 54.5391 2062.48 55.2969 2061.82 55.9375C2061.16 56.5781 2060.37 57.0859 2059.45 57.4609C2058.55 57.8203 2057.55 58 2056.45 58H2046.87V36.3906H2051.18V43.6094H2056.45ZM2056.45 53.9219C2057.28 53.9219 2058.01 53.6094 2058.63 52.9844C2059.27 52.3594 2059.59 51.6328 2059.59 50.8047C2059.59 49.9766 2059.28 49.25 2058.65 48.625C2058.03 48 2057.3 47.6875 2056.45 47.6875H2051.18V53.9219H2056.45ZM2097.71 36.3906V58H2093.4V49.1172H2083.07V58H2078.75V36.3906H2083.07V45.0391H2093.4V36.3906H2097.71ZM2111.95 36.1562C2113.2 36.1562 2114.34 36.3594 2115.37 36.7656C2116.42 37.1562 2117.31 37.6953 2118.04 38.3828C2118.77 39.0703 2119.35 39.8828 2119.75 40.8203C2120.16 41.7422 2120.36 42.75 2120.36 43.8438V58H2117.24L2116.28 55.8438C2115.86 56.2969 2115.36 56.6953 2114.78 57.0391C2114.27 57.3516 2113.62 57.6328 2112.84 57.8828C2112.06 58.1172 2111.12 58.2344 2110.02 58.2344C2107.62 58.2344 2105.77 57.6406 2104.49 56.4531C2103.23 55.25 2102.6 53.6875 2102.6 51.7656C2102.6 50.6719 2102.8 49.6875 2103.2 48.8125C2103.63 47.9219 2104.34 47.1719 2105.34 46.5625C2106.35 45.9375 2107.72 45.4531 2109.44 45.1094C2111.17 44.75 2113.37 44.5703 2116.02 44.5703V43.8438C2116.02 42.75 2115.68 41.875 2114.99 41.2188C2114.31 40.5625 2113.29 40.2344 2111.95 40.2344C2110.51 40.2344 2109.46 40.4922 2108.81 41.0078C2108.15 41.5234 2107.76 42.1484 2107.63 42.8828H2103.32C2103.45 40.9609 2104.25 39.3594 2105.74 38.0781C2107.22 36.7969 2109.29 36.1562 2111.95 36.1562ZM2110.28 54.3906C2112.11 54.3906 2113.52 53.9219 2114.52 52.9844C2115.52 52.0469 2116.02 50.9062 2116.02 49.5625V48.3906C2114.1 48.3906 2112.55 48.4844 2111.36 48.6719C2110.19 48.8438 2109.27 49.0859 2108.6 49.3984C2107.92 49.6953 2107.47 50.0703 2107.24 50.5234C2107.02 50.9609 2106.91 51.4531 2106.91 52C2106.91 52.6094 2107.2 53.1641 2107.77 53.6641C2108.35 54.1484 2109.19 54.3906 2110.28 54.3906ZM2155.58 36.3906V58H2151.26V40.4688H2140.93V58H2136.62V36.3906H2155.58ZM2169.81 36.1562C2171.06 36.1562 2172.2 36.3594 2173.23 36.7656C2174.28 37.1562 2175.17 37.6953 2175.9 38.3828C2176.64 39.0703 2177.21 39.8828 2177.61 40.8203C2178.02 41.7422 2178.22 42.75 2178.22 43.8438V58H2175.11L2174.15 55.8438C2173.72 56.2969 2173.22 56.6953 2172.65 57.0391C2172.13 57.3516 2171.48 57.6328 2170.7 57.8828C2169.92 58.1172 2168.98 58.2344 2167.89 58.2344C2165.48 58.2344 2163.64 57.6406 2162.36 56.4531C2161.09 55.25 2160.46 53.6875 2160.46 51.7656C2160.46 50.6719 2160.66 49.6875 2161.07 48.8125C2161.49 47.9219 2162.2 47.1719 2163.2 46.5625C2164.22 45.9375 2165.58 45.4531 2167.3 45.1094C2169.04 44.75 2171.23 44.5703 2173.89 44.5703V43.8438C2173.89 42.75 2173.54 41.875 2172.86 41.2188C2172.17 40.5625 2171.15 40.2344 2169.81 40.2344C2168.37 40.2344 2167.32 40.4922 2166.67 41.0078C2166.01 41.5234 2165.62 42.1484 2165.5 42.8828H2161.18C2161.31 40.9609 2162.11 39.3594 2163.6 38.0781C2165.08 36.7969 2167.15 36.1562 2169.81 36.1562ZM2168.15 54.3906C2169.97 54.3906 2171.39 53.9219 2172.39 52.9844C2173.39 52.0469 2173.89 50.9062 2173.89 49.5625V48.3906C2171.97 48.3906 2170.41 48.4844 2169.22 48.6719C2168.05 48.8438 2167.13 49.0859 2166.46 49.3984C2165.79 49.6953 2165.33 50.0703 2165.1 50.5234C2164.88 50.9609 2164.77 51.4531 2164.77 52C2164.77 52.6094 2165.06 53.1641 2165.64 53.6641C2166.22 54.1484 2167.05 54.3906 2168.15 54.3906ZM2181.42 36.3906H2185.99L2191.99 52L2197.99 36.3906H2202.56L2193.42 59.4297C2192.93 60.6484 2192.46 61.6641 2191.99 62.4766C2191.53 63.3047 2191.03 63.9688 2190.49 64.4688C2189.96 64.9844 2189.36 65.3516 2188.71 65.5703C2188.05 65.8047 2187.31 65.9219 2186.48 65.9219C2186.29 65.9219 2186.11 65.9141 2185.94 65.8984C2185.78 65.8828 2185.63 65.8594 2185.47 65.8281C2185.32 65.7969 2185.17 65.75 2185.03 65.6875V62.0781C2186.25 62.0781 2187.17 61.8203 2187.79 61.3047C2188.42 60.8047 2188.85 60.1797 2189.1 59.4297L2189.83 57.2734L2181.42 36.3906ZM2217.73 46.9609C2218.27 47.2422 2218.75 47.6094 2219.16 48.0625C2219.52 48.4531 2219.85 48.9375 2220.17 49.5156C2220.49 50.0781 2220.66 50.75 2220.66 51.5312C2220.66 53.4531 2219.96 55.0547 2218.57 56.3359C2217.2 57.6016 2215.25 58.2344 2212.74 58.2344C2210.08 58.2344 2208.09 57.6094 2206.76 56.3594C2205.43 55.1094 2204.7 53.3359 2204.56 51.0391H2208.89C2209.02 51.9922 2209.38 52.75 2209.99 53.3125C2210.6 53.875 2211.52 54.1562 2212.74 54.1562C2214.08 54.1562 2215.05 53.9062 2215.64 53.4062C2216.25 52.8906 2216.56 52.2656 2216.56 51.5312C2216.56 50.7969 2216.25 50.1719 2215.64 49.6562C2215.05 49.1406 2214.08 48.8828 2212.74 48.8828H2210.81V45.0391H2212.74C2213.95 45.0391 2214.81 44.7969 2215.31 44.3125C2215.83 43.8125 2216.09 43.2578 2216.09 42.6484C2216.09 42.0391 2215.83 41.4844 2215.31 40.9844C2214.8 40.4844 2213.94 40.2344 2212.74 40.2344C2211.64 40.2344 2210.8 40.4922 2210.2 41.0078C2209.61 41.5234 2209.25 42.1484 2209.13 42.8828H2204.81C2204.94 40.8359 2205.66 39.2031 2206.97 37.9844C2208.28 36.7656 2210.2 36.1562 2212.74 36.1562C2213.89 36.1562 2214.92 36.3281 2215.83 36.6719C2216.74 37 2217.51 37.4609 2218.15 38.0547C2218.79 38.6484 2219.28 39.3359 2219.63 40.1172C2219.99 40.8984 2220.17 41.7422 2220.17 42.6484C2220.17 43.3828 2220.03 44.0234 2219.77 44.5703C2219.52 45.1016 2219.24 45.5469 2218.92 45.9062C2218.58 46.3281 2218.18 46.6797 2217.73 46.9609ZM2222.91 36.3906H2227.48L2233.48 52L2239.48 36.3906H2244.05L2234.91 59.4297C2234.43 60.6484 2233.95 61.6641 2233.48 62.4766C2233.03 63.3047 2232.53 63.9688 2231.98 64.4688C2231.45 64.9844 2230.86 65.3516 2230.2 65.5703C2229.55 65.8047 2228.8 65.9219 2227.98 65.9219C2227.79 65.9219 2227.61 65.9141 2227.44 65.8984C2227.28 65.8828 2227.12 65.8594 2226.97 65.8281C2226.81 65.7969 2226.66 65.75 2226.52 65.6875V62.0781C2227.74 62.0781 2228.66 61.8203 2229.29 61.3047C2229.91 60.8047 2230.35 60.1797 2230.6 59.4297L2231.33 57.2734L2222.91 36.3906Z" fill="#3F8AE0"/>
</svg>
