<svg width="2385" height="96" viewBox="0 0 2385 96" fill="none" xmlns="http://www.w3.org/2000/svg">
<rect width="385" height="96" rx="20" fill="#3F8AE0"/>
<path d="M43.3031 58L37.5375 46V58H33.225V36.3906H37.0688L44.7328 52.2344L52.4203 36.3906H56.2641V58H51.9516V46L46.1859 58H43.3031ZM77.2234 47.1953C77.2234 46.1641 77.0516 45.2266 76.7078 44.3828C76.3797 43.5391 75.9422 42.8047 75.3953 42.1797C74.8484 41.5547 74.2078 41.0781 73.4734 40.75C72.7391 40.4062 71.9891 40.2344 71.2234 40.2344C70.4578 40.2344 69.7078 40.4062 68.9734 40.75C68.2391 41.0781 67.5984 41.5547 67.0516 42.1797C66.5047 42.8047 66.0594 43.5469 65.7156 44.4062C65.3875 45.25 65.2234 46.1797 65.2234 47.1953C65.2234 48.2266 65.3875 49.1641 65.7156 50.0078C66.0594 50.8516 66.5047 51.5859 67.0516 52.2109C67.5984 52.8359 68.2391 53.3203 68.9734 53.6641C69.7078 53.9922 70.4578 54.1562 71.2234 54.1562C71.9891 54.1562 72.7391 53.9922 73.4734 53.6641C74.2078 53.3203 74.8484 52.8359 75.3953 52.2109C75.9422 51.5859 76.3797 50.8516 76.7078 50.0078C77.0516 49.1641 77.2234 48.2266 77.2234 47.1953ZM81.5359 47.1953C81.5359 48.8203 81.2703 50.3125 80.7391 51.6719C80.2234 53.0156 79.4891 54.1797 78.5359 55.1641C77.5984 56.1328 76.5047 56.8906 75.2547 57.4375C74.0047 57.9688 72.6609 58.2344 71.2234 58.2344C69.7859 58.2344 68.4422 57.9688 67.1922 57.4375C65.9422 56.8906 64.8406 56.1328 63.8875 55.1641C62.95 54.1797 62.2156 53.0156 61.6844 51.6719C61.1688 50.3281 60.9109 48.8359 60.9109 47.1953C60.9109 45.5703 61.1688 44.0859 61.6844 42.7422C62.2156 41.3984 62.95 40.2422 63.8875 39.2734C64.8406 38.2891 65.9422 37.5234 67.1922 36.9766C68.4422 36.4297 69.7859 36.1562 71.2234 36.1562C72.6609 36.1562 74.0047 36.4297 75.2547 36.9766C76.5047 37.5234 77.5984 38.2891 78.5359 39.2734C79.4891 40.2422 80.2234 41.3984 80.7391 42.7422C81.2703 44.0859 81.5359 45.5703 81.5359 47.1953ZM105.167 36.3906V58H100.855V42.8828L90.5188 58H86.2063V36.3906H90.5188V51.5312L100.855 36.3906H105.167ZM119.5 36.3906H137.242V40.4688H130.539V58H126.203V40.4688H119.5V36.3906ZM151.288 36.1562C152.725 36.1562 154.069 36.4297 155.319 36.9766C156.569 37.5234 157.663 38.2891 158.6 39.2734C159.553 40.2422 160.295 41.3984 160.827 42.7422C161.358 44.0859 161.623 45.5703 161.623 47.1953C161.623 48.8203 161.358 50.3125 160.827 51.6719C160.295 53.0156 159.553 54.1797 158.6 55.1641C157.663 56.1328 156.569 56.8906 155.319 57.4375C154.069 57.9688 152.725 58.2344 151.288 58.2344C150.256 58.2344 149.373 58.1172 148.639 57.8828C147.905 57.6484 147.288 57.3672 146.788 57.0391C146.209 56.6797 145.709 56.2812 145.288 55.8438V65.6875H140.975V36.3906H144.092L145.053 38.5703C145.475 38.1172 145.967 37.7109 146.53 37.3516C147.045 37.0703 147.694 36.8047 148.475 36.5547C149.256 36.2891 150.194 36.1562 151.288 36.1562ZM151.053 54.1562C151.881 54.1562 152.67 53.9922 153.42 53.6641C154.17 53.3203 154.834 52.8359 155.413 52.2109C155.991 51.5859 156.444 50.8516 156.772 50.0078C157.116 49.1641 157.288 48.2266 157.288 47.1953C157.288 46.1641 157.116 45.2266 156.772 44.3828C156.444 43.5391 155.991 42.8047 155.413 42.1797C154.834 41.5547 154.17 41.0781 153.42 40.75C152.67 40.4062 151.881 40.2344 151.053 40.2344C150.225 40.2344 149.428 40.4062 148.663 40.75C147.913 41.0781 147.248 41.5547 146.67 42.1797C146.108 42.8047 145.655 43.5469 145.311 44.4062C144.983 45.25 144.819 46.1797 144.819 47.1953C144.819 48.2266 144.983 49.1641 145.311 50.0078C145.655 50.8516 146.108 51.5859 146.67 52.2109C147.248 52.8359 147.913 53.3203 148.663 53.6641C149.428 53.9922 150.225 54.1562 151.053 54.1562ZM174.684 36.1562C175.934 36.1562 177.075 36.3594 178.106 36.7656C179.153 37.1562 180.044 37.6953 180.778 38.3828C181.513 39.0703 182.083 39.8828 182.489 40.8203C182.895 41.7422 183.098 42.75 183.098 43.8438V58H179.981L179.02 55.8438C178.598 56.2969 178.098 56.6953 177.52 57.0391C177.005 57.3516 176.356 57.6328 175.575 57.8828C174.794 58.1172 173.856 58.2344 172.763 58.2344C170.356 58.2344 168.513 57.6406 167.231 56.4531C165.966 55.25 165.333 53.6875 165.333 51.7656C165.333 50.6719 165.536 49.6875 165.942 48.8125C166.364 47.9219 167.075 47.1719 168.075 46.5625C169.091 45.9375 170.458 45.4531 172.177 45.1094C173.911 44.75 176.106 44.5703 178.763 44.5703V43.8438C178.763 42.75 178.419 41.875 177.731 41.2188C177.044 40.5625 176.028 40.2344 174.684 40.2344C173.247 40.2344 172.2 40.4922 171.544 41.0078C170.888 41.5234 170.497 42.1484 170.372 42.8828H166.059C166.184 40.9609 166.989 39.3594 168.473 38.0781C169.958 36.7969 172.028 36.1562 174.684 36.1562ZM173.02 54.3906C174.848 54.3906 176.263 53.9219 177.263 52.9844C178.263 52.0469 178.763 50.9062 178.763 49.5625V48.3906C176.841 48.3906 175.286 48.4844 174.098 48.6719C172.927 48.8438 172.005 49.0859 171.333 49.3984C170.661 49.6953 170.208 50.0703 169.973 50.5234C169.755 50.9609 169.645 51.4531 169.645 52C169.645 52.6094 169.934 53.1641 170.513 53.6641C171.091 54.1484 171.927 54.3906 173.02 54.3906ZM207.667 36.3906V58H203.355V49.1172H193.019V58H188.706V36.3906H193.019V45.0391H203.355V36.3906H207.667ZM232.236 50.0781C231.986 51.2344 231.588 52.3125 231.041 53.3125C230.494 54.2969 229.798 55.1562 228.955 55.8906C228.127 56.625 227.173 57.2031 226.095 57.625C225.033 58.0312 223.877 58.2344 222.627 58.2344C221.189 58.2344 219.845 57.9688 218.595 57.4375C217.345 56.8906 216.244 56.1328 215.291 55.1641C214.353 54.1797 213.619 53.0156 213.088 51.6719C212.572 50.3281 212.314 48.8359 212.314 47.1953C212.314 45.5703 212.572 44.0859 213.088 42.7422C213.619 41.3984 214.353 40.2422 215.291 39.2734C216.244 38.2891 217.345 37.5234 218.595 36.9766C219.845 36.4297 221.189 36.1562 222.627 36.1562C223.877 36.1562 225.033 36.3672 226.095 36.7891C227.173 37.1953 228.127 37.7734 228.955 38.5234C229.798 39.2578 230.486 40.125 231.017 41.125C231.564 42.1094 231.97 43.1719 232.236 44.3125H227.666C227.306 43.0938 226.713 42.1094 225.884 41.3594C225.056 40.6094 223.97 40.2344 222.627 40.2344C221.861 40.2344 221.111 40.4062 220.377 40.75C219.642 41.0781 219.002 41.5547 218.455 42.1797C217.908 42.8047 217.463 43.5469 217.119 44.4062C216.791 45.25 216.627 46.1797 216.627 47.1953C216.627 48.2266 216.791 49.1641 217.119 50.0078C217.463 50.8516 217.908 51.5859 218.455 52.2109C219.002 52.8359 219.642 53.3203 220.377 53.6641C221.111 53.9922 221.861 54.1562 222.627 54.1562C223.97 54.1562 225.056 53.7812 225.884 53.0312C226.728 52.2812 227.322 51.2969 227.666 50.0781H232.236ZM254.438 36.3906V58H250.102V40.4688H242.906L242.18 50.8047C242.023 53.2109 241.336 55.0547 240.117 56.3359C238.914 57.6016 237.281 58.2344 235.219 58.2344C235.031 58.2344 234.859 58.2266 234.703 58.2109C234.547 58.1953 234.383 58.1719 234.211 58.1406C234.055 58.1094 233.914 58.0625 233.789 58V54.3906H234.258C236.461 54.3906 237.664 53.1953 237.867 50.8047L239.062 36.3906H254.438ZM276.85 36.3906V58H272.538V50.8047H268.225L263.655 58H258.85L263.889 50.0781C263.061 49.7656 262.342 49.3203 261.733 48.7422C261.186 48.2266 260.686 47.5625 260.233 46.75C259.795 45.9375 259.577 44.8906 259.577 43.6094C259.577 42.5781 259.756 41.625 260.116 40.75C260.491 39.8594 261.006 39.1016 261.663 38.4766C262.319 37.8359 263.1 37.3281 264.006 36.9531C264.928 36.5781 265.936 36.3906 267.03 36.3906H276.85ZM267.03 40.4688C266.202 40.4688 265.467 40.7812 264.827 41.4062C264.202 42.0312 263.889 42.7656 263.889 43.6094C263.889 44.4375 264.202 45.1641 264.827 45.7891C265.452 46.4141 266.186 46.7266 267.03 46.7266H272.538V40.4688H267.03ZM304.067 53.9219V63.0391H299.989V58H282.716V36.3906H287.028V53.9219H296.872V36.3906H301.184V53.9219H304.067ZM326.995 36.3906V58H322.683V42.8828L312.347 58H308.034V36.3906H312.347V51.5312L322.683 36.3906H326.995ZM351.798 36.3906V58H347.486V42.8828L337.15 58H332.837V36.3906H337.15V51.5312L347.486 36.3906H351.798Z" fill="white"/>
<rect x="405" width="569" height="96" rx="20" fill="#F2F3F5"/>
<path d="M449.93 46.9609C450.477 47.2422 450.953 47.6094 451.359 48.0625C451.719 48.4531 452.055 48.9375 452.367 49.5156C452.695 50.0781 452.859 50.75 452.859 51.5312C452.859 53.4531 452.164 55.0547 450.773 56.3359C449.398 57.6016 447.453 58.2344 444.938 58.2344C442.281 58.2344 440.289 57.6094 438.961 56.3594C437.633 55.1094 436.898 53.3359 436.758 51.0391H441.094C441.219 51.9922 441.586 52.75 442.195 53.3125C442.805 53.875 443.719 54.1562 444.938 54.1562C446.281 54.1562 447.25 53.9062 447.844 53.4062C448.453 52.8906 448.758 52.2656 448.758 51.5312C448.758 50.7969 448.453 50.1719 447.844 49.6562C447.25 49.1406 446.281 48.8828 444.938 48.8828H443.016V45.0391H444.938C446.156 45.0391 447.016 44.7969 447.516 44.3125C448.031 43.8125 448.289 43.2578 448.289 42.6484C448.289 42.0391 448.031 41.4844 447.516 40.9844C447 40.4844 446.141 40.2344 444.938 40.2344C443.844 40.2344 443 40.4922 442.406 41.0078C441.812 41.5234 441.453 42.1484 441.328 42.8828H437.016C437.141 40.8359 437.859 39.2031 439.172 37.9844C440.484 36.7656 442.406 36.1562 444.938 36.1562C446.094 36.1562 447.125 36.3281 448.031 36.6719C448.938 37 449.711 37.4609 450.352 38.0547C450.992 38.6484 451.484 39.3359 451.828 40.1172C452.188 40.8984 452.367 41.7422 452.367 42.6484C452.367 43.3828 452.234 44.0234 451.969 44.5703C451.719 45.1016 451.438 45.5469 451.125 45.9062C450.781 46.3281 450.383 46.6797 449.93 46.9609ZM465.92 36.1562C467.17 36.1562 468.311 36.3594 469.342 36.7656C470.389 37.1562 471.28 37.6953 472.014 38.3828C472.748 39.0703 473.319 39.8828 473.725 40.8203C474.131 41.7422 474.334 42.75 474.334 43.8438V58H471.217L470.256 55.8438C469.834 56.2969 469.334 56.6953 468.756 57.0391C468.241 57.3516 467.592 57.6328 466.811 57.8828C466.03 58.1172 465.092 58.2344 463.998 58.2344C461.592 58.2344 459.748 57.6406 458.467 56.4531C457.202 55.25 456.569 53.6875 456.569 51.7656C456.569 50.6719 456.772 49.6875 457.178 48.8125C457.6 47.9219 458.311 47.1719 459.311 46.5625C460.327 45.9375 461.694 45.4531 463.413 45.1094C465.147 44.75 467.342 44.5703 469.998 44.5703V43.8438C469.998 42.75 469.655 41.875 468.967 41.2188C468.28 40.5625 467.264 40.2344 465.92 40.2344C464.483 40.2344 463.436 40.4922 462.78 41.0078C462.123 41.5234 461.733 42.1484 461.608 42.8828H457.295C457.42 40.9609 458.225 39.3594 459.709 38.0781C461.194 36.7969 463.264 36.1562 465.92 36.1562ZM464.256 54.3906C466.084 54.3906 467.498 53.9219 468.498 52.9844C469.498 52.0469 469.998 50.9062 469.998 49.5625V48.3906C468.077 48.3906 466.522 48.4844 465.334 48.6719C464.163 48.8438 463.241 49.0859 462.569 49.3984C461.897 49.6953 461.444 50.0703 461.209 50.5234C460.991 50.9609 460.881 51.4531 460.881 52C460.881 52.6094 461.17 53.1641 461.748 53.6641C462.327 54.1484 463.163 54.3906 464.256 54.3906ZM498.903 36.3906V58H494.591V40.4688H484.255V58H479.942V36.3906H498.903ZM522.511 36.3906V58H518.175V40.4688H510.98L510.253 50.8047C510.097 53.2109 509.409 55.0547 508.191 56.3359C506.988 57.6016 505.355 58.2344 503.292 58.2344C503.105 58.2344 502.933 58.2266 502.777 58.2109C502.62 58.1953 502.456 58.1719 502.284 58.1406C502.128 58.1094 501.988 58.0625 501.863 58V54.3906H502.331C504.534 54.3906 505.738 53.1953 505.941 50.8047L507.136 36.3906H522.511ZM536.767 36.1562C538.017 36.1562 539.158 36.3594 540.189 36.7656C541.236 37.1562 542.127 37.6953 542.861 38.3828C543.595 39.0703 544.166 39.8828 544.572 40.8203C544.978 41.7422 545.181 42.75 545.181 43.8438V58H542.064L541.103 55.8438C540.681 56.2969 540.181 56.6953 539.603 57.0391C539.088 57.3516 538.439 57.6328 537.658 57.8828C536.877 58.1172 535.939 58.2344 534.845 58.2344C532.439 58.2344 530.595 57.6406 529.314 56.4531C528.048 55.25 527.416 53.6875 527.416 51.7656C527.416 50.6719 527.619 49.6875 528.025 48.8125C528.447 47.9219 529.158 47.1719 530.158 46.5625C531.173 45.9375 532.541 45.4531 534.259 45.1094C535.994 44.75 538.189 44.5703 540.845 44.5703V43.8438C540.845 42.75 540.502 41.875 539.814 41.2188C539.127 40.5625 538.111 40.2344 536.767 40.2344C535.33 40.2344 534.283 40.4922 533.627 41.0078C532.97 41.5234 532.58 42.1484 532.455 42.8828H528.142C528.267 40.9609 529.072 39.3594 530.556 38.0781C532.041 36.7969 534.111 36.1562 536.767 36.1562ZM535.103 54.3906C536.931 54.3906 538.345 53.9219 539.345 52.9844C540.345 52.0469 540.845 50.9062 540.845 49.5625V48.3906C538.923 48.3906 537.369 48.4844 536.181 48.6719C535.009 48.8438 534.088 49.0859 533.416 49.3984C532.744 49.6953 532.291 50.0703 532.056 50.5234C531.838 50.9609 531.728 51.4531 531.728 52C531.728 52.6094 532.017 53.1641 532.595 53.6641C533.173 54.1484 534.009 54.3906 535.103 54.3906ZM569.75 36.3906V58H565.438V49.1172H555.102V58H550.789V36.3906H555.102V45.0391H565.438V36.3906H569.75ZM594.553 36.3906V58H590.241V42.8828L579.905 58H575.592V36.3906H579.905V51.5312L590.241 36.3906H594.553ZM610.708 36.1562C612.145 36.1562 613.489 36.4297 614.739 36.9766C615.989 37.5234 617.083 38.2891 618.02 39.2734C618.973 40.2422 619.716 41.3984 620.247 42.7422C620.778 44.0859 621.044 45.5703 621.044 47.1953C621.044 48.8203 620.778 50.3125 620.247 51.6719C619.716 53.0156 618.973 54.1797 618.02 55.1641C617.083 56.1328 615.989 56.8906 614.739 57.4375C613.489 57.9688 612.145 58.2344 610.708 58.2344C609.677 58.2344 608.794 58.1172 608.059 57.8828C607.325 57.6484 606.708 57.3672 606.208 57.0391C605.63 56.6797 605.13 56.2812 604.708 55.8438V65.6875H600.395V36.3906H603.512L604.473 38.5703C604.895 38.1172 605.387 37.7109 605.95 37.3516C606.466 37.0703 607.114 36.8047 607.895 36.5547C608.677 36.2891 609.614 36.1562 610.708 36.1562ZM610.473 54.1562C611.302 54.1562 612.091 53.9922 612.841 53.6641C613.591 53.3203 614.255 52.8359 614.833 52.2109C615.411 51.5859 615.864 50.8516 616.192 50.0078C616.536 49.1641 616.708 48.2266 616.708 47.1953C616.708 46.1641 616.536 45.2266 616.192 44.3828C615.864 43.5391 615.411 42.8047 614.833 42.1797C614.255 41.5547 613.591 41.0781 612.841 40.75C612.091 40.4062 611.302 40.2344 610.473 40.2344C609.645 40.2344 608.848 40.4062 608.083 40.75C607.333 41.0781 606.669 41.5547 606.091 42.1797C605.528 42.8047 605.075 43.5469 604.731 44.4062C604.403 45.25 604.239 46.1797 604.239 47.1953C604.239 48.2266 604.403 49.1641 604.731 50.0078C605.075 50.8516 605.528 51.5859 606.091 52.2109C606.669 52.8359 607.333 53.3203 608.083 53.6641C608.848 53.9922 609.645 54.1562 610.473 54.1562ZM640.831 47.1953C640.831 46.1641 640.659 45.2266 640.316 44.3828C639.988 43.5391 639.55 42.8047 639.003 42.1797C638.456 41.5547 637.816 41.0781 637.081 40.75C636.347 40.4062 635.597 40.2344 634.831 40.2344C634.066 40.2344 633.316 40.4062 632.581 40.75C631.847 41.0781 631.206 41.5547 630.659 42.1797C630.113 42.8047 629.667 43.5469 629.323 44.4062C628.995 45.25 628.831 46.1797 628.831 47.1953C628.831 48.2266 628.995 49.1641 629.323 50.0078C629.667 50.8516 630.113 51.5859 630.659 52.2109C631.206 52.8359 631.847 53.3203 632.581 53.6641C633.316 53.9922 634.066 54.1562 634.831 54.1562C635.597 54.1562 636.347 53.9922 637.081 53.6641C637.816 53.3203 638.456 52.8359 639.003 52.2109C639.55 51.5859 639.988 50.8516 640.316 50.0078C640.659 49.1641 640.831 48.2266 640.831 47.1953ZM645.144 47.1953C645.144 48.8203 644.878 50.3125 644.347 51.6719C643.831 53.0156 643.097 54.1797 642.144 55.1641C641.206 56.1328 640.113 56.8906 638.863 57.4375C637.613 57.9688 636.269 58.2344 634.831 58.2344C633.394 58.2344 632.05 57.9688 630.8 57.4375C629.55 56.8906 628.448 56.1328 627.495 55.1641C626.558 54.1797 625.823 53.0156 625.292 51.6719C624.777 50.3281 624.519 48.8359 624.519 47.1953C624.519 45.5703 624.777 44.0859 625.292 42.7422C625.823 41.3984 626.558 40.2422 627.495 39.2734C628.448 38.2891 629.55 37.5234 630.8 36.9766C632.05 36.4297 633.394 36.1562 634.831 36.1562C636.269 36.1562 637.613 36.4297 638.863 36.9766C640.113 37.5234 641.206 38.2891 642.144 39.2734C643.097 40.2422 643.831 41.3984 644.347 42.7422C644.878 44.0859 645.144 45.5703 645.144 47.1953ZM663.97 46.7266C664.548 47.0078 665.064 47.3906 665.517 47.875C665.908 48.2969 666.267 48.8281 666.595 49.4688C666.923 50.0938 667.087 50.8594 667.087 51.7656C667.087 52.6562 666.923 53.4844 666.595 54.25C666.283 55.0156 665.845 55.6719 665.283 56.2188C664.736 56.7656 664.056 57.2031 663.244 57.5312C662.447 57.8438 661.572 58 660.619 58H649.814V36.3906H659.892C660.845 36.3906 661.72 36.5469 662.517 36.8594C663.33 37.1562 664.009 37.5781 664.556 38.125C665.119 38.6719 665.556 39.3125 665.869 40.0469C666.197 40.7812 666.361 41.5625 666.361 42.3906C666.361 43.1875 666.236 43.8516 665.986 44.3828C665.736 44.9141 665.462 45.3594 665.166 45.7188C664.822 46.1094 664.423 46.4453 663.97 46.7266ZM654.127 40V45.2734H659.4C660.134 45.2734 660.759 45.0234 661.275 44.5234C661.791 44.0078 662.048 43.3828 662.048 42.6484C662.048 41.9141 661.791 41.2891 661.275 40.7734C660.775 40.2578 660.15 40 659.4 40H654.127ZM660.127 54.3906C660.861 54.3906 661.486 54.125 662.002 53.5938C662.517 53.0469 662.775 52.3594 662.775 51.5312C662.775 50.7969 662.517 50.1719 662.002 49.6562C661.486 49.1406 660.861 48.8828 660.127 48.8828H654.127V54.3906H660.127ZM680.148 36.1562C681.398 36.1562 682.539 36.3594 683.57 36.7656C684.617 37.1562 685.508 37.6953 686.242 38.3828C686.977 39.0703 687.547 39.8828 687.953 40.8203C688.359 41.7422 688.562 42.75 688.562 43.8438V58H685.445L684.484 55.8438C684.062 56.2969 683.562 56.6953 682.984 57.0391C682.469 57.3516 681.82 57.6328 681.039 57.8828C680.258 58.1172 679.32 58.2344 678.227 58.2344C675.82 58.2344 673.977 57.6406 672.695 56.4531C671.43 55.25 670.797 53.6875 670.797 51.7656C670.797 50.6719 671 49.6875 671.406 48.8125C671.828 47.9219 672.539 47.1719 673.539 46.5625C674.555 45.9375 675.922 45.4531 677.641 45.1094C679.375 44.75 681.57 44.5703 684.227 44.5703V43.8438C684.227 42.75 683.883 41.875 683.195 41.2188C682.508 40.5625 681.492 40.2344 680.148 40.2344C678.711 40.2344 677.664 40.4922 677.008 41.0078C676.352 41.5234 675.961 42.1484 675.836 42.8828H671.523C671.648 40.9609 672.453 39.3594 673.938 38.0781C675.422 36.7969 677.492 36.1562 680.148 36.1562ZM678.484 54.3906C680.312 54.3906 681.727 53.9219 682.727 52.9844C683.727 52.0469 684.227 50.9062 684.227 49.5625V48.3906C682.305 48.3906 680.75 48.4844 679.562 48.6719C678.391 48.8438 677.469 49.0859 676.797 49.3984C676.125 49.6953 675.672 50.0703 675.438 50.5234C675.219 50.9609 675.109 51.4531 675.109 52C675.109 52.6094 675.398 53.1641 675.977 53.6641C676.555 54.1484 677.391 54.3906 678.484 54.3906ZM713.131 36.3906V58H708.819V49.1172H698.483V58H694.17V36.3906H698.483V45.0391H708.819V36.3906H713.131ZM737.934 36.3906V58H733.622V49.1172H723.286V58H718.973V36.3906H723.286V45.0391H733.622V36.3906H737.934ZM767.542 36.3906V58H763.206V36.3906H767.542ZM752.894 43.6094C753.987 43.6094 754.987 43.7969 755.894 44.1719C756.8 44.5312 757.581 45.0312 758.237 45.6719C758.894 46.3125 759.402 47.0703 759.761 47.9453C760.136 48.8203 760.323 49.7734 760.323 50.8047C760.323 51.8359 760.136 52.7891 759.761 53.6641C759.402 54.5391 758.894 55.2969 758.237 55.9375C757.581 56.5781 756.8 57.0859 755.894 57.4609C754.987 57.8203 753.987 58 752.894 58H743.777V36.3906H748.089V43.6094H752.894ZM752.894 53.9219C753.722 53.9219 754.448 53.6094 755.073 52.9844C755.698 52.3594 756.011 51.6328 756.011 50.8047C756.011 49.9766 755.698 49.25 755.073 48.625C754.448 48 753.722 47.6875 752.894 47.6875H748.089V53.9219H752.894ZM792.134 51.7656C791.775 52.6562 791.322 53.4922 790.775 54.2734C790.228 55.0547 789.572 55.7422 788.806 56.3359C788.041 56.9297 787.15 57.3984 786.134 57.7422C785.134 58.0703 784.009 58.2344 782.759 58.2344C781.322 58.2344 779.978 57.9688 778.728 57.4375C777.478 56.8906 776.384 56.1328 775.447 55.1641C774.509 54.1797 773.775 53.0156 773.244 51.6719C772.712 50.3281 772.447 48.8359 772.447 47.1953C772.447 45.5703 772.712 44.0859 773.244 42.7422C773.775 41.3984 774.494 40.2422 775.4 39.2734C776.306 38.2891 777.377 37.5234 778.611 36.9766C779.845 36.4297 781.15 36.1562 782.525 36.1562C783.9 36.1562 785.205 36.4297 786.439 36.9766C787.673 37.5234 788.744 38.2891 789.65 39.2734C790.556 40.2422 791.275 41.3984 791.806 42.7422C792.337 44.0859 792.603 45.5703 792.603 47.1953C792.603 47.4453 792.587 47.6953 792.556 47.9453C792.525 48.1797 792.494 48.3828 792.462 48.5547C792.431 48.7734 792.4 48.9609 792.369 49.1172H776.994C777.056 49.7891 777.252 50.4297 777.58 51.0391C777.908 51.6484 778.314 52.1875 778.798 52.6562C779.298 53.1094 779.892 53.4766 780.58 53.7578C781.267 54.0234 781.994 54.1562 782.759 54.1562C784.072 54.1562 785.111 53.875 785.877 53.3125C786.658 52.75 787.22 52.2344 787.564 51.7656H792.134ZM782.525 40.2344C781.087 40.2344 779.869 40.7266 778.869 41.7109C777.884 42.6797 777.259 43.9531 776.994 45.5312H788.525C788.275 43.9688 787.634 42.6953 786.603 41.7109C785.587 40.7266 784.228 40.2344 782.525 40.2344ZM815.842 36.1562C817.28 36.1562 818.623 36.4297 819.873 36.9766C821.123 37.5234 822.217 38.2891 823.155 39.2734C824.108 40.2422 824.842 41.3984 825.358 42.7422C825.889 44.0859 826.155 45.5703 826.155 47.1953C826.155 48.8203 825.889 50.3125 825.358 51.6719C824.842 53.0156 824.108 54.1797 823.155 55.1641C822.217 56.1328 821.123 56.8906 819.873 57.4375C818.623 57.9688 817.28 58.2344 815.842 58.2344C814.592 58.2344 813.428 58.0312 812.35 57.625C811.288 57.2031 810.342 56.6406 809.514 55.9375C808.702 55.2344 808.038 54.4219 807.522 53.5C807.022 52.5625 806.67 51.5859 806.467 50.5703H811.038C811.288 51.5234 811.811 52.3594 812.608 53.0781C813.42 53.7969 814.498 54.1562 815.842 54.1562C816.545 54.1562 817.225 54.0234 817.881 53.7578C818.538 53.4766 819.116 53.1094 819.616 52.6562C820.131 52.1875 820.553 51.6484 820.881 51.0391C821.225 50.4297 821.467 49.7891 821.608 49.1172H814.389V45.5312H821.608C821.483 44.8281 821.248 44.1562 820.905 43.5156C820.561 42.875 820.131 42.3125 819.616 41.8281C819.116 41.3438 818.538 40.9609 817.881 40.6797C817.225 40.3828 816.545 40.2344 815.842 40.2344C814.498 40.2344 813.42 40.5938 812.608 41.3125C811.811 42.0312 811.288 42.875 811.038 43.8438H806.467C806.655 42.8125 807.006 41.8359 807.522 40.9141C808.038 39.9922 808.702 39.1797 809.514 38.4766C810.342 37.7578 811.288 37.1953 812.35 36.7891C813.428 36.3672 814.592 36.1562 815.842 36.1562ZM843.763 27.7656H848.075V37.6094C848.466 37.3594 848.895 37.1172 849.364 36.8828C849.786 36.7266 850.27 36.5703 850.817 36.4141C851.364 36.2422 851.973 36.1562 852.645 36.1562C853.895 36.1562 855.098 36.4297 856.255 36.9766C857.427 37.5234 858.45 38.2891 859.325 39.2734C860.216 40.2422 860.919 41.3984 861.434 42.7422C861.966 44.0859 862.231 45.5703 862.231 47.1953C862.231 48.8203 861.966 50.3125 861.434 51.6719C860.919 53.0156 860.216 54.1797 859.325 55.1641C858.45 56.1328 857.427 56.8906 856.255 57.4375C855.098 57.9688 853.895 58.2344 852.645 58.2344C851.973 58.2344 851.364 58.1641 850.817 58.0234C850.27 57.8828 849.786 57.7188 849.364 57.5312C848.88 57.3438 848.45 57.1016 848.075 56.8047V65.6875H843.763V56.8047C843.372 57.0859 842.942 57.3281 842.473 57.5312C842.052 57.7188 841.559 57.8828 840.997 58.0234C840.434 58.1641 839.833 58.2344 839.192 58.2344C837.942 58.2344 836.731 57.9688 835.559 57.4375C834.403 56.8906 833.38 56.1328 832.489 55.1641C831.614 54.1797 830.911 53.0156 830.38 51.6719C829.864 50.3281 829.606 48.8359 829.606 47.1953C829.606 45.5703 829.864 44.0859 830.38 42.7422C830.911 41.3984 831.614 40.2422 832.489 39.2734C833.38 38.2891 834.403 37.5234 835.559 36.9766C836.731 36.4297 837.942 36.1562 839.192 36.1562C839.833 36.1562 840.434 36.2422 840.997 36.4141C841.559 36.5703 842.052 36.7266 842.473 36.8828C842.958 37.1016 843.388 37.3438 843.763 37.6094V27.7656ZM843.763 42.1562C843.403 41.7969 843.02 41.4766 842.614 41.1953C842.255 40.9453 841.825 40.7266 841.325 40.5391C840.841 40.3359 840.294 40.2344 839.684 40.2344C838.919 40.2344 838.177 40.3984 837.458 40.7266C836.755 41.0391 836.138 41.5 835.606 42.1094C835.091 42.7188 834.677 43.4531 834.364 44.3125C834.067 45.1562 833.919 46.1172 833.919 47.1953C833.919 48.2891 834.067 49.2656 834.364 50.125C834.677 50.9844 835.091 51.7109 835.606 52.3047C836.138 52.8984 836.755 53.3594 837.458 53.6875C838.177 54 838.919 54.1562 839.684 54.1562C840.294 54.1562 840.841 54.0625 841.325 53.875C841.825 53.6875 842.255 53.4609 842.614 53.1953C843.036 52.9141 843.419 52.5938 843.763 52.2344V42.1562ZM848.075 52.2344C848.434 52.5938 848.817 52.9141 849.223 53.1953C849.583 53.4453 850.005 53.6719 850.489 53.875C850.989 54.0625 851.544 54.1562 852.153 54.1562C852.919 54.1562 853.653 54 854.356 53.6875C855.075 53.3594 855.692 52.8984 856.208 52.3047C856.739 51.7109 857.153 50.9844 857.45 50.125C857.763 49.2656 857.919 48.2891 857.919 47.1953C857.919 46.1016 857.763 45.1328 857.45 44.2891C857.153 43.4453 856.739 42.7188 856.208 42.1094C855.692 41.5 855.075 41.0391 854.356 40.7266C853.653 40.3984 852.919 40.2344 852.153 40.2344C851.544 40.2344 850.989 40.3359 850.489 40.5391C850.005 40.7266 849.583 40.9453 849.223 41.1953C848.802 41.4766 848.419 41.7969 848.075 42.1562V52.2344ZM885.862 36.3906V58H881.55V42.8828L871.214 58H866.902V36.3906H871.214V51.5312L881.55 36.3906H885.862ZM902.017 36.1562C903.455 36.1562 904.798 36.4297 906.048 36.9766C907.298 37.5234 908.392 38.2891 909.33 39.2734C910.283 40.2422 911.025 41.3984 911.556 42.7422C912.087 44.0859 912.353 45.5703 912.353 47.1953C912.353 48.8203 912.087 50.3125 911.556 51.6719C911.025 53.0156 910.283 54.1797 909.33 55.1641C908.392 56.1328 907.298 56.8906 906.048 57.4375C904.798 57.9688 903.455 58.2344 902.017 58.2344C900.986 58.2344 900.103 58.1172 899.369 57.8828C898.634 57.6484 898.017 57.3672 897.517 57.0391C896.939 56.6797 896.439 56.2812 896.017 55.8438V65.6875H891.705V36.3906H894.822L895.783 38.5703C896.205 38.1172 896.697 37.7109 897.259 37.3516C897.775 37.0703 898.423 36.8047 899.205 36.5547C899.986 36.2891 900.923 36.1562 902.017 36.1562ZM901.783 54.1562C902.611 54.1562 903.4 53.9922 904.15 53.6641C904.9 53.3203 905.564 52.8359 906.142 52.2109C906.72 51.5859 907.173 50.8516 907.502 50.0078C907.845 49.1641 908.017 48.2266 908.017 47.1953C908.017 46.1641 907.845 45.2266 907.502 44.3828C907.173 43.5391 906.72 42.8047 906.142 42.1797C905.564 41.5547 904.9 41.0781 904.15 40.75C903.4 40.4062 902.611 40.2344 901.783 40.2344C900.955 40.2344 900.158 40.4062 899.392 40.75C898.642 41.0781 897.978 41.5547 897.4 42.1797C896.837 42.8047 896.384 43.5469 896.041 44.4062C895.712 45.25 895.548 46.1797 895.548 47.1953C895.548 48.2266 895.712 49.1641 896.041 50.0078C896.384 50.8516 896.837 51.5859 897.4 52.2109C897.978 52.8359 898.642 53.3203 899.392 53.6641C900.158 53.9922 900.955 54.1562 901.783 54.1562ZM940.789 36.3906V58H936.453V36.3906H940.789ZM926.141 43.6094C927.234 43.6094 928.234 43.7969 929.141 44.1719C930.047 44.5312 930.828 45.0312 931.484 45.6719C932.141 46.3125 932.648 47.0703 933.008 47.9453C933.383 48.8203 933.57 49.7734 933.57 50.8047C933.57 51.8359 933.383 52.7891 933.008 53.6641C932.648 54.5391 932.141 55.2969 931.484 55.9375C930.828 56.5781 930.047 57.0859 929.141 57.4609C928.234 57.8203 927.234 58 926.141 58H917.023V36.3906H921.336V43.6094H926.141ZM926.141 53.9219C926.969 53.9219 927.695 53.6094 928.32 52.9844C928.945 52.3594 929.258 51.6328 929.258 50.8047C929.258 49.9766 928.945 49.25 928.32 48.625C927.695 48 926.969 47.6875 926.141 47.6875H921.336V53.9219H926.141Z" fill="black"/>
<rect x="994" width="223" height="96" rx="20" fill="#222222"/>
<path d="M1040.28 58L1031.86 47.6875V58H1027.55V36.3906H1031.86V45.7656L1039.32 36.3906H1044.36L1035.97 46.4688L1045.55 58H1040.28ZM1062.69 47.1953C1062.69 46.1641 1062.52 45.2266 1062.17 44.3828C1061.85 43.5391 1061.41 42.8047 1060.86 42.1797C1060.32 41.5547 1059.67 41.0781 1058.94 40.75C1058.21 40.4062 1057.46 40.2344 1056.69 40.2344C1055.92 40.2344 1055.17 40.4062 1054.44 40.75C1053.71 41.0781 1053.07 41.5547 1052.52 42.1797C1051.97 42.8047 1051.53 43.5469 1051.18 44.4062C1050.85 45.25 1050.69 46.1797 1050.69 47.1953C1050.69 48.2266 1050.85 49.1641 1051.18 50.0078C1051.53 50.8516 1051.97 51.5859 1052.52 52.2109C1053.07 52.8359 1053.71 53.3203 1054.44 53.6641C1055.17 53.9922 1055.92 54.1562 1056.69 54.1562C1057.46 54.1562 1058.21 53.9922 1058.94 53.6641C1059.67 53.3203 1060.32 52.8359 1060.86 52.2109C1061.41 51.5859 1061.85 50.8516 1062.17 50.0078C1062.52 49.1641 1062.69 48.2266 1062.69 47.1953ZM1067 47.1953C1067 48.8203 1066.74 50.3125 1066.21 51.6719C1065.69 53.0156 1064.96 54.1797 1064 55.1641C1063.07 56.1328 1061.97 56.8906 1060.72 57.4375C1059.47 57.9688 1058.13 58.2344 1056.69 58.2344C1055.25 58.2344 1053.91 57.9688 1052.66 57.4375C1051.41 56.8906 1050.31 56.1328 1049.35 55.1641C1048.42 54.1797 1047.68 53.0156 1047.15 51.6719C1046.64 50.3281 1046.38 48.8359 1046.38 47.1953C1046.38 45.5703 1046.64 44.0859 1047.15 42.7422C1047.68 41.3984 1048.42 40.2422 1049.35 39.2734C1050.31 38.2891 1051.41 37.5234 1052.66 36.9766C1053.91 36.4297 1055.25 36.1562 1056.69 36.1562C1058.13 36.1562 1059.47 36.4297 1060.72 36.9766C1061.97 37.5234 1063.07 38.2891 1064 39.2734C1064.96 40.2422 1065.69 41.3984 1066.21 42.7422C1066.74 44.0859 1067 45.5703 1067 47.1953ZM1090.63 36.3906V58H1086.32V49.1172H1075.99V58H1071.67V36.3906H1075.99V45.0391H1086.32V36.3906H1090.63ZM1117.83 53.9219V63.0391H1113.75V58H1096.48V36.3906H1100.79V53.9219H1110.63V36.3906H1114.95V53.9219H1117.83ZM1140.29 51.7656C1139.93 52.6562 1139.47 53.4922 1138.93 54.2734C1138.38 55.0547 1137.72 55.7422 1136.96 56.3359C1136.19 56.9297 1135.3 57.3984 1134.29 57.7422C1133.29 58.0703 1132.16 58.2344 1130.91 58.2344C1129.47 58.2344 1128.13 57.9688 1126.88 57.4375C1125.63 56.8906 1124.54 56.1328 1123.6 55.1641C1122.66 54.1797 1121.93 53.0156 1121.4 51.6719C1120.87 50.3281 1120.6 48.8359 1120.6 47.1953C1120.6 45.5703 1120.87 44.0859 1121.4 42.7422C1121.93 41.3984 1122.65 40.2422 1123.55 39.2734C1124.46 38.2891 1125.53 37.5234 1126.76 36.9766C1128 36.4297 1129.3 36.1562 1130.68 36.1562C1132.05 36.1562 1133.36 36.4297 1134.59 36.9766C1135.83 37.5234 1136.9 38.2891 1137.8 39.2734C1138.71 40.2422 1139.43 41.3984 1139.96 42.7422C1140.49 44.0859 1140.76 45.5703 1140.76 47.1953C1140.76 47.4453 1140.74 47.6953 1140.71 47.9453C1140.68 48.1797 1140.65 48.3828 1140.62 48.5547C1140.58 48.7734 1140.55 48.9609 1140.52 49.1172H1125.15C1125.21 49.7891 1125.4 50.4297 1125.73 51.0391C1126.06 51.6484 1126.47 52.1875 1126.95 52.6562C1127.45 53.1094 1128.05 53.4766 1128.73 53.7578C1129.42 54.0234 1130.15 54.1562 1130.91 54.1562C1132.22 54.1562 1133.26 53.875 1134.03 53.3125C1134.81 52.75 1135.37 52.2344 1135.72 51.7656H1140.29ZM1130.68 40.2344C1129.24 40.2344 1128.02 40.7266 1127.02 41.7109C1126.04 42.6797 1125.41 43.9531 1125.15 45.5312H1136.68C1136.43 43.9688 1135.79 42.6953 1134.76 41.7109C1133.74 40.7266 1132.38 40.2344 1130.68 40.2344ZM1164.39 36.3906V58H1160.07V40.4688H1149.74V58H1145.43V36.3906H1164.39ZM1168.07 36.3906H1185.82V40.4688H1179.11V58H1174.78V40.4688H1168.07V36.3906Z" fill="white"/>
<rect x="1237" width="443" height="96" rx="20" fill="#3F8AE0"/>
<path d="M1281.9 46.9609C1282.45 47.2422 1282.92 47.6094 1283.33 48.0625C1283.69 48.4531 1284.02 48.9375 1284.34 49.5156C1284.66 50.0781 1284.83 50.75 1284.83 51.5312C1284.83 53.4531 1284.13 55.0547 1282.74 56.3359C1281.37 57.6016 1279.42 58.2344 1276.91 58.2344C1274.25 58.2344 1272.26 57.6094 1270.93 56.3594C1269.6 55.1094 1268.87 53.3359 1268.73 51.0391H1273.06C1273.19 51.9922 1273.55 52.75 1274.16 53.3125C1274.77 53.875 1275.69 54.1562 1276.91 54.1562C1278.25 54.1562 1279.22 53.9062 1279.81 53.4062C1280.42 52.8906 1280.73 52.2656 1280.73 51.5312C1280.73 50.7969 1280.42 50.1719 1279.81 49.6562C1279.22 49.1406 1278.25 48.8828 1276.91 48.8828H1274.98V45.0391H1276.91C1278.12 45.0391 1278.98 44.7969 1279.48 44.3125C1280 43.8125 1280.26 43.2578 1280.26 42.6484C1280.26 42.0391 1280 41.4844 1279.48 40.9844C1278.97 40.4844 1278.11 40.2344 1276.91 40.2344C1275.81 40.2344 1274.97 40.4922 1274.38 41.0078C1273.78 41.5234 1273.42 42.1484 1273.3 42.8828H1268.98C1269.11 40.8359 1269.83 39.2031 1271.14 37.9844C1272.45 36.7656 1274.38 36.1562 1276.91 36.1562C1278.06 36.1562 1279.09 36.3281 1280 36.6719C1280.91 37 1281.68 37.4609 1282.32 38.0547C1282.96 38.6484 1283.45 39.3359 1283.8 40.1172C1284.16 40.8984 1284.34 41.7422 1284.34 42.6484C1284.34 43.3828 1284.2 44.0234 1283.94 44.5703C1283.69 45.1016 1283.41 45.5469 1283.09 45.9062C1282.75 46.3281 1282.35 46.6797 1281.9 46.9609ZM1303.65 46.7266C1304.23 47.0078 1304.75 47.3906 1305.2 47.875C1305.59 48.2969 1305.95 48.8281 1306.28 49.4688C1306.61 50.0938 1306.77 50.8594 1306.77 51.7656C1306.77 52.6562 1306.61 53.4844 1306.28 54.25C1305.97 55.0156 1305.53 55.6719 1304.97 56.2188C1304.42 56.7656 1303.74 57.2031 1302.93 57.5312C1302.13 57.8438 1301.26 58 1300.3 58H1289.5V36.3906H1299.58C1300.53 36.3906 1301.4 36.5469 1302.2 36.8594C1303.01 37.1562 1303.69 37.5781 1304.24 38.125C1304.8 38.6719 1305.24 39.3125 1305.55 40.0469C1305.88 40.7812 1306.05 41.5625 1306.05 42.3906C1306.05 43.1875 1305.92 43.8516 1305.67 44.3828C1305.42 44.9141 1305.15 45.3594 1304.85 45.7188C1304.51 46.1094 1304.11 46.4453 1303.65 46.7266ZM1293.81 40V45.2734H1299.08C1299.82 45.2734 1300.44 45.0234 1300.96 44.5234C1301.48 44.0078 1301.73 43.3828 1301.73 42.6484C1301.73 41.9141 1301.48 41.2891 1300.96 40.7734C1300.46 40.2578 1299.83 40 1299.08 40H1293.81ZM1299.81 54.3906C1300.55 54.3906 1301.17 54.125 1301.69 53.5938C1302.2 53.0469 1302.46 52.3594 1302.46 51.5312C1302.46 50.7969 1302.2 50.1719 1301.69 49.6562C1301.17 49.1406 1300.55 48.8828 1299.81 48.8828H1293.81V54.3906H1299.81ZM1309.03 36.3906H1313.6L1319.6 52L1325.6 36.3906H1330.17L1321.03 59.4297C1320.54 60.6484 1320.07 61.6641 1319.6 62.4766C1319.15 63.3047 1318.65 63.9688 1318.1 64.4688C1317.57 64.9844 1316.97 65.3516 1316.32 65.5703C1315.66 65.8047 1314.92 65.9219 1314.09 65.9219C1313.9 65.9219 1313.72 65.9141 1313.55 65.8984C1313.4 65.8828 1313.24 65.8594 1313.08 65.8281C1312.93 65.7969 1312.78 65.75 1312.64 65.6875V62.0781C1313.86 62.0781 1314.78 61.8203 1315.4 61.3047C1316.03 60.8047 1316.47 60.1797 1316.72 59.4297L1317.44 57.2734L1309.03 36.3906ZM1346.58 58L1338.17 47.6875V58H1333.85V36.3906H1338.17V45.7656L1345.62 36.3906H1350.66L1342.27 46.4688L1351.85 58H1346.58ZM1368.99 47.1953C1368.99 46.1641 1368.82 45.2266 1368.48 44.3828C1368.15 43.5391 1367.71 42.8047 1367.17 42.1797C1366.62 41.5547 1365.98 41.0781 1365.24 40.75C1364.51 40.4062 1363.76 40.2344 1362.99 40.2344C1362.23 40.2344 1361.48 40.4062 1360.74 40.75C1360.01 41.0781 1359.37 41.5547 1358.82 42.1797C1358.28 42.8047 1357.83 43.5469 1357.49 44.4062C1357.16 45.25 1356.99 46.1797 1356.99 47.1953C1356.99 48.2266 1357.16 49.1641 1357.49 50.0078C1357.83 50.8516 1358.28 51.5859 1358.82 52.2109C1359.37 52.8359 1360.01 53.3203 1360.74 53.6641C1361.48 53.9922 1362.23 54.1562 1362.99 54.1562C1363.76 54.1562 1364.51 53.9922 1365.24 53.6641C1365.98 53.3203 1366.62 52.8359 1367.17 52.2109C1367.71 51.5859 1368.15 50.8516 1368.48 50.0078C1368.82 49.1641 1368.99 48.2266 1368.99 47.1953ZM1373.31 47.1953C1373.31 48.8203 1373.04 50.3125 1372.51 51.6719C1371.99 53.0156 1371.26 54.1797 1370.31 55.1641C1369.37 56.1328 1368.28 56.8906 1367.03 57.4375C1365.78 57.9688 1364.43 58.2344 1362.99 58.2344C1361.56 58.2344 1360.21 57.9688 1358.96 57.4375C1357.71 56.8906 1356.61 56.1328 1355.66 55.1641C1354.72 54.1797 1353.99 53.0156 1353.45 51.6719C1352.94 50.3281 1352.68 48.8359 1352.68 47.1953C1352.68 45.5703 1352.94 44.0859 1353.45 42.7422C1353.99 41.3984 1354.72 40.2422 1355.66 39.2734C1356.61 38.2891 1357.71 37.5234 1358.96 36.9766C1360.21 36.4297 1361.56 36.1562 1362.99 36.1562C1364.43 36.1562 1365.78 36.4297 1367.03 36.9766C1368.28 37.5234 1369.37 38.2891 1370.31 39.2734C1371.26 40.2422 1371.99 41.3984 1372.51 42.7422C1373.04 44.0859 1373.31 45.5703 1373.31 47.1953ZM1392.13 46.7266C1392.71 47.0078 1393.23 47.3906 1393.68 47.875C1394.07 48.2969 1394.43 48.8281 1394.76 49.4688C1395.09 50.0938 1395.25 50.8594 1395.25 51.7656C1395.25 52.6562 1395.09 53.4844 1394.76 54.25C1394.45 55.0156 1394.01 55.6719 1393.45 56.2188C1392.9 56.7656 1392.22 57.2031 1391.41 57.5312C1390.61 57.8438 1389.73 58 1388.78 58H1377.98V36.3906H1388.05C1389.01 36.3906 1389.88 36.5469 1390.68 36.8594C1391.49 37.1562 1392.17 37.5781 1392.72 38.125C1393.28 38.6719 1393.72 39.3125 1394.03 40.0469C1394.36 40.7812 1394.52 41.5625 1394.52 42.3906C1394.52 43.1875 1394.4 43.8516 1394.15 44.3828C1393.9 44.9141 1393.62 45.3594 1393.33 45.7188C1392.98 46.1094 1392.59 46.4453 1392.13 46.7266ZM1382.29 40V45.2734H1387.56C1388.3 45.2734 1388.92 45.0234 1389.44 44.5234C1389.95 44.0078 1390.21 43.3828 1390.21 42.6484C1390.21 41.9141 1389.95 41.2891 1389.44 40.7734C1388.94 40.2578 1388.31 40 1387.56 40H1382.29ZM1388.29 54.3906C1389.02 54.3906 1389.65 54.125 1390.16 53.5938C1390.68 53.0469 1390.94 52.3594 1390.94 51.5312C1390.94 50.7969 1390.68 50.1719 1390.16 49.6562C1389.65 49.1406 1389.02 48.8828 1388.29 48.8828H1382.29V54.3906H1388.29ZM1423.69 36.3906V58H1419.35V36.3906H1423.69ZM1409.04 43.6094C1410.13 43.6094 1411.13 43.7969 1412.04 44.1719C1412.94 44.5312 1413.73 45.0312 1414.38 45.6719C1415.04 46.3125 1415.55 47.0703 1415.9 47.9453C1416.28 48.8203 1416.47 49.7734 1416.47 50.8047C1416.47 51.8359 1416.28 52.7891 1415.9 53.6641C1415.55 54.5391 1415.04 55.2969 1414.38 55.9375C1413.73 56.5781 1412.94 57.0859 1412.04 57.4609C1411.13 57.8203 1410.13 58 1409.04 58H1399.92V36.3906H1404.23V43.6094H1409.04ZM1409.04 53.9219C1409.87 53.9219 1410.59 53.6094 1411.22 52.9844C1411.84 52.3594 1412.15 51.6328 1412.15 50.8047C1412.15 49.9766 1411.84 49.25 1411.22 48.625C1410.59 48 1409.87 47.6875 1409.04 47.6875H1404.23V53.9219H1409.04ZM1448.28 51.7656C1447.92 52.6562 1447.47 53.4922 1446.92 54.2734C1446.37 55.0547 1445.72 55.7422 1444.95 56.3359C1444.18 56.9297 1443.29 57.3984 1442.28 57.7422C1441.28 58.0703 1440.15 58.2344 1438.9 58.2344C1437.47 58.2344 1436.12 57.9688 1434.87 57.4375C1433.62 56.8906 1432.53 56.1328 1431.59 55.1641C1430.65 54.1797 1429.92 53.0156 1429.39 51.6719C1428.86 50.3281 1428.59 48.8359 1428.59 47.1953C1428.59 45.5703 1428.86 44.0859 1429.39 42.7422C1429.92 41.3984 1430.64 40.2422 1431.54 39.2734C1432.45 38.2891 1433.52 37.5234 1434.75 36.9766C1435.99 36.4297 1437.29 36.1562 1438.67 36.1562C1440.04 36.1562 1441.35 36.4297 1442.58 36.9766C1443.82 37.5234 1444.89 38.2891 1445.79 39.2734C1446.7 40.2422 1447.42 41.3984 1447.95 42.7422C1448.48 44.0859 1448.75 45.5703 1448.75 47.1953C1448.75 47.4453 1448.73 47.6953 1448.7 47.9453C1448.67 48.1797 1448.64 48.3828 1448.61 48.5547C1448.57 48.7734 1448.54 48.9609 1448.51 49.1172H1433.14C1433.2 49.7891 1433.4 50.4297 1433.72 51.0391C1434.05 51.6484 1434.46 52.1875 1434.94 52.6562C1435.44 53.1094 1436.04 53.4766 1436.72 53.7578C1437.41 54.0234 1438.14 54.1562 1438.9 54.1562C1440.22 54.1562 1441.25 53.875 1442.02 53.3125C1442.8 52.75 1443.36 52.2344 1443.71 51.7656H1448.28ZM1438.67 40.2344C1437.23 40.2344 1436.01 40.7266 1435.01 41.7109C1434.03 42.6797 1433.4 43.9531 1433.14 45.5312H1444.67C1444.42 43.9688 1443.78 42.6953 1442.75 41.7109C1441.73 40.7266 1440.37 40.2344 1438.67 40.2344ZM1471.99 36.1562C1473.42 36.1562 1474.77 36.4297 1476.02 36.9766C1477.27 37.5234 1478.36 38.2891 1479.3 39.2734C1480.25 40.2422 1480.99 41.3984 1481.5 42.7422C1482.03 44.0859 1482.3 45.5703 1482.3 47.1953C1482.3 48.8203 1482.03 50.3125 1481.5 51.6719C1480.99 53.0156 1480.25 54.1797 1479.3 55.1641C1478.36 56.1328 1477.27 56.8906 1476.02 57.4375C1474.77 57.9688 1473.42 58.2344 1471.99 58.2344C1470.74 58.2344 1469.57 58.0312 1468.49 57.625C1467.43 57.2031 1466.49 56.6406 1465.66 55.9375C1464.85 55.2344 1464.18 54.4219 1463.67 53.5C1463.17 52.5625 1462.81 51.5859 1462.61 50.5703H1467.18C1467.43 51.5234 1467.95 52.3594 1468.75 53.0781C1469.56 53.7969 1470.64 54.1562 1471.99 54.1562C1472.69 54.1562 1473.37 54.0234 1474.02 53.7578C1474.68 53.4766 1475.26 53.1094 1475.76 52.6562C1476.27 52.1875 1476.7 51.6484 1477.02 51.0391C1477.37 50.4297 1477.61 49.7891 1477.75 49.1172H1470.53V45.5312H1477.75C1477.63 44.8281 1477.39 44.1562 1477.05 43.5156C1476.7 42.875 1476.27 42.3125 1475.76 41.8281C1475.26 41.3438 1474.68 40.9609 1474.02 40.6797C1473.37 40.3828 1472.69 40.2344 1471.99 40.2344C1470.64 40.2344 1469.56 40.5938 1468.75 41.3125C1467.95 42.0312 1467.43 42.875 1467.18 43.8438H1462.61C1462.8 42.8125 1463.15 41.8359 1463.67 40.9141C1464.18 39.9922 1464.85 39.1797 1465.66 38.4766C1466.49 37.7578 1467.43 37.1953 1468.49 36.7891C1469.57 36.3672 1470.74 36.1562 1471.99 36.1562ZM1499.91 27.7656H1504.22V37.6094C1504.61 37.3594 1505.04 37.1172 1505.51 36.8828C1505.93 36.7266 1506.41 36.5703 1506.96 36.4141C1507.51 36.2422 1508.12 36.1562 1508.79 36.1562C1510.04 36.1562 1511.24 36.4297 1512.4 36.9766C1513.57 37.5234 1514.59 38.2891 1515.47 39.2734C1516.36 40.2422 1517.06 41.3984 1517.58 42.7422C1518.11 44.0859 1518.38 45.5703 1518.38 47.1953C1518.38 48.8203 1518.11 50.3125 1517.58 51.6719C1517.06 53.0156 1516.36 54.1797 1515.47 55.1641C1514.59 56.1328 1513.57 56.8906 1512.4 57.4375C1511.24 57.9688 1510.04 58.2344 1508.79 58.2344C1508.12 58.2344 1507.51 58.1641 1506.96 58.0234C1506.41 57.8828 1505.93 57.7188 1505.51 57.5312C1505.02 57.3438 1504.59 57.1016 1504.22 56.8047V65.6875H1499.91V56.8047C1499.52 57.0859 1499.09 57.3281 1498.62 57.5312C1498.2 57.7188 1497.7 57.8828 1497.14 58.0234C1496.58 58.1641 1495.98 58.2344 1495.34 58.2344C1494.09 58.2344 1492.88 57.9688 1491.7 57.4375C1490.55 56.8906 1489.52 56.1328 1488.63 55.1641C1487.76 54.1797 1487.05 53.0156 1486.52 51.6719C1486.01 50.3281 1485.75 48.8359 1485.75 47.1953C1485.75 45.5703 1486.01 44.0859 1486.52 42.7422C1487.05 41.3984 1487.76 40.2422 1488.63 39.2734C1489.52 38.2891 1490.55 37.5234 1491.7 36.9766C1492.88 36.4297 1494.09 36.1562 1495.34 36.1562C1495.98 36.1562 1496.58 36.2422 1497.14 36.4141C1497.7 36.5703 1498.2 36.7266 1498.62 36.8828C1499.1 37.1016 1499.53 37.3438 1499.91 37.6094V27.7656ZM1499.91 42.1562C1499.55 41.7969 1499.16 41.4766 1498.76 41.1953C1498.4 40.9453 1497.97 40.7266 1497.47 40.5391C1496.98 40.3359 1496.44 40.2344 1495.83 40.2344C1495.06 40.2344 1494.32 40.3984 1493.6 40.7266C1492.9 41.0391 1492.28 41.5 1491.75 42.1094C1491.23 42.7188 1490.82 43.4531 1490.51 44.3125C1490.21 45.1562 1490.06 46.1172 1490.06 47.1953C1490.06 48.2891 1490.21 49.2656 1490.51 50.125C1490.82 50.9844 1491.23 51.7109 1491.75 52.3047C1492.28 52.8984 1492.9 53.3594 1493.6 53.6875C1494.32 54 1495.06 54.1562 1495.83 54.1562C1496.44 54.1562 1496.98 54.0625 1497.47 53.875C1497.97 53.6875 1498.4 53.4609 1498.76 53.1953C1499.18 52.9141 1499.56 52.5938 1499.91 52.2344V42.1562ZM1504.22 52.2344C1504.58 52.5938 1504.96 52.9141 1505.37 53.1953C1505.73 53.4453 1506.15 53.6719 1506.63 53.875C1507.13 54.0625 1507.69 54.1562 1508.3 54.1562C1509.06 54.1562 1509.8 54 1510.5 53.6875C1511.22 53.3594 1511.84 52.8984 1512.35 52.3047C1512.88 51.7109 1513.3 50.9844 1513.59 50.125C1513.91 49.2656 1514.06 48.2891 1514.06 47.1953C1514.06 46.1016 1513.91 45.1328 1513.59 44.2891C1513.3 43.4453 1512.88 42.7188 1512.35 42.1094C1511.84 41.5 1511.22 41.0391 1510.5 40.7266C1509.8 40.3984 1509.06 40.2344 1508.3 40.2344C1507.69 40.2344 1507.13 40.3359 1506.63 40.5391C1506.15 40.7266 1505.73 40.9453 1505.37 41.1953C1504.95 41.4766 1504.56 41.7969 1504.22 42.1562V52.2344ZM1536.01 27.7656H1540.32V37.6094C1540.71 37.3594 1541.14 37.1172 1541.61 36.8828C1542.03 36.7266 1542.51 36.5703 1543.06 36.4141C1543.61 36.2422 1544.22 36.1562 1544.89 36.1562C1546.14 36.1562 1547.34 36.4297 1548.5 36.9766C1549.67 37.5234 1550.69 38.2891 1551.57 39.2734C1552.46 40.2422 1553.16 41.3984 1553.68 42.7422C1554.21 44.0859 1554.48 45.5703 1554.48 47.1953C1554.48 48.8203 1554.21 50.3125 1553.68 51.6719C1553.16 53.0156 1552.46 54.1797 1551.57 55.1641C1550.69 56.1328 1549.67 56.8906 1548.5 57.4375C1547.34 57.9688 1546.14 58.2344 1544.89 58.2344C1544.22 58.2344 1543.61 58.1641 1543.06 58.0234C1542.51 57.8828 1542.03 57.7188 1541.61 57.5312C1541.12 57.3438 1540.69 57.1016 1540.32 56.8047V65.6875H1536.01V56.8047C1535.62 57.0859 1535.19 57.3281 1534.72 57.5312C1534.3 57.7188 1533.8 57.8828 1533.24 58.0234C1532.68 58.1641 1532.08 58.2344 1531.44 58.2344C1530.19 58.2344 1528.98 57.9688 1527.8 57.4375C1526.65 56.8906 1525.62 56.1328 1524.73 55.1641C1523.86 54.1797 1523.15 53.0156 1522.62 51.6719C1522.11 50.3281 1521.85 48.8359 1521.85 47.1953C1521.85 45.5703 1522.11 44.0859 1522.62 42.7422C1523.15 41.3984 1523.86 40.2422 1524.73 39.2734C1525.62 38.2891 1526.65 37.5234 1527.8 36.9766C1528.98 36.4297 1530.19 36.1562 1531.44 36.1562C1532.08 36.1562 1532.68 36.2422 1533.24 36.4141C1533.8 36.5703 1534.3 36.7266 1534.72 36.8828C1535.2 37.1016 1535.63 37.3438 1536.01 37.6094V27.7656ZM1536.01 42.1562C1535.65 41.7969 1535.26 41.4766 1534.86 41.1953C1534.5 40.9453 1534.07 40.7266 1533.57 40.5391C1533.08 40.3359 1532.54 40.2344 1531.93 40.2344C1531.16 40.2344 1530.42 40.3984 1529.7 40.7266C1529 41.0391 1528.38 41.5 1527.85 42.1094C1527.33 42.7188 1526.92 43.4531 1526.61 44.3125C1526.31 45.1562 1526.16 46.1172 1526.16 47.1953C1526.16 48.2891 1526.31 49.2656 1526.61 50.125C1526.92 50.9844 1527.33 51.7109 1527.85 52.3047C1528.38 52.8984 1529 53.3594 1529.7 53.6875C1530.42 54 1531.16 54.1562 1531.93 54.1562C1532.54 54.1562 1533.08 54.0625 1533.57 53.875C1534.07 53.6875 1534.5 53.4609 1534.86 53.1953C1535.28 52.9141 1535.66 52.5938 1536.01 52.2344V42.1562ZM1540.32 52.2344C1540.68 52.5938 1541.06 52.9141 1541.47 53.1953C1541.83 53.4453 1542.25 53.6719 1542.73 53.875C1543.23 54.0625 1543.79 54.1562 1544.4 54.1562C1545.16 54.1562 1545.9 54 1546.6 53.6875C1547.32 53.3594 1547.94 52.8984 1548.45 52.3047C1548.98 51.7109 1549.4 50.9844 1549.69 50.125C1550.01 49.2656 1550.16 48.2891 1550.16 47.1953C1550.16 46.1016 1550.01 45.1328 1549.69 44.2891C1549.4 43.4453 1548.98 42.7188 1548.45 42.1094C1547.94 41.5 1547.32 41.0391 1546.6 40.7266C1545.9 40.3984 1545.16 40.2344 1544.4 40.2344C1543.79 40.2344 1543.23 40.3359 1542.73 40.5391C1542.25 40.7266 1541.83 40.9453 1541.47 41.1953C1541.05 41.4766 1540.66 41.7969 1540.32 42.1562V52.2344ZM1577.87 51.7656C1577.51 52.6562 1577.06 53.4922 1576.51 54.2734C1575.97 55.0547 1575.31 55.7422 1574.54 56.3359C1573.78 56.9297 1572.89 57.3984 1571.87 57.7422C1570.87 58.0703 1569.75 58.2344 1568.5 58.2344C1567.06 58.2344 1565.72 57.9688 1564.47 57.4375C1563.22 56.8906 1562.12 56.1328 1561.18 55.1641C1560.25 54.1797 1559.51 53.0156 1558.98 51.6719C1558.45 50.3281 1558.18 48.8359 1558.18 47.1953C1558.18 45.5703 1558.45 44.0859 1558.98 42.7422C1559.51 41.3984 1560.23 40.2422 1561.14 39.2734C1562.04 38.2891 1563.11 37.5234 1564.35 36.9766C1565.58 36.4297 1566.89 36.1562 1568.26 36.1562C1569.64 36.1562 1570.94 36.4297 1572.18 36.9766C1573.41 37.5234 1574.48 38.2891 1575.39 39.2734C1576.29 40.2422 1577.01 41.3984 1577.54 42.7422C1578.08 44.0859 1578.34 45.5703 1578.34 47.1953C1578.34 47.4453 1578.33 47.6953 1578.29 47.9453C1578.26 48.1797 1578.23 48.3828 1578.2 48.5547C1578.17 48.7734 1578.14 48.9609 1578.11 49.1172H1562.73C1562.79 49.7891 1562.99 50.4297 1563.32 51.0391C1563.65 51.6484 1564.05 52.1875 1564.54 52.6562C1565.04 53.1094 1565.63 53.4766 1566.32 53.7578C1567 54.0234 1567.73 54.1562 1568.5 54.1562C1569.81 54.1562 1570.85 53.875 1571.61 53.3125C1572.4 52.75 1572.96 52.2344 1573.3 51.7656H1577.87ZM1568.26 40.2344C1566.83 40.2344 1565.61 40.7266 1564.61 41.7109C1563.62 42.6797 1563 43.9531 1562.73 45.5312H1574.26C1574.01 43.9688 1573.37 42.6953 1572.34 41.7109C1571.33 40.7266 1569.97 40.2344 1568.26 40.2344ZM1595.97 58L1587.56 47.6875V58H1583.25V36.3906H1587.56V45.7656L1595.01 36.3906H1600.05L1591.66 46.4688L1601.25 58H1595.97ZM1601.58 36.3906H1619.32V40.4688H1612.62V58H1608.28V40.4688H1601.58V36.3906ZM1646.82 36.3906V58H1642.48V36.3906H1646.82ZM1632.17 43.6094C1633.27 43.6094 1634.27 43.7969 1635.17 44.1719C1636.08 44.5312 1636.86 45.0312 1637.52 45.6719C1638.17 46.3125 1638.68 47.0703 1639.04 47.9453C1639.41 48.8203 1639.6 49.7734 1639.6 50.8047C1639.6 51.8359 1639.41 52.7891 1639.04 53.6641C1638.68 54.5391 1638.17 55.2969 1637.52 55.9375C1636.86 56.5781 1636.08 57.0859 1635.17 57.4609C1634.27 57.8203 1633.27 58 1632.17 58H1623.05V36.3906H1627.37V43.6094H1632.17ZM1632.17 53.9219C1633 53.9219 1633.73 53.6094 1634.35 52.9844C1634.98 52.3594 1635.29 51.6328 1635.29 50.8047C1635.29 49.9766 1634.98 49.25 1634.35 48.625C1633.73 48 1633 47.6875 1632.17 47.6875H1627.37V53.9219H1632.17Z" fill="white"/>
<rect x="1700" width="343" height="96" rx="20" fill="#F2F3F5"/>
<path d="M1753.06 53.9219V63.0391H1748.98V58H1734.1V63.0391H1730.02V53.9219H1731.45C1731.9 53.6094 1732.31 53.2578 1732.67 52.8672C1732.98 52.5078 1733.27 52.0859 1733.56 51.6016C1733.85 51.1016 1734.03 50.5156 1734.1 49.8438L1735.55 36.3906H1750.17V53.9219H1753.06ZM1738.41 49.8438C1738.35 50.5156 1738.22 51.1016 1738.03 51.6016C1737.85 52.0859 1737.65 52.5078 1737.45 52.8672C1737.23 53.2578 1736.99 53.6094 1736.74 53.9219H1745.86V40.4688H1739.37L1738.41 49.8438ZM1772.12 47.1953C1772.12 46.1641 1771.95 45.2266 1771.6 44.3828C1771.27 43.5391 1770.84 42.8047 1770.29 42.1797C1769.74 41.5547 1769.1 41.0781 1768.37 40.75C1767.63 40.4062 1766.88 40.2344 1766.12 40.2344C1765.35 40.2344 1764.6 40.4062 1763.87 40.75C1763.13 41.0781 1762.49 41.5547 1761.95 42.1797C1761.4 42.8047 1760.95 43.5469 1760.61 44.4062C1760.28 45.25 1760.12 46.1797 1760.12 47.1953C1760.12 48.2266 1760.28 49.1641 1760.61 50.0078C1760.95 50.8516 1761.4 51.5859 1761.95 52.2109C1762.49 52.8359 1763.13 53.3203 1763.87 53.6641C1764.6 53.9922 1765.35 54.1562 1766.12 54.1562C1766.88 54.1562 1767.63 53.9922 1768.37 53.6641C1769.1 53.3203 1769.74 52.8359 1770.29 52.2109C1770.84 51.5859 1771.27 50.8516 1771.6 50.0078C1771.95 49.1641 1772.12 48.2266 1772.12 47.1953ZM1776.43 47.1953C1776.43 48.8203 1776.16 50.3125 1775.63 51.6719C1775.12 53.0156 1774.38 54.1797 1773.43 55.1641C1772.49 56.1328 1771.4 56.8906 1770.15 57.4375C1768.9 57.9688 1767.55 58.2344 1766.12 58.2344C1764.68 58.2344 1763.34 57.9688 1762.09 57.4375C1760.84 56.8906 1759.73 56.1328 1758.78 55.1641C1757.84 54.1797 1757.11 53.0156 1756.58 51.6719C1756.06 50.3281 1755.8 48.8359 1755.8 47.1953C1755.8 45.5703 1756.06 44.0859 1756.58 42.7422C1757.11 41.3984 1757.84 40.2422 1758.78 39.2734C1759.73 38.2891 1760.84 37.5234 1762.09 36.9766C1763.34 36.4297 1764.68 36.1562 1766.12 36.1562C1767.55 36.1562 1768.9 36.4297 1770.15 36.9766C1771.4 37.5234 1772.49 38.2891 1773.43 39.2734C1774.38 40.2422 1775.12 41.3984 1775.63 42.7422C1776.16 44.0859 1776.43 45.5703 1776.43 47.1953ZM1799.83 50.0781C1799.58 51.2344 1799.18 52.3125 1798.63 53.3125C1798.08 54.2969 1797.39 55.1562 1796.55 55.8906C1795.72 56.625 1794.76 57.2031 1793.69 57.625C1792.62 58.0312 1791.47 58.2344 1790.22 58.2344C1788.78 58.2344 1787.44 57.9688 1786.19 57.4375C1784.94 56.8906 1783.83 56.1328 1782.88 55.1641C1781.94 54.1797 1781.21 53.0156 1780.68 51.6719C1780.16 50.3281 1779.9 48.8359 1779.9 47.1953C1779.9 45.5703 1780.16 44.0859 1780.68 42.7422C1781.21 41.3984 1781.94 40.2422 1782.88 39.2734C1783.83 38.2891 1784.94 37.5234 1786.19 36.9766C1787.44 36.4297 1788.78 36.1562 1790.22 36.1562C1791.47 36.1562 1792.62 36.3672 1793.69 36.7891C1794.76 37.1953 1795.72 37.7734 1796.55 38.5234C1797.39 39.2578 1798.08 40.125 1798.61 41.125C1799.15 42.1094 1799.56 43.1719 1799.83 44.3125H1795.26C1794.9 43.0938 1794.3 42.1094 1793.47 41.3594C1792.65 40.6094 1791.56 40.2344 1790.22 40.2344C1789.45 40.2344 1788.7 40.4062 1787.97 40.75C1787.23 41.0781 1786.59 41.5547 1786.05 42.1797C1785.5 42.8047 1785.05 43.5469 1784.71 44.4062C1784.38 45.25 1784.22 46.1797 1784.22 47.1953C1784.22 48.2266 1784.38 49.1641 1784.71 50.0078C1785.05 50.8516 1785.5 51.5859 1786.05 52.2109C1786.59 52.8359 1787.23 53.3203 1787.97 53.6641C1788.7 53.9922 1789.45 54.1562 1790.22 54.1562C1791.56 54.1562 1792.65 53.7812 1793.47 53.0312C1794.32 52.2812 1794.91 51.2969 1795.26 50.0781H1799.83ZM1817.22 58L1808.81 47.6875V58H1804.5V36.3906H1808.81V45.7656L1816.26 36.3906H1821.3L1812.91 46.4688L1822.5 58H1817.22ZM1833.38 36.1562C1834.63 36.1562 1835.77 36.3594 1836.8 36.7656C1837.85 37.1562 1838.74 37.6953 1839.47 38.3828C1840.21 39.0703 1840.78 39.8828 1841.18 40.8203C1841.59 41.7422 1841.79 42.75 1841.79 43.8438V58H1838.67L1837.71 55.8438C1837.29 56.2969 1836.79 56.6953 1836.21 57.0391C1835.7 57.3516 1835.05 57.6328 1834.27 57.8828C1833.49 58.1172 1832.55 58.2344 1831.46 58.2344C1829.05 58.2344 1827.21 57.6406 1825.92 56.4531C1824.66 55.25 1824.03 53.6875 1824.03 51.7656C1824.03 50.6719 1824.23 49.6875 1824.64 48.8125C1825.06 47.9219 1825.77 47.1719 1826.77 46.5625C1827.78 45.9375 1829.15 45.4531 1830.87 45.1094C1832.6 44.75 1834.8 44.5703 1837.46 44.5703V43.8438C1837.46 42.75 1837.11 41.875 1836.42 41.2188C1835.74 40.5625 1834.72 40.2344 1833.38 40.2344C1831.94 40.2344 1830.89 40.4922 1830.24 41.0078C1829.58 41.5234 1829.19 42.1484 1829.07 42.8828H1824.75C1824.88 40.9609 1825.68 39.3594 1827.17 38.0781C1828.65 36.7969 1830.72 36.1562 1833.38 36.1562ZM1831.71 54.3906C1833.54 54.3906 1834.96 53.9219 1835.96 52.9844C1836.96 52.0469 1837.46 50.9062 1837.46 49.5625V48.3906C1835.53 48.3906 1833.98 48.4844 1832.79 48.6719C1831.62 48.8438 1830.7 49.0859 1830.03 49.3984C1829.35 49.6953 1828.9 50.0703 1828.67 50.5234C1828.45 50.9609 1828.34 51.4531 1828.34 52C1828.34 52.6094 1828.63 53.1641 1829.21 53.6641C1829.78 54.1484 1830.62 54.3906 1831.71 54.3906ZM1869.77 46.9609C1870.31 47.2422 1870.79 47.6094 1871.2 48.0625C1871.55 48.4531 1871.89 48.9375 1872.2 49.5156C1872.53 50.0781 1872.7 50.75 1872.7 51.5312C1872.7 53.4531 1872 55.0547 1870.61 56.3359C1869.23 57.6016 1867.29 58.2344 1864.77 58.2344C1862.12 58.2344 1860.12 57.6094 1858.8 56.3594C1857.47 55.1094 1856.73 53.3359 1856.59 51.0391H1860.93C1861.05 51.9922 1861.42 52.75 1862.03 53.3125C1862.64 53.875 1863.55 54.1562 1864.77 54.1562C1866.12 54.1562 1867.09 53.9062 1867.68 53.4062C1868.29 52.8906 1868.59 52.2656 1868.59 51.5312C1868.59 50.7969 1868.29 50.1719 1867.68 49.6562C1867.09 49.1406 1866.12 48.8828 1864.77 48.8828H1862.85V45.0391H1864.77C1865.99 45.0391 1866.85 44.7969 1867.35 44.3125C1867.87 43.8125 1868.12 43.2578 1868.12 42.6484C1868.12 42.0391 1867.87 41.4844 1867.35 40.9844C1866.84 40.4844 1865.98 40.2344 1864.77 40.2344C1863.68 40.2344 1862.84 40.4922 1862.24 41.0078C1861.65 41.5234 1861.29 42.1484 1861.16 42.8828H1856.85C1856.98 40.8359 1857.7 39.2031 1859.01 37.9844C1860.32 36.7656 1862.24 36.1562 1864.77 36.1562C1865.93 36.1562 1866.96 36.3281 1867.87 36.6719C1868.77 37 1869.55 37.4609 1870.19 38.0547C1870.83 38.6484 1871.32 39.3359 1871.66 40.1172C1872.02 40.8984 1872.2 41.7422 1872.2 42.6484C1872.2 43.3828 1872.07 44.0234 1871.8 44.5703C1871.55 45.1016 1871.27 45.5469 1870.96 45.9062C1870.62 46.3281 1870.22 46.6797 1869.77 46.9609ZM1885.76 36.1562C1887.01 36.1562 1888.15 36.3594 1889.18 36.7656C1890.22 37.1562 1891.12 37.6953 1891.85 38.3828C1892.58 39.0703 1893.15 39.8828 1893.56 40.8203C1893.97 41.7422 1894.17 42.75 1894.17 43.8438V58H1891.05L1890.09 55.8438C1889.67 56.2969 1889.17 56.6953 1888.59 57.0391C1888.08 57.3516 1887.43 57.6328 1886.65 57.8828C1885.87 58.1172 1884.93 58.2344 1883.83 58.2344C1881.43 58.2344 1879.58 57.6406 1878.3 56.4531C1877.04 55.25 1876.4 53.6875 1876.4 51.7656C1876.4 50.6719 1876.61 49.6875 1877.01 48.8125C1877.44 47.9219 1878.15 47.1719 1879.15 46.5625C1880.16 45.9375 1881.53 45.4531 1883.25 45.1094C1884.98 44.75 1887.18 44.5703 1889.83 44.5703V43.8438C1889.83 42.75 1889.49 41.875 1888.8 41.2188C1888.12 40.5625 1887.1 40.2344 1885.76 40.2344C1884.32 40.2344 1883.27 40.4922 1882.62 41.0078C1881.96 41.5234 1881.57 42.1484 1881.44 42.8828H1877.13C1877.26 40.9609 1878.06 39.3594 1879.55 38.0781C1881.03 36.7969 1883.1 36.1562 1885.76 36.1562ZM1884.09 54.3906C1885.92 54.3906 1887.33 53.9219 1888.33 52.9844C1889.33 52.0469 1889.83 50.9062 1889.83 49.5625V48.3906C1887.91 48.3906 1886.36 48.4844 1885.17 48.6719C1884 48.8438 1883.08 49.0859 1882.4 49.3984C1881.73 49.6953 1881.28 50.0703 1881.05 50.5234C1880.83 50.9609 1880.72 51.4531 1880.72 52C1880.72 52.6094 1881.01 53.1641 1881.58 53.6641C1882.16 54.1484 1883 54.3906 1884.09 54.3906ZM1909.86 58L1904.09 46V58H1899.78V36.3906H1903.62L1911.29 52.2344L1918.97 36.3906H1922.82V58H1918.5V46L1912.74 58H1909.86ZM1947.39 51.7656C1947.03 52.6562 1946.57 53.4922 1946.03 54.2734C1945.48 55.0547 1944.82 55.7422 1944.06 56.3359C1943.29 56.9297 1942.4 57.3984 1941.39 57.7422C1940.39 58.0703 1939.26 58.2344 1938.01 58.2344C1936.57 58.2344 1935.23 57.9688 1933.98 57.4375C1932.73 56.8906 1931.64 56.1328 1930.7 55.1641C1929.76 54.1797 1929.03 53.0156 1928.5 51.6719C1927.96 50.3281 1927.7 48.8359 1927.7 47.1953C1927.7 45.5703 1927.96 44.0859 1928.5 42.7422C1929.03 41.3984 1929.75 40.2422 1930.65 39.2734C1931.56 38.2891 1932.63 37.5234 1933.86 36.9766C1935.1 36.4297 1936.4 36.1562 1937.78 36.1562C1939.15 36.1562 1940.46 36.4297 1941.69 36.9766C1942.92 37.5234 1944 38.2891 1944.9 39.2734C1945.81 40.2422 1946.53 41.3984 1947.06 42.7422C1947.59 44.0859 1947.85 45.5703 1947.85 47.1953C1947.85 47.4453 1947.84 47.6953 1947.81 47.9453C1947.78 48.1797 1947.75 48.3828 1947.71 48.5547C1947.68 48.7734 1947.65 48.9609 1947.62 49.1172H1932.25C1932.31 49.7891 1932.5 50.4297 1932.83 51.0391C1933.16 51.6484 1933.57 52.1875 1934.05 52.6562C1934.55 53.1094 1935.14 53.4766 1935.83 53.7578C1936.52 54.0234 1937.25 54.1562 1938.01 54.1562C1939.32 54.1562 1940.36 53.875 1941.13 53.3125C1941.91 52.75 1942.47 52.2344 1942.82 51.7656H1947.39ZM1937.78 40.2344C1936.34 40.2344 1935.12 40.7266 1934.12 41.7109C1933.14 42.6797 1932.51 43.9531 1932.25 45.5312H1943.78C1943.53 43.9688 1942.89 42.6953 1941.85 41.7109C1940.84 40.7266 1939.48 40.2344 1937.78 40.2344ZM1950.13 36.3906H1967.88V40.4688H1961.17V58H1956.84V40.4688H1950.13V36.3906ZM1986.26 47.1953C1986.26 46.1641 1986.09 45.2266 1985.74 44.3828C1985.41 43.5391 1984.98 42.8047 1984.43 42.1797C1983.88 41.5547 1983.24 41.0781 1982.51 40.75C1981.77 40.4062 1981.02 40.2344 1980.26 40.2344C1979.49 40.2344 1978.74 40.4062 1978.01 40.75C1977.27 41.0781 1976.63 41.5547 1976.09 42.1797C1975.54 42.8047 1975.09 43.5469 1974.75 44.4062C1974.42 45.25 1974.26 46.1797 1974.26 47.1953C1974.26 48.2266 1974.42 49.1641 1974.75 50.0078C1975.09 50.8516 1975.54 51.5859 1976.09 52.2109C1976.63 52.8359 1977.27 53.3203 1978.01 53.6641C1978.74 53.9922 1979.49 54.1562 1980.26 54.1562C1981.02 54.1562 1981.77 53.9922 1982.51 53.6641C1983.24 53.3203 1983.88 52.8359 1984.43 52.2109C1984.98 51.5859 1985.41 50.8516 1985.74 50.0078C1986.09 49.1641 1986.26 48.2266 1986.26 47.1953ZM1990.57 47.1953C1990.57 48.8203 1990.3 50.3125 1989.77 51.6719C1989.26 53.0156 1988.52 54.1797 1987.57 55.1641C1986.63 56.1328 1985.54 56.8906 1984.29 57.4375C1983.04 57.9688 1981.7 58.2344 1980.26 58.2344C1978.82 58.2344 1977.48 57.9688 1976.23 57.4375C1974.98 56.8906 1973.88 56.1328 1972.92 55.1641C1971.98 54.1797 1971.25 53.0156 1970.72 51.6719C1970.2 50.3281 1969.95 48.8359 1969.95 47.1953C1969.95 45.5703 1970.2 44.0859 1970.72 42.7422C1971.25 41.3984 1971.98 40.2422 1972.92 39.2734C1973.88 38.2891 1974.98 37.5234 1976.23 36.9766C1977.48 36.4297 1978.82 36.1562 1980.26 36.1562C1981.7 36.1562 1983.04 36.4297 1984.29 36.9766C1985.54 37.5234 1986.63 38.2891 1987.57 39.2734C1988.52 40.2422 1989.26 41.3984 1989.77 42.7422C1990.3 44.0859 1990.57 45.5703 1990.57 47.1953ZM2008.2 58L1999.79 47.6875V58H1995.48V36.3906H1999.79V45.7656L2007.24 36.3906H2012.28L2003.89 46.4688L2013.48 58H2008.2Z" fill="black"/>
<rect x="2063" width="322" height="96" rx="20" fill="black"/>
<path d="M2115.26 39.7656L2114.07 46H2119.83L2119.11 49.3516H2113.34L2111.65 58H2108.3L2109.99 49.3516H2103.03L2101.34 58H2097.99L2099.65 49.3516H2093.65L2094.38 46H2100.15L2101.34 39.7656H2095.57L2096.3 36.3906H2102.07L2103.75 27.7656H2107.11L2105.42 36.3906H2112.38L2114.07 27.7656H2117.42L2115.75 36.3906H2121.75L2121.03 39.7656H2115.26ZM2111.91 39.7656H2104.72L2103.5 46H2110.72L2111.91 39.7656ZM2143.96 36.3906L2135.31 58H2131.46L2122.82 36.3906H2127.39L2133.39 52L2139.39 36.3906H2143.96ZM2160.37 58L2151.95 47.6875V58H2147.64V27.7656H2151.95V45.7656L2159.41 36.3906H2164.45L2156.06 46.4688L2165.64 58H2160.37ZM2179.41 66.3906H2164.29V62.5703H2179.41V66.3906ZM2200.18 50.0781C2199.93 51.2344 2199.53 52.3125 2198.98 53.3125C2198.44 54.2969 2197.74 55.1562 2196.9 55.8906C2196.07 56.625 2195.12 57.2031 2194.04 57.625C2192.97 58.0312 2191.82 58.2344 2190.57 58.2344C2189.13 58.2344 2187.79 57.9688 2186.54 57.4375C2185.29 56.8906 2184.19 56.1328 2183.23 55.1641C2182.3 54.1797 2181.56 53.0156 2181.03 51.6719C2180.51 50.3281 2180.26 48.8359 2180.26 47.1953C2180.26 45.5703 2180.51 44.0859 2181.03 42.7422C2181.56 41.3984 2182.3 40.2422 2183.23 39.2734C2184.19 38.2891 2185.29 37.5234 2186.54 36.9766C2187.79 36.4297 2189.13 36.1562 2190.57 36.1562C2191.82 36.1562 2192.97 36.3672 2194.04 36.7891C2195.12 37.1953 2196.07 37.7734 2196.9 38.5234C2197.74 39.2578 2198.43 40.125 2198.96 41.125C2199.51 42.1094 2199.91 43.1719 2200.18 44.3125H2195.61C2195.25 43.0938 2194.65 42.1094 2193.83 41.3594C2193 40.6094 2191.91 40.2344 2190.57 40.2344C2189.8 40.2344 2189.05 40.4062 2188.32 40.75C2187.58 41.0781 2186.94 41.5547 2186.4 42.1797C2185.85 42.8047 2185.4 43.5469 2185.06 44.4062C2184.73 45.25 2184.57 46.1797 2184.57 47.1953C2184.57 48.2266 2184.73 49.1641 2185.06 50.0078C2185.4 50.8516 2185.85 51.5859 2186.4 52.2109C2186.94 52.8359 2187.58 53.3203 2188.32 53.6641C2189.05 53.9922 2189.8 54.1562 2190.57 54.1562C2191.91 54.1562 2193 53.7812 2193.83 53.0312C2194.67 52.2812 2195.26 51.2969 2195.61 50.0781H2200.18ZM2213.26 58.2344C2212.04 58.2344 2210.91 58.0078 2209.86 57.5547C2208.83 57.0859 2207.92 56.4453 2207.12 55.6328C2206.34 54.8047 2205.72 53.8203 2205.27 52.6797C2204.83 51.5234 2204.61 50.2578 2204.61 48.8828V36.3906H2208.93V48.8828C2208.93 49.6172 2209.06 50.3047 2209.32 50.9453C2209.61 51.5859 2209.97 52.1484 2210.43 52.6328C2210.9 53.1016 2211.43 53.4766 2212.04 53.7578C2212.65 54.0234 2213.29 54.1562 2213.97 54.1562C2214.67 54.1562 2215.34 54.0234 2215.98 53.7578C2216.62 53.4766 2217.18 53.1016 2217.67 52.6328C2218.15 52.1484 2218.54 51.5859 2218.82 50.9453C2219.11 50.3047 2219.26 49.6172 2219.26 48.8828V36.3906H2223.57V58H2220.46L2219.5 55.8438C2219.07 56.2969 2218.57 56.6953 2218 57.0391C2217.48 57.3516 2216.83 57.6328 2216.05 57.8828C2215.29 58.1172 2214.36 58.2344 2213.26 58.2344ZM2239.73 36.1562C2241.17 36.1562 2242.51 36.4297 2243.76 36.9766C2245.01 37.5234 2246.1 38.2891 2247.04 39.2734C2248 40.2422 2248.74 41.3984 2249.27 42.7422C2249.8 44.0859 2250.07 45.5703 2250.07 47.1953C2250.07 48.8203 2249.8 50.3125 2249.27 51.6719C2248.74 53.0156 2248 54.1797 2247.04 55.1641C2246.1 56.1328 2245.01 56.8906 2243.76 57.4375C2242.51 57.9688 2241.17 58.2344 2239.73 58.2344C2238.7 58.2344 2237.82 58.1172 2237.08 57.8828C2236.35 57.6484 2235.73 57.3672 2235.23 57.0391C2234.65 56.6797 2234.15 56.2812 2233.73 55.8438V65.6875H2229.42V36.3906H2232.53L2233.5 38.5703C2233.92 38.1172 2234.41 37.7109 2234.97 37.3516C2235.49 37.0703 2236.14 36.8047 2236.92 36.5547C2237.7 36.2891 2238.64 36.1562 2239.73 36.1562ZM2239.5 54.1562C2240.32 54.1562 2241.11 53.9922 2241.86 53.6641C2242.61 53.3203 2243.28 52.8359 2243.85 52.2109C2244.43 51.5859 2244.89 50.8516 2245.21 50.0078C2245.56 49.1641 2245.73 48.2266 2245.73 47.1953C2245.73 46.1641 2245.56 45.2266 2245.21 44.3828C2244.89 43.5391 2244.43 42.8047 2243.85 42.1797C2243.28 41.5547 2242.61 41.0781 2241.86 40.75C2241.11 40.4062 2240.32 40.2344 2239.5 40.2344C2238.67 40.2344 2237.87 40.4062 2237.1 40.75C2236.35 41.0781 2235.69 41.5547 2235.11 42.1797C2234.55 42.8047 2234.1 43.5469 2233.75 44.4062C2233.43 45.25 2233.26 46.1797 2233.26 47.1953C2233.26 48.2266 2233.43 49.1641 2233.75 50.0078C2234.1 50.8516 2234.55 51.5859 2235.11 52.2109C2235.69 52.8359 2236.35 53.3203 2237.1 53.6641C2237.87 53.9922 2238.67 54.1562 2239.5 54.1562ZM2266.01 66.3906H2250.89V62.5703H2266.01V66.3906ZM2286.52 53.6875V58H2267.09V54.6484L2279.09 41.6875C2279.64 41.1094 2280.12 40.5156 2280.52 39.9062C2280.88 39.3594 2281.21 38.7656 2281.51 38.125C2281.82 37.4844 2281.98 36.8281 2281.98 36.1562C2281.98 34.8125 2281.52 33.7188 2280.59 32.875C2279.69 32.0312 2278.39 31.6094 2276.7 31.6094C2275.14 31.6094 2273.87 32.1016 2272.88 33.0859C2271.9 34.0547 2271.41 35.3203 2271.41 36.8828H2266.86C2266.86 35.5078 2267.09 34.2422 2267.54 33.0859C2268.01 31.9297 2268.66 30.9453 2269.51 30.1328C2270.37 29.3203 2271.4 28.6875 2272.6 28.2344C2273.82 27.7656 2275.19 27.5312 2276.7 27.5312C2278.2 27.5312 2279.55 27.7578 2280.76 28.2109C2281.98 28.6484 2283.01 29.2656 2283.85 30.0625C2284.71 30.8594 2285.37 31.8047 2285.82 32.8984C2286.29 33.9922 2286.52 35.1562 2286.52 36.3906C2286.52 37.3438 2286.3 38.3047 2285.84 39.2734C2285.41 40.2422 2284.91 41.0938 2284.37 41.8281C2283.73 42.6875 2283.01 43.5156 2282.21 44.3125L2273.61 53.6875H2286.52ZM2309.69 42.8828C2309.69 41.0234 2309.47 39.3906 2309.03 37.9844C2308.61 36.5781 2308.05 35.4062 2307.34 34.4688C2306.64 33.5156 2305.83 32.8047 2304.93 32.3359C2304.04 31.8516 2303.15 31.6094 2302.26 31.6094C2301.37 31.6094 2300.47 31.8516 2299.56 32.3359C2298.67 32.8047 2297.87 33.5156 2297.17 34.4688C2296.47 35.4062 2295.9 36.5781 2295.46 37.9844C2295.02 39.3906 2294.8 41.0234 2294.8 42.8828C2294.8 44.7422 2295.02 46.375 2295.46 47.7812C2295.9 49.1875 2296.47 50.3672 2297.17 51.3203C2297.87 52.2578 2298.67 52.9688 2299.56 53.4531C2300.45 53.9219 2301.35 54.1562 2302.26 54.1562C2303.15 54.1562 2304.04 53.9219 2304.93 53.4531C2305.83 52.9688 2306.64 52.2578 2307.34 51.3203C2308.05 50.3672 2308.61 49.1875 2309.03 47.7812C2309.47 46.375 2309.69 44.7422 2309.69 42.8828ZM2314.26 42.8828C2314.26 45.3516 2313.94 47.5391 2313.3 49.4453C2312.65 51.3359 2311.78 52.9375 2310.67 54.25C2309.56 55.5625 2308.29 56.5547 2306.85 57.2266C2305.41 57.8984 2303.88 58.2344 2302.26 58.2344C2300.63 58.2344 2299.09 57.8984 2297.64 57.2266C2296.2 56.5547 2294.93 55.5625 2293.82 54.25C2292.72 52.9375 2291.86 51.3359 2291.22 49.4453C2290.58 47.5391 2290.26 45.3516 2290.26 42.8828C2290.26 40.4141 2290.58 38.2266 2291.22 36.3203C2291.86 34.4141 2292.72 32.8125 2293.82 31.5156C2294.93 30.2031 2296.2 29.2109 2297.64 28.5391C2299.08 27.8672 2300.62 27.5312 2302.26 27.5312C2303.88 27.5312 2305.41 27.8672 2306.85 28.5391C2308.29 29.2109 2309.56 30.2031 2310.67 31.5156C2311.78 32.8125 2312.65 34.4141 2313.3 36.3203C2313.94 38.2266 2314.26 40.4141 2314.26 42.8828ZM2337.4 53.6875V58H2317.97V54.6484L2329.97 41.6875C2330.51 41.1094 2330.99 40.5156 2331.4 39.9062C2331.75 39.3594 2332.08 38.7656 2332.38 38.125C2332.69 37.4844 2332.85 36.8281 2332.85 36.1562C2332.85 34.8125 2332.39 33.7188 2331.47 32.875C2330.56 32.0312 2329.26 31.6094 2327.57 31.6094C2326.01 31.6094 2324.74 32.1016 2323.75 33.0859C2322.77 34.0547 2322.28 35.3203 2322.28 36.8828H2317.73C2317.73 35.5078 2317.96 34.2422 2318.41 33.0859C2318.88 31.9297 2319.54 30.9453 2320.38 30.1328C2321.24 29.3203 2322.27 28.6875 2323.47 28.2344C2324.69 27.7656 2326.06 27.5312 2327.57 27.5312C2329.07 27.5312 2330.43 27.7578 2331.63 28.2109C2332.85 28.6484 2333.88 29.2656 2334.72 30.0625C2335.58 30.8594 2336.24 31.8047 2336.69 32.8984C2337.16 33.9922 2337.4 35.1562 2337.4 36.3906C2337.4 37.3438 2337.17 38.3047 2336.72 39.2734C2336.28 40.2422 2335.79 41.0938 2335.24 41.8281C2334.6 42.6875 2333.88 43.5156 2333.08 44.3125L2324.48 53.6875H2337.4ZM2351.21 27.7656V58H2346.64V34L2342.56 36.6484L2340.4 33.0391L2348.09 27.7656H2351.21Z" fill="white"/>
</svg>
