<svg width="335" height="88" viewBox="0 0 335 88" fill="none" xmlns="http://www.w3.org/2000/svg">
<rect width="335" height="88" rx="44" fill="url(#paint0_linear)"/>
<rect width="335" height="88" rx="44" fill="#FD354D"/>
<path d="M72.6035 38.9006C72.6512 37.9699 72.866 37.0869 73.2478 36.2516C73.6535 35.4164 74.1905 34.7004 74.8587 34.1038C75.5507 33.4834 76.3621 32.9941 77.2928 32.6362C78.2474 32.2782 79.3094 32.0992 80.4787 32.0992C81.6004 32.0992 82.6146 32.2782 83.5214 32.6362C84.4522 32.9703 85.2516 33.4356 85.9198 34.0322C86.588 34.605 87.1011 35.2732 87.4591 36.0369C87.817 36.7767 87.996 37.5522 87.996 38.3636C87.996 39.175 87.8409 39.879 87.5307 40.4756C87.2443 41.0484 86.9221 41.5257 86.5642 41.9075C86.1346 42.3371 85.6573 42.707 85.1323 43.0172C85.8005 43.3274 86.3971 43.7331 86.9221 44.2343C87.3755 44.6638 87.7812 45.2366 88.1392 45.9525C88.521 46.6685 88.712 47.5395 88.712 48.5657C88.712 49.4248 88.521 50.2481 88.1392 51.0356C87.7812 51.7993 87.2562 52.4794 86.5642 53.076C85.8721 53.6488 85.0249 54.1141 84.0226 54.4721C83.0203 54.8301 81.8987 55.0091 80.6577 55.0091C79.3929 55.0091 78.2593 54.8301 77.257 54.4721C76.2786 54.1141 75.4314 53.6249 74.7155 53.0045C73.9995 52.384 73.4268 51.6442 72.9972 50.7851C72.5915 49.9259 72.341 49.0072 72.2455 48.0287H76.5411C76.732 48.8401 77.1616 49.556 77.8298 50.1765C78.5218 50.7731 79.4048 51.0714 80.4787 51.0714C81.7435 51.0714 82.6862 50.797 83.3067 50.2481C83.9271 49.6754 84.2374 48.9356 84.2374 48.0287C84.2374 47.2173 83.9271 46.5372 83.3067 45.9883C82.7101 45.4394 81.8271 45.165 80.6577 45.165H78.5099V41.4063H80.4787C81.5526 41.4063 82.3521 41.1677 82.8771 40.6904C83.426 40.2131 83.7004 39.6165 83.7004 38.9006C83.7004 38.0892 83.4141 37.4091 82.8413 36.8602C82.2686 36.3113 81.481 36.0369 80.4787 36.0369C79.4048 36.0369 78.5576 36.3113 77.9372 36.8602C77.3406 37.4091 76.9945 38.0892 76.8991 38.9006H72.6035ZM94.4355 54.8301H89.9609L98.3732 32.2782H102.311L110.723 54.8301H106.248L104.638 50.1765H96.0464L94.4355 54.8301ZM103.206 46.2389L100.342 38.0057L97.4782 46.2389H103.206ZM126.672 42.8382C127.341 43.1484 127.937 43.5541 128.462 44.0553C128.916 44.4849 129.321 45.0576 129.679 45.7735C130.061 46.4895 130.252 47.3605 130.252 48.3867C130.252 49.2458 130.073 50.0691 129.715 50.8567C129.357 51.6203 128.844 52.3005 128.176 52.8971C127.531 53.4698 126.756 53.9352 125.849 54.2931C124.966 54.6511 123.988 54.8301 122.914 54.8301H113.249V32.2782H122.556C123.534 32.2782 124.441 32.4453 125.276 32.7794C126.112 33.1135 126.827 33.5669 127.424 34.1396C128.045 34.7124 128.522 35.3806 128.856 36.1442C129.19 36.884 129.357 37.6835 129.357 38.5426C129.357 39.3063 129.214 39.9626 128.928 40.5114C128.641 41.0603 128.331 41.5018 127.997 41.8359C127.591 42.2416 127.15 42.5757 126.672 42.8382ZM117.544 41.4063H122.198C123.009 41.4063 123.689 41.1438 124.238 40.6188C124.787 40.0699 125.062 39.4375 125.062 38.7216C125.062 38.0057 124.787 37.3852 124.238 36.8602C123.689 36.3113 123.009 36.0369 122.198 36.0369H117.544V41.4063ZM122.556 51.0714C123.558 51.0714 124.369 50.7612 124.99 50.1407C125.634 49.5202 125.956 48.7566 125.956 47.8497C125.956 46.9429 125.634 46.1792 124.99 45.5588C124.369 44.9383 123.558 44.628 122.556 44.628H117.544V51.0714H122.556ZM149.785 50.7135V54.8301H133.856V32.2782H149.427V36.3948H138.151V41.2274H148.532V45.344H138.151V50.7135H149.785ZM162.141 32.2782C163.215 32.2782 164.217 32.4811 165.148 32.8868C166.079 33.2686 166.89 33.8055 167.582 34.4976C168.298 35.1658 168.847 35.9653 169.229 36.896C169.634 37.8028 169.837 38.7693 169.837 39.7955C169.837 40.8217 169.634 41.8001 169.229 42.7308C168.847 43.6377 168.298 44.4371 167.582 45.1292C166.89 45.7974 166.079 46.3343 165.148 46.74C164.217 47.1219 163.215 47.3128 162.141 47.3128H158.024V54.8301H153.729V32.2782H162.141ZM162.141 43.1962C162.594 43.1962 163.024 43.1007 163.43 42.9098C163.835 42.7189 164.193 42.4683 164.504 42.1581C164.814 41.8478 165.064 41.4899 165.255 41.0842C165.446 40.6785 165.542 40.2489 165.542 39.7955C165.542 39.3421 165.446 38.9125 165.255 38.5068C165.064 38.1011 164.814 37.7432 164.504 37.4329C164.193 37.1227 163.835 36.8721 163.43 36.6812C163.024 36.4903 162.594 36.3948 162.141 36.3948H158.024V43.1962H162.141ZM199.733 32.2782V54.8301H173.602V32.2782H177.897V50.7135H184.52V32.2782H188.815V50.7135H195.438V32.2782H199.733ZM218.548 54.8301V39.9745L208.525 54.8301H204.766V32.2782H209.062V47.1338L219.085 32.2782H222.843V54.8301H218.548ZM226.065 32.2782H243.606V36.3948H236.983V54.8301H232.688V36.3948H226.065V32.2782ZM246.819 54.8301V32.2782H251.115V39.7955H255.053C256.127 39.7955 257.129 39.9983 258.06 40.404C258.99 40.7859 259.802 41.3228 260.494 42.0149C261.21 42.6831 261.759 43.4826 262.14 44.4133C262.546 45.3201 262.749 46.2866 262.749 47.3128C262.749 48.339 262.546 49.3174 262.14 50.2481C261.759 51.155 261.21 51.9544 260.494 52.6465C259.802 53.3147 258.99 53.8516 258.06 54.2573C257.129 54.6392 256.127 54.8301 255.053 54.8301H246.819ZM251.115 43.9121V50.7135H255.053C255.506 50.7135 255.936 50.618 256.341 50.4271C256.747 50.2362 257.105 49.9856 257.415 49.6754C257.725 49.3651 257.976 49.0072 258.167 48.6015C258.358 48.1958 258.453 47.7662 258.453 47.3128C258.453 46.8594 258.358 46.4298 258.167 46.0241C257.976 45.6184 257.725 45.2605 257.415 44.9502C257.105 44.64 256.747 44.3894 256.341 44.1985C255.936 44.0076 255.506 43.9121 255.053 43.9121H251.115Z" fill="white"/>
<defs>
<linearGradient id="paint0_linear" x1="1.87196e-06" y1="44" x2="335" y2="44" gradientUnits="userSpaceOnUse">
<stop stop-color="#F73F55"/>
<stop offset="1" stop-color="#E73E7B"/>
</linearGradient>
</defs>
</svg>
