<svg width="382" height="89" viewBox="0 0 382 89" fill="none" xmlns="http://www.w3.org/2000/svg">
<rect x="0.0410156" width="381" height="88.6667" rx="18.3333" fill="#F2F3F5"/>
<path d="M43.5917 41.9995C44.1216 42.2573 44.5943 42.6082 45.0096 43.0522C45.3677 43.439 45.6971 43.9259 45.9979 44.5132C46.2987 45.0861 46.4491 45.7879 46.4491 46.6187C46.4491 47.4351 46.2987 48.1942 45.9979 48.896C45.7115 49.5978 45.3104 50.1994 44.7948 50.7007C44.2935 51.202 43.6705 51.603 42.9257 51.9038C42.1952 52.1903 41.3931 52.3335 40.5194 52.3335H30.6151V32.5249H39.8534C40.7271 32.5249 41.5292 32.6681 42.2596 32.9546C43.0044 33.2267 43.6275 33.6134 44.1288 34.1147C44.6444 34.616 45.0455 35.2033 45.3319 35.8765C45.6327 36.5496 45.7831 37.2658 45.7831 38.0249C45.7831 38.7554 45.6685 39.3641 45.4393 39.8511C45.2102 40.3381 44.9595 40.7463 44.6874 41.0757C44.3723 41.4338 44.007 41.7417 43.5917 41.9995ZM34.5682 35.8335V40.6675H39.4022C40.0754 40.6675 40.6483 40.4383 41.121 39.98C41.5936 39.5073 41.83 38.9344 41.83 38.2612C41.83 37.5881 41.5936 37.0151 41.121 36.5425C40.6626 36.0698 40.0897 35.8335 39.4022 35.8335H34.5682ZM40.0682 49.0249C40.7414 49.0249 41.3143 48.7814 41.787 48.2944C42.2596 47.7931 42.496 47.1629 42.496 46.4038C42.496 45.7306 42.2596 45.1577 41.787 44.6851C41.3143 44.2124 40.7414 43.9761 40.0682 43.9761H34.5682V49.0249H40.0682ZM68.1111 32.5249V52.3335H64.158V38.4761L54.6833 52.3335H50.7302V32.5249H54.6833V46.4038L64.158 32.5249H68.1111ZM82.9195 32.3101C84.2372 32.3101 85.469 32.5607 86.6149 33.062C87.7607 33.5633 88.7633 34.2651 89.6227 35.1675C90.4964 36.0555 91.1767 37.1154 91.6637 38.3472C92.1507 39.5789 92.3941 40.9396 92.3941 42.4292C92.3941 43.9188 92.1507 45.2866 91.6637 46.5327C91.1767 47.7645 90.4964 48.8315 89.6227 49.7339C88.7633 50.6219 87.7607 51.3166 86.6149 51.8179C85.469 52.3049 84.2372 52.5483 82.9195 52.5483C81.9742 52.5483 81.165 52.4409 80.4918 52.2261C79.8186 52.0112 79.2529 51.7534 78.7945 51.4526C78.2646 51.1232 77.8063 50.758 77.4195 50.3569V59.3804H73.4664V32.5249H76.3238L77.2047 34.5229C77.5914 34.1076 78.0426 33.7352 78.5582 33.4058C79.0309 33.1479 79.6253 32.9045 80.3414 32.6753C81.0576 32.4318 81.9169 32.3101 82.9195 32.3101ZM82.7047 48.8101C83.4638 48.8101 84.1871 48.6597 84.8746 48.3589C85.5621 48.0438 86.1708 47.5998 86.7008 47.0269C87.2307 46.4539 87.6461 45.7808 87.9469 45.0073C88.262 44.2339 88.4195 43.3745 88.4195 42.4292C88.4195 41.4839 88.262 40.6245 87.9469 39.8511C87.6461 39.0776 87.2307 38.4045 86.7008 37.8315C86.1708 37.2586 85.5621 36.8218 84.8746 36.521C84.1871 36.2059 83.4638 36.0483 82.7047 36.0483C81.9456 36.0483 81.2151 36.2059 80.5133 36.521C79.8258 36.8218 79.2171 37.2586 78.6871 37.8315C78.1715 38.4045 77.7561 39.0848 77.441 39.8726C77.1402 40.646 76.9899 41.4982 76.9899 42.4292C76.9899 43.3745 77.1402 44.2339 77.441 45.0073C77.7561 45.7808 78.1715 46.4539 78.6871 47.0269C79.2171 47.5998 79.8258 48.0438 80.5133 48.3589C81.2151 48.6597 81.9456 48.8101 82.7047 48.8101ZM94.269 32.5249H110.533V36.2632H104.388V52.3335H100.414V36.2632H94.269V32.5249ZM111.742 32.5249H115.931L121.431 46.8335L126.931 32.5249H131.12L122.742 53.644C122.298 54.7612 121.861 55.6922 121.431 56.437C121.016 57.1961 120.557 57.8049 120.056 58.2632C119.569 58.7358 119.025 59.0724 118.423 59.2729C117.822 59.4878 117.141 59.5952 116.382 59.5952C116.21 59.5952 116.046 59.5881 115.888 59.5737C115.745 59.5594 115.602 59.5379 115.458 59.5093C115.315 59.4806 115.179 59.4377 115.05 59.3804V56.0718C116.167 56.0718 117.012 55.8354 117.585 55.3628C118.158 54.9045 118.559 54.3315 118.788 53.644L119.454 51.6675L111.742 32.5249ZM141.976 32.3101C143.122 32.3101 144.167 32.4963 145.113 32.8687C146.072 33.2267 146.889 33.7209 147.562 34.3511C148.235 34.9813 148.758 35.7261 149.13 36.5854C149.502 37.4305 149.689 38.3543 149.689 39.3569V52.3335H146.831L145.95 50.3569C145.564 50.7723 145.105 51.1375 144.575 51.4526C144.103 51.7391 143.508 51.9969 142.792 52.2261C142.076 52.4409 141.217 52.5483 140.214 52.5483C138.008 52.5483 136.318 52.0041 135.144 50.9155C133.984 49.8127 133.404 48.3804 133.404 46.6187C133.404 45.616 133.59 44.7137 133.962 43.9116C134.349 43.0952 135.001 42.4077 135.917 41.8491C136.848 41.2762 138.101 40.8322 139.677 40.5171C141.267 40.1877 143.279 40.0229 145.714 40.0229V39.3569C145.714 38.3543 145.399 37.5522 144.769 36.9507C144.139 36.3491 143.208 36.0483 141.976 36.0483C140.658 36.0483 139.698 36.2847 139.097 36.7573C138.495 37.23 138.137 37.8029 138.023 38.4761H134.07C134.184 36.7144 134.922 35.2463 136.282 34.0718C137.643 32.8973 139.541 32.3101 141.976 32.3101ZM140.45 49.0249C142.126 49.0249 143.422 48.5952 144.339 47.7358C145.256 46.8765 145.714 45.8309 145.714 44.5991V43.5249C143.952 43.5249 142.527 43.6108 141.439 43.7827C140.364 43.9403 139.519 44.1623 138.904 44.4487C138.288 44.7209 137.872 45.0646 137.657 45.48C137.457 45.881 137.357 46.3322 137.357 46.8335C137.357 47.3921 137.622 47.9006 138.152 48.3589C138.682 48.8029 139.448 49.0249 140.45 49.0249ZM171.114 32.5249V52.3335H167.14V36.2632H160.544L159.878 45.7378C159.735 47.9435 159.105 49.6336 157.987 50.8081C156.885 51.9683 155.388 52.5483 153.497 52.5483C153.325 52.5483 153.168 52.5412 153.024 52.5269C152.881 52.5125 152.731 52.491 152.573 52.4624C152.43 52.4338 152.301 52.3908 152.187 52.3335V49.0249H152.616C154.636 49.0249 155.739 47.9292 155.925 45.7378L157.021 32.5249H171.114ZM185.278 39.1421C186.281 39.1421 187.198 39.314 188.028 39.6577C188.873 39.9871 189.597 40.4455 190.198 41.0327C190.8 41.62 191.265 42.3146 191.595 43.1167C191.938 43.9188 192.11 44.7925 192.11 45.7378C192.11 46.6831 191.938 47.5568 191.595 48.3589C191.265 49.161 190.8 49.8556 190.198 50.4429C189.597 51.0301 188.873 51.4956 188.028 51.8394C187.198 52.1688 186.281 52.3335 185.278 52.3335H176.491V32.5249H180.444V39.1421H185.278ZM185.278 48.5952C186.037 48.5952 186.703 48.3088 187.276 47.7358C187.864 47.1629 188.157 46.4969 188.157 45.7378C188.157 44.9787 187.871 44.3127 187.298 43.7397C186.725 43.1668 186.052 42.8804 185.278 42.8804H180.444V48.5952H185.278ZM213.343 32.5249V52.3335H209.389V44.1909H199.915V52.3335H195.962V32.5249H199.915V40.4526H209.389V32.5249H213.343ZM240.483 32.5249V52.3335H236.508V32.5249H240.483ZM227.055 39.1421C228.058 39.1421 228.975 39.314 229.805 39.6577C230.636 39.9871 231.352 40.4455 231.954 41.0327C232.555 41.62 233.021 42.3146 233.35 43.1167C233.694 43.9188 233.866 44.7925 233.866 45.7378C233.866 46.6831 233.694 47.5568 233.35 48.3589C233.021 49.161 232.555 49.8556 231.954 50.4429C231.352 51.0301 230.636 51.4956 229.805 51.8394C228.975 52.1688 228.058 52.3335 227.055 52.3335H218.698V32.5249H222.651V39.1421H227.055ZM227.055 48.5952C227.814 48.5952 228.48 48.3088 229.053 47.7358C229.626 47.1629 229.913 46.4969 229.913 45.7378C229.913 44.9787 229.626 44.3127 229.053 43.7397C228.48 43.1668 227.814 42.8804 227.055 42.8804H222.651V48.5952H227.055ZM263.241 32.5249V52.3335H259.288V38.4761L249.813 52.3335H245.86V32.5249H249.813V46.4038L259.288 32.5249H263.241ZM254.432 29.6675C252.871 29.6675 251.582 29.1877 250.565 28.228C249.562 27.2541 248.946 26.0509 248.717 24.6187H251.79C251.904 25.2918 252.205 25.8647 252.692 26.3374C253.179 26.7957 253.759 27.0249 254.432 27.0249C255.105 27.0249 255.685 26.7957 256.172 26.3374C256.659 25.8647 256.96 25.2918 257.075 24.6187H260.147C259.918 26.0509 259.295 27.2541 258.278 28.228C257.275 29.1877 255.993 29.6675 254.432 29.6675ZM290.237 24.6187H294.19V33.6421C294.548 33.4129 294.942 33.1909 295.371 32.9761C295.758 32.8328 296.202 32.6896 296.703 32.5464C297.205 32.3888 297.763 32.3101 298.379 32.3101C299.525 32.3101 300.628 32.5607 301.688 33.062C302.762 33.5633 303.7 34.2651 304.502 35.1675C305.319 36.0555 305.963 37.1154 306.436 38.3472C306.923 39.5789 307.166 40.9396 307.166 42.4292C307.166 43.9188 306.923 45.2866 306.436 46.5327C305.963 47.7645 305.319 48.8315 304.502 49.7339C303.7 50.6219 302.762 51.3166 301.688 51.8179C300.628 52.3049 299.525 52.5483 298.379 52.5483C297.763 52.5483 297.205 52.4839 296.703 52.355C296.202 52.2261 295.758 52.0757 295.371 51.9038C294.927 51.7319 294.533 51.5099 294.19 51.2378V59.3804H290.237V51.2378C289.879 51.4956 289.485 51.7176 289.055 51.9038C288.668 52.0757 288.217 52.2261 287.701 52.355C287.186 52.4839 286.634 52.5483 286.047 52.5483C284.901 52.5483 283.791 52.3049 282.717 51.8179C281.657 51.3166 280.719 50.6219 279.903 49.7339C279.101 48.8315 278.456 47.7645 277.969 46.5327C277.496 45.3009 277.26 43.9331 277.26 42.4292C277.26 40.9396 277.496 39.5789 277.969 38.3472C278.456 37.1154 279.101 36.0555 279.903 35.1675C280.719 34.2651 281.657 33.5633 282.717 33.062C283.791 32.5607 284.901 32.3101 286.047 32.3101C286.634 32.3101 287.186 32.3888 287.701 32.5464C288.217 32.6896 288.668 32.8328 289.055 32.9761C289.499 33.1766 289.893 33.3986 290.237 33.6421V24.6187ZM290.237 37.8101C289.907 37.4806 289.556 37.187 289.184 36.9292C288.854 36.7 288.461 36.4995 288.002 36.3276C287.558 36.1414 287.057 36.0483 286.498 36.0483C285.796 36.0483 285.116 36.1987 284.457 36.4995C283.813 36.786 283.247 37.2085 282.76 37.7671C282.287 38.3257 281.908 38.9989 281.621 39.7866C281.349 40.5601 281.213 41.4409 281.213 42.4292C281.213 43.4318 281.349 44.327 281.621 45.1147C281.908 45.9025 282.287 46.5685 282.76 47.1128C283.247 47.6571 283.813 48.0796 284.457 48.3804C285.116 48.6668 285.796 48.8101 286.498 48.8101C287.057 48.8101 287.558 48.7241 288.002 48.5522C288.461 48.3804 288.854 48.1727 289.184 47.9292C289.571 47.6714 289.921 47.3778 290.237 47.0483V37.8101ZM294.19 47.0483C294.519 47.3778 294.87 47.6714 295.242 47.9292C295.572 48.1584 295.959 48.366 296.403 48.5522C296.861 48.7241 297.369 48.8101 297.928 48.8101C298.63 48.8101 299.303 48.6668 299.948 48.3804C300.606 48.0796 301.172 47.6571 301.645 47.1128C302.132 46.5685 302.511 45.9025 302.783 45.1147C303.07 44.327 303.213 43.4318 303.213 42.4292C303.213 41.4266 303.07 40.5386 302.783 39.7651C302.511 38.9917 302.132 38.3257 301.645 37.7671C301.172 37.2085 300.606 36.786 299.948 36.4995C299.303 36.1987 298.63 36.0483 297.928 36.0483C297.369 36.0483 296.861 36.1414 296.403 36.3276C295.959 36.4995 295.572 36.7 295.242 36.9292C294.856 37.187 294.505 37.4806 294.19 37.8101V47.0483ZM325.305 42.4292C325.305 41.4839 325.147 40.6245 324.832 39.8511C324.531 39.0776 324.13 38.4045 323.629 37.8315C323.128 37.2586 322.541 36.8218 321.867 36.521C321.194 36.2059 320.507 36.0483 319.805 36.0483C319.103 36.0483 318.416 36.2059 317.742 36.521C317.069 36.8218 316.482 37.2586 315.981 37.8315C315.479 38.4045 315.071 39.0848 314.756 39.8726C314.455 40.646 314.305 41.4982 314.305 42.4292C314.305 43.3745 314.455 44.2339 314.756 45.0073C315.071 45.7808 315.479 46.4539 315.981 47.0269C316.482 47.5998 317.069 48.0438 317.742 48.3589C318.416 48.6597 319.103 48.8101 319.805 48.8101C320.507 48.8101 321.194 48.6597 321.867 48.3589C322.541 48.0438 323.128 47.5998 323.629 47.0269C324.13 46.4539 324.531 45.7808 324.832 45.0073C325.147 44.2339 325.305 43.3745 325.305 42.4292ZM329.258 42.4292C329.258 43.9188 329.014 45.2866 328.527 46.5327C328.055 47.7645 327.382 48.8315 326.508 49.7339C325.649 50.6219 324.646 51.3166 323.5 51.8179C322.354 52.3049 321.123 52.5483 319.805 52.5483C318.487 52.5483 317.255 52.3049 316.11 51.8179C314.964 51.3166 313.954 50.6219 313.08 49.7339C312.221 48.8315 311.548 47.7645 311.061 46.5327C310.588 45.3009 310.352 43.9331 310.352 42.4292C310.352 40.9396 310.588 39.5789 311.061 38.3472C311.548 37.1154 312.221 36.0555 313.08 35.1675C313.954 34.2651 314.964 33.5633 316.11 33.062C317.255 32.5607 318.487 32.3101 319.805 32.3101C321.123 32.3101 322.354 32.5607 323.5 33.062C324.646 33.5633 325.649 34.2651 326.508 35.1675C327.382 36.0555 328.055 37.1154 328.527 38.3472C329.014 39.5789 329.258 40.9396 329.258 42.4292ZM350.92 32.5249V52.3335H346.967V44.1909H337.492V52.3335H333.539V32.5249H337.492V40.4526H346.967V32.5249H350.92Z" fill="#3F8AE0"/>
</svg>
