<svg width="379" height="63" viewBox="0 0 379 63" fill="none" xmlns="http://www.w3.org/2000/svg">
<path d="M37.8933 0.666504C54.1333 0.666504 58 4.53317 58 20.7732V38.5598C58 54.7998 54.1333 58.6665 37.8933 58.6665H20.1067C3.86667 58.6665 0 54.7998 0 38.5598V20.7732C0 4.53317 3.86667 0.666504 20.1067 0.666504H37.8933Z" fill="#4793EF"/>
<path d="M15.1045 18.7915H10.8753C9.66698 18.7915 9.42529 19.3603 9.42529 19.9876C9.42529 21.1077 10.8591 26.6636 16.1012 34.0116C19.596 39.0297 24.5198 41.7498 29.0003 41.7498C31.6886 41.7498 32.0211 41.1457 32.0211 40.105V36.3123C32.0211 35.104 32.2758 34.8629 33.1271 34.8629C33.7543 34.8629 34.8297 35.1765 37.3388 37.596C40.2063 40.4634 40.679 41.7498 42.292 41.7498H46.5211C47.7295 41.7498 48.3336 41.1457 47.9851 39.9534C47.6037 38.7651 46.2346 37.041 44.418 34.9973C43.4322 33.8323 41.9537 32.5779 41.5056 31.9505C40.8784 31.1441 41.0576 30.7856 41.5056 30.0687L41.5809 29.962C42.2181 29.0563 46.6966 22.6343 47.1959 20.3461C47.4646 19.45 47.1959 18.7915 45.917 18.7915H41.6878C40.6125 18.7915 40.1167 19.3603 39.8478 19.9876C39.8478 19.9876 37.6972 25.2298 34.6505 28.635C33.6648 29.6206 33.2167 29.9343 32.679 29.9343C32.4102 29.9343 32.0211 29.6206 32.0211 28.7246V20.3461C32.0211 19.2708 31.709 18.7915 30.8128 18.7915H24.167C23.495 18.7915 23.0908 19.2906 23.0908 19.7636C23.0908 20.783 24.6141 21.0181 24.7711 23.8857V30.1136C24.7711 31.479 24.5245 31.7266 23.9869 31.7266C22.5532 31.7266 19.0657 26.4609 16.9973 20.4357C16.5919 19.2646 16.1853 18.7915 15.1045 18.7915Z" fill="white"/>
<path d="M91.9219 9.27386V28H88.1644V12.8079H81.9292L81.2995 21.7647C81.1641 23.8499 80.5684 25.4477 79.5122 26.558C78.4696 27.6547 77.0547 28.2031 75.2674 28.2031C75.1049 28.2031 74.9559 28.1963 74.8205 28.1828C74.6851 28.1693 74.543 28.1489 74.394 28.1219C74.2586 28.0948 74.1368 28.0542 74.0284 28V24.8722H74.4346C76.3438 24.8722 77.3864 23.8364 77.5624 21.7647L78.5983 9.27386H91.9219ZM113.302 22.5974C112.991 23.3692 112.598 24.0936 112.124 24.7707C111.65 25.4477 111.082 26.0434 110.418 26.558C109.755 27.0725 108.983 27.4787 108.103 27.7766C107.236 28.0609 106.261 28.2031 105.178 28.2031C103.932 28.2031 102.768 27.9729 101.685 27.5126C100.601 27.0386 99.6536 26.3819 98.8412 25.5424C98.0288 24.6894 97.3924 23.6807 96.932 22.5162C96.4717 21.3517 96.2415 20.0587 96.2415 18.6369C96.2415 17.2287 96.4717 15.9424 96.932 14.778C97.3924 13.6135 98.0152 12.6115 98.8006 11.772C99.5859 10.919 100.513 10.2555 101.583 9.78162C102.653 9.30771 103.783 9.07075 104.975 9.07075C106.166 9.07075 107.297 9.30771 108.367 9.78162C109.436 10.2555 110.364 10.919 111.149 11.772C111.935 12.6115 112.557 13.6135 113.018 14.778C113.478 15.9424 113.708 17.2287 113.708 18.6369C113.708 18.8536 113.695 19.0702 113.668 19.2869C113.641 19.49 113.614 19.666 113.587 19.8149C113.559 20.0045 113.532 20.167 113.505 20.3024H100.182C100.236 20.8846 100.405 21.4398 100.689 21.9678C100.974 22.4959 101.326 22.963 101.746 23.3692C102.179 23.7619 102.693 24.0801 103.289 24.3238C103.885 24.554 104.515 24.6691 105.178 24.6691C106.315 24.6691 107.216 24.4254 107.879 23.9379C108.556 23.4505 109.044 23.0037 109.342 22.5974H113.302ZM104.975 12.6048C103.729 12.6048 102.673 13.0313 101.807 13.8843C100.953 14.7238 100.412 15.8273 100.182 17.1949H110.174C109.958 15.8409 109.403 14.7373 108.509 13.8843C107.629 13.0313 106.451 12.6048 104.975 12.6048ZM129.056 28L121.765 19.0634V28H118.028V9.27386H121.765V17.398L128.224 9.27386H132.59L125.319 18.0073L133.626 28H129.056ZM154.357 24.466V32.3667H150.823V28H135.854V9.27386H139.591V24.466H148.121V9.27386H151.859V24.466H154.357ZM174.295 9.27386V28H170.558V14.8998L161.601 28H157.864V9.27386H161.601V22.3943L170.558 9.27386H174.295ZM195.858 9.27386V28H192.121V14.8998L183.164 28H179.427V9.27386H183.164V22.3943L192.121 9.27386H195.858ZM222.553 18.2307C223.054 18.4744 223.501 18.8062 223.894 19.2259C224.232 19.5915 224.544 20.0519 224.828 20.607C225.112 21.1486 225.254 21.8121 225.254 22.5974C225.254 23.3692 225.112 24.0869 224.828 24.7503C224.557 25.4138 224.178 25.9825 223.691 26.4564C223.217 26.9303 222.628 27.3094 221.924 27.5938C221.233 27.8646 220.475 28 219.649 28H210.286V9.27386H219.019C219.845 9.27386 220.603 9.40926 221.294 9.68006C221.998 9.93733 222.587 10.3029 223.061 10.7768C223.548 11.2507 223.927 11.8059 224.198 12.4423C224.483 13.0787 224.625 13.7557 224.625 14.4733C224.625 15.1639 224.516 15.7393 224.3 16.1997C224.083 16.6601 223.846 17.046 223.589 17.3574C223.291 17.6959 222.946 17.987 222.553 18.2307ZM214.023 12.4017V16.9715H218.593C219.229 16.9715 219.771 16.7548 220.217 16.3215C220.664 15.8747 220.888 15.3331 220.888 14.6967C220.888 14.0603 220.664 13.5187 220.217 13.0719C219.784 12.6251 219.243 12.4017 218.593 12.4017H214.023ZM219.222 24.8722C219.859 24.8722 220.4 24.642 220.847 24.1817C221.294 23.7077 221.517 23.112 221.517 22.3943C221.517 21.758 221.294 21.2163 220.847 20.7695C220.4 20.3227 219.859 20.0993 219.222 20.0993H214.023V24.8722H219.222ZM240.603 28L233.311 19.0634V28H229.574V9.27386H233.311V17.398L239.77 9.27386H244.137L236.865 18.0073L245.172 28H240.603ZM260.094 18.6369C260.094 17.7433 259.945 16.9309 259.647 16.1997C259.363 15.4685 258.984 14.8321 258.51 14.2905C258.036 13.7489 257.481 13.3359 256.844 13.0516C256.208 12.7537 255.558 12.6048 254.895 12.6048C254.231 12.6048 253.581 12.7537 252.945 13.0516C252.308 13.3359 251.753 13.7489 251.279 14.2905C250.805 14.8321 250.42 15.4753 250.122 16.22C249.837 16.9512 249.695 17.7568 249.695 18.6369C249.695 19.5306 249.837 20.343 250.122 21.0742C250.42 21.8053 250.805 22.4417 251.279 22.9833C251.753 23.525 252.308 23.9447 252.945 24.2426C253.581 24.5269 254.231 24.6691 254.895 24.6691C255.558 24.6691 256.208 24.5269 256.844 24.2426C257.481 23.9447 258.036 23.525 258.51 22.9833C258.984 22.4417 259.363 21.8053 259.647 21.0742C259.945 20.343 260.094 19.5306 260.094 18.6369ZM263.831 18.6369C263.831 20.0451 263.601 21.3382 263.141 22.5162C262.694 23.6807 262.057 24.6894 261.231 25.5424C260.419 26.3819 259.471 27.0386 258.388 27.5126C257.305 27.9729 256.14 28.2031 254.895 28.2031C253.649 28.2031 252.484 27.9729 251.401 27.5126C250.318 27.0386 249.363 26.3819 248.537 25.5424C247.725 24.6894 247.089 23.6807 246.628 22.5162C246.181 21.3517 245.958 20.0587 245.958 18.6369C245.958 17.2287 246.181 15.9424 246.628 14.778C247.089 13.6135 247.725 12.6115 248.537 11.772C249.363 10.919 250.318 10.2555 251.401 9.78162C252.484 9.30771 253.649 9.07075 254.895 9.07075C256.14 9.07075 257.305 9.30771 258.388 9.78162C259.471 10.2555 260.419 10.919 261.231 11.772C262.057 12.6115 262.694 13.6135 263.141 14.778C263.601 15.9424 263.831 17.2287 263.831 18.6369ZM284.379 9.27386V28H280.642V20.3024H271.685V28H267.948V9.27386H271.685V16.7684H280.642V9.27386H284.379ZM287.642 9.27386H303.017V12.8079H297.208V28H293.451V12.8079H287.642V9.27386ZM313.389 9.07075C314.472 9.07075 315.461 9.24678 316.354 9.59882C317.262 9.93733 318.033 10.4045 318.67 11.0002C319.306 11.596 319.8 12.3001 320.153 13.1125C320.505 13.9114 320.681 14.7847 320.681 15.7325V28H317.979L317.147 26.1314C316.781 26.5241 316.348 26.8694 315.847 27.1673C315.4 27.4381 314.838 27.6818 314.161 27.8984C313.484 28.1016 312.672 28.2031 311.724 28.2031C309.639 28.2031 308.041 27.6886 306.93 26.6595C305.834 25.6169 305.285 24.2629 305.285 22.5974C305.285 21.6496 305.461 20.7966 305.813 20.0383C306.179 19.2665 306.795 18.6166 307.662 18.0885C308.542 17.5469 309.727 17.1272 311.216 16.8293C312.719 16.5179 314.621 16.3622 316.923 16.3622V15.7325C316.923 14.7847 316.625 14.0265 316.03 13.4578C315.434 12.8891 314.554 12.6048 313.389 12.6048C312.143 12.6048 311.236 12.8282 310.668 13.275C310.099 13.7218 309.76 14.2634 309.652 14.8998H305.915C306.023 13.2344 306.721 11.8465 308.007 10.7362C309.293 9.6259 311.087 9.07075 313.389 9.07075ZM311.947 24.8722C313.531 24.8722 314.757 24.466 315.623 23.6536C316.49 22.8412 316.923 21.8527 316.923 20.6883V19.6728C315.258 19.6728 313.91 19.754 312.881 19.9165C311.866 20.0654 311.067 20.2753 310.485 20.5461C309.903 20.8034 309.51 21.1283 309.307 21.521C309.117 21.9001 309.022 22.3266 309.022 22.8006C309.022 23.3286 309.273 23.8093 309.774 24.2426C310.275 24.6623 310.999 24.8722 311.947 24.8722ZM336.841 28L329.55 19.0634V28H325.813V9.27386H329.55V17.398L336.008 9.27386H340.375L333.104 18.0073L341.411 28H336.841ZM341.77 9.27386H357.145V12.8079H351.336V28H347.579V12.8079H341.77V9.27386ZM376.271 22.5974C375.959 23.3692 375.567 24.0936 375.093 24.7707C374.619 25.4477 374.05 26.0434 373.387 26.558C372.723 27.0725 371.951 27.4787 371.071 27.7766C370.205 28.0609 369.23 28.2031 368.147 28.2031C366.901 28.2031 365.737 27.9729 364.653 27.5126C363.57 27.0386 362.622 26.3819 361.81 25.5424C360.997 24.6894 360.361 23.6807 359.901 22.5162C359.44 21.3517 359.21 20.0587 359.21 18.6369C359.21 17.2287 359.44 15.9424 359.901 14.778C360.361 13.6135 360.984 12.6115 361.769 11.772C362.555 10.919 363.482 10.2555 364.552 9.78162C365.621 9.30771 366.752 9.07075 367.944 9.07075C369.135 9.07075 370.266 9.30771 371.335 9.78162C372.405 10.2555 373.333 10.919 374.118 11.772C374.903 12.6115 375.526 13.6135 375.986 14.778C376.447 15.9424 376.677 17.2287 376.677 18.6369C376.677 18.8536 376.663 19.0702 376.636 19.2869C376.609 19.49 376.582 19.666 376.555 19.8149C376.528 20.0045 376.501 20.167 376.474 20.3024H363.15C363.204 20.8846 363.374 21.4398 363.658 21.9678C363.942 22.4959 364.294 22.963 364.714 23.3692C365.148 23.7619 365.662 24.0801 366.258 24.3238C366.854 24.554 367.483 24.6691 368.147 24.6691C369.284 24.6691 370.184 24.4254 370.848 23.9379C371.525 23.4505 372.012 23.0037 372.31 22.5974H376.271ZM367.944 12.6048C366.698 12.6048 365.642 13.0313 364.775 13.8843C363.922 14.7238 363.381 15.8273 363.15 17.1949H373.143C372.926 15.8409 372.371 14.7373 371.478 13.8843C370.597 13.0313 369.419 12.6048 367.944 12.6048Z" fill="black"/>
<path d="M77.1083 52.0605H75.6094V40.2704H77.1083V52.0605ZM77.1083 46.0741L81.6873 40.2704H83.4695L78.79 46.0741L83.8442 52.0605H82.062L77.1083 46.0741ZM85.6693 47.8472C85.6693 48.2981 85.7394 48.7063 85.8795 49.0719C86.0197 49.4375 86.2055 49.7543 86.4371 50.0224C86.6747 50.2844 86.9458 50.4855 87.2505 50.6256C87.5551 50.7719 87.872 50.845 88.201 50.845C88.5239 50.845 88.8377 50.7719 89.1424 50.6256C89.447 50.4794 89.7151 50.2783 89.9467 50.0224C90.1782 49.7604 90.3671 49.4436 90.5133 49.0719C90.6596 48.7063 90.7296 48.2981 90.7236 47.8472C90.7236 47.3963 90.6535 46.988 90.5133 46.6225C90.3671 46.2569 90.1782 45.9431 89.9467 45.6811C89.7151 45.4191 89.447 45.2149 89.1424 45.0687C88.8377 44.9225 88.5239 44.8524 88.201 44.8585C87.8781 44.8585 87.5612 44.9286 87.2505 45.0687C86.9458 45.2149 86.6747 45.4191 86.4371 45.6811C86.1994 45.9431 86.0136 46.2569 85.8795 46.6225C85.7394 46.988 85.6693 47.3963 85.6693 47.8472ZM92.1311 47.8472C92.1311 48.4808 92.0275 49.0627 91.8203 49.5928C91.6131 50.1168 91.3329 50.5677 90.9795 50.9455C90.6261 51.3233 90.2087 51.6188 89.7273 51.8321C89.246 52.0453 88.7372 52.1519 88.201 52.1519C87.6648 52.1519 87.156 52.0453 86.6747 51.8321C86.1933 51.6188 85.7759 51.3233 85.4225 50.9455C85.0691 50.5677 84.7858 50.1168 84.5726 49.5928C84.3654 49.0688 84.2649 48.4869 84.271 47.8472C84.271 47.2135 84.3715 46.6346 84.5726 46.1106C84.7797 45.5866 85.0631 45.1327 85.4225 44.7488C85.7759 44.371 86.1933 44.0755 86.6747 43.8623C87.156 43.649 87.6648 43.5424 88.201 43.5424C88.7372 43.5424 89.246 43.649 89.7273 43.8623C90.2087 44.0755 90.6261 44.371 90.9795 44.7488C91.3329 45.1266 91.6131 45.5805 91.8203 46.1106C92.0275 46.6346 92.1311 47.2135 92.1311 47.8472ZM100.427 43.6338V52.0605H99.0195V44.8585H95.9303L95.6561 49.3461C95.5952 50.2418 95.3362 50.9333 94.8793 51.4208C94.4223 51.9082 93.8373 52.1519 93.1244 52.1519C93.0513 52.1519 92.9813 52.1489 92.9142 52.1428C92.8533 52.1367 92.7924 52.1276 92.7314 52.1154C92.6705 52.1032 92.6157 52.0849 92.5669 52.0605V50.845H92.7497C93.6637 50.845 94.1633 50.3453 94.2486 49.3461L94.7147 43.6338H100.427ZM110.03 43.6338V52.0605H108.632V44.9499H104.327V52.0605H102.919V43.6338H110.03ZM115.694 43.5424C116.157 43.5424 116.586 43.6216 116.982 43.78C117.378 43.9384 117.714 44.1456 117.988 44.4015C118.268 44.6635 118.487 44.9712 118.646 45.3246C118.804 45.6719 118.88 46.0467 118.874 46.4488V52.0605H117.851L117.476 51.1283C117.287 51.3294 117.074 51.503 116.836 51.6493C116.623 51.7894 116.361 51.9082 116.05 52.0057C115.739 52.1032 115.371 52.1519 114.944 52.1519C114.518 52.1519 114.134 52.088 113.793 51.96C113.451 51.826 113.159 51.6432 112.915 51.4116C112.672 51.1801 112.483 50.912 112.349 50.6073C112.208 50.3027 112.138 49.9767 112.138 49.6294C112.138 49.2273 112.221 48.8617 112.385 48.5326C112.55 48.2036 112.83 47.9172 113.226 47.6735C113.628 47.4298 114.173 47.2409 114.862 47.1069C115.557 46.9728 116.428 46.9088 117.476 46.9149V46.4488C117.476 46.0223 117.311 45.6506 116.982 45.3338C116.653 45.0169 116.224 44.8585 115.694 44.8585C115.17 44.8585 114.783 44.9651 114.533 45.1784C114.283 45.3977 114.109 45.6963 114.012 46.0741H112.513C112.562 45.7268 112.668 45.3977 112.833 45.087C112.998 44.7823 113.214 44.5142 113.482 44.2827C113.75 44.0512 114.067 43.8714 114.432 43.7435C114.798 43.6094 115.218 43.5424 115.694 43.5424ZM114.944 50.845C115.316 50.845 115.66 50.784 115.977 50.6622C116.288 50.5464 116.553 50.3941 116.772 50.2052C116.992 50.0163 117.162 49.8091 117.284 49.5837C117.406 49.3522 117.47 49.1176 117.476 48.8799V48.2219C116.629 48.2219 115.95 48.2554 115.438 48.3224C114.926 48.3895 114.53 48.49 114.25 48.624C113.969 48.7581 113.78 48.9135 113.683 49.0902C113.592 49.273 113.546 49.4832 113.546 49.7208C113.546 50.0072 113.674 50.2661 113.93 50.4977C114.18 50.7292 114.518 50.845 114.944 50.845ZM122.674 52.0605H121.266V43.6338H122.674V52.0605ZM126.229 52.0605L122.674 47.6644L125.854 43.6338H127.444L124.264 47.5638L127.911 52.0605H126.229ZM129.745 47.8472C129.745 48.2981 129.815 48.7063 129.955 49.0719C130.095 49.4375 130.281 49.7543 130.513 50.0224C130.75 50.2844 131.021 50.4855 131.326 50.6256C131.631 50.7719 131.947 50.845 132.276 50.845C132.599 50.845 132.913 50.7719 133.218 50.6256C133.523 50.4794 133.791 50.2783 134.022 50.0224C134.254 49.7604 134.443 49.4436 134.589 49.0719C134.735 48.7063 134.805 48.2981 134.799 47.8472C134.799 47.3963 134.729 46.988 134.589 46.6225C134.443 46.2569 134.254 45.9431 134.022 45.6811C133.791 45.4191 133.523 45.2149 133.218 45.0687C132.913 44.9225 132.599 44.8524 132.276 44.8585C131.954 44.8585 131.637 44.9286 131.326 45.0687C131.021 45.2149 130.75 45.4191 130.513 45.6811C130.275 45.9431 130.089 46.2569 129.955 46.6225C129.815 46.988 129.745 47.3963 129.745 47.8472ZM136.207 47.8472C136.207 48.4808 136.103 49.0627 135.896 49.5928C135.689 50.1168 135.408 50.5677 135.055 50.9455C134.702 51.3233 134.284 51.6188 133.803 51.8321C133.321 52.0453 132.813 52.1519 132.276 52.1519C131.74 52.1519 131.232 52.0453 130.75 51.8321C130.269 51.6188 129.851 51.3233 129.498 50.9455C129.145 50.5677 128.861 50.1168 128.648 49.5928C128.441 49.0688 128.34 48.4869 128.346 47.8472C128.346 47.2135 128.447 46.6346 128.648 46.1106C128.855 45.5866 129.139 45.1327 129.498 44.7488C129.851 44.371 130.269 44.0755 130.75 43.8623C131.232 43.649 131.74 43.5424 132.276 43.5424C132.813 43.5424 133.321 43.649 133.803 43.8623C134.284 44.0755 134.702 44.371 135.055 44.7488C135.408 45.1266 135.689 45.5805 135.896 46.1106C136.103 46.6346 136.207 47.2135 136.207 47.8472ZM143.278 47.6644C143.515 47.774 143.735 47.9172 143.936 48.0939C144.1 48.2463 144.25 48.4473 144.384 48.6972C144.524 48.9409 144.594 49.2516 144.594 49.6294C144.594 50.3423 144.365 50.9272 143.908 51.3842C143.451 51.8351 142.867 52.0605 142.154 52.0605H138.132V43.6338H141.879C142.227 43.6338 142.55 43.6947 142.848 43.8166C143.147 43.9323 143.403 44.0969 143.616 44.3101C143.829 44.5234 143.997 44.7732 144.119 45.0596C144.247 45.3459 144.311 45.6506 144.311 45.9735C144.311 46.2843 144.256 46.5432 144.146 46.7504C144.042 46.9576 143.924 47.1312 143.79 47.2714C143.637 47.4237 143.467 47.5547 143.278 47.6644ZM139.54 44.9499V47.0977H141.688C142.059 47.0977 142.355 47.0002 142.574 46.8052C142.793 46.6042 142.903 46.3604 142.903 46.0741C142.903 45.7511 142.793 45.483 142.574 45.2698C142.361 45.0565 142.065 44.9499 141.688 44.9499H139.54ZM141.971 50.7536C142.294 50.7536 142.577 50.6317 142.821 50.388C143.065 50.1443 143.186 49.8609 143.186 49.538C143.186 49.3979 143.156 49.2608 143.095 49.1267C143.034 48.9866 142.946 48.8647 142.83 48.7611C142.72 48.6515 142.589 48.5662 142.437 48.5052C142.291 48.4443 142.135 48.4138 141.971 48.4138H139.54V50.7536H141.971ZM160.418 50.7536V54.4917H159.011V52.0605H150.876V54.4917H149.469V50.7536H150.127C150.34 50.5891 150.532 50.3941 150.703 50.1686C150.855 49.9676 151.001 49.7238 151.141 49.4375C151.288 49.1511 151.385 48.8099 151.434 48.4138L152.366 40.2704H159.111V50.7536H160.418ZM157.612 41.5774H153.737L152.933 48.4138C152.884 48.816 152.805 49.1602 152.695 49.4466C152.592 49.7269 152.488 49.9676 152.384 50.1686C152.262 50.3941 152.131 50.5891 151.991 50.7536H157.612V41.5774ZM166 52.0605L163.477 46.8235V52.0605H162.07V43.6338H163.285L166.466 50.1869L169.655 43.6338H170.871V52.0605H169.464V46.8235L166.941 52.0605H166ZM180.456 43.6338V52.0605H179.057V45.7907L174.753 52.0605H173.345V43.6338H174.753V49.9036L179.057 43.6338H180.456ZM182.007 43.6338H188.651V44.9499H186.028V52.0605H184.621V44.9499H182.007V43.6338ZM191.408 47.8472C191.408 48.2981 191.482 48.7063 191.628 49.0719C191.774 49.4375 191.963 49.7543 192.194 50.0224C192.432 50.2844 192.709 50.4855 193.026 50.6256C193.343 50.7719 193.678 50.845 194.032 50.845C194.379 50.845 194.714 50.7719 195.037 50.6256C195.354 50.4794 195.631 50.2783 195.869 50.0224C196.106 49.7604 196.295 49.4436 196.435 49.0719C196.582 48.7063 196.655 48.2981 196.655 47.8472C196.655 47.3963 196.582 46.988 196.435 46.6225C196.289 46.2569 196.1 45.9431 195.869 45.6811C195.631 45.4191 195.354 45.2149 195.037 45.0687C194.72 44.9225 194.385 44.8524 194.032 44.8585C193.684 44.8585 193.349 44.9286 193.026 45.0687C192.709 45.2149 192.432 45.4191 192.194 45.6811C191.957 45.9431 191.768 46.2569 191.628 46.6225C191.482 46.988 191.408 47.3963 191.408 47.8472ZM191.6 44.5752C191.777 44.3863 191.987 44.2187 192.231 44.0725C192.444 43.9323 192.706 43.8105 193.017 43.7069C193.328 43.6033 193.696 43.5485 194.123 43.5424C194.659 43.5424 195.168 43.649 195.649 43.8623C196.131 44.0755 196.548 44.371 196.901 44.7488C197.255 45.1266 197.535 45.5805 197.742 46.1106C197.949 46.6346 198.053 47.2135 198.053 47.8472C198.053 48.4808 197.949 49.0627 197.742 49.5928C197.535 50.1168 197.255 50.5677 196.901 50.9455C196.548 51.3233 196.131 51.6188 195.649 51.8321C195.168 52.0453 194.659 52.1519 194.123 52.1519C193.696 52.1519 193.328 52.0941 193.017 51.9783C192.706 51.8625 192.444 51.7346 192.231 51.5944C191.981 51.4299 191.771 51.241 191.6 51.0278V55.0584H190.193V43.6338H191.226L191.6 44.5752ZM207.08 43.6338V52.0605H205.682V45.7907L201.377 52.0605H199.969V43.6338H201.377V49.9036L205.682 43.6338H207.08ZM213.119 42.3268C212.509 42.3268 212.007 42.1227 211.611 41.7145C211.214 41.3062 210.968 40.8249 210.87 40.2704H211.994C212.043 40.5933 212.171 40.8614 212.378 41.0747C212.585 41.2879 212.832 41.3946 213.119 41.3946C213.405 41.3946 213.652 41.2879 213.859 41.0747C214.066 40.8614 214.194 40.5933 214.243 40.2704H215.367C215.269 40.831 215.023 41.3123 214.627 41.7145C214.231 42.1227 213.728 42.3268 213.119 42.3268ZM216.674 43.6338V52.0605H215.276V45.7907L210.971 52.0605H209.563V43.6338H210.971V49.9036L215.276 43.6338H216.674Z" fill="black"/>
</svg>
