<svg width="610" height="225" viewBox="0 0 610 225" fill="none" xmlns="http://www.w3.org/2000/svg">
<path d="M18.6016 17.1953C20.7891 17.1953 22.8854 17.651 24.8906 18.5625C26.8958 19.474 28.6406 20.724 30.125 22.3125C31.6094 23.875 32.7943 25.724 33.6797 27.8594C34.5651 29.9688 35.0078 32.2865 35.0078 34.8125C35.0078 37.3125 34.5651 39.6302 33.6797 41.7656C32.7943 43.901 31.5573 45.763 29.9688 47.3516C28.4062 48.9141 26.5833 50.151 24.5 51.0625C22.4427 51.9479 20.2031 52.3906 17.7812 52.3906C15.2812 52.3906 12.9635 51.9349 10.8281 51.0234C8.69271 50.0859 6.84375 48.6667 5.28125 46.7656C3.71875 44.8646 2.48177 42.5208 1.57031 39.7344C0.658854 36.9219 0.203125 33.6797 0.203125 30.0078C0.203125 24.8255 0.723958 20.4245 1.76562 16.8047C2.80729 13.1849 4.51302 10.2292 6.88281 7.9375C9.2526 5.61979 12.3646 3.90104 16.2188 2.78125C20.099 1.66146 24.8906 0.997396 30.5938 0.789062V8.01562C26.2708 8.11979 22.7031 8.48438 19.8906 9.10938C17.1042 9.70833 14.8646 10.6068 13.1719 11.8047C11.5052 13.0026 10.2682 14.513 9.46094 16.3359C8.67969 18.1328 8.11979 20.2812 7.78125 22.7812C8.48438 21.7656 9.34375 20.8411 10.3594 20.0078C11.2708 19.3047 12.3906 18.6667 13.7188 18.0938C15.0469 17.4948 16.6745 17.1953 18.6016 17.1953ZM17.7812 45.5938C19.0573 45.5938 20.3073 45.3203 21.5312 44.7734C22.7812 44.2005 23.849 43.4193 24.7344 42.4297C25.6458 41.4401 26.375 40.2943 26.9219 38.9922C27.4948 37.6901 27.7812 36.2969 27.7812 34.8125C27.7812 33.3281 27.4948 31.9349 26.9219 30.6328C26.375 29.3047 25.6458 28.1458 24.7344 27.1562C23.849 26.1667 22.7943 25.3984 21.5703 24.8516C20.3464 24.2786 19.0833 23.9922 17.7812 23.9922C16.5052 23.9922 15.2552 24.2786 14.0312 24.8516C12.8073 25.3984 11.7396 26.1667 10.8281 27.1562C9.91667 28.1458 9.17448 29.2917 8.60156 30.5938C8.05469 31.8958 7.78125 33.3021 7.78125 34.8125C7.78125 36.2969 8.05469 37.6901 8.60156 38.9922C9.17448 40.2943 9.91667 41.4401 10.8281 42.4297C11.7396 43.4193 12.8073 44.2005 14.0312 44.7734C15.2552 45.3203 16.5052 45.5938 17.7812 45.5938ZM74.0969 41.6094C73.4979 43.0938 72.7427 44.487 71.8312 45.7891C70.9198 47.0911 69.826 48.237 68.55 49.2266C67.274 50.2161 65.7896 50.9974 64.0969 51.5703C62.4302 52.1172 60.5552 52.3906 58.4719 52.3906C56.076 52.3906 53.8365 51.9479 51.7531 51.0625C49.6698 50.151 47.8469 48.888 46.2844 47.2734C44.7219 45.6328 43.4979 43.6927 42.6125 41.4531C41.7271 39.2135 41.2844 36.7266 41.2844 33.9922C41.2844 31.2839 41.7271 28.8099 42.6125 26.5703C43.4979 24.3307 44.6958 22.4036 46.2062 20.7891C47.7167 19.1484 49.5005 17.8724 51.5578 16.9609C53.6151 16.0495 55.7896 15.5938 58.0812 15.5938C60.3729 15.5938 62.5474 16.0495 64.6047 16.9609C66.662 17.8724 68.4458 19.1484 69.9562 20.7891C71.4667 22.4036 72.6646 24.3307 73.55 26.5703C74.4354 28.8099 74.8781 31.2839 74.8781 33.9922C74.8781 34.4089 74.8521 34.8255 74.8 35.2422C74.7479 35.6328 74.6958 35.9714 74.6437 36.2578C74.5917 36.6224 74.5396 36.9349 74.4875 37.1953H48.8625C48.9667 38.3151 49.2922 39.3828 49.8391 40.3984C50.3859 41.4141 51.063 42.3125 51.8703 43.0938C52.7036 43.849 53.6932 44.4609 54.8391 44.9297C55.9849 45.3724 57.1958 45.5938 58.4719 45.5938C60.6594 45.5938 62.3911 45.125 63.6672 44.1875C64.9693 43.25 65.9068 42.3906 66.4797 41.6094H74.0969ZM58.0812 22.3906C55.6854 22.3906 53.6542 23.2109 51.9875 24.8516C50.3469 26.4661 49.3052 28.5885 48.8625 31.2188H68.0812C67.6646 28.6146 66.5969 26.4922 64.8781 24.8516C63.1854 23.2109 60.9198 22.3906 58.0812 22.3906ZM114.006 38.7969C113.59 40.724 112.926 42.5208 112.014 44.1875C111.103 45.8281 109.944 47.2604 108.537 48.4844C107.157 49.7083 105.569 50.6719 103.772 51.375C102.001 52.0521 100.074 52.3906 97.9906 52.3906C95.5948 52.3906 93.3552 51.9479 91.2719 51.0625C89.1885 50.151 87.3526 48.888 85.7641 47.2734C84.2016 45.6328 82.9776 43.6927 82.0922 41.4531C81.2328 39.2135 80.8031 36.7266 80.8031 33.9922C80.8031 31.2839 81.2328 28.8099 82.0922 26.5703C82.9776 24.3307 84.2016 22.4036 85.7641 20.7891C87.3526 19.1484 89.1885 17.8724 91.2719 16.9609C93.3552 16.0495 95.5948 15.5938 97.9906 15.5938C100.074 15.5938 102.001 15.9453 103.772 16.6484C105.569 17.3255 107.157 18.2891 108.537 19.5391C109.944 20.763 111.09 22.2083 111.975 23.875C112.886 25.5156 113.564 27.2865 114.006 29.1875H106.389C105.79 27.1562 104.801 25.5156 103.42 24.2656C102.04 23.0156 100.23 22.3906 97.9906 22.3906C96.7146 22.3906 95.4646 22.6771 94.2406 23.25C93.0167 23.7969 91.949 24.5911 91.0375 25.6328C90.126 26.6745 89.3839 27.9115 88.8109 29.3438C88.2641 30.75 87.9906 32.2995 87.9906 33.9922C87.9906 35.7109 88.2641 37.2734 88.8109 38.6797C89.3839 40.0859 90.126 41.3099 91.0375 42.3516C91.949 43.3932 93.0167 44.2005 94.2406 44.7734C95.4646 45.3203 96.7146 45.5938 97.9906 45.5938C100.23 45.5938 102.04 44.9688 103.42 43.7188C104.827 42.4688 105.816 40.8281 106.389 38.7969H114.006ZM153.134 15.9844V52H145.947V22.7812H128.72V52H121.533V15.9844H153.134ZM188.2 33.9922C188.2 32.2734 187.914 30.7109 187.341 29.3047C186.794 27.8984 186.065 26.6745 185.153 25.6328C184.242 24.5911 183.174 23.7969 181.95 23.25C180.726 22.6771 179.476 22.3906 178.2 22.3906C176.924 22.3906 175.674 22.6771 174.45 23.25C173.226 23.7969 172.158 24.5911 171.247 25.6328C170.335 26.6745 169.593 27.9115 169.02 29.3438C168.473 30.75 168.2 32.2995 168.2 33.9922C168.2 35.7109 168.473 37.2734 169.02 38.6797C169.593 40.0859 170.335 41.3099 171.247 42.3516C172.158 43.3932 173.226 44.2005 174.45 44.7734C175.674 45.3203 176.924 45.5938 178.2 45.5938C179.476 45.5938 180.726 45.3203 181.95 44.7734C183.174 44.2005 184.242 43.3932 185.153 42.3516C186.065 41.3099 186.794 40.0859 187.341 38.6797C187.914 37.2734 188.2 35.7109 188.2 33.9922ZM195.387 33.9922C195.387 36.7005 194.945 39.1875 194.059 41.4531C193.2 43.6927 191.976 45.6328 190.387 47.2734C188.825 48.888 187.002 50.151 184.919 51.0625C182.835 51.9479 180.596 52.3906 178.2 52.3906C175.804 52.3906 173.565 51.9479 171.481 51.0625C169.398 50.151 167.562 48.888 165.973 47.2734C164.411 45.6328 163.187 43.6927 162.302 41.4531C161.442 39.2135 161.012 36.7266 161.012 33.9922C161.012 31.2839 161.442 28.8099 162.302 26.5703C163.187 24.3307 164.411 22.4036 165.973 20.7891C167.562 19.1484 169.398 17.8724 171.481 16.9609C173.565 16.0495 175.804 15.5938 178.2 15.5938C180.596 15.5938 182.835 16.0495 184.919 16.9609C187.002 17.8724 188.825 19.1484 190.387 20.7891C191.976 22.4036 193.2 24.3307 194.059 26.5703C194.945 28.8099 195.387 31.2839 195.387 33.9922ZM220.492 15.5938C222.888 15.5938 225.128 16.0495 227.211 16.9609C229.294 17.8724 231.117 19.1484 232.68 20.7891C234.268 22.4036 235.505 24.3307 236.391 26.5703C237.276 28.8099 237.719 31.2839 237.719 33.9922C237.719 36.7005 237.276 39.1875 236.391 41.4531C235.505 43.6927 234.268 45.6328 232.68 47.2734C231.117 48.888 229.294 50.151 227.211 51.0625C225.128 51.9479 222.888 52.3906 220.492 52.3906C218.773 52.3906 217.302 52.1953 216.078 51.8047C214.854 51.4141 213.826 50.9453 212.992 50.3984C212.029 49.7995 211.195 49.1354 210.492 48.4062V64.8125H203.305V15.9844H208.5L210.102 19.6172C210.805 18.862 211.625 18.1849 212.562 17.5859C213.422 17.1172 214.503 16.6745 215.805 16.2578C217.107 15.8151 218.669 15.5938 220.492 15.5938ZM220.102 45.5938C221.482 45.5938 222.797 45.3203 224.047 44.7734C225.297 44.2005 226.404 43.3932 227.367 42.3516C228.331 41.3099 229.086 40.0859 229.633 38.6797C230.206 37.2734 230.492 35.7109 230.492 33.9922C230.492 32.2734 230.206 30.7109 229.633 29.3047C229.086 27.8984 228.331 26.6745 227.367 25.6328C226.404 24.5911 225.297 23.7969 224.047 23.25C222.797 22.6771 221.482 22.3906 220.102 22.3906C218.721 22.3906 217.393 22.6771 216.117 23.25C214.867 23.7969 213.76 24.5911 212.797 25.6328C211.859 26.6745 211.104 27.9115 210.531 29.3438C209.984 30.75 209.711 32.2995 209.711 33.9922C209.711 35.7109 209.984 37.2734 210.531 38.6797C211.104 40.0859 211.859 41.3099 212.797 42.3516C213.76 43.3932 214.867 44.2005 216.117 44.7734C217.393 45.3203 218.721 45.5938 220.102 45.5938ZM273.214 15.9844V52H266.027V40.0078H258.839L251.222 52H243.214L251.613 38.7969C250.232 38.276 249.034 37.5339 248.019 36.5703C247.107 35.7109 246.274 34.6042 245.519 33.25C244.79 31.8958 244.425 30.151 244.425 28.0156C244.425 26.2969 244.724 24.7083 245.323 23.25C245.948 21.7656 246.808 20.5026 247.902 19.4609C248.995 18.3932 250.297 17.5469 251.808 16.9219C253.344 16.2969 255.024 15.9844 256.847 15.9844H273.214ZM256.847 22.7812C255.467 22.7812 254.243 23.3021 253.175 24.3438C252.133 25.3854 251.613 26.6094 251.613 28.0156C251.613 29.3958 252.133 30.6068 253.175 31.6484C254.217 32.6901 255.441 33.2109 256.847 33.2109H266.027V22.7812H256.847ZM316.717 45.2031V60.3984H309.92V52H285.116V60.3984H278.319V45.2031H280.702C281.457 44.6823 282.134 44.0964 282.733 43.4453C283.254 42.8464 283.748 42.1432 284.217 41.3359C284.712 40.5026 285.011 39.526 285.116 38.4062L287.538 15.9844H311.913V45.2031H316.717ZM292.303 38.4062C292.199 39.526 291.991 40.5026 291.678 41.3359C291.366 42.1432 291.04 42.8464 290.702 43.4453C290.337 44.0964 289.946 44.6823 289.53 45.2031H304.725V22.7812H293.905L292.303 38.4062ZM348.619 33.9922C348.619 32.2734 348.332 30.7109 347.759 29.3047C347.212 27.8984 346.483 26.6745 345.572 25.6328C344.66 24.5911 343.593 23.7969 342.369 23.25C341.145 22.6771 339.895 22.3906 338.619 22.3906C337.343 22.3906 336.093 22.6771 334.869 23.25C333.645 23.7969 332.577 24.5911 331.666 25.6328C330.754 26.6745 330.012 27.9115 329.439 29.3438C328.892 30.75 328.619 32.2995 328.619 33.9922C328.619 35.7109 328.892 37.2734 329.439 38.6797C330.012 40.0859 330.754 41.3099 331.666 42.3516C332.577 43.3932 333.645 44.2005 334.869 44.7734C336.093 45.3203 337.343 45.5938 338.619 45.5938C339.895 45.5938 341.145 45.3203 342.369 44.7734C343.593 44.2005 344.66 43.3932 345.572 42.3516C346.483 41.3099 347.212 40.0859 347.759 38.6797C348.332 37.2734 348.619 35.7109 348.619 33.9922ZM355.806 33.9922C355.806 36.7005 355.364 39.1875 354.478 41.4531C353.619 43.6927 352.395 45.6328 350.806 47.2734C349.244 48.888 347.421 50.151 345.337 51.0625C343.254 51.9479 341.015 52.3906 338.619 52.3906C336.223 52.3906 333.983 51.9479 331.9 51.0625C329.817 50.151 327.981 48.888 326.392 47.2734C324.83 45.6328 323.606 43.6927 322.72 41.4531C321.861 39.2135 321.431 36.7266 321.431 33.9922C321.431 31.2839 321.861 28.8099 322.72 26.5703C323.606 24.3307 324.83 22.4036 326.392 20.7891C327.981 19.1484 329.817 17.8724 331.9 16.9609C333.983 16.0495 336.223 15.5938 338.619 15.5938C341.015 15.5938 343.254 16.0495 345.337 16.9609C347.421 17.8724 349.244 19.1484 350.806 20.7891C352.395 22.4036 353.619 24.3307 354.478 26.5703C355.364 28.8099 355.806 31.2839 355.806 33.9922ZM385.325 52L371.302 34.8125V52H364.114V15.9844H371.302V31.6094L383.723 15.9844H392.122L378.138 32.7812L394.114 52H385.325ZM449.87 45.2031V60.3984H443.073V52H418.269V60.3984H411.472V45.2031H413.855C414.61 44.6823 415.287 44.0964 415.886 43.4453C416.407 42.8464 416.902 42.1432 417.37 41.3359C417.865 40.5026 418.165 39.526 418.269 38.4062L420.691 15.9844H445.066V45.2031H449.87ZM425.456 38.4062C425.352 39.526 425.144 40.5026 424.831 41.3359C424.519 42.1432 424.193 42.8464 423.855 43.4453C423.49 44.0964 423.099 44.6823 422.683 45.2031H437.878V22.7812H427.058L425.456 38.4062ZM481.772 33.9922C481.772 32.2734 481.485 30.7109 480.913 29.3047C480.366 27.8984 479.636 26.6745 478.725 25.6328C477.814 24.5911 476.746 23.7969 475.522 23.25C474.298 22.6771 473.048 22.3906 471.772 22.3906C470.496 22.3906 469.246 22.6771 468.022 23.25C466.798 23.7969 465.73 24.5911 464.819 25.6328C463.907 26.6745 463.165 27.9115 462.592 29.3438C462.045 30.75 461.772 32.2995 461.772 33.9922C461.772 35.7109 462.045 37.2734 462.592 38.6797C463.165 40.0859 463.907 41.3099 464.819 42.3516C465.73 43.3932 466.798 44.2005 468.022 44.7734C469.246 45.3203 470.496 45.5938 471.772 45.5938C473.048 45.5938 474.298 45.3203 475.522 44.7734C476.746 44.2005 477.814 43.3932 478.725 42.3516C479.636 41.3099 480.366 40.0859 480.913 38.6797C481.485 37.2734 481.772 35.7109 481.772 33.9922ZM488.959 33.9922C488.959 36.7005 488.517 39.1875 487.631 41.4531C486.772 43.6927 485.548 45.6328 483.959 47.2734C482.397 48.888 480.574 50.151 478.491 51.0625C476.407 51.9479 474.168 52.3906 471.772 52.3906C469.376 52.3906 467.136 51.9479 465.053 51.0625C462.97 50.151 461.134 48.888 459.545 47.2734C457.983 45.6328 456.759 43.6927 455.873 41.4531C455.014 39.2135 454.584 36.7266 454.584 33.9922C454.584 31.2839 455.014 28.8099 455.873 26.5703C456.759 24.3307 457.983 22.4036 459.545 20.7891C461.134 19.1484 462.97 17.8724 465.053 16.9609C467.136 16.0495 469.376 15.5938 471.772 15.5938C474.168 15.5938 476.407 16.0495 478.491 16.9609C480.574 17.8724 482.397 19.1484 483.959 20.7891C485.548 22.4036 486.772 24.3307 487.631 26.5703C488.517 28.8099 488.959 31.2839 488.959 33.9922ZM513.673 52L504.064 32V52H496.877V15.9844H503.283L516.056 42.3906L528.869 15.9844H535.275V52H528.087V32L518.478 52H513.673ZM559.13 15.5938C561.213 15.5938 563.114 15.9323 564.833 16.6094C566.578 17.2604 568.062 18.1589 569.286 19.3047C570.51 20.4505 571.46 21.8047 572.138 23.3672C572.815 24.9036 573.153 26.5833 573.153 28.4062V52H567.958L566.356 48.4062C565.653 49.1615 564.82 49.8255 563.856 50.3984C562.997 50.9193 561.916 51.388 560.614 51.8047C559.312 52.1953 557.749 52.3906 555.927 52.3906C551.916 52.3906 548.843 51.401 546.708 49.4219C544.598 47.4167 543.544 44.8125 543.544 41.6094C543.544 39.7865 543.882 38.1458 544.559 36.6875C545.263 35.2031 546.447 33.9531 548.114 32.9375C549.807 31.8958 552.085 31.0885 554.95 30.5156C557.841 29.9167 561.499 29.6172 565.927 29.6172V28.4062C565.927 26.5833 565.354 25.125 564.208 24.0312C563.062 22.9375 561.369 22.3906 559.13 22.3906C556.734 22.3906 554.989 22.8203 553.895 23.6797C552.802 24.5391 552.151 25.5807 551.942 26.8047H544.755C544.963 23.6016 546.304 20.9323 548.778 18.7969C551.252 16.6615 554.703 15.5938 559.13 15.5938ZM556.356 45.9844C559.403 45.9844 561.76 45.2031 563.427 43.6406C565.093 42.0781 565.927 40.1771 565.927 37.9375V35.9844C562.723 35.9844 560.132 36.1406 558.153 36.4531C556.2 36.7396 554.664 37.1432 553.544 37.6641C552.424 38.1589 551.669 38.7839 551.278 39.5391C550.914 40.2682 550.731 41.0885 550.731 42C550.731 43.0156 551.213 43.9401 552.177 44.7734C553.14 45.5807 554.533 45.9844 556.356 45.9844ZM609.82 15.5938C609.82 17.5208 609.534 19.1484 608.961 20.4766C608.414 21.8047 607.698 22.9766 606.812 23.9922C605.953 25.0078 605.029 25.9583 604.039 26.8438C603.049 27.7292 602.112 28.6927 601.227 29.7344C600.341 30.776 599.612 31.987 599.039 33.3672C598.492 34.7474 598.219 36.4271 598.219 38.4062V39.1875H591.031V38.4062C591.031 35.9062 591.305 33.7839 591.852 32.0391C592.424 30.2943 593.154 28.8099 594.039 27.5859C594.924 26.362 595.849 25.3203 596.812 24.4609C597.802 23.5755 598.74 22.7031 599.625 21.8438C600.51 20.9844 601.227 20.0729 601.773 19.1094C602.346 18.1458 602.633 16.974 602.633 15.5938C602.633 13.5625 601.917 11.8568 600.484 10.4766C599.078 9.09635 597.255 8.40625 595.016 8.40625C592.776 8.40625 590.953 9.1875 589.547 10.75C588.141 12.2865 587.438 14.5651 587.438 17.5859V18.4062H580.211V17.5859C580.211 15.0859 580.589 12.8203 581.344 10.7891C582.099 8.75781 583.141 7.03906 584.469 5.63281C585.797 4.22656 587.359 3.14583 589.156 2.39062C590.979 1.60938 592.932 1.21875 595.016 1.21875C597.099 1.21875 599.039 1.59635 600.836 2.35156C602.659 3.08073 604.234 4.09635 605.562 5.39844C606.917 6.70052 607.958 8.23698 608.688 10.0078C609.443 11.7526 609.82 13.6146 609.82 15.5938ZM599.039 48.0156C599.039 49.2396 598.609 50.2812 597.75 51.1406C596.891 51.974 595.849 52.3906 594.625 52.3906C593.401 52.3906 592.359 51.974 591.5 51.1406C590.641 50.2812 590.211 49.2396 590.211 48.0156C590.211 46.7917 590.641 45.75 591.5 44.8906C592.359 44.0312 593.401 43.6016 594.625 43.6016C595.849 43.6016 596.891 44.0312 597.75 44.8906C598.609 45.75 599.039 46.7917 599.039 48.0156ZM18.6016 97.1953C20.7891 97.1953 22.8854 97.651 24.8906 98.5625C26.8958 99.474 28.6406 100.724 30.125 102.312C31.6094 103.875 32.7943 105.724 33.6797 107.859C34.5651 109.969 35.0078 112.286 35.0078 114.812C35.0078 117.312 34.5651 119.63 33.6797 121.766C32.7943 123.901 31.5573 125.763 29.9688 127.352C28.4062 128.914 26.5833 130.151 24.5 131.062C22.4427 131.948 20.2031 132.391 17.7812 132.391C15.2812 132.391 12.9635 131.935 10.8281 131.023C8.69271 130.086 6.84375 128.667 5.28125 126.766C3.71875 124.865 2.48177 122.521 1.57031 119.734C0.658854 116.922 0.203125 113.68 0.203125 110.008C0.203125 104.826 0.723958 100.424 1.76562 96.8047C2.80729 93.1849 4.51302 90.2292 6.88281 87.9375C9.2526 85.6198 12.3646 83.901 16.2188 82.7812C20.099 81.6615 24.8906 80.9974 30.5938 80.7891V88.0156C26.2708 88.1198 22.7031 88.4844 19.8906 89.1094C17.1042 89.7083 14.8646 90.6068 13.1719 91.8047C11.5052 93.0026 10.2682 94.513 9.46094 96.3359C8.67969 98.1328 8.11979 100.281 7.78125 102.781C8.48438 101.766 9.34375 100.841 10.3594 100.008C11.2708 99.3047 12.3906 98.6667 13.7188 98.0938C15.0469 97.4948 16.6745 97.1953 18.6016 97.1953ZM17.7812 125.594C19.0573 125.594 20.3073 125.32 21.5312 124.773C22.7812 124.201 23.849 123.419 24.7344 122.43C25.6458 121.44 26.375 120.294 26.9219 118.992C27.4948 117.69 27.7812 116.297 27.7812 114.812C27.7812 113.328 27.4948 111.935 26.9219 110.633C26.375 109.305 25.6458 108.146 24.7344 107.156C23.849 106.167 22.7943 105.398 21.5703 104.852C20.3464 104.279 19.0833 103.992 17.7812 103.992C16.5052 103.992 15.2552 104.279 14.0312 104.852C12.8073 105.398 11.7396 106.167 10.8281 107.156C9.91667 108.146 9.17448 109.292 8.60156 110.594C8.05469 111.896 7.78125 113.302 7.78125 114.812C7.78125 116.297 8.05469 117.69 8.60156 118.992C9.17448 120.294 9.91667 121.44 10.8281 122.43C11.7396 123.419 12.8073 124.201 14.0312 124.773C15.2552 125.32 16.5052 125.594 17.7812 125.594ZM68.0812 113.992C68.0812 112.273 67.7948 110.711 67.2219 109.305C66.675 107.898 65.9458 106.674 65.0344 105.633C64.1229 104.591 63.0552 103.797 61.8312 103.25C60.6073 102.677 59.3573 102.391 58.0812 102.391C56.8052 102.391 55.5552 102.677 54.3312 103.25C53.1073 103.797 52.0396 104.591 51.1281 105.633C50.2167 106.674 49.4745 107.911 48.9016 109.344C48.3547 110.75 48.0812 112.299 48.0812 113.992C48.0812 115.711 48.3547 117.273 48.9016 118.68C49.4745 120.086 50.2167 121.31 51.1281 122.352C52.0396 123.393 53.1073 124.201 54.3312 124.773C55.5552 125.32 56.8052 125.594 58.0812 125.594C59.3573 125.594 60.6073 125.32 61.8312 124.773C63.0552 124.201 64.1229 123.393 65.0344 122.352C65.9458 121.31 66.675 120.086 67.2219 118.68C67.7948 117.273 68.0812 115.711 68.0812 113.992ZM75.2687 113.992C75.2687 116.701 74.826 119.188 73.9406 121.453C73.0812 123.693 71.8573 125.633 70.2687 127.273C68.7062 128.888 66.8833 130.151 64.8 131.062C62.7167 131.948 60.4771 132.391 58.0812 132.391C55.6854 132.391 53.4458 131.948 51.3625 131.062C49.2792 130.151 47.4432 128.888 45.8547 127.273C44.2922 125.633 43.0682 123.693 42.1828 121.453C41.3234 119.214 40.8937 116.727 40.8937 113.992C40.8937 111.284 41.3234 108.81 42.1828 106.57C43.0682 104.331 44.2922 102.404 45.8547 100.789C47.4432 99.1484 49.2792 97.8724 51.3625 96.9609C53.4458 96.0495 55.6854 95.5938 58.0812 95.5938C60.4771 95.5938 62.7167 96.0495 64.8 96.9609C66.8833 97.8724 68.7062 99.1484 70.2687 100.789C71.8573 102.404 73.0812 104.331 73.9406 106.57C74.826 108.81 75.2687 111.284 75.2687 113.992ZM112.014 95.9844V132H104.787V102.781H92.7953L91.5844 120.008C91.324 124.018 90.1781 127.091 88.1469 129.227C86.1417 131.336 83.4203 132.391 79.9828 132.391C79.6703 132.391 79.3839 132.378 79.1234 132.352C78.863 132.326 78.5896 132.286 78.3031 132.234C78.0427 132.182 77.8083 132.104 77.6 132V125.984H78.3812C82.0531 125.984 84.0583 123.992 84.3969 120.008L86.3891 95.9844H112.014ZM137.9 108.016C139.723 108.016 141.39 108.328 142.9 108.953C144.436 109.552 145.752 110.385 146.845 111.453C147.939 112.521 148.785 113.784 149.384 115.242C150.009 116.701 150.322 118.289 150.322 120.008C150.322 121.727 150.009 123.315 149.384 124.773C148.785 126.232 147.939 127.495 146.845 128.562C145.752 129.63 144.436 130.477 142.9 131.102C141.39 131.701 139.723 132 137.9 132H121.923V95.9844H129.111V108.016H137.9ZM137.9 125.203C139.28 125.203 140.491 124.682 141.533 123.641C142.601 122.599 143.134 121.388 143.134 120.008C143.134 118.628 142.614 117.417 141.572 116.375C140.53 115.333 139.306 114.812 137.9 114.812H129.111V125.203H137.9ZM203.044 95.9844V132H157.458V95.9844H164.645V125.203H176.637V95.9844H183.864V125.203H195.856V95.9844H203.044ZM244.203 121.609C243.604 123.094 242.849 124.487 241.938 125.789C241.026 127.091 239.932 128.237 238.656 129.227C237.38 130.216 235.896 130.997 234.203 131.57C232.536 132.117 230.661 132.391 228.578 132.391C226.182 132.391 223.943 131.948 221.859 131.062C219.776 130.151 217.953 128.888 216.391 127.273C214.828 125.633 213.604 123.693 212.719 121.453C211.833 119.214 211.391 116.727 211.391 113.992C211.391 111.284 211.833 108.81 212.719 106.57C213.604 104.331 214.802 102.404 216.312 100.789C217.823 99.1484 219.607 97.8724 221.664 96.9609C223.721 96.0495 225.896 95.5938 228.188 95.5938C230.479 95.5938 232.654 96.0495 234.711 96.9609C236.768 97.8724 238.552 99.1484 240.062 100.789C241.573 102.404 242.771 104.331 243.656 106.57C244.542 108.81 244.984 111.284 244.984 113.992C244.984 114.409 244.958 114.826 244.906 115.242C244.854 115.633 244.802 115.971 244.75 116.258C244.698 116.622 244.646 116.935 244.594 117.195H218.969C219.073 118.315 219.398 119.383 219.945 120.398C220.492 121.414 221.169 122.312 221.977 123.094C222.81 123.849 223.799 124.461 224.945 124.93C226.091 125.372 227.302 125.594 228.578 125.594C230.766 125.594 232.497 125.125 233.773 124.188C235.076 123.25 236.013 122.391 236.586 121.609H244.203ZM228.188 102.391C225.792 102.391 223.76 103.211 222.094 104.852C220.453 106.466 219.411 108.589 218.969 111.219H238.188C237.771 108.615 236.703 106.492 234.984 104.852C233.292 103.211 231.026 102.391 228.188 102.391ZM283.983 95.5938C286.379 95.5938 288.618 96.0495 290.702 96.9609C292.785 97.8724 294.608 99.1484 296.17 100.789C297.759 102.404 298.983 104.331 299.842 106.57C300.728 108.81 301.17 111.284 301.17 113.992C301.17 116.701 300.728 119.188 299.842 121.453C298.983 123.693 297.759 125.633 296.17 127.273C294.608 128.888 292.785 130.151 290.702 131.062C288.618 131.948 286.379 132.391 283.983 132.391C281.899 132.391 279.959 132.052 278.163 131.375C276.392 130.672 274.816 129.734 273.436 128.562C272.082 127.391 270.975 126.036 270.116 124.5C269.282 122.938 268.696 121.31 268.358 119.617H275.975C276.392 121.206 277.264 122.599 278.592 123.797C279.946 124.995 281.743 125.594 283.983 125.594C285.155 125.594 286.288 125.372 287.381 124.93C288.475 124.461 289.439 123.849 290.272 123.094C291.131 122.312 291.834 121.414 292.381 120.398C292.954 119.383 293.358 118.315 293.592 117.195H281.561V111.219H293.592C293.384 110.047 292.993 108.927 292.42 107.859C291.847 106.792 291.131 105.854 290.272 105.047C289.439 104.24 288.475 103.602 287.381 103.133C286.288 102.638 285.155 102.391 283.983 102.391C281.743 102.391 279.946 102.99 278.592 104.188C277.264 105.385 276.392 106.792 275.975 108.406H268.358C268.67 106.688 269.256 105.06 270.116 103.523C270.975 101.987 272.082 100.633 273.436 99.4609C274.816 98.263 276.392 97.3255 278.163 96.6484C279.959 95.9453 281.899 95.5938 283.983 95.5938ZM304.673 95.9844H334.244V102.781H323.072V132H315.845V102.781H304.673V95.9844ZM365.013 113.992C365.013 112.273 364.726 110.711 364.153 109.305C363.606 107.898 362.877 106.674 361.966 105.633C361.054 104.591 359.986 103.797 358.763 103.25C357.539 102.677 356.289 102.391 355.013 102.391C353.736 102.391 352.486 102.677 351.263 103.25C350.039 103.797 348.971 104.591 348.059 105.633C347.148 106.674 346.406 107.911 345.833 109.344C345.286 110.75 345.013 112.299 345.013 113.992C345.013 115.711 345.286 117.273 345.833 118.68C346.406 120.086 347.148 121.31 348.059 122.352C348.971 123.393 350.039 124.201 351.263 124.773C352.486 125.32 353.736 125.594 355.013 125.594C356.289 125.594 357.539 125.32 358.763 124.773C359.986 124.201 361.054 123.393 361.966 122.352C362.877 121.31 363.606 120.086 364.153 118.68C364.726 117.273 365.013 115.711 365.013 113.992ZM372.2 113.992C372.2 116.701 371.757 119.188 370.872 121.453C370.013 123.693 368.789 125.633 367.2 127.273C365.638 128.888 363.815 130.151 361.731 131.062C359.648 131.948 357.408 132.391 355.013 132.391C352.617 132.391 350.377 131.948 348.294 131.062C346.21 130.151 344.374 128.888 342.786 127.273C341.223 125.633 339.999 123.693 339.114 121.453C338.255 119.214 337.825 116.727 337.825 113.992C337.825 111.284 338.255 108.81 339.114 106.57C339.999 104.331 341.223 102.404 342.786 100.789C344.374 99.1484 346.21 97.8724 348.294 96.9609C350.377 96.0495 352.617 95.5938 355.013 95.5938C357.408 95.5938 359.648 96.0495 361.731 96.9609C363.815 97.8724 365.638 99.1484 367.2 100.789C368.789 102.404 370.013 104.331 370.872 106.57C371.757 108.81 372.2 111.284 372.2 113.992Z" fill="black"/>
<path d="M429.597 95.9844V132H422.409V117.195H405.183V132H397.995V95.9844H405.183V110.398H422.409V95.9844H429.597ZM470.678 121.609C470.079 123.094 469.324 124.487 468.413 125.789C467.501 127.091 466.407 128.237 465.131 129.227C463.855 130.216 462.371 130.997 460.678 131.57C459.011 132.117 457.136 132.391 455.053 132.391C452.657 132.391 450.418 131.948 448.334 131.062C446.251 130.151 444.428 128.888 442.866 127.273C441.303 125.633 440.079 123.693 439.194 121.453C438.308 119.214 437.866 116.727 437.866 113.992C437.866 111.284 438.308 108.81 439.194 106.57C440.079 104.331 441.277 102.404 442.788 100.789C444.298 99.1484 446.082 97.8724 448.139 96.9609C450.196 96.0495 452.371 95.5938 454.663 95.5938C456.954 95.5938 459.129 96.0495 461.186 96.9609C463.243 97.8724 465.027 99.1484 466.538 100.789C468.048 102.404 469.246 104.331 470.131 106.57C471.017 108.81 471.459 111.284 471.459 113.992C471.459 114.409 471.433 114.826 471.381 115.242C471.329 115.633 471.277 115.971 471.225 116.258C471.173 116.622 471.121 116.935 471.069 117.195H445.444C445.548 118.315 445.873 119.383 446.42 120.398C446.967 121.414 447.644 122.312 448.452 123.094C449.285 123.849 450.274 124.461 451.42 124.93C452.566 125.372 453.777 125.594 455.053 125.594C457.241 125.594 458.972 125.125 460.248 124.188C461.551 123.25 462.488 122.391 463.061 121.609H470.678ZM454.663 102.391C452.267 102.391 450.235 103.211 448.569 104.852C446.928 106.466 445.886 108.589 445.444 111.219H464.663C464.246 108.615 463.178 106.492 461.459 104.852C459.767 103.211 457.501 102.391 454.663 102.391ZM33.4062 175.984V212H26.2188V182.781H8.99219V212H1.80469V175.984H33.4062ZM60.4641 175.594C62.8599 175.594 65.0995 176.049 67.1828 176.961C69.2661 177.872 71.0891 179.148 72.6516 180.789C74.2401 182.404 75.4771 184.331 76.3625 186.57C77.2479 188.81 77.6906 191.284 77.6906 193.992C77.6906 196.701 77.2479 199.188 76.3625 201.453C75.4771 203.693 74.2401 205.633 72.6516 207.273C71.0891 208.888 69.2661 210.151 67.1828 211.062C65.0995 211.948 62.8599 212.391 60.4641 212.391C58.7453 212.391 57.274 212.195 56.05 211.805C54.826 211.414 53.7974 210.945 52.9641 210.398C52.0005 209.799 51.1672 209.135 50.4641 208.406V224.812H43.2766V175.984H48.4719L50.0734 179.617C50.7766 178.862 51.5969 178.185 52.5344 177.586C53.3937 177.117 54.4745 176.674 55.7766 176.258C57.0786 175.815 58.6411 175.594 60.4641 175.594ZM60.0734 205.594C61.4536 205.594 62.7687 205.32 64.0187 204.773C65.2687 204.201 66.3755 203.393 67.3391 202.352C68.3026 201.31 69.0578 200.086 69.6047 198.68C70.1776 197.273 70.4641 195.711 70.4641 193.992C70.4641 192.273 70.1776 190.711 69.6047 189.305C69.0578 187.898 68.3026 186.674 67.3391 185.633C66.3755 184.591 65.2687 183.797 64.0187 183.25C62.7687 182.677 61.4536 182.391 60.0734 182.391C58.6932 182.391 57.3651 182.677 56.0891 183.25C54.8391 183.797 53.7323 184.591 52.7687 185.633C51.8312 186.674 51.076 187.911 50.5031 189.344C49.9562 190.75 49.6828 192.299 49.6828 193.992C49.6828 195.711 49.9562 197.273 50.5031 198.68C51.076 200.086 51.8312 201.31 52.7687 202.352C53.7323 203.393 54.8391 204.201 56.0891 204.773C57.3651 205.32 58.6932 205.594 60.0734 205.594ZM110.803 193.992C110.803 192.273 110.517 190.711 109.944 189.305C109.397 187.898 108.668 186.674 107.756 185.633C106.845 184.591 105.777 183.797 104.553 183.25C103.329 182.677 102.079 182.391 100.803 182.391C99.5271 182.391 98.2771 182.677 97.0531 183.25C95.8292 183.797 94.7615 184.591 93.85 185.633C92.9385 186.674 92.1964 187.911 91.6234 189.344C91.0766 190.75 90.8031 192.299 90.8031 193.992C90.8031 195.711 91.0766 197.273 91.6234 198.68C92.1964 200.086 92.9385 201.31 93.85 202.352C94.7615 203.393 95.8292 204.201 97.0531 204.773C98.2771 205.32 99.5271 205.594 100.803 205.594C102.079 205.594 103.329 205.32 104.553 204.773C105.777 204.201 106.845 203.393 107.756 202.352C108.668 201.31 109.397 200.086 109.944 198.68C110.517 197.273 110.803 195.711 110.803 193.992ZM117.991 193.992C117.991 196.701 117.548 199.188 116.662 201.453C115.803 203.693 114.579 205.633 112.991 207.273C111.428 208.888 109.605 210.151 107.522 211.062C105.439 211.948 103.199 212.391 100.803 212.391C98.4073 212.391 96.1677 211.948 94.0844 211.062C92.001 210.151 90.1651 208.888 88.5766 207.273C87.0141 205.633 85.7901 203.693 84.9047 201.453C84.0453 199.214 83.6156 196.727 83.6156 193.992C83.6156 191.284 84.0453 188.81 84.9047 186.57C85.7901 184.331 87.0141 182.404 88.5766 180.789C90.1651 179.148 92.001 177.872 94.0844 176.961C96.1677 176.049 98.4073 175.594 100.803 175.594C103.199 175.594 105.439 176.049 107.522 176.961C109.605 177.872 111.428 179.148 112.991 180.789C114.579 182.404 115.803 184.331 116.662 186.57C117.548 188.81 117.991 191.284 117.991 193.992ZM142.705 177.195C144.892 177.195 146.989 177.651 148.994 178.562C150.999 179.474 152.744 180.724 154.228 182.312C155.713 183.875 156.897 185.724 157.783 187.859C158.668 189.969 159.111 192.286 159.111 194.812C159.111 197.312 158.668 199.63 157.783 201.766C156.897 203.901 155.66 205.763 154.072 207.352C152.509 208.914 150.686 210.151 148.603 211.062C146.546 211.948 144.306 212.391 141.884 212.391C139.384 212.391 137.067 211.935 134.931 211.023C132.796 210.086 130.947 208.667 129.384 206.766C127.822 204.865 126.585 202.521 125.673 199.734C124.762 196.922 124.306 193.68 124.306 190.008C124.306 184.826 124.827 180.424 125.869 176.805C126.91 173.185 128.616 170.229 130.986 167.938C133.356 165.62 136.468 163.901 140.322 162.781C144.202 161.661 148.994 160.997 154.697 160.789V168.016C150.374 168.12 146.806 168.484 143.994 169.109C141.207 169.708 138.968 170.607 137.275 171.805C135.608 173.003 134.371 174.513 133.564 176.336C132.783 178.133 132.223 180.281 131.884 182.781C132.588 181.766 133.447 180.841 134.463 180.008C135.374 179.305 136.494 178.667 137.822 178.094C139.15 177.495 140.778 177.195 142.705 177.195ZM141.884 205.594C143.16 205.594 144.41 205.32 145.634 204.773C146.884 204.201 147.952 203.419 148.838 202.43C149.749 201.44 150.478 200.294 151.025 198.992C151.598 197.69 151.884 196.297 151.884 194.812C151.884 193.328 151.598 191.935 151.025 190.633C150.478 189.305 149.749 188.146 148.838 187.156C147.952 186.167 146.897 185.398 145.673 184.852C144.449 184.279 143.186 183.992 141.884 183.992C140.608 183.992 139.358 184.279 138.134 184.852C136.91 185.398 135.843 186.167 134.931 187.156C134.02 188.146 133.278 189.292 132.705 190.594C132.158 191.896 131.884 193.302 131.884 194.812C131.884 196.297 132.158 197.69 132.705 198.992C133.278 200.294 134.02 201.44 134.931 202.43C135.843 203.419 136.91 204.201 138.134 204.773C139.358 205.32 140.608 205.594 141.884 205.594ZM195.817 175.984V212H188.591V182.781H176.598L175.387 200.008C175.127 204.018 173.981 207.091 171.95 209.227C169.945 211.336 167.223 212.391 163.786 212.391C163.473 212.391 163.187 212.378 162.927 212.352C162.666 212.326 162.393 212.286 162.106 212.234C161.846 212.182 161.611 212.104 161.403 212V205.984H162.184C165.856 205.984 167.861 203.992 168.2 200.008L170.192 175.984H195.817ZM236.938 201.609C236.339 203.094 235.583 204.487 234.672 205.789C233.76 207.091 232.667 208.237 231.391 209.227C230.115 210.216 228.63 210.997 226.938 211.57C225.271 212.117 223.396 212.391 221.312 212.391C218.917 212.391 216.677 211.948 214.594 211.062C212.51 210.151 210.688 208.888 209.125 207.273C207.562 205.633 206.339 203.693 205.453 201.453C204.568 199.214 204.125 196.727 204.125 193.992C204.125 191.284 204.568 188.81 205.453 186.57C206.339 184.331 207.536 182.404 209.047 180.789C210.557 179.148 212.341 177.872 214.398 176.961C216.456 176.049 218.63 175.594 220.922 175.594C223.214 175.594 225.388 176.049 227.445 176.961C229.503 177.872 231.286 179.148 232.797 180.789C234.307 182.404 235.505 184.331 236.391 186.57C237.276 188.81 237.719 191.284 237.719 193.992C237.719 194.409 237.693 194.826 237.641 195.242C237.589 195.633 237.536 195.971 237.484 196.258C237.432 196.622 237.38 196.935 237.328 197.195H211.703C211.807 198.315 212.133 199.383 212.68 200.398C213.227 201.414 213.904 202.312 214.711 203.094C215.544 203.849 216.534 204.461 217.68 204.93C218.826 205.372 220.036 205.594 221.312 205.594C223.5 205.594 225.232 205.125 226.508 204.188C227.81 203.25 228.747 202.391 229.32 201.609H236.938ZM220.922 182.391C218.526 182.391 216.495 183.211 214.828 184.852C213.188 186.466 212.146 188.589 211.703 191.219H230.922C230.505 188.615 229.438 186.492 227.719 184.852C226.026 183.211 223.76 182.391 220.922 182.391ZM262.433 212L252.823 192V212H245.636V175.984H252.042L264.816 202.391L277.628 175.984H284.034V212H276.847V192L267.238 212H262.433ZM307.889 175.594C309.972 175.594 311.873 175.932 313.592 176.609C315.337 177.26 316.821 178.159 318.045 179.305C319.269 180.451 320.22 181.805 320.897 183.367C321.574 184.904 321.913 186.583 321.913 188.406V212H316.717L315.116 208.406C314.413 209.161 313.579 209.826 312.616 210.398C311.756 210.919 310.676 211.388 309.373 211.805C308.071 212.195 306.509 212.391 304.686 212.391C300.676 212.391 297.603 211.401 295.467 209.422C293.358 207.417 292.303 204.812 292.303 201.609C292.303 199.786 292.642 198.146 293.319 196.688C294.022 195.203 295.207 193.953 296.873 192.938C298.566 191.896 300.845 191.089 303.709 190.516C306.6 189.917 310.259 189.617 314.686 189.617V188.406C314.686 186.583 314.113 185.125 312.967 184.031C311.821 182.938 310.129 182.391 307.889 182.391C305.493 182.391 303.748 182.82 302.655 183.68C301.561 184.539 300.91 185.581 300.702 186.805H293.514C293.722 183.602 295.064 180.932 297.538 178.797C300.011 176.661 303.462 175.594 307.889 175.594ZM305.116 205.984C308.163 205.984 310.519 205.203 312.186 203.641C313.853 202.078 314.686 200.177 314.686 197.938V195.984C311.483 195.984 308.892 196.141 306.913 196.453C304.959 196.74 303.423 197.143 302.303 197.664C301.183 198.159 300.428 198.784 300.038 199.539C299.673 200.268 299.491 201.089 299.491 202C299.491 203.016 299.972 203.94 300.936 204.773C301.899 205.581 303.293 205.984 305.116 205.984Z" fill="#4793EF"/>
</svg>
