<svg width="264" height="88" viewBox="0 0 264 88" fill="none" xmlns="http://www.w3.org/2000/svg">
<rect width="264" height="88" rx="44" fill="url(#paint0_linear)"/>
<rect width="264" height="88" rx="44" fill="#FD354D"/>
<path d="M86.9691 43.8387C87.6373 44.1489 88.2339 44.5546 88.7589 45.0558C89.2124 45.4853 89.6181 46.0581 89.976 46.774C90.3579 47.49 90.5488 48.361 90.5488 49.3872C90.5488 50.2463 90.3698 51.0696 90.0118 51.8571C89.6539 52.6208 89.1408 53.3009 88.4726 53.8975C87.8282 54.4703 87.0526 54.9357 86.1458 55.2936C85.2628 55.6516 84.2844 55.8306 83.2105 55.8306H73.5454V33.2787H82.8525C83.8309 33.2787 84.7378 33.4457 85.573 33.7799C86.4083 34.114 87.1242 34.5674 87.7208 35.1401C88.3413 35.7129 88.8186 36.3811 89.1527 37.1447C89.4868 37.8845 89.6539 38.684 89.6539 39.5431C89.6539 40.3068 89.5107 40.963 89.2243 41.5119C88.9379 42.0608 88.6277 42.5023 88.2936 42.8364C87.8879 43.2421 87.4464 43.5762 86.9691 43.8387ZM77.841 42.4068H82.4945C83.3059 42.4068 83.9861 42.1443 84.5349 41.6193C85.0838 41.0704 85.3583 40.438 85.3583 39.7221C85.3583 39.0062 85.0838 38.3857 84.5349 37.8607C83.9861 37.3118 83.3059 37.0373 82.4945 37.0373H77.841V42.4068ZM82.8525 52.0719C83.8548 52.0719 84.6662 51.7617 85.2867 51.1412C85.931 50.5207 86.2532 49.7571 86.2532 48.8502C86.2532 47.9434 85.931 47.1797 85.2867 46.5592C84.6662 45.9388 83.8548 45.6285 82.8525 45.6285H77.841V52.0719H82.8525ZM109.719 42.5858H117.773C117.558 41.8222 117.248 41.1182 116.842 40.4738C116.437 39.8056 115.959 39.2329 115.41 38.7556C114.862 38.2783 114.241 37.9084 113.549 37.6459C112.881 37.3595 112.141 37.2163 111.33 37.2163C110.566 37.2163 109.874 37.3356 109.253 37.5743C108.633 37.7891 108.084 38.0754 107.607 38.4334C107.153 38.7675 106.772 39.1493 106.461 39.5789C106.151 39.9846 105.924 40.3903 105.781 40.796H101.307C101.569 39.8175 101.999 38.863 102.595 37.9323C103.192 37.0015 103.92 36.1782 104.779 35.4623C105.638 34.7464 106.616 34.1736 107.714 33.7441C108.836 33.3145 110.041 33.0997 111.33 33.0997C112.809 33.0997 114.205 33.398 115.518 33.9946C116.854 34.5674 118.012 35.3788 118.99 36.4288C119.992 37.455 120.78 38.6721 121.353 40.0801C121.949 41.4642 122.248 42.9557 122.248 44.5546C122.248 46.1774 121.949 47.6809 121.353 49.065C120.78 50.4491 119.992 51.6662 118.99 52.7163C118.012 53.7424 116.854 54.5538 115.518 55.1504C114.205 55.7232 112.809 56.0095 111.33 56.0095C109.993 56.0095 108.752 55.7948 107.607 55.3652C106.485 54.9357 105.483 54.3748 104.6 53.6828C103.741 52.9668 103.013 52.1554 102.416 51.2486C101.82 50.3418 101.39 49.423 101.128 48.4923H105.602C105.769 48.8502 106.02 49.2321 106.354 49.6378C106.688 50.0196 107.094 50.3895 107.571 50.7474C108.072 51.0815 108.633 51.356 109.253 51.5708C109.874 51.7855 110.566 51.8929 111.33 51.8929C112.141 51.8929 112.881 51.7617 113.549 51.4992C114.241 51.2128 114.862 50.831 115.41 50.3537C115.959 49.8764 116.437 49.3156 116.842 48.6712C117.248 48.003 117.558 47.2871 117.773 46.5234H109.719V42.5858ZM134.589 39.1851C132.799 39.2806 131.391 39.8056 130.365 40.7602C129.363 41.6909 128.862 42.8364 128.862 44.1967C128.862 45.5569 129.363 46.7144 130.365 47.6689C131.391 48.5997 132.799 49.1127 134.589 49.2082V39.1851ZM138.885 35.2475C140.46 35.343 141.868 35.6413 143.109 36.1424C144.35 36.6197 145.4 37.2521 146.259 38.0397C147.118 38.8272 147.774 39.746 148.228 40.796C148.681 41.846 148.908 42.9796 148.908 44.1967C148.908 45.4138 148.681 46.5473 148.228 47.5973C147.774 48.6474 147.118 49.5662 146.259 50.3537C145.4 51.1412 144.35 51.7855 143.109 52.2867C141.868 52.764 140.46 53.0504 138.885 53.1458V56.0095H134.589V53.1458C133.014 53.0504 131.606 52.764 130.365 52.2867C129.124 51.7855 128.074 51.1412 127.215 50.3537C126.356 49.5662 125.7 48.6474 125.246 47.5973C124.793 46.5473 124.566 45.4138 124.566 44.1967C124.566 42.9796 124.793 41.846 125.246 40.796C125.7 39.746 126.356 38.8272 127.215 38.0397C128.074 37.2521 129.124 36.6197 130.365 36.1424C131.606 35.6413 133.014 35.343 134.589 35.2475V33.0997H138.885V35.2475ZM138.885 49.2082C140.675 49.1127 142.071 48.5997 143.073 47.6689C144.099 46.7144 144.612 45.5569 144.612 44.1967C144.612 42.8364 144.099 41.6909 143.073 40.7602C142.071 39.8056 140.675 39.2806 138.885 39.1851V49.2082ZM166.295 55.8306V40.975L156.272 55.8306H152.513V33.2787H156.809V48.1343L166.832 33.2787H170.59V55.8306H166.295ZM184.014 33.2787C185.088 33.2787 186.091 33.4815 187.021 33.8872C187.952 34.2691 188.763 34.806 189.456 35.4981C190.171 36.1663 190.72 36.9658 191.102 37.8965C191.508 38.8033 191.711 39.7698 191.711 40.796C191.711 41.8222 191.508 42.8006 191.102 43.7313C190.72 44.6382 190.171 45.4376 189.456 46.1297C188.763 46.7979 187.952 47.3348 187.021 47.7405C186.091 48.1224 185.088 48.3133 184.014 48.3133H179.898V55.8306H175.602V33.2787H184.014ZM184.014 44.1967C184.468 44.1967 184.897 44.1012 185.303 43.9103C185.709 43.7194 186.067 43.4688 186.377 43.1586C186.687 42.8483 186.938 42.4904 187.129 42.0847C187.32 41.679 187.415 41.2494 187.415 40.796C187.415 40.3426 187.32 39.913 187.129 39.5073C186.938 39.1016 186.687 38.7436 186.377 38.4334C186.067 38.1232 185.709 37.8726 185.303 37.6817C184.897 37.4908 184.468 37.3953 184.014 37.3953H179.898V44.1967H184.014Z" fill="white"/>
<defs>
<linearGradient id="paint0_linear" x1="1.47521e-06" y1="44" x2="264" y2="44" gradientUnits="userSpaceOnUse">
<stop stop-color="#F73F55"/>
<stop offset="1" stop-color="#E73E7B"/>
</linearGradient>
</defs>
</svg>
