<svg width="299" height="89" viewBox="0 0 299 89" fill="none" xmlns="http://www.w3.org/2000/svg">
<rect x="0.0410156" width="298" height="88.6667" rx="18.3333" fill="#3F8AE0"/>
<path d="M44.0971 41.9995C44.6271 42.2573 45.0997 42.6082 45.5151 43.0522C45.8732 43.439 46.2026 43.9259 46.5034 44.5132C46.8042 45.0861 46.9546 45.7879 46.9546 46.6187C46.9546 47.4351 46.8042 48.1942 46.5034 48.896C46.2169 49.5978 45.8159 50.1994 45.3003 50.7007C44.799 51.202 44.1759 51.603 43.4311 51.9038C42.7007 52.1903 41.8986 52.3335 41.0249 52.3335H31.1206V32.5249H40.3589C41.2326 32.5249 42.0346 32.6681 42.7651 32.9546C43.5099 33.2267 44.1329 33.6134 44.6342 34.1147C45.1499 34.616 45.5509 35.2033 45.8374 35.8765C46.1382 36.5496 46.2885 37.2658 46.2885 38.0249C46.2885 38.7554 46.174 39.3641 45.9448 39.8511C45.7156 40.3381 45.465 40.7463 45.1928 41.0757C44.8777 41.4338 44.5125 41.7417 44.0971 41.9995ZM35.0737 35.8335V40.6675H39.9077C40.5809 40.6675 41.1538 40.4383 41.6264 39.98C42.0991 39.5073 42.3354 38.9344 42.3354 38.2612C42.3354 37.5881 42.0991 37.0151 41.6264 36.5425C41.1681 36.0698 40.5952 35.8335 39.9077 35.8335H35.0737ZM40.5737 49.0249C41.2469 49.0249 41.8198 48.7814 42.2924 48.2944C42.7651 47.7931 43.0014 47.1629 43.0014 46.4038C43.0014 45.7306 42.7651 45.1577 42.2924 44.6851C41.8198 44.2124 41.2469 43.9761 40.5737 43.9761H35.0737V49.0249H40.5737ZM65.0931 42.4292C65.0931 41.4839 64.9355 40.6245 64.6204 39.8511C64.3197 39.0776 63.9186 38.4045 63.4173 37.8315C62.916 37.2586 62.3288 36.8218 61.6556 36.521C60.9824 36.2059 60.2949 36.0483 59.5931 36.0483C58.8913 36.0483 58.2038 36.2059 57.5306 36.521C56.8574 36.8218 56.2702 37.2586 55.7689 37.8315C55.2676 38.4045 54.8594 39.0848 54.5443 39.8726C54.2435 40.646 54.0931 41.4982 54.0931 42.4292C54.0931 43.3745 54.2435 44.2339 54.5443 45.0073C54.8594 45.7808 55.2676 46.4539 55.7689 47.0269C56.2702 47.5998 56.8574 48.0438 57.5306 48.3589C58.2038 48.6597 58.8913 48.8101 59.5931 48.8101C60.2949 48.8101 60.9824 48.6597 61.6556 48.3589C62.3288 48.0438 62.916 47.5998 63.4173 47.0269C63.9186 46.4539 64.3197 45.7808 64.6204 45.0073C64.9355 44.2339 65.0931 43.3745 65.0931 42.4292ZM69.0462 42.4292C69.0462 43.9188 68.8027 45.2866 68.3158 46.5327C67.8431 47.7645 67.1699 48.8315 66.2962 49.7339C65.4369 50.6219 64.4342 51.3166 63.2884 51.8179C62.1426 52.3049 60.9108 52.5483 59.5931 52.5483C58.2754 52.5483 57.0436 52.3049 55.8978 51.8179C54.752 51.3166 53.7422 50.6219 52.8685 49.7339C52.0091 48.8315 51.3359 47.7645 50.849 46.5327C50.3763 45.3009 50.14 43.9331 50.14 42.4292C50.14 40.9396 50.3763 39.5789 50.849 38.3472C51.3359 37.1154 52.0091 36.0555 52.8685 35.1675C53.7422 34.2651 54.752 33.5633 55.8978 33.062C57.0436 32.5607 58.2754 32.3101 59.5931 32.3101C60.9108 32.3101 62.1426 32.5607 63.2884 33.062C64.4342 33.5633 65.4369 34.2651 66.2962 35.1675C67.1699 36.0555 67.8431 37.1154 68.3158 38.3472C68.8027 39.5789 69.0462 40.9396 69.0462 42.4292ZM91.8039 48.5952V56.9526H88.0656V52.3335H74.423V56.9526H70.6848V48.5952H71.9953C72.4107 48.3088 72.7831 47.9865 73.1125 47.6284C73.399 47.299 73.6711 46.9123 73.9289 46.4683C74.201 46.0099 74.3658 45.4728 74.423 44.8569L75.7551 32.5249H89.1613V48.5952H91.8039ZM78.3762 44.8569C78.3189 45.4728 78.2043 46.0099 78.0324 46.4683C77.8605 46.9123 77.6815 47.299 77.4953 47.6284C77.2948 47.9865 77.08 48.3088 76.8508 48.5952H85.2082V36.2632H79.257L78.3762 44.8569ZM110.587 32.5249V52.3335H106.634V45.7378H102.681L98.4913 52.3335H94.087L98.7061 45.0718C97.947 44.7853 97.2882 44.3771 96.7296 43.8472C96.2283 43.3745 95.7699 42.7658 95.3546 42.021C94.9535 41.2762 94.753 40.3166 94.753 39.1421C94.753 38.1968 94.9177 37.3231 95.2471 36.521C95.5909 35.7046 96.0635 35.0099 96.6651 34.437C97.2667 33.8498 97.9828 33.3843 98.8135 33.0405C99.6586 32.6968 100.582 32.5249 101.585 32.5249H110.587ZM101.585 36.2632C100.826 36.2632 100.153 36.5496 99.5655 37.1226C98.9926 37.6955 98.7061 38.3687 98.7061 39.1421C98.7061 39.9012 98.9926 40.5672 99.5655 41.1401C100.138 41.7131 100.812 41.9995 101.585 41.9995H106.634V36.2632H101.585ZM133.345 32.5249V52.3335H129.392V44.1909H119.917V52.3335H115.964V32.5249H119.917V40.4526H129.392V32.5249H133.345ZM152.557 42.4292C152.557 41.4839 152.4 40.6245 152.085 39.8511C151.784 39.0776 151.383 38.4045 150.882 37.8315C150.38 37.2586 149.793 36.8218 149.12 36.521C148.447 36.2059 147.759 36.0483 147.057 36.0483C146.356 36.0483 145.668 36.2059 144.995 36.521C144.322 36.8218 143.735 37.2586 143.233 37.8315C142.732 38.4045 142.324 39.0848 142.009 39.8726C141.708 40.646 141.557 41.4982 141.557 42.4292C141.557 43.3745 141.708 44.2339 142.009 45.0073C142.324 45.7808 142.732 46.4539 143.233 47.0269C143.735 47.5998 144.322 48.0438 144.995 48.3589C145.668 48.6597 146.356 48.8101 147.057 48.8101C147.759 48.8101 148.447 48.6597 149.12 48.3589C149.793 48.0438 150.38 47.5998 150.882 47.0269C151.383 46.4539 151.784 45.7808 152.085 45.0073C152.4 44.2339 152.557 43.3745 152.557 42.4292ZM156.511 42.4292C156.511 43.9188 156.267 45.2866 155.78 46.5327C155.307 47.7645 154.634 48.8315 153.761 49.7339C152.901 50.6219 151.899 51.3166 150.753 51.8179C149.607 52.3049 148.375 52.5483 147.057 52.5483C145.74 52.5483 144.508 52.3049 143.362 51.8179C142.216 51.3166 141.207 50.6219 140.333 49.7339C139.473 48.8315 138.8 47.7645 138.313 46.5327C137.841 45.3009 137.604 43.9331 137.604 42.4292C137.604 40.9396 137.841 39.5789 138.313 38.3472C138.8 37.1154 139.473 36.0555 140.333 35.1675C141.207 34.2651 142.216 33.5633 143.362 33.062C144.508 32.5607 145.74 32.3101 147.057 32.3101C148.375 32.3101 149.607 32.5607 150.753 33.062C151.899 33.5633 152.901 34.2651 153.761 35.1675C154.634 36.0555 155.307 37.1154 155.78 38.3472C156.267 39.5789 156.511 40.9396 156.511 42.4292ZM178.173 32.5249V52.3335H174.219V38.4761L164.745 52.3335H160.792V32.5249H164.745V46.4038L174.219 32.5249H178.173ZM169.364 29.6675C167.803 29.6675 166.514 29.1877 165.497 28.228C164.494 27.2541 163.878 26.0509 163.649 24.6187H166.721C166.836 25.2918 167.137 25.8647 167.624 26.3374C168.111 26.7957 168.691 27.0249 169.364 27.0249C170.037 27.0249 170.617 26.7957 171.104 26.3374C171.591 25.8647 171.892 25.2918 172.007 24.6187H175.079C174.85 26.0509 174.227 27.2541 173.21 28.228C172.207 29.1877 170.925 29.6675 169.364 29.6675ZM204.03 42.2144C204.531 42.4722 204.968 42.8088 205.34 43.2241C205.67 43.5822 205.978 44.0262 206.264 44.5562C206.565 45.0718 206.715 45.6877 206.715 46.4038C206.715 48.1655 206.078 49.6336 204.803 50.8081C203.543 51.9683 201.76 52.5483 199.454 52.5483C197.019 52.5483 195.192 51.9754 193.975 50.8296C192.758 49.6838 192.084 48.0581 191.955 45.9526H195.93C196.045 46.8263 196.381 47.521 196.94 48.0366C197.498 48.5522 198.336 48.8101 199.454 48.8101C200.685 48.8101 201.573 48.5809 202.118 48.1226C202.676 47.6499 202.955 47.077 202.955 46.4038C202.955 45.7306 202.676 45.1577 202.118 44.6851C201.573 44.2124 200.685 43.9761 199.454 43.9761H197.692V40.4526H199.454C200.571 40.4526 201.358 40.2306 201.817 39.7866C202.289 39.3283 202.526 38.8198 202.526 38.2612C202.526 37.7026 202.289 37.1942 201.817 36.7358C201.344 36.2775 200.556 36.0483 199.454 36.0483C198.451 36.0483 197.677 36.2847 197.133 36.7573C196.589 37.23 196.26 37.8029 196.145 38.4761H192.192C192.306 36.5998 192.965 35.103 194.168 33.9858C195.371 32.8687 197.133 32.3101 199.454 32.3101C200.513 32.3101 201.459 32.4676 202.289 32.7827C203.12 33.0835 203.829 33.506 204.416 34.0503C205.004 34.5946 205.455 35.2248 205.77 35.9409C206.099 36.6571 206.264 37.4305 206.264 38.2612C206.264 38.9344 206.142 39.5216 205.899 40.0229C205.67 40.5099 205.412 40.9181 205.125 41.2476C204.81 41.6343 204.445 41.9565 204.03 42.2144ZM228.377 32.5249V52.3335H224.424V44.1909H214.949V52.3335H210.996V32.5249H214.949V40.4526H224.424V32.5249H228.377ZM241.424 32.3101C242.57 32.3101 243.615 32.4963 244.561 32.8687C245.52 33.2267 246.337 33.7209 247.01 34.3511C247.683 34.9813 248.206 35.7261 248.578 36.5854C248.951 37.4305 249.137 38.3543 249.137 39.3569V52.3335H246.279L245.399 50.3569C245.012 50.7723 244.554 51.1375 244.024 51.4526C243.551 51.7391 242.957 51.9969 242.24 52.2261C241.524 52.4409 240.665 52.5483 239.662 52.5483C237.457 52.5483 235.766 52.0041 234.592 50.9155C233.432 49.8127 232.852 48.3804 232.852 46.6187C232.852 45.616 233.038 44.7137 233.41 43.9116C233.797 43.0952 234.449 42.4077 235.365 41.8491C236.296 41.2762 237.55 40.8322 239.125 40.5171C240.715 40.1877 242.727 40.0229 245.162 40.0229V39.3569C245.162 38.3543 244.847 37.5522 244.217 36.9507C243.587 36.3491 242.656 36.0483 241.424 36.0483C240.106 36.0483 239.147 36.2847 238.545 36.7573C237.943 37.23 237.585 37.8029 237.471 38.4761H233.518C233.632 36.7144 234.37 35.2463 235.731 34.0718C237.091 32.8973 238.989 32.3101 241.424 32.3101ZM239.899 49.0249C241.574 49.0249 242.871 48.5952 243.787 47.7358C244.704 46.8765 245.162 45.8309 245.162 44.5991V43.5249C243.401 43.5249 241.975 43.6108 240.887 43.7827C239.813 43.9403 238.968 44.1623 238.352 44.4487C237.736 44.7209 237.32 45.0646 237.106 45.48C236.905 45.881 236.805 46.3322 236.805 46.8335C236.805 47.3921 237.07 47.9006 237.6 48.3589C238.13 48.8029 238.896 49.0249 239.899 49.0249ZM266.158 52.3335L258.445 42.8804V52.3335H254.492V32.5249H258.445V41.1187L265.277 32.5249H269.896L262.205 41.7632L270.992 52.3335H266.158Z" fill="white"/>
</svg>
