<svg width="711" height="225" viewBox="0 0 711 225" fill="none" xmlns="http://www.w3.org/2000/svg">
<path d="M38.3984 45.2031V60.3984H31.6016V52H6.79688V60.3984H0V45.2031H2.38281C3.13802 44.6823 3.8151 44.0964 4.41406 43.4453C4.9349 42.8464 5.42969 42.1432 5.89844 41.3359C6.39323 40.5026 6.69271 39.526 6.79688 38.4062L9.21875 15.9844H33.5938V45.2031H38.3984ZM13.9844 38.4062C13.8802 39.526 13.6719 40.5026 13.3594 41.3359C13.0469 42.1432 12.7214 42.8464 12.3828 43.4453C12.0182 44.0964 11.6276 44.6823 11.2109 45.2031H26.4062V22.7812H15.5859L13.9844 38.4062ZM76.3156 41.6094C75.7167 43.0938 74.9615 44.487 74.05 45.7891C73.1385 47.0911 72.0448 48.237 70.7687 49.2266C69.4927 50.2161 68.0083 50.9974 66.3156 51.5703C64.649 52.1172 62.774 52.3906 60.6906 52.3906C58.2948 52.3906 56.0552 51.9479 53.9719 51.0625C51.8885 50.151 50.0656 48.888 48.5031 47.2734C46.9406 45.6328 45.7167 43.6927 44.8312 41.4531C43.9458 39.2135 43.5031 36.7266 43.5031 33.9922C43.5031 31.2839 43.9458 28.8099 44.8312 26.5703C45.7167 24.3307 46.9146 22.4036 48.425 20.7891C49.9354 19.1484 51.7193 17.8724 53.7766 16.9609C55.8339 16.0495 58.0083 15.5938 60.3 15.5938C62.5917 15.5938 64.7661 16.0495 66.8234 16.9609C68.8807 17.8724 70.6646 19.1484 72.175 20.7891C73.6854 22.4036 74.8833 24.3307 75.7687 26.5703C76.6542 28.8099 77.0969 31.2839 77.0969 33.9922C77.0969 34.4089 77.0708 34.8255 77.0187 35.2422C76.9667 35.6328 76.9146 35.9714 76.8625 36.2578C76.8104 36.6224 76.7583 36.9349 76.7062 37.1953H51.0812C51.1854 38.3151 51.5109 39.3828 52.0578 40.3984C52.6047 41.4141 53.2818 42.3125 54.0891 43.0938C54.9224 43.849 55.912 44.4609 57.0578 44.9297C58.2036 45.3724 59.4146 45.5938 60.6906 45.5938C62.8781 45.5938 64.6099 45.125 65.8859 44.1875C67.188 43.25 68.1255 42.3906 68.6984 41.6094H76.3156ZM60.3 22.3906C57.9042 22.3906 55.8729 23.2109 54.2062 24.8516C52.5656 26.4661 51.524 28.5885 51.0812 31.2188H70.3C69.8833 28.6146 68.8156 26.4922 67.0969 24.8516C65.4042 23.2109 63.1385 22.3906 60.3 22.3906ZM114.233 15.9844V52H107.006V22.7812H95.0141L93.8031 40.0078C93.5427 44.0182 92.3969 47.0911 90.3656 49.2266C88.3604 51.3359 85.6391 52.3906 82.2016 52.3906C81.8891 52.3906 81.6026 52.3776 81.3422 52.3516C81.0818 52.3255 80.8083 52.2865 80.5219 52.2344C80.2615 52.1823 80.0271 52.1042 79.8187 52V45.9844H80.6C84.2719 45.9844 86.2771 43.9922 86.6156 40.0078L88.6078 15.9844H114.233ZM138.127 15.5938C140.21 15.5938 142.111 15.9323 143.83 16.6094C145.574 17.2604 147.059 18.1589 148.283 19.3047C149.507 20.4505 150.457 21.8047 151.134 23.3672C151.811 24.9036 152.15 26.5833 152.15 28.4062V52H146.955L145.353 48.4062C144.65 49.1615 143.817 49.8255 142.853 50.3984C141.994 50.9193 140.913 51.388 139.611 51.8047C138.309 52.1953 136.746 52.3906 134.923 52.3906C130.913 52.3906 127.84 51.401 125.705 49.4219C123.595 47.4167 122.541 44.8125 122.541 41.6094C122.541 39.7865 122.879 38.1458 123.556 36.6875C124.259 35.2031 125.444 33.9531 127.111 32.9375C128.804 31.8958 131.082 31.0885 133.947 30.5156C136.838 29.9167 140.496 29.6172 144.923 29.6172V28.4062C144.923 26.5833 144.351 25.125 143.205 24.0312C142.059 22.9375 140.366 22.3906 138.127 22.3906C135.731 22.3906 133.986 22.8203 132.892 23.6797C131.798 24.5391 131.147 25.5807 130.939 26.8047H123.752C123.96 23.6016 125.301 20.9323 127.775 18.7969C130.249 16.6615 133.699 15.5938 138.127 15.5938ZM135.353 45.9844C138.4 45.9844 140.757 45.2031 142.423 43.6406C144.09 42.0781 144.923 40.1771 144.923 37.9375V35.9844C141.72 35.9844 139.129 36.1406 137.15 36.4531C135.197 36.7396 133.66 37.1432 132.541 37.6641C131.421 38.1589 130.666 38.7839 130.275 39.5391C129.91 40.2682 129.728 41.0885 129.728 42C129.728 43.0156 130.21 43.9401 131.173 44.7734C132.137 45.5807 133.53 45.9844 135.353 45.9844ZM193.231 15.9844V52H186.044V26.8047L168.817 52H161.63V15.9844H168.817V41.2188L186.044 15.9844H193.231ZM177.216 10.7891C174.377 10.7891 172.033 9.91667 170.184 8.17188C168.361 6.40104 167.242 4.21354 166.825 1.60938H172.411C172.619 2.83333 173.166 3.875 174.052 4.73438C174.937 5.56771 175.992 5.98438 177.216 5.98438C178.44 5.98438 179.494 5.56771 180.38 4.73438C181.265 3.875 181.812 2.83333 182.02 1.60938H187.606C187.19 4.21354 186.057 6.40104 184.208 8.17188C182.385 9.91667 180.054 10.7891 177.216 10.7891ZM240.511 33.6016C241.422 34.0703 242.217 34.6823 242.894 35.4375C243.493 36.0885 244.053 36.8958 244.573 37.8594C245.12 38.7969 245.394 39.9167 245.394 41.2188C245.394 44.4219 244.235 47.0911 241.917 49.2266C239.626 51.3359 236.383 52.3906 232.191 52.3906C227.764 52.3906 224.443 51.349 222.23 49.2656C220.016 47.1823 218.792 44.2266 218.558 40.3984H225.784C225.993 41.987 226.605 43.25 227.62 44.1875C228.636 45.125 230.159 45.5938 232.191 45.5938C234.43 45.5938 236.045 45.1771 237.034 44.3438C238.05 43.4844 238.558 42.4427 238.558 41.2188C238.558 39.9948 238.05 38.9531 237.034 38.0938C236.045 37.2344 234.43 36.8047 232.191 36.8047H228.988V30.3984H232.191C234.222 30.3984 235.654 29.9948 236.488 29.1875C237.347 28.3542 237.777 27.4297 237.777 26.4141C237.777 25.3984 237.347 24.474 236.488 23.6406C235.628 22.8073 234.196 22.3906 232.191 22.3906C230.368 22.3906 228.961 22.8203 227.972 23.6797C226.982 24.5391 226.383 25.5807 226.175 26.8047H218.988C219.196 23.3932 220.394 20.6719 222.581 18.6406C224.769 16.6094 227.972 15.5938 232.191 15.5938C234.118 15.5938 235.836 15.8802 237.347 16.4531C238.857 17 240.146 17.7682 241.214 18.7578C242.282 19.7474 243.102 20.8932 243.675 22.1953C244.274 23.4974 244.573 24.9036 244.573 26.4141C244.573 27.638 244.352 28.7057 243.909 29.6172C243.493 30.5026 243.024 31.2448 242.503 31.8438C241.93 32.5469 241.266 33.1328 240.511 33.6016ZM267.295 15.5938C269.379 15.5938 271.28 15.9323 272.998 16.6094C274.743 17.2604 276.228 18.1589 277.452 19.3047C278.676 20.4505 279.626 21.8047 280.303 23.3672C280.98 24.9036 281.319 26.5833 281.319 28.4062V52H276.123L274.522 48.4062C273.819 49.1615 272.985 49.8255 272.022 50.3984C271.163 50.9193 270.082 51.388 268.78 51.8047C267.478 52.1953 265.915 52.3906 264.092 52.3906C260.082 52.3906 257.009 51.401 254.873 49.4219C252.764 47.4167 251.709 44.8125 251.709 41.6094C251.709 39.7865 252.048 38.1458 252.725 36.6875C253.428 35.2031 254.613 33.9531 256.28 32.9375C257.972 31.8958 260.251 31.0885 263.116 30.5156C266.006 29.9167 269.665 29.6172 274.092 29.6172V28.4062C274.092 26.5833 273.519 25.125 272.373 24.0312C271.228 22.9375 269.535 22.3906 267.295 22.3906C264.899 22.3906 263.155 22.8203 262.061 23.6797C260.967 24.5391 260.316 25.5807 260.108 26.8047H252.92C253.129 23.6016 254.47 20.9323 256.944 18.7969C259.418 16.6615 262.868 15.5938 267.295 15.5938ZM264.522 45.9844C267.569 45.9844 269.926 45.2031 271.592 43.6406C273.259 42.0781 274.092 40.1771 274.092 37.9375V35.9844C270.889 35.9844 268.298 36.1406 266.319 36.4531C264.366 36.7396 262.829 37.1432 261.709 37.6641C260.59 38.1589 259.834 38.7839 259.444 39.5391C259.079 40.2682 258.897 41.0885 258.897 42C258.897 43.0156 259.379 43.9401 260.342 44.7734C261.306 45.5807 262.699 45.9844 264.522 45.9844ZM307.595 52L297.986 32V52H290.798V15.9844H297.205L309.978 42.3906L322.791 15.9844H329.197V52H322.009V32L312.4 52H307.595ZM370.278 41.6094C369.679 43.0938 368.924 44.487 368.013 45.7891C367.101 47.0911 366.007 48.237 364.731 49.2266C363.455 50.2161 361.971 50.9974 360.278 51.5703C358.611 52.1172 356.736 52.3906 354.653 52.3906C352.257 52.3906 350.018 51.9479 347.934 51.0625C345.851 50.151 344.028 48.888 342.466 47.2734C340.903 45.6328 339.679 43.6927 338.794 41.4531C337.908 39.2135 337.466 36.7266 337.466 33.9922C337.466 31.2839 337.908 28.8099 338.794 26.5703C339.679 24.3307 340.877 22.4036 342.388 20.7891C343.898 19.1484 345.682 17.8724 347.739 16.9609C349.796 16.0495 351.971 15.5938 354.263 15.5938C356.554 15.5938 358.729 16.0495 360.786 16.9609C362.843 17.8724 364.627 19.1484 366.138 20.7891C367.648 22.4036 368.846 24.3307 369.731 26.5703C370.617 28.8099 371.059 31.2839 371.059 33.9922C371.059 34.4089 371.033 34.8255 370.981 35.2422C370.929 35.6328 370.877 35.9714 370.825 36.2578C370.773 36.6224 370.721 36.9349 370.669 37.1953H345.044C345.148 38.3151 345.473 39.3828 346.02 40.3984C346.567 41.4141 347.244 42.3125 348.052 43.0938C348.885 43.849 349.874 44.4609 351.02 44.9297C352.166 45.3724 353.377 45.5938 354.653 45.5938C356.841 45.5938 358.572 45.125 359.848 44.1875C361.151 43.25 362.088 42.3906 362.661 41.6094H370.278ZM354.263 22.3906C351.867 22.3906 349.835 23.2109 348.169 24.8516C346.528 26.4661 345.486 28.5885 345.044 31.2188H364.263C363.846 28.6146 362.778 26.4922 361.059 24.8516C359.367 23.2109 357.101 22.3906 354.263 22.3906ZM374.992 15.9844H404.562V22.7812H393.391V52H386.164V22.7812H374.992V15.9844ZM432.519 52L418.495 34.8125V52H411.308V15.9844H418.495V31.6094L430.917 15.9844H439.316L425.331 32.7812L441.308 52H432.519ZM477.194 15.9844V52H470.006V26.8047L452.78 52H445.592V15.9844H452.78V41.2188L470.006 15.9844H477.194ZM489.056 43.6016C490.28 43.6016 491.322 44.0573 492.181 44.9688C493.041 45.8802 493.47 47.026 493.47 48.4062C493.47 50.4375 493.132 52.1562 492.455 53.5625C491.804 54.9688 491.074 56.1276 490.267 57.0391C489.304 58.1068 488.236 58.9661 487.064 59.6172L485.853 58.0156C486.374 57.651 486.882 57.1693 487.377 56.5703C487.793 56.1016 488.184 55.5156 488.548 54.8125C488.939 54.1094 489.239 53.3021 489.447 52.3906C488.067 52.3906 486.921 51.974 486.009 51.1406C485.098 50.2812 484.642 49.2396 484.642 48.0156C484.642 46.7917 485.072 45.75 485.931 44.8906C486.791 44.0312 487.832 43.6016 489.056 43.6016ZM548.016 15.9844V52H540.828V39.1875C539.917 39.6562 538.953 40.0599 537.938 40.3984C537.026 40.7109 535.958 40.9974 534.734 41.2578C533.51 41.4922 532.208 41.6094 530.828 41.6094C528.901 41.6094 527.156 41.3099 525.594 40.7109C524.031 40.0859 522.69 39.1875 521.57 38.0156C520.451 36.8438 519.578 35.4635 518.953 33.875C518.328 32.2604 518.016 30.4375 518.016 28.4062V15.9844H525.242V28.4062C525.242 30.4375 525.88 32.0781 527.156 33.3281C528.432 34.5781 530.19 35.2031 532.43 35.2031C533.654 35.2031 534.773 35.0859 535.789 34.8516C536.805 34.5911 537.69 34.3047 538.445 33.9922C539.357 33.6797 540.151 33.276 540.828 32.7812V15.9844H548.016ZM554.37 15.9844H583.941V22.7812H572.769V52H565.542V22.7812H554.37V15.9844ZM614.709 33.9922C614.709 32.2734 614.423 30.7109 613.85 29.3047C613.303 27.8984 612.574 26.6745 611.662 25.6328C610.751 24.5911 609.683 23.7969 608.459 23.25C607.235 22.6771 605.985 22.3906 604.709 22.3906C603.433 22.3906 602.183 22.6771 600.959 23.25C599.735 23.7969 598.668 24.5911 597.756 25.6328C596.845 26.6745 596.103 27.9115 595.53 29.3438C594.983 30.75 594.709 32.2995 594.709 33.9922C594.709 35.7109 594.983 37.2734 595.53 38.6797C596.103 40.0859 596.845 41.3099 597.756 42.3516C598.668 43.3932 599.735 44.2005 600.959 44.7734C602.183 45.3203 603.433 45.5938 604.709 45.5938C605.985 45.5938 607.235 45.3203 608.459 44.7734C609.683 44.2005 610.751 43.3932 611.662 42.3516C612.574 41.3099 613.303 40.0859 613.85 38.6797C614.423 37.2734 614.709 35.7109 614.709 33.9922ZM621.897 33.9922C621.897 36.7005 621.454 39.1875 620.569 41.4531C619.709 43.6927 618.485 45.6328 616.897 47.2734C615.334 48.888 613.511 50.151 611.428 51.0625C609.345 51.9479 607.105 52.3906 604.709 52.3906C602.314 52.3906 600.074 51.9479 597.991 51.0625C595.907 50.151 594.071 48.888 592.483 47.2734C590.92 45.6328 589.696 43.6927 588.811 41.4531C587.952 39.2135 587.522 36.7266 587.522 33.9922C587.522 31.2839 587.952 28.8099 588.811 26.5703C589.696 24.3307 590.92 22.4036 592.483 20.7891C594.071 19.1484 595.907 17.8724 597.991 16.9609C600.074 16.0495 602.314 15.5938 604.709 15.5938C607.105 15.5938 609.345 16.0495 611.428 16.9609C613.511 17.8724 615.334 19.1484 616.897 20.7891C618.485 22.4036 619.709 24.3307 620.569 26.5703C621.454 28.8099 621.897 31.2839 621.897 33.9922ZM646.611 17.1953C648.798 17.1953 650.895 17.651 652.9 18.5625C654.905 19.474 656.65 20.724 658.134 22.3125C659.619 23.875 660.804 25.724 661.689 27.8594C662.575 29.9688 663.017 32.2865 663.017 34.8125C663.017 37.3125 662.575 39.6302 661.689 41.7656C660.804 43.901 659.567 45.763 657.978 47.3516C656.416 48.9141 654.593 50.151 652.509 51.0625C650.452 51.9479 648.213 52.3906 645.791 52.3906C643.291 52.3906 640.973 51.9349 638.838 51.0234C636.702 50.0859 634.853 48.6667 633.291 46.7656C631.728 44.8646 630.491 42.5208 629.58 39.7344C628.668 36.9219 628.213 33.6797 628.213 30.0078C628.213 24.8255 628.733 20.4245 629.775 16.8047C630.817 13.1849 632.522 10.2292 634.892 7.9375C637.262 5.61979 640.374 3.90104 644.228 2.78125C648.108 1.66146 652.9 0.997396 658.603 0.789062V8.01562C654.28 8.11979 650.713 8.48438 647.9 9.10938C645.114 9.70833 642.874 10.6068 641.181 11.8047C639.515 13.0026 638.278 14.513 637.47 16.3359C636.689 18.1328 636.129 20.2812 635.791 22.7812C636.494 21.7656 637.353 20.8411 638.369 20.0078C639.28 19.3047 640.4 18.6667 641.728 18.0938C643.056 17.4948 644.684 17.1953 646.611 17.1953ZM645.791 45.5938C647.067 45.5938 648.317 45.3203 649.541 44.7734C650.791 44.2005 651.858 43.4193 652.744 42.4297C653.655 41.4401 654.384 40.2943 654.931 38.9922C655.504 37.6901 655.791 36.2969 655.791 34.8125C655.791 33.3281 655.504 31.9349 654.931 30.6328C654.384 29.3047 653.655 28.1458 652.744 27.1562C651.858 26.1667 650.804 25.3984 649.58 24.8516C648.356 24.2786 647.093 23.9922 645.791 23.9922C644.515 23.9922 643.265 24.2786 642.041 24.8516C640.817 25.3984 639.749 26.1667 638.838 27.1562C637.926 28.1458 637.184 29.2917 636.611 30.5938C636.064 31.8958 635.791 33.3021 635.791 34.8125C635.791 36.2969 636.064 37.6901 636.611 38.9922C637.184 40.2943 637.926 41.4401 638.838 42.4297C639.749 43.4193 640.817 44.2005 642.041 44.7734C643.265 45.3203 644.515 45.5938 645.791 45.5938ZM710.505 15.9844V52H703.278V15.9844H710.505ZM686.091 28.0156C687.914 28.0156 689.58 28.3281 691.091 28.9531C692.601 29.5521 693.903 30.3854 694.997 31.4531C696.091 32.5208 696.937 33.7839 697.536 35.2422C698.161 36.7005 698.473 38.2891 698.473 40.0078C698.473 41.7266 698.161 43.3151 697.536 44.7734C696.937 46.2318 696.091 47.4948 694.997 48.5625C693.903 49.6302 692.601 50.4766 691.091 51.1016C689.58 51.7005 687.914 52 686.091 52H670.895V15.9844H678.083V28.0156H686.091ZM686.091 45.2031C687.471 45.2031 688.682 44.6823 689.723 43.6406C690.765 42.599 691.286 41.388 691.286 40.0078C691.286 38.6276 690.765 37.4167 689.723 36.375C688.682 35.3333 687.471 34.8125 686.091 34.8125H678.083V45.2031H686.091ZM381.828 95.9844V132H374.641V117.195H357.414V132H350.227V95.9844H357.414V110.398H374.641V95.9844H381.828ZM423.3 95.9844V132H416.112V106.805L398.886 132H391.698V95.9844H398.886V121.219L416.112 95.9844H423.3ZM462.35 95.9844V132H455.163V119.188C454.251 119.656 453.288 120.06 452.272 120.398C451.36 120.711 450.293 120.997 449.069 121.258C447.845 121.492 446.543 121.609 445.163 121.609C443.235 121.609 441.491 121.31 439.928 120.711C438.366 120.086 437.024 119.188 435.905 118.016C434.785 116.844 433.913 115.464 433.288 113.875C432.663 112.26 432.35 110.438 432.35 108.406V95.9844H439.577V108.406C439.577 110.438 440.215 112.078 441.491 113.328C442.767 114.578 444.524 115.203 446.764 115.203C447.988 115.203 449.108 115.086 450.123 114.852C451.139 114.591 452.024 114.305 452.78 113.992C453.691 113.68 454.485 113.276 455.163 112.781V95.9844H462.35ZM503.509 121.609C502.91 123.094 502.155 124.487 501.244 125.789C500.332 127.091 499.239 128.237 497.962 129.227C496.686 130.216 495.202 130.997 493.509 131.57C491.843 132.117 489.968 132.391 487.884 132.391C485.489 132.391 483.249 131.948 481.166 131.062C479.082 130.151 477.259 128.888 475.697 127.273C474.134 125.633 472.91 123.693 472.025 121.453C471.14 119.214 470.697 116.727 470.697 113.992C470.697 111.284 471.14 108.81 472.025 106.57C472.91 104.331 474.108 102.404 475.619 100.789C477.129 99.1484 478.913 97.8724 480.97 96.9609C483.028 96.0495 485.202 95.5938 487.494 95.5938C489.785 95.5938 491.96 96.0495 494.017 96.9609C496.074 97.8724 497.858 99.1484 499.369 100.789C500.879 102.404 502.077 104.331 502.962 106.57C503.848 108.81 504.291 111.284 504.291 113.992C504.291 114.409 504.265 114.826 504.212 115.242C504.16 115.633 504.108 115.971 504.056 116.258C504.004 116.622 503.952 116.935 503.9 117.195H478.275C478.379 118.315 478.705 119.383 479.252 120.398C479.798 121.414 480.476 122.312 481.283 123.094C482.116 123.849 483.106 124.461 484.252 124.93C485.397 125.372 486.608 125.594 487.884 125.594C490.072 125.594 491.804 125.125 493.08 124.188C494.382 123.25 495.319 122.391 495.892 121.609H503.509ZM487.494 102.391C485.098 102.391 483.067 103.211 481.4 104.852C479.759 106.466 478.718 108.589 478.275 111.219H497.494C497.077 108.615 496.009 106.492 494.291 104.852C492.598 103.211 490.332 102.391 487.494 102.391ZM536.622 102.781H519.395V132H512.208V95.9844H536.622V102.781ZM566.922 113.992C566.922 112.273 566.635 110.711 566.062 109.305C565.516 107.898 564.786 106.674 563.875 105.633C562.964 104.591 561.896 103.797 560.672 103.25C559.448 102.677 558.198 102.391 556.922 102.391C555.646 102.391 554.396 102.677 553.172 103.25C551.948 103.797 550.88 104.591 549.969 105.633C549.057 106.674 548.315 107.911 547.742 109.344C547.195 110.75 546.922 112.299 546.922 113.992C546.922 115.711 547.195 117.273 547.742 118.68C548.315 120.086 549.057 121.31 549.969 122.352C550.88 123.393 551.948 124.201 553.172 124.773C554.396 125.32 555.646 125.594 556.922 125.594C558.198 125.594 559.448 125.32 560.672 124.773C561.896 124.201 562.964 123.393 563.875 122.352C564.786 121.31 565.516 120.086 566.062 118.68C566.635 117.273 566.922 115.711 566.922 113.992ZM574.109 113.992C574.109 116.701 573.667 119.188 572.781 121.453C571.922 123.693 570.698 125.633 569.109 127.273C567.547 128.888 565.724 130.151 563.641 131.062C561.557 131.948 559.318 132.391 556.922 132.391C554.526 132.391 552.286 131.948 550.203 131.062C548.12 130.151 546.284 128.888 544.695 127.273C543.133 125.633 541.909 123.693 541.023 121.453C540.164 119.214 539.734 116.727 539.734 113.992C539.734 111.284 540.164 108.81 541.023 106.57C541.909 104.331 543.133 102.404 544.695 100.789C546.284 99.1484 548.12 97.8724 550.203 96.9609C552.286 96.0495 554.526 95.5938 556.922 95.5938C559.318 95.5938 561.557 96.0495 563.641 96.9609C565.724 97.8724 567.547 99.1484 569.109 100.789C570.698 102.404 571.922 104.331 572.781 106.57C573.667 108.81 574.109 111.284 574.109 113.992ZM623.498 113.211C624.462 113.68 625.321 114.318 626.077 115.125C626.728 115.828 627.327 116.714 627.873 117.781C628.42 118.823 628.694 120.099 628.694 121.609C628.694 123.094 628.42 124.474 627.873 125.75C627.353 127.026 626.623 128.12 625.686 129.031C624.774 129.943 623.642 130.672 622.287 131.219C620.959 131.74 619.501 132 617.912 132H599.905V95.9844H616.702C618.29 95.9844 619.748 96.2448 621.077 96.7656C622.431 97.2604 623.564 97.9635 624.475 98.875C625.412 99.7865 626.142 100.854 626.662 102.078C627.209 103.302 627.483 104.604 627.483 105.984C627.483 107.312 627.274 108.419 626.858 109.305C626.441 110.19 625.985 110.932 625.491 111.531C624.918 112.182 624.254 112.742 623.498 113.211ZM607.092 102V110.789H615.881C617.105 110.789 618.147 110.372 619.006 109.539C619.866 108.68 620.295 107.638 620.295 106.414C620.295 105.19 619.866 104.148 619.006 103.289C618.173 102.43 617.131 102 615.881 102H607.092ZM617.092 125.984C618.316 125.984 619.358 125.542 620.217 124.656C621.077 123.745 621.506 122.599 621.506 121.219C621.506 119.995 621.077 118.953 620.217 118.094C619.358 117.234 618.316 116.805 617.092 116.805H607.092V125.984H617.092ZM18.0078 175.594C20.4036 175.594 22.6432 176.049 24.7266 176.961C26.8099 177.872 28.6328 179.148 30.1953 180.789C31.7839 182.404 33.0078 184.331 33.8672 186.57C34.7526 188.81 35.1953 191.284 35.1953 193.992C35.1953 196.701 34.7526 199.188 33.8672 201.453C33.0078 203.693 31.7839 205.633 30.1953 207.273C28.6328 208.888 26.8099 210.151 24.7266 211.062C22.6432 211.948 20.4036 212.391 18.0078 212.391C15.9245 212.391 13.9844 212.052 12.1875 211.375C10.4167 210.672 8.84115 209.734 7.46094 208.562C6.10677 207.391 5 206.036 4.14062 204.5C3.30729 202.938 2.72135 201.31 2.38281 199.617H10C10.4167 201.206 11.2891 202.599 12.6172 203.797C13.9714 204.995 15.7682 205.594 18.0078 205.594C19.1797 205.594 20.3125 205.372 21.4062 204.93C22.5 204.461 23.4635 203.849 24.2969 203.094C25.1562 202.312 25.8594 201.414 26.4062 200.398C26.9792 199.383 27.3828 198.315 27.6172 197.195H15.5859V191.219H27.6172C27.4089 190.047 27.0182 188.927 26.4453 187.859C25.8724 186.792 25.1562 185.854 24.2969 185.047C23.4635 184.24 22.5 183.602 21.4062 183.133C20.3125 182.638 19.1797 182.391 18.0078 182.391C15.7682 182.391 13.9714 182.99 12.6172 184.188C11.2891 185.385 10.4167 186.792 10 188.406H2.38281C2.69531 186.688 3.28125 185.06 4.14062 183.523C5 181.987 6.10677 180.633 7.46094 179.461C8.84115 178.263 10.4167 177.326 12.1875 176.648C13.9844 175.945 15.9245 175.594 18.0078 175.594ZM64.675 161.609H71.8625V178.016C72.5135 177.599 73.2297 177.195 74.0109 176.805C74.7141 176.544 75.5214 176.284 76.4328 176.023C77.3443 175.737 78.3599 175.594 79.4797 175.594C81.563 175.594 83.5682 176.049 85.4953 176.961C87.4484 177.872 89.1542 179.148 90.6125 180.789C92.0969 182.404 93.2687 184.331 94.1281 186.57C95.0135 188.81 95.4562 191.284 95.4562 193.992C95.4562 196.701 95.0135 199.188 94.1281 201.453C93.2687 203.693 92.0969 205.633 90.6125 207.273C89.1542 208.888 87.4484 210.151 85.4953 211.062C83.5682 211.948 81.563 212.391 79.4797 212.391C78.3599 212.391 77.3443 212.273 76.4328 212.039C75.5214 211.805 74.7141 211.531 74.0109 211.219C73.2036 210.906 72.4875 210.503 71.8625 210.008V224.812H64.675V210.008C64.024 210.477 63.3078 210.88 62.5266 211.219C61.8234 211.531 61.0031 211.805 60.0656 212.039C59.1281 212.273 58.1255 212.391 57.0578 212.391C54.9745 212.391 52.9562 211.948 51.0031 211.062C49.076 210.151 47.3703 208.888 45.8859 207.273C44.4276 205.633 43.2557 203.693 42.3703 201.453C41.5109 199.214 41.0812 196.727 41.0812 193.992C41.0812 191.284 41.5109 188.81 42.3703 186.57C43.2557 184.331 44.4276 182.404 45.8859 180.789C47.3703 179.148 49.076 177.872 51.0031 176.961C52.9562 176.049 54.9745 175.594 57.0578 175.594C58.1255 175.594 59.1281 175.737 60.0656 176.023C61.0031 176.284 61.8234 176.544 62.5266 176.805C63.3339 177.169 64.05 177.573 64.675 178.016V161.609ZM64.675 185.594C64.076 184.995 63.438 184.461 62.7609 183.992C62.162 183.576 61.4458 183.211 60.6125 182.898C59.8052 182.56 58.8937 182.391 57.8781 182.391C56.6021 182.391 55.3651 182.664 54.1672 183.211C52.9953 183.732 51.9667 184.5 51.0812 185.516C50.2219 186.531 49.5318 187.755 49.0109 189.188C48.5161 190.594 48.2687 192.195 48.2687 193.992C48.2687 195.815 48.5161 197.443 49.0109 198.875C49.5318 200.307 50.2219 201.518 51.0812 202.508C51.9667 203.497 52.9953 204.266 54.1672 204.812C55.3651 205.333 56.6021 205.594 57.8781 205.594C58.8937 205.594 59.8052 205.438 60.6125 205.125C61.4458 204.812 62.162 204.435 62.7609 203.992C63.4641 203.523 64.1021 202.99 64.675 202.391V185.594ZM71.8625 202.391C72.4615 202.99 73.0995 203.523 73.7766 203.992C74.3755 204.409 75.0786 204.786 75.8859 205.125C76.7193 205.438 77.6437 205.594 78.6594 205.594C79.9354 205.594 81.1594 205.333 82.3312 204.812C83.5292 204.266 84.5578 203.497 85.4172 202.508C86.3026 201.518 86.9927 200.307 87.4875 198.875C88.0083 197.443 88.2687 195.815 88.2687 193.992C88.2687 192.169 88.0083 190.555 87.4875 189.148C86.9927 187.742 86.3026 186.531 85.4172 185.516C84.5578 184.5 83.5292 183.732 82.3312 183.211C81.1594 182.664 79.9354 182.391 78.6594 182.391C77.6437 182.391 76.7193 182.56 75.8859 182.898C75.0786 183.211 74.3755 183.576 73.7766 183.992C73.0734 184.461 72.4354 184.995 71.8625 185.594V202.391ZM134.975 175.984V212H127.787V186.805L110.561 212H103.373V175.984H110.561V201.219L127.787 175.984H134.975ZM162.033 175.594C164.429 175.594 166.668 176.049 168.752 176.961C170.835 177.872 172.658 179.148 174.22 180.789C175.809 182.404 177.046 184.331 177.931 186.57C178.817 188.81 179.259 191.284 179.259 193.992C179.259 196.701 178.817 199.188 177.931 201.453C177.046 203.693 175.809 205.633 174.22 207.273C172.658 208.888 170.835 210.151 168.752 211.062C166.668 211.948 164.429 212.391 162.033 212.391C160.314 212.391 158.843 212.195 157.619 211.805C156.395 211.414 155.366 210.945 154.533 210.398C153.569 209.799 152.736 209.135 152.033 208.406V224.812H144.845V175.984H150.041L151.642 179.617C152.345 178.862 153.166 178.185 154.103 177.586C154.962 177.117 156.043 176.674 157.345 176.258C158.647 175.815 160.21 175.594 162.033 175.594ZM161.642 205.594C163.022 205.594 164.337 205.32 165.587 204.773C166.837 204.201 167.944 203.393 168.908 202.352C169.871 201.31 170.627 200.086 171.173 198.68C171.746 197.273 172.033 195.711 172.033 193.992C172.033 192.273 171.746 190.711 171.173 189.305C170.627 187.898 169.871 186.674 168.908 185.633C167.944 184.591 166.837 183.797 165.587 183.25C164.337 182.677 163.022 182.391 161.642 182.391C160.262 182.391 158.934 182.677 157.658 183.25C156.408 183.797 155.301 184.591 154.337 185.633C153.4 186.674 152.645 187.911 152.072 189.344C151.525 190.75 151.252 192.299 151.252 193.992C151.252 195.711 151.525 197.273 152.072 198.68C152.645 200.086 153.4 201.31 154.337 202.352C155.301 203.393 156.408 204.201 157.658 204.773C158.934 205.32 160.262 205.594 161.642 205.594ZM218.387 201.609C217.789 203.094 217.033 204.487 216.122 205.789C215.21 207.091 214.117 208.237 212.841 209.227C211.565 210.216 210.08 210.997 208.387 211.57C206.721 212.117 204.846 212.391 202.762 212.391C200.367 212.391 198.127 211.948 196.044 211.062C193.96 210.151 192.137 208.888 190.575 207.273C189.012 205.633 187.789 203.693 186.903 201.453C186.018 199.214 185.575 196.727 185.575 193.992C185.575 191.284 186.018 188.81 186.903 186.57C187.789 184.331 188.986 182.404 190.497 180.789C192.007 179.148 193.791 177.872 195.848 176.961C197.906 176.049 200.08 175.594 202.372 175.594C204.664 175.594 206.838 176.049 208.895 176.961C210.953 177.872 212.736 179.148 214.247 180.789C215.757 182.404 216.955 184.331 217.841 186.57C218.726 188.81 219.169 191.284 219.169 193.992C219.169 194.409 219.143 194.826 219.091 195.242C219.039 195.633 218.986 195.971 218.934 196.258C218.882 196.622 218.83 196.935 218.778 197.195H193.153C193.257 198.315 193.583 199.383 194.13 200.398C194.677 201.414 195.354 202.312 196.161 203.094C196.994 203.849 197.984 204.461 199.13 204.93C200.276 205.372 201.486 205.594 202.762 205.594C204.95 205.594 206.682 205.125 207.958 204.188C209.26 203.25 210.197 202.391 210.77 201.609H218.387ZM202.372 182.391C199.976 182.391 197.945 183.211 196.278 184.852C194.637 186.466 193.596 188.589 193.153 191.219H212.372C211.955 188.615 210.887 186.492 209.169 184.852C207.476 183.211 205.21 182.391 202.372 182.391Z" fill="black"/>
<path d="M36.4062 95.9844V132H29.2188V117.195H11.9922V132H4.80469V95.9844H11.9922V110.398H29.2188V95.9844H36.4062ZM77.4875 121.609C76.8885 123.094 76.1333 124.487 75.2219 125.789C74.3104 127.091 73.2167 128.237 71.9406 129.227C70.6646 130.216 69.1802 130.997 67.4875 131.57C65.8208 132.117 63.9458 132.391 61.8625 132.391C59.4667 132.391 57.2271 131.948 55.1437 131.062C53.0604 130.151 51.2375 128.888 49.675 127.273C48.1125 125.633 46.8885 123.693 46.0031 121.453C45.1177 119.214 44.675 116.727 44.675 113.992C44.675 111.284 45.1177 108.81 46.0031 106.57C46.8885 104.331 48.0865 102.404 49.5969 100.789C51.1073 99.1484 52.8911 97.8724 54.9484 96.9609C57.0057 96.0495 59.1802 95.5938 61.4719 95.5938C63.7635 95.5938 65.938 96.0495 67.9953 96.9609C70.0526 97.8724 71.8365 99.1484 73.3469 100.789C74.8573 102.404 76.0552 104.331 76.9406 106.57C77.826 108.81 78.2687 111.284 78.2687 113.992C78.2687 114.409 78.2427 114.826 78.1906 115.242C78.1385 115.633 78.0865 115.971 78.0344 116.258C77.9823 116.622 77.9302 116.935 77.8781 117.195H52.2531C52.3573 118.315 52.6828 119.383 53.2297 120.398C53.7766 121.414 54.4536 122.312 55.2609 123.094C56.0943 123.849 57.0839 124.461 58.2297 124.93C59.3755 125.372 60.5865 125.594 61.8625 125.594C64.05 125.594 65.7818 125.125 67.0578 124.188C68.3599 123.25 69.2974 122.391 69.8703 121.609H77.4875ZM61.4719 102.391C59.076 102.391 57.0448 103.211 55.3781 104.852C53.7375 106.466 52.6958 108.589 52.2531 111.219H71.4719C71.0552 108.615 69.9875 106.492 68.2687 104.852C66.576 103.211 64.3104 102.391 61.4719 102.391ZM123.595 113.602C124.507 114.07 125.301 114.682 125.978 115.438C126.577 116.089 127.137 116.896 127.658 117.859C128.205 118.797 128.478 119.917 128.478 121.219C128.478 124.422 127.319 127.091 125.002 129.227C122.71 131.336 119.468 132.391 115.275 132.391C110.848 132.391 107.528 131.349 105.314 129.266C103.101 127.182 101.877 124.227 101.642 120.398H108.869C109.077 121.987 109.689 123.25 110.705 124.188C111.72 125.125 113.244 125.594 115.275 125.594C117.515 125.594 119.129 125.177 120.119 124.344C121.134 123.484 121.642 122.443 121.642 121.219C121.642 119.995 121.134 118.953 120.119 118.094C119.129 117.234 117.515 116.805 115.275 116.805H112.072V110.398H115.275C117.306 110.398 118.739 109.995 119.572 109.188C120.431 108.354 120.861 107.43 120.861 106.414C120.861 105.398 120.431 104.474 119.572 103.641C118.713 102.807 117.28 102.391 115.275 102.391C113.452 102.391 112.046 102.82 111.056 103.68C110.067 104.539 109.468 105.581 109.259 106.805H102.072C102.28 103.393 103.478 100.672 105.666 98.6406C107.853 96.6094 111.056 95.5938 115.275 95.5938C117.202 95.5938 118.921 95.8802 120.431 96.4531C121.942 97 123.231 97.7682 124.298 98.7578C125.366 99.7474 126.186 100.893 126.759 102.195C127.358 103.497 127.658 104.904 127.658 106.414C127.658 107.638 127.436 108.706 126.994 109.617C126.577 110.503 126.108 111.245 125.588 111.844C125.015 112.547 124.351 113.133 123.595 113.602ZM150.38 95.5938C152.463 95.5938 154.364 95.9323 156.083 96.6094C157.828 97.2604 159.312 98.1589 160.536 99.3047C161.76 100.451 162.71 101.805 163.387 103.367C164.065 104.904 164.403 106.583 164.403 108.406V132H159.208L157.606 128.406C156.903 129.161 156.07 129.826 155.106 130.398C154.247 130.919 153.166 131.388 151.864 131.805C150.562 132.195 148.999 132.391 147.177 132.391C143.166 132.391 140.093 131.401 137.958 129.422C135.848 127.417 134.794 124.812 134.794 121.609C134.794 119.786 135.132 118.146 135.809 116.688C136.512 115.203 137.697 113.953 139.364 112.938C141.057 111.896 143.335 111.089 146.2 110.516C149.091 109.917 152.749 109.617 157.177 109.617V108.406C157.177 106.583 156.604 105.125 155.458 104.031C154.312 102.938 152.619 102.391 150.38 102.391C147.984 102.391 146.239 102.82 145.145 103.68C144.052 104.539 143.401 105.581 143.192 106.805H136.005C136.213 103.602 137.554 100.932 140.028 98.7969C142.502 96.6615 145.953 95.5938 150.38 95.5938ZM147.606 125.984C150.653 125.984 153.01 125.203 154.677 123.641C156.343 122.078 157.177 120.177 157.177 117.938V115.984C153.973 115.984 151.382 116.141 149.403 116.453C147.45 116.74 145.914 117.143 144.794 117.664C143.674 118.159 142.919 118.784 142.528 119.539C142.164 120.268 141.981 121.089 141.981 122C141.981 123.016 142.463 123.94 143.427 124.773C144.39 125.581 145.783 125.984 147.606 125.984ZM190.68 97.1953C192.867 97.1953 194.964 97.651 196.969 98.5625C198.974 99.474 200.719 100.724 202.203 102.312C203.688 103.875 204.872 105.724 205.758 107.859C206.643 109.969 207.086 112.286 207.086 114.812C207.086 117.312 206.643 119.63 205.758 121.766C204.872 123.901 203.635 125.763 202.047 127.352C200.484 128.914 198.661 130.151 196.578 131.062C194.521 131.948 192.281 132.391 189.859 132.391C187.359 132.391 185.042 131.935 182.906 131.023C180.771 130.086 178.922 128.667 177.359 126.766C175.797 124.865 174.56 122.521 173.648 119.734C172.737 116.922 172.281 113.68 172.281 110.008C172.281 104.826 172.802 100.424 173.844 96.8047C174.885 93.1849 176.591 90.2292 178.961 87.9375C181.331 85.6198 184.443 83.901 188.297 82.7812C192.177 81.6615 196.969 80.9974 202.672 80.7891V88.0156C198.349 88.1198 194.781 88.4844 191.969 89.1094C189.182 89.7083 186.943 90.6068 185.25 91.8047C183.583 93.0026 182.346 94.513 181.539 96.3359C180.758 98.1328 180.198 100.281 179.859 102.781C180.562 101.766 181.422 100.841 182.438 100.008C183.349 99.3047 184.469 98.6667 185.797 98.0938C187.125 97.4948 188.753 97.1953 190.68 97.1953ZM189.859 125.594C191.135 125.594 192.385 125.32 193.609 124.773C194.859 124.201 195.927 123.419 196.812 122.43C197.724 121.44 198.453 120.294 199 118.992C199.573 117.69 199.859 116.297 199.859 114.812C199.859 113.328 199.573 111.935 199 110.633C198.453 109.305 197.724 108.146 196.812 107.156C195.927 106.167 194.872 105.398 193.648 104.852C192.424 104.279 191.161 103.992 189.859 103.992C188.583 103.992 187.333 104.279 186.109 104.852C184.885 105.398 183.818 106.167 182.906 107.156C181.995 108.146 181.253 109.292 180.68 110.594C180.133 111.896 179.859 113.302 179.859 114.812C179.859 116.297 180.133 117.69 180.68 118.992C181.253 120.294 181.995 121.44 182.906 122.43C183.818 123.419 184.885 124.201 186.109 124.773C187.333 125.32 188.583 125.594 189.859 125.594ZM254.573 95.9844V132H247.347V95.9844H254.573ZM230.159 108.016C231.982 108.016 233.649 108.328 235.159 108.953C236.67 109.552 237.972 110.385 239.066 111.453C240.159 112.521 241.006 113.784 241.605 115.242C242.23 116.701 242.542 118.289 242.542 120.008C242.542 121.727 242.23 123.315 241.605 124.773C241.006 126.232 240.159 127.495 239.066 128.562C237.972 129.63 236.67 130.477 235.159 131.102C233.649 131.701 231.982 132 230.159 132H214.964V95.9844H222.152V108.016H230.159ZM230.159 125.203C231.54 125.203 232.751 124.682 233.792 123.641C234.834 122.599 235.355 121.388 235.355 120.008C235.355 118.628 234.834 117.417 233.792 116.375C232.751 115.333 231.54 114.812 230.159 114.812H222.152V125.203H230.159ZM260.889 95.9844H290.459V102.781H279.288V132H272.061V102.781H260.889V95.9844ZM312.791 108.016C314.614 108.016 316.28 108.328 317.791 108.953C319.327 109.552 320.642 110.385 321.736 111.453C322.83 112.521 323.676 113.784 324.275 115.242C324.9 116.701 325.212 118.289 325.212 120.008C325.212 121.727 324.9 123.315 324.275 124.773C323.676 126.232 322.83 127.495 321.736 128.562C320.642 129.63 319.327 130.477 317.791 131.102C316.28 131.701 314.614 132 312.791 132H296.814V95.9844H304.002V108.016H312.791ZM312.791 125.203C314.171 125.203 315.382 124.682 316.423 123.641C317.491 122.599 318.025 121.388 318.025 120.008C318.025 118.628 317.504 117.417 316.462 116.375C315.421 115.333 314.197 114.812 312.791 114.812H304.002V125.203H312.791Z" fill="#4793EF"/>
</svg>
