<svg width="695" height="146" viewBox="0 0 695 146" fill="none" xmlns="http://www.w3.org/2000/svg">
<path d="M38.3984 45.2031V60.3984H31.6016V52H6.79688V60.3984H0V45.2031H2.38281C3.13802 44.6823 3.8151 44.0964 4.41406 43.4453C4.9349 42.8464 5.42969 42.1432 5.89844 41.3359C6.39323 40.5026 6.69271 39.526 6.79688 38.4062L9.21875 15.9844H33.5938V45.2031H38.3984ZM13.9844 38.4062C13.8802 39.526 13.6719 40.5026 13.3594 41.3359C13.0469 42.1432 12.7214 42.8464 12.3828 43.4453C12.0182 44.0964 11.6276 44.6823 11.2109 45.2031H26.4062V22.7812H15.5859L13.9844 38.4062ZM70.3 33.9922C70.3 32.2734 70.0135 30.7109 69.4406 29.3047C68.8937 27.8984 68.1646 26.6745 67.2531 25.6328C66.3417 24.5911 65.274 23.7969 64.05 23.25C62.826 22.6771 61.576 22.3906 60.3 22.3906C59.024 22.3906 57.774 22.6771 56.55 23.25C55.326 23.7969 54.2583 24.5911 53.3469 25.6328C52.4354 26.6745 51.6932 27.9115 51.1203 29.3438C50.5734 30.75 50.3 32.2995 50.3 33.9922C50.3 35.7109 50.5734 37.2734 51.1203 38.6797C51.6932 40.0859 52.4354 41.3099 53.3469 42.3516C54.2583 43.3932 55.326 44.2005 56.55 44.7734C57.774 45.3203 59.024 45.5938 60.3 45.5938C61.576 45.5938 62.826 45.3203 64.05 44.7734C65.274 44.2005 66.3417 43.3932 67.2531 42.3516C68.1646 41.3099 68.8937 40.0859 69.4406 38.6797C70.0135 37.2734 70.3 35.7109 70.3 33.9922ZM77.4875 33.9922C77.4875 36.7005 77.0448 39.1875 76.1594 41.4531C75.3 43.6927 74.076 45.6328 72.4875 47.2734C70.925 48.888 69.1021 50.151 67.0187 51.0625C64.9354 51.9479 62.6958 52.3906 60.3 52.3906C57.9042 52.3906 55.6646 51.9479 53.5812 51.0625C51.4979 50.151 49.662 48.888 48.0734 47.2734C46.5109 45.6328 45.287 43.6927 44.4016 41.4531C43.5422 39.2135 43.1125 36.7266 43.1125 33.9922C43.1125 31.2839 43.5422 28.8099 44.4016 26.5703C45.287 24.3307 46.5109 22.4036 48.0734 20.7891C49.662 19.1484 51.4979 17.8724 53.5812 16.9609C55.6646 16.0495 57.9042 15.5938 60.3 15.5938C62.6958 15.5938 64.9354 16.0495 67.0187 16.9609C69.1021 17.8724 70.925 19.1484 72.4875 20.7891C74.076 22.4036 75.3 24.3307 76.1594 26.5703C77.0448 28.8099 77.4875 31.2839 77.4875 33.9922ZM102.202 17.1953C104.389 17.1953 106.485 17.651 108.491 18.5625C110.496 19.474 112.241 20.724 113.725 22.3125C115.209 23.875 116.394 25.724 117.28 27.8594C118.165 29.9688 118.608 32.2865 118.608 34.8125C118.608 37.3125 118.165 39.6302 117.28 41.7656C116.394 43.901 115.157 45.763 113.569 47.3516C112.006 48.9141 110.183 50.151 108.1 51.0625C106.043 51.9479 103.803 52.3906 101.381 52.3906C98.8812 52.3906 96.5635 51.9349 94.4281 51.0234C92.2927 50.0859 90.4437 48.6667 88.8812 46.7656C87.3187 44.8646 86.0818 42.5208 85.1703 39.7344C84.2589 36.9219 83.8031 33.6797 83.8031 30.0078C83.8031 24.8255 84.324 20.4245 85.3656 16.8047C86.4073 13.1849 88.113 10.2292 90.4828 7.9375C92.8526 5.61979 95.9646 3.90104 99.8187 2.78125C103.699 1.66146 108.491 0.997396 114.194 0.789062V8.01562C109.871 8.11979 106.303 8.48438 103.491 9.10938C100.704 9.70833 98.4646 10.6068 96.7719 11.8047C95.1052 13.0026 93.8682 14.513 93.0609 16.3359C92.2797 18.1328 91.7198 20.2812 91.3812 22.7812C92.0844 21.7656 92.9437 20.8411 93.9594 20.0078C94.8708 19.3047 95.9906 18.6667 97.3187 18.0938C98.6469 17.4948 100.274 17.1953 102.202 17.1953ZM101.381 45.5938C102.657 45.5938 103.907 45.3203 105.131 44.7734C106.381 44.2005 107.449 43.4193 108.334 42.4297C109.246 41.4401 109.975 40.2943 110.522 38.9922C111.095 37.6901 111.381 36.2969 111.381 34.8125C111.381 33.3281 111.095 31.9349 110.522 30.6328C109.975 29.3047 109.246 28.1458 108.334 27.1562C107.449 26.1667 106.394 25.3984 105.17 24.8516C103.946 24.2786 102.683 23.9922 101.381 23.9922C100.105 23.9922 98.8552 24.2786 97.6312 24.8516C96.4073 25.3984 95.3396 26.1667 94.4281 27.1562C93.5167 28.1458 92.7745 29.2917 92.2016 30.5938C91.6547 31.8958 91.3812 33.3021 91.3812 34.8125C91.3812 36.2969 91.6547 37.6901 92.2016 38.9922C92.7745 40.2943 93.5167 41.4401 94.4281 42.4297C95.3396 43.4193 96.4073 44.2005 97.6312 44.7734C98.8552 45.3203 100.105 45.5938 101.381 45.5938ZM140.47 15.5938C142.554 15.5938 144.455 15.9323 146.173 16.6094C147.918 17.2604 149.403 18.1589 150.627 19.3047C151.851 20.4505 152.801 21.8047 153.478 23.3672C154.155 24.9036 154.494 26.5833 154.494 28.4062V52H149.298L147.697 48.4062C146.994 49.1615 146.16 49.8255 145.197 50.3984C144.338 50.9193 143.257 51.388 141.955 51.8047C140.653 52.1953 139.09 52.3906 137.267 52.3906C133.257 52.3906 130.184 51.401 128.048 49.4219C125.939 47.4167 124.884 44.8125 124.884 41.6094C124.884 39.7865 125.223 38.1458 125.9 36.6875C126.603 35.2031 127.788 33.9531 129.455 32.9375C131.147 31.8958 133.426 31.0885 136.291 30.5156C139.181 29.9167 142.84 29.6172 147.267 29.6172V28.4062C147.267 26.5833 146.694 25.125 145.548 24.0312C144.403 22.9375 142.71 22.3906 140.47 22.3906C138.074 22.3906 136.33 22.8203 135.236 23.6797C134.142 24.5391 133.491 25.5807 133.283 26.8047H126.095C126.304 23.6016 127.645 20.9323 130.119 18.7969C132.593 16.6615 136.043 15.5938 140.47 15.5938ZM137.697 45.9844C140.744 45.9844 143.101 45.2031 144.767 43.6406C146.434 42.0781 147.267 40.1771 147.267 37.9375V35.9844C144.064 35.9844 141.473 36.1406 139.494 36.4531C137.541 36.7396 136.004 37.1432 134.884 37.6641C133.765 38.1589 133.009 38.7839 132.619 39.5391C132.254 40.2682 132.072 41.0885 132.072 42C132.072 43.0156 132.554 43.9401 133.517 44.7734C134.481 45.5807 135.874 45.9844 137.697 45.9844ZM187.567 33.2109C188.531 33.6797 189.39 34.3177 190.145 35.125C190.796 35.8281 191.395 36.7135 191.942 37.7812C192.489 38.8229 192.762 40.099 192.762 41.6094C192.762 43.0938 192.489 44.474 191.942 45.75C191.421 47.026 190.692 48.1198 189.755 49.0312C188.843 49.9427 187.71 50.6719 186.356 51.2188C185.028 51.7396 183.57 52 181.981 52H163.973V15.9844H180.77C182.359 15.9844 183.817 16.2448 185.145 16.7656C186.499 17.2604 187.632 17.9635 188.544 18.875C189.481 19.7865 190.21 20.8542 190.731 22.0781C191.278 23.3021 191.552 24.6042 191.552 25.9844C191.552 27.3125 191.343 28.4193 190.927 29.3047C190.51 30.1901 190.054 30.9323 189.559 31.5312C188.986 32.1823 188.322 32.7422 187.567 33.2109ZM171.161 22V30.7891H179.95C181.174 30.7891 182.216 30.3724 183.075 29.5391C183.934 28.6797 184.364 27.638 184.364 26.4141C184.364 25.1901 183.934 24.1484 183.075 23.2891C182.242 22.4297 181.2 22 179.95 22H171.161ZM181.161 45.9844C182.385 45.9844 183.427 45.5417 184.286 44.6562C185.145 43.7448 185.575 42.599 185.575 41.2188C185.575 39.9948 185.145 38.9531 184.286 38.0938C183.427 37.2344 182.385 36.8047 181.161 36.8047H171.161V45.9844H181.161ZM216.656 28.0156C218.479 28.0156 220.146 28.3281 221.656 28.9531C223.193 29.5521 224.508 30.3854 225.602 31.4531C226.695 32.5208 227.542 33.7839 228.141 35.2422C228.766 36.7005 229.078 38.2891 229.078 40.0078C229.078 41.7266 228.766 43.3151 228.141 44.7734C227.542 46.2318 226.695 47.4948 225.602 48.5625C224.508 49.6302 223.193 50.4766 221.656 51.1016C220.146 51.7005 218.479 52 216.656 52H200.68V15.9844H207.867V28.0156H216.656ZM216.656 45.2031C218.036 45.2031 219.247 44.6823 220.289 43.6406C221.357 42.599 221.891 41.388 221.891 40.0078C221.891 38.6276 221.37 37.4167 220.328 36.375C219.286 35.3333 218.062 34.8125 216.656 34.8125H207.867V45.2031H216.656ZM454.003 95.9844V132H446.816V102.781H429.589V132H422.402V95.9844H454.003ZM489.069 113.992C489.069 112.273 488.782 110.711 488.209 109.305C487.663 107.898 486.933 106.674 486.022 105.633C485.11 104.591 484.043 103.797 482.819 103.25C481.595 102.677 480.345 102.391 479.069 102.391C477.793 102.391 476.543 102.677 475.319 103.25C474.095 103.797 473.027 104.591 472.116 105.633C471.204 106.674 470.462 107.911 469.889 109.344C469.342 110.75 469.069 112.299 469.069 113.992C469.069 115.711 469.342 117.273 469.889 118.68C470.462 120.086 471.204 121.31 472.116 122.352C473.027 123.393 474.095 124.201 475.319 124.773C476.543 125.32 477.793 125.594 479.069 125.594C480.345 125.594 481.595 125.32 482.819 124.773C484.043 124.201 485.11 123.393 486.022 122.352C486.933 121.31 487.663 120.086 488.209 118.68C488.782 117.273 489.069 115.711 489.069 113.992ZM496.256 113.992C496.256 116.701 495.814 119.188 494.928 121.453C494.069 123.693 492.845 125.633 491.256 127.273C489.694 128.888 487.871 130.151 485.788 131.062C483.704 131.948 481.465 132.391 479.069 132.391C476.673 132.391 474.433 131.948 472.35 131.062C470.267 130.151 468.431 128.888 466.842 127.273C465.28 125.633 464.056 123.693 463.17 121.453C462.311 119.214 461.881 116.727 461.881 113.992C461.881 111.284 462.311 108.81 463.17 106.57C464.056 104.331 465.28 102.404 466.842 100.789C468.431 99.1484 470.267 97.8724 472.35 96.9609C474.433 96.0495 476.673 95.5938 479.069 95.5938C481.465 95.5938 483.704 96.0495 485.788 96.9609C487.871 97.8724 489.694 99.1484 491.256 100.789C492.845 102.404 494.069 104.331 494.928 106.57C495.814 108.81 496.256 111.284 496.256 113.992ZM537.767 125.203V140.398H530.97V132H506.166V140.398H499.369V125.203H501.752C502.507 124.682 503.184 124.096 503.783 123.445C504.304 122.846 504.798 122.143 505.267 121.336C505.762 120.503 506.061 119.526 506.166 118.406L508.587 95.9844H532.962V125.203H537.767ZM513.353 118.406C513.249 119.526 513.041 120.503 512.728 121.336C512.416 122.143 512.09 122.846 511.752 123.445C511.387 124.096 510.996 124.682 510.58 125.203H525.775V102.781H514.955L513.353 118.406ZM576.075 95.9844V132H568.888V102.781H551.661V132H544.473V95.9844H576.075ZM617.547 95.9844V132H610.359V106.805L593.133 132H585.945V95.9844H593.133V121.219L610.359 95.9844H617.547ZM658.628 118.797C658.211 120.724 657.547 122.521 656.636 124.188C655.724 125.828 654.566 127.26 653.159 128.484C651.779 129.708 650.191 130.672 648.394 131.375C646.623 132.052 644.696 132.391 642.612 132.391C640.217 132.391 637.977 131.948 635.894 131.062C633.81 130.151 631.974 128.888 630.386 127.273C628.823 125.633 627.599 123.693 626.714 121.453C625.855 119.214 625.425 116.727 625.425 113.992C625.425 111.284 625.855 108.81 626.714 106.57C627.599 104.331 628.823 102.404 630.386 100.789C631.974 99.1484 633.81 97.8724 635.894 96.9609C637.977 96.0495 640.217 95.5938 642.612 95.5938C644.696 95.5938 646.623 95.9453 648.394 96.6484C650.191 97.3255 651.779 98.2891 653.159 99.5391C654.566 100.763 655.711 102.208 656.597 103.875C657.508 105.516 658.185 107.286 658.628 109.188H651.011C650.412 107.156 649.422 105.516 648.042 104.266C646.662 103.016 644.852 102.391 642.612 102.391C641.336 102.391 640.086 102.677 638.862 103.25C637.639 103.797 636.571 104.591 635.659 105.633C634.748 106.674 634.006 107.911 633.433 109.344C632.886 110.75 632.612 112.299 632.612 113.992C632.612 115.711 632.886 117.273 633.433 118.68C634.006 120.086 634.748 121.31 635.659 122.352C636.571 123.393 637.639 124.201 638.862 124.773C640.086 125.32 641.336 125.594 642.612 125.594C644.852 125.594 646.662 124.969 648.042 123.719C649.448 122.469 650.438 120.828 651.011 118.797H658.628ZM682.131 108.016C683.954 108.016 685.621 108.328 687.131 108.953C688.668 109.552 689.983 110.385 691.077 111.453C692.17 112.521 693.017 113.784 693.616 115.242C694.241 116.701 694.553 118.289 694.553 120.008C694.553 121.727 694.241 123.315 693.616 124.773C693.017 126.232 692.17 127.495 691.077 128.562C689.983 129.63 688.668 130.477 687.131 131.102C685.621 131.701 683.954 132 682.131 132H666.155V95.9844H673.342V108.016H682.131ZM682.131 125.203C683.511 125.203 684.722 124.682 685.764 123.641C686.832 122.599 687.366 121.388 687.366 120.008C687.366 118.628 686.845 117.417 685.803 116.375C684.761 115.333 683.537 114.812 682.131 114.812H673.342V125.203H682.131Z" fill="black"/>
<path d="M285.303 38.7969C284.886 40.724 284.222 42.5208 283.311 44.1875C282.399 45.8281 281.241 47.2604 279.834 48.4844C278.454 49.7083 276.866 50.6719 275.069 51.375C273.298 52.0521 271.371 52.3906 269.288 52.3906C266.892 52.3906 264.652 51.9479 262.569 51.0625C260.485 50.151 258.649 48.888 257.061 47.2734C255.498 45.6328 254.274 43.6927 253.389 41.4531C252.53 39.2135 252.1 36.7266 252.1 33.9922C252.1 31.2839 252.53 28.8099 253.389 26.5703C254.274 24.3307 255.498 22.4036 257.061 20.7891C258.649 19.1484 260.485 17.8724 262.569 16.9609C264.652 16.0495 266.892 15.5938 269.288 15.5938C271.371 15.5938 273.298 15.9453 275.069 16.6484C276.866 17.3255 278.454 18.2891 279.834 19.5391C281.241 20.763 282.386 22.2083 283.272 23.875C284.183 25.5156 284.86 27.2865 285.303 29.1875H277.686C277.087 27.1562 276.097 25.5156 274.717 24.2656C273.337 23.0156 271.527 22.3906 269.288 22.3906C268.011 22.3906 266.761 22.6771 265.538 23.25C264.314 23.7969 263.246 24.5911 262.334 25.6328C261.423 26.6745 260.681 27.9115 260.108 29.3438C259.561 30.75 259.288 32.2995 259.288 33.9922C259.288 35.7109 259.561 37.2734 260.108 38.6797C260.681 40.0859 261.423 41.3099 262.334 42.3516C263.246 43.3932 264.314 44.2005 265.538 44.7734C266.761 45.3203 268.011 45.5938 269.288 45.5938C271.527 45.5938 273.337 44.9688 274.717 43.7188C276.123 42.4688 277.113 40.8281 277.686 38.7969H285.303ZM316.423 33.2109C317.387 33.6797 318.246 34.3177 319.002 35.125C319.653 35.8281 320.252 36.7135 320.798 37.7812C321.345 38.8229 321.619 40.099 321.619 41.6094C321.619 43.0938 321.345 44.474 320.798 45.75C320.278 47.026 319.548 48.1198 318.611 49.0312C317.699 49.9427 316.567 50.6719 315.212 51.2188C313.884 51.7396 312.426 52 310.837 52H292.83V15.9844H309.627C311.215 15.9844 312.673 16.2448 314.002 16.7656C315.356 17.2604 316.489 17.9635 317.4 18.875C318.337 19.7865 319.067 20.8542 319.587 22.0781C320.134 23.3021 320.408 24.6042 320.408 25.9844C320.408 27.3125 320.199 28.4193 319.783 29.3047C319.366 30.1901 318.91 30.9323 318.416 31.5312C317.843 32.1823 317.179 32.7422 316.423 33.2109ZM300.017 22V30.7891H308.806C310.03 30.7891 311.072 30.3724 311.931 29.5391C312.791 28.6797 313.22 27.638 313.22 26.4141C313.22 25.1901 312.791 24.1484 311.931 23.2891C311.098 22.4297 310.056 22 308.806 22H300.017ZM310.017 45.9844C311.241 45.9844 312.283 45.5417 313.142 44.6562C314.002 43.7448 314.431 42.599 314.431 41.2188C314.431 39.9948 314.002 38.9531 313.142 38.0938C312.283 37.2344 311.241 36.8047 310.017 36.8047H300.017V45.9844H310.017ZM354.731 33.9922C354.731 32.2734 354.445 30.7109 353.872 29.3047C353.325 27.8984 352.596 26.6745 351.684 25.6328C350.773 24.5911 349.705 23.7969 348.481 23.25C347.257 22.6771 346.007 22.3906 344.731 22.3906C343.455 22.3906 342.205 22.6771 340.981 23.25C339.757 23.7969 338.69 24.5911 337.778 25.6328C336.867 26.6745 336.124 27.9115 335.552 29.3438C335.005 30.75 334.731 32.2995 334.731 33.9922C334.731 35.7109 335.005 37.2734 335.552 38.6797C336.124 40.0859 336.867 41.3099 337.778 42.3516C338.69 43.3932 339.757 44.2005 340.981 44.7734C342.205 45.3203 343.455 45.5938 344.731 45.5938C346.007 45.5938 347.257 45.3203 348.481 44.7734C349.705 44.2005 350.773 43.3932 351.684 42.3516C352.596 41.3099 353.325 40.0859 353.872 38.6797C354.445 37.2734 354.731 35.7109 354.731 33.9922ZM361.919 33.9922C361.919 36.7005 361.476 39.1875 360.591 41.4531C359.731 43.6927 358.507 45.6328 356.919 47.2734C355.356 48.888 353.533 50.151 351.45 51.0625C349.367 51.9479 347.127 52.3906 344.731 52.3906C342.335 52.3906 340.096 51.9479 338.013 51.0625C335.929 50.151 334.093 48.888 332.505 47.2734C330.942 45.6328 329.718 43.6927 328.833 41.4531C327.973 39.2135 327.544 36.7266 327.544 33.9922C327.544 31.2839 327.973 28.8099 328.833 26.5703C329.718 24.3307 330.942 22.4036 332.505 20.7891C334.093 19.1484 335.929 17.8724 338.013 16.9609C340.096 16.0495 342.335 15.5938 344.731 15.5938C347.127 15.5938 349.367 16.0495 351.45 16.9609C353.533 17.8724 355.356 19.1484 356.919 20.7891C358.507 22.4036 359.731 24.3307 360.591 26.5703C361.476 28.8099 361.919 31.2839 361.919 33.9922ZM399.016 15.5938C401.203 15.5938 403.299 16.0495 405.305 16.9609C407.31 17.8724 409.055 19.1484 410.539 20.7891C412.049 22.4036 413.234 24.3307 414.094 26.5703C414.979 28.8099 415.422 31.2839 415.422 33.9922C415.422 36.7005 414.979 39.1875 414.094 41.4531C413.234 43.6927 412.049 45.6328 410.539 47.2734C409.055 48.888 407.31 50.151 405.305 51.0625C403.299 51.9479 401.203 52.3906 399.016 52.3906C396.932 52.3906 394.966 52.026 393.117 51.2969C391.294 50.5417 389.693 49.5 388.312 48.1719C386.932 46.8177 385.786 45.2422 384.875 43.4453C383.964 41.6224 383.352 39.6693 383.039 37.5859H377.023V52H369.836V15.9844H377.023V30.7891H383.039C383.352 28.6016 383.964 26.5833 384.875 24.7344C385.786 22.8594 386.932 21.2448 388.312 19.8906C389.693 18.5365 391.294 17.4818 393.117 16.7266C394.966 15.9714 396.932 15.5938 399.016 15.5938ZM399.016 45.5938C400.135 45.5938 401.242 45.3203 402.336 44.7734C403.43 44.2005 404.419 43.3932 405.305 42.3516C406.19 41.3099 406.893 40.0859 407.414 38.6797C407.961 37.2734 408.234 35.7109 408.234 33.9922C408.234 32.2734 407.961 30.7109 407.414 29.3047C406.893 27.8984 406.19 26.6745 405.305 25.6328C404.419 24.5911 403.43 23.7969 402.336 23.25C401.242 22.6771 400.135 22.3906 399.016 22.3906C397.896 22.3906 396.789 22.6771 395.695 23.25C394.602 23.7969 393.612 24.5911 392.727 25.6328C391.867 26.6745 391.164 27.9115 390.617 29.3438C390.096 30.75 389.836 32.2995 389.836 33.9922C389.836 35.7109 390.096 37.2734 390.617 38.6797C391.164 40.0859 391.867 41.3099 392.727 42.3516C393.612 43.3932 394.602 44.2005 395.695 44.7734C396.789 45.3203 397.896 45.5938 399.016 45.5938ZM0.78125 95.9844H8.39844L18.3984 122L28.3984 95.9844H36.0156L20.7812 134.383C19.974 136.414 19.1797 138.107 18.3984 139.461C17.6432 140.841 16.8099 141.948 15.8984 142.781C15.013 143.641 14.0234 144.253 12.9297 144.617C11.8359 145.008 10.599 145.203 9.21875 145.203C8.90625 145.203 8.60677 145.19 8.32031 145.164C8.0599 145.138 7.79948 145.099 7.53906 145.047C7.27865 144.995 7.03125 144.917 6.79688 144.812V138.797C8.82812 138.797 10.3646 138.367 11.4062 137.508C12.4479 136.674 13.1771 135.633 13.5938 134.383L14.8047 130.789L0.78125 95.9844ZM73.5031 95.9844V132H66.3156V117.195H49.0891V132H41.9016V95.9844H49.0891V110.398H66.3156V95.9844H73.5031ZM114.975 95.9844V132H107.787V106.805L90.5609 132H83.3734V95.9844H90.5609V121.219L107.787 95.9844H114.975ZM146.447 132L132.423 114.812V132H125.236V95.9844H132.423V111.609L144.845 95.9844H153.244L139.259 112.781L155.236 132H146.447ZM173.505 95.5938C175.588 95.5938 177.489 95.9323 179.208 96.6094C180.953 97.2604 182.437 98.1589 183.661 99.3047C184.885 100.451 185.835 101.805 186.512 103.367C187.19 104.904 187.528 106.583 187.528 108.406V132H182.333L180.731 128.406C180.028 129.161 179.195 129.826 178.231 130.398C177.372 130.919 176.291 131.388 174.989 131.805C173.687 132.195 172.124 132.391 170.302 132.391C166.291 132.391 163.218 131.401 161.083 129.422C158.973 127.417 157.919 124.812 157.919 121.609C157.919 119.786 158.257 118.146 158.934 116.688C159.637 115.203 160.822 113.953 162.489 112.938C164.182 111.896 166.46 111.089 169.325 110.516C172.216 109.917 175.874 109.617 180.302 109.617V108.406C180.302 106.583 179.729 105.125 178.583 104.031C177.437 102.938 175.744 102.391 173.505 102.391C171.109 102.391 169.364 102.82 168.27 103.68C167.177 104.539 166.526 105.581 166.317 106.805H159.13C159.338 103.602 160.679 100.932 163.153 98.7969C165.627 96.6615 169.078 95.5938 173.505 95.5938ZM170.731 125.984C173.778 125.984 176.135 125.203 177.802 123.641C179.468 122.078 180.302 120.177 180.302 117.938V115.984C177.098 115.984 174.507 116.141 172.528 116.453C170.575 116.74 169.039 117.143 167.919 117.664C166.799 118.159 166.044 118.784 165.653 119.539C165.289 120.268 165.106 121.089 165.106 122C165.106 123.016 165.588 123.94 166.552 124.773C167.515 125.581 168.908 125.984 170.731 125.984ZM226.617 95.9844V132H219.391V102.781H207.398L206.188 120.008C205.927 124.018 204.781 127.091 202.75 129.227C200.745 131.336 198.023 132.391 194.586 132.391C194.273 132.391 193.987 132.378 193.727 132.352C193.466 132.326 193.193 132.286 192.906 132.234C192.646 132.182 192.411 132.104 192.203 132V125.984H192.984C196.656 125.984 198.661 123.992 199 120.008L200.992 95.9844H226.617ZM252.503 108.016C254.326 108.016 255.993 108.328 257.503 108.953C259.04 109.552 260.355 110.385 261.448 111.453C262.542 112.521 263.389 113.784 263.988 115.242C264.613 116.701 264.925 118.289 264.925 120.008C264.925 121.727 264.613 123.315 263.988 124.773C263.389 126.232 262.542 127.495 261.448 128.562C260.355 129.63 259.04 130.477 257.503 131.102C255.993 131.701 254.326 132 252.503 132H236.527V95.9844H243.714V108.016H252.503ZM252.503 125.203C253.883 125.203 255.094 124.682 256.136 123.641C257.204 122.599 257.738 121.388 257.738 120.008C257.738 118.628 257.217 117.417 256.175 116.375C255.133 115.333 253.909 114.812 252.503 114.812H243.714V125.203H252.503ZM303.663 95.9844V132H296.475V117.195H279.248V132H272.061V95.9844H279.248V110.398H296.475V95.9844H303.663ZM309.509 95.9844H317.127L327.127 122L337.127 95.9844H344.744L329.509 134.383C328.702 136.414 327.908 138.107 327.127 139.461C326.371 140.841 325.538 141.948 324.627 142.781C323.741 143.641 322.752 144.253 321.658 144.617C320.564 145.008 319.327 145.203 317.947 145.203C317.634 145.203 317.335 145.19 317.048 145.164C316.788 145.138 316.528 145.099 316.267 145.047C316.007 144.995 315.759 144.917 315.525 144.812V138.797C317.556 138.797 319.093 138.367 320.134 137.508C321.176 136.674 321.905 135.633 322.322 134.383L323.533 130.789L309.509 95.9844ZM379.809 95.5938C381.997 95.5938 384.093 96.0495 386.098 96.9609C388.104 97.8724 389.848 99.1484 391.333 100.789C392.843 102.404 394.028 104.331 394.888 106.57C395.773 108.81 396.216 111.284 396.216 113.992C396.216 116.701 395.773 119.188 394.888 121.453C394.028 123.693 392.843 125.633 391.333 127.273C389.848 128.888 388.104 130.151 386.098 131.062C384.093 131.948 381.997 132.391 379.809 132.391C377.726 132.391 375.76 132.026 373.911 131.297C372.088 130.542 370.486 129.5 369.106 128.172C367.726 126.818 366.58 125.242 365.669 123.445C364.757 121.622 364.145 119.669 363.833 117.586H357.817V132H350.63V95.9844H357.817V110.789H363.833C364.145 108.602 364.757 106.583 365.669 104.734C366.58 102.859 367.726 101.245 369.106 99.8906C370.486 98.5365 372.088 97.4818 373.911 96.7266C375.76 95.9714 377.726 95.5938 379.809 95.5938ZM379.809 125.594C380.929 125.594 382.036 125.32 383.13 124.773C384.223 124.201 385.213 123.393 386.098 122.352C386.984 121.31 387.687 120.086 388.208 118.68C388.755 117.273 389.028 115.711 389.028 113.992C389.028 112.273 388.755 110.711 388.208 109.305C387.687 107.898 386.984 106.674 386.098 105.633C385.213 104.591 384.223 103.797 383.13 103.25C382.036 102.677 380.929 102.391 379.809 102.391C378.69 102.391 377.583 102.677 376.489 103.25C375.395 103.797 374.406 104.591 373.52 105.633C372.661 106.674 371.958 107.911 371.411 109.344C370.89 110.75 370.63 112.299 370.63 113.992C370.63 115.711 370.89 117.273 371.411 118.68C371.958 120.086 372.661 121.31 373.52 122.352C374.406 123.393 375.395 124.201 376.489 124.773C377.583 125.32 378.69 125.594 379.809 125.594Z" fill="#4793EF"/>
</svg>
