<svg width="316" height="89" viewBox="0 0 316 89" fill="none" xmlns="http://www.w3.org/2000/svg">
<rect x="0.0410156" width="315" height="88.6667" rx="18.3333" fill="#F2F3F5"/>
<path d="M49.275 48.5952V56.9526H45.5367V52.3335H31.8941V56.9526H28.1559V48.5952H29.4664C29.8818 48.3088 30.2542 47.9865 30.5836 47.6284C30.87 47.299 31.1422 46.9123 31.4 46.4683C31.6721 46.0099 31.8368 45.4728 31.8941 44.8569L33.2262 32.5249H46.6324V48.5952H49.275ZM35.8473 44.8569C35.79 45.4728 35.6754 46.0099 35.5035 46.4683C35.3316 46.9123 35.1526 47.299 34.9664 47.6284C34.7659 47.9865 34.551 48.3088 34.3219 48.5952H42.6793V36.2632H36.7281L35.8473 44.8569ZM66.7475 42.4292C66.7475 41.4839 66.59 40.6245 66.2749 39.8511C65.9741 39.0776 65.573 38.4045 65.0717 37.8315C64.5704 37.2586 63.9832 36.8218 63.31 36.521C62.6368 36.2059 61.9493 36.0483 61.2475 36.0483C60.5457 36.0483 59.8582 36.2059 59.185 36.521C58.5118 36.8218 57.9246 37.2586 57.4233 37.8315C56.922 38.4045 56.5138 39.0848 56.1987 39.8726C55.8979 40.646 55.7475 41.4982 55.7475 42.4292C55.7475 43.3745 55.8979 44.2339 56.1987 45.0073C56.5138 45.7808 56.922 46.4539 57.4233 47.0269C57.9246 47.5998 58.5118 48.0438 59.185 48.3589C59.8582 48.6597 60.5457 48.8101 61.2475 48.8101C61.9493 48.8101 62.6368 48.6597 63.31 48.3589C63.9832 48.0438 64.5704 47.5998 65.0717 47.0269C65.573 46.4539 65.9741 45.7808 66.2749 45.0073C66.59 44.2339 66.7475 43.3745 66.7475 42.4292ZM70.7006 42.4292C70.7006 43.9188 70.4572 45.2866 69.9702 46.5327C69.4975 47.7645 68.8243 48.8315 67.9506 49.7339C67.0913 50.6219 66.0887 51.3166 64.9428 51.8179C63.797 52.3049 62.5652 52.5483 61.2475 52.5483C59.9298 52.5483 58.698 52.3049 57.5522 51.8179C56.4064 51.3166 55.3966 50.6219 54.5229 49.7339C53.6635 48.8315 52.9904 47.7645 52.5034 46.5327C52.0307 45.3009 51.7944 43.9331 51.7944 42.4292C51.7944 40.9396 52.0307 39.5789 52.5034 38.3472C52.9904 37.1154 53.6635 36.0555 54.5229 35.1675C55.3966 34.2651 56.4064 33.5633 57.5522 33.062C58.698 32.5607 59.9298 32.3101 61.2475 32.3101C62.5652 32.3101 63.797 32.5607 64.9428 33.062C66.0887 33.5633 67.0913 34.2651 67.9506 35.1675C68.8243 36.0555 69.4975 37.1154 69.9702 38.3472C70.4572 39.5789 70.7006 40.9396 70.7006 42.4292ZM92.1478 45.0718C91.9186 46.1317 91.5534 47.12 91.0521 48.0366C90.5508 48.939 89.9134 49.7267 89.14 50.3999C88.3809 51.0731 87.5072 51.603 86.5189 51.9897C85.5449 52.3621 84.485 52.5483 83.3392 52.5483C82.0215 52.5483 80.7897 52.3049 79.6439 51.8179C78.498 51.3166 77.4883 50.6219 76.6146 49.7339C75.7552 48.8315 75.082 47.7645 74.595 46.5327C74.1224 45.3009 73.8861 43.9331 73.8861 42.4292C73.8861 40.9396 74.1224 39.5789 74.595 38.3472C75.082 37.1154 75.7552 36.0555 76.6146 35.1675C77.4883 34.2651 78.498 33.5633 79.6439 33.062C80.7897 32.5607 82.0215 32.3101 83.3392 32.3101C84.485 32.3101 85.5449 32.5034 86.5189 32.8901C87.5072 33.2625 88.3809 33.7925 89.14 34.48C89.9134 35.1532 90.5436 35.9481 91.0306 36.8647C91.5319 37.7671 91.9043 38.741 92.1478 39.7866H87.9583C87.6289 38.6694 87.0846 37.7671 86.3255 37.0796C85.5664 36.3921 84.571 36.0483 83.3392 36.0483C82.6374 36.0483 81.9499 36.2059 81.2767 36.521C80.6035 36.8218 80.0163 37.2586 79.515 37.8315C79.0137 38.4045 78.6055 39.0848 78.2904 39.8726C77.9896 40.646 77.8392 41.4982 77.8392 42.4292C77.8392 43.3745 77.9896 44.2339 78.2904 45.0073C78.6055 45.7808 79.0137 46.4539 79.515 47.0269C80.0163 47.5998 80.6035 48.0438 81.2767 48.3589C81.9499 48.6597 82.6374 48.8101 83.3392 48.8101C84.571 48.8101 85.5664 48.4663 86.3255 47.7788C87.099 47.0913 87.6432 46.189 87.9583 45.0718H92.1478ZM108.095 52.3335L100.382 42.8804V52.3335H96.4289V32.5249H100.382V41.1187L107.214 32.5249H111.833L104.142 41.7632L112.929 52.3335H108.095ZM122.903 32.3101C124.049 32.3101 125.095 32.4963 126.04 32.8687C127 33.2267 127.816 33.7209 128.489 34.3511C129.162 34.9813 129.685 35.7261 130.058 36.5854C130.43 37.4305 130.616 38.3543 130.616 39.3569V52.3335H127.759L126.878 50.3569C126.491 50.7723 126.033 51.1375 125.503 51.4526C125.03 51.7391 124.436 51.9969 123.72 52.2261C123.004 52.4409 122.144 52.5483 121.142 52.5483C118.936 52.5483 117.246 52.0041 116.071 50.9155C114.911 49.8127 114.331 48.3804 114.331 46.6187C114.331 45.616 114.517 44.7137 114.89 43.9116C115.276 43.0952 115.928 42.4077 116.845 41.8491C117.776 41.2762 119.029 40.8322 120.605 40.5171C122.194 40.1877 124.207 40.0229 126.642 40.0229V39.3569C126.642 38.3543 126.327 37.5522 125.696 36.9507C125.066 36.3491 124.135 36.0483 122.903 36.0483C121.586 36.0483 120.626 36.2847 120.024 36.7573C119.423 37.23 119.065 37.8029 118.95 38.4761H114.997C115.112 36.7144 115.849 35.2463 117.21 34.0718C118.571 32.8973 120.468 32.3101 122.903 32.3101ZM121.378 49.0249C123.054 49.0249 124.35 48.5952 125.267 47.7358C126.183 46.8765 126.642 45.8309 126.642 44.5991V43.5249C124.88 43.5249 123.455 43.6108 122.366 43.7827C121.292 43.9403 120.447 44.1623 119.831 44.4487C119.215 44.7209 118.8 45.0646 118.585 45.48C118.385 45.881 118.284 46.3322 118.284 46.8335C118.284 47.3921 118.549 47.9006 119.079 48.3589C119.609 48.8029 120.375 49.0249 121.378 49.0249ZM156.259 42.2144C156.76 42.4722 157.197 42.8088 157.569 43.2241C157.899 43.5822 158.207 44.0262 158.493 44.5562C158.794 45.0718 158.944 45.6877 158.944 46.4038C158.944 48.1655 158.307 49.6336 157.032 50.8081C155.772 51.9683 153.988 52.5483 151.682 52.5483C149.248 52.5483 147.421 51.9754 146.204 50.8296C144.986 49.6838 144.313 48.0581 144.184 45.9526H148.159C148.274 46.8263 148.61 47.521 149.169 48.0366C149.727 48.5522 150.565 48.8101 151.682 48.8101C152.914 48.8101 153.802 48.5809 154.346 48.1226C154.905 47.6499 155.184 47.077 155.184 46.4038C155.184 45.7306 154.905 45.1577 154.346 44.6851C153.802 44.2124 152.914 43.9761 151.682 43.9761H149.921V40.4526H151.682C152.8 40.4526 153.587 40.2306 154.046 39.7866C154.518 39.3283 154.755 38.8198 154.755 38.2612C154.755 37.7026 154.518 37.1942 154.046 36.7358C153.573 36.2775 152.785 36.0483 151.682 36.0483C150.68 36.0483 149.906 36.2847 149.362 36.7573C148.818 37.23 148.488 37.8029 148.374 38.4761H144.421C144.535 36.5998 145.194 35.103 146.397 33.9858C147.6 32.8687 149.362 32.3101 151.682 32.3101C152.742 32.3101 153.688 32.4676 154.518 32.7827C155.349 33.0835 156.058 33.506 156.645 34.0503C157.233 34.5946 157.684 35.2248 157.999 35.9409C158.328 36.6571 158.493 37.4305 158.493 38.2612C158.493 38.9344 158.371 39.5216 158.128 40.0229C157.899 40.5099 157.641 40.9181 157.354 41.2476C157.039 41.6343 156.674 41.9565 156.259 42.2144ZM170.917 32.3101C172.062 32.3101 173.108 32.4963 174.053 32.8687C175.013 33.2267 175.829 33.7209 176.503 34.3511C177.176 34.9813 177.699 35.7261 178.071 36.5854C178.443 37.4305 178.63 38.3543 178.63 39.3569V52.3335H175.772L174.891 50.3569C174.505 50.7723 174.046 51.1375 173.516 51.4526C173.044 51.7391 172.449 51.9969 171.733 52.2261C171.017 52.4409 170.158 52.5483 169.155 52.5483C166.949 52.5483 165.259 52.0041 164.085 50.9155C162.924 49.8127 162.344 48.3804 162.344 46.6187C162.344 45.616 162.531 44.7137 162.903 43.9116C163.29 43.0952 163.941 42.4077 164.858 41.8491C165.789 41.2762 167.042 40.8322 168.618 40.5171C170.208 40.1877 172.22 40.0229 174.655 40.0229V39.3569C174.655 38.3543 174.34 37.5522 173.71 36.9507C173.079 36.3491 172.148 36.0483 170.917 36.0483C169.599 36.0483 168.639 36.2847 168.038 36.7573C167.436 37.23 167.078 37.8029 166.964 38.4761H163.01C163.125 36.7144 163.863 35.2463 165.223 34.0718C166.584 32.8973 168.482 32.3101 170.917 32.3101ZM169.391 49.0249C171.067 49.0249 172.363 48.5952 173.28 47.7358C174.197 46.8765 174.655 45.8309 174.655 44.5991V43.5249C172.893 43.5249 171.468 43.6108 170.38 43.7827C169.305 43.9403 168.46 44.1623 167.844 44.4487C167.229 44.7209 166.813 45.0646 166.598 45.48C166.398 45.881 166.298 46.3322 166.298 46.8335C166.298 47.3921 166.562 47.9006 167.092 48.3589C167.622 48.8029 168.389 49.0249 169.391 49.0249ZM193.008 52.3335L187.723 41.3335V52.3335H183.77V32.5249H187.293L194.319 47.0483L201.366 32.5249H204.889V52.3335H200.936V41.3335L195.651 52.3335H193.008ZM227.411 46.6187C227.081 47.4351 226.666 48.2013 226.164 48.9175C225.663 49.6336 225.062 50.2638 224.36 50.8081C223.658 51.3524 222.842 51.7821 221.911 52.0972C220.994 52.3979 219.963 52.5483 218.817 52.5483C217.499 52.5483 216.267 52.3049 215.121 51.8179C213.976 51.3166 212.973 50.6219 212.114 49.7339C211.254 48.8315 210.581 47.7645 210.094 46.5327C209.607 45.3009 209.364 43.9331 209.364 42.4292C209.364 40.9396 209.607 39.5789 210.094 38.3472C210.581 37.1154 211.24 36.0555 212.071 35.1675C212.901 34.2651 213.883 33.5633 215.014 33.062C216.146 32.5607 217.342 32.3101 218.602 32.3101C219.862 32.3101 221.058 32.5607 222.19 33.062C223.321 33.5633 224.302 34.2651 225.133 35.1675C225.964 36.0555 226.623 37.1154 227.11 38.3472C227.597 39.5789 227.84 40.9396 227.84 42.4292C227.84 42.6584 227.826 42.8875 227.797 43.1167C227.769 43.3315 227.74 43.5177 227.711 43.6753C227.683 43.8758 227.654 44.0477 227.625 44.1909H213.532C213.589 44.8068 213.768 45.394 214.069 45.9526C214.37 46.5112 214.742 47.0054 215.186 47.4351C215.644 47.8504 216.189 48.187 216.819 48.4448C217.449 48.6883 218.115 48.8101 218.817 48.8101C220.02 48.8101 220.972 48.5522 221.674 48.0366C222.39 47.521 222.906 47.0483 223.221 46.6187H227.411ZM218.602 36.0483C217.284 36.0483 216.167 36.4995 215.25 37.4019C214.348 38.2899 213.775 39.4572 213.532 40.9038H224.102C223.873 39.4715 223.286 38.3042 222.34 37.4019C221.409 36.4995 220.163 36.0483 218.602 36.0483ZM229.93 32.5249H246.194V36.2632H240.049V52.3335H236.074V36.2632H229.93V32.5249ZM263.043 42.4292C263.043 41.4839 262.886 40.6245 262.57 39.8511C262.27 39.0776 261.869 38.4045 261.367 37.8315C260.866 37.2586 260.279 36.8218 259.606 36.521C258.932 36.2059 258.245 36.0483 257.543 36.0483C256.841 36.0483 256.154 36.2059 255.481 36.521C254.807 36.8218 254.22 37.2586 253.719 37.8315C253.218 38.4045 252.809 39.0848 252.494 39.8726C252.193 40.646 252.043 41.4982 252.043 42.4292C252.043 43.3745 252.193 44.2339 252.494 45.0073C252.809 45.7808 253.218 46.4539 253.719 47.0269C254.22 47.5998 254.807 48.0438 255.481 48.3589C256.154 48.6597 256.841 48.8101 257.543 48.8101C258.245 48.8101 258.932 48.6597 259.606 48.3589C260.279 48.0438 260.866 47.5998 261.367 47.0269C261.869 46.4539 262.27 45.7808 262.57 45.0073C262.886 44.2339 263.043 43.3745 263.043 42.4292ZM266.996 42.4292C266.996 43.9188 266.753 45.2866 266.266 46.5327C265.793 47.7645 265.12 48.8315 264.246 49.7339C263.387 50.6219 262.384 51.3166 261.238 51.8179C260.093 52.3049 258.861 52.5483 257.543 52.5483C256.225 52.5483 254.994 52.3049 253.848 51.8179C252.702 51.3166 251.692 50.6219 250.818 49.7339C249.959 48.8315 249.286 47.7645 248.799 46.5327C248.326 45.3009 248.09 43.9331 248.09 42.4292C248.09 40.9396 248.326 39.5789 248.799 38.3472C249.286 37.1154 249.959 36.0555 250.818 35.1675C251.692 34.2651 252.702 33.5633 253.848 33.062C254.994 32.5607 256.225 32.3101 257.543 32.3101C258.861 32.3101 260.093 32.5607 261.238 33.062C262.384 33.5633 263.387 34.2651 264.246 35.1675C265.12 36.0555 265.793 37.1154 266.266 38.3472C266.753 39.5789 266.996 40.9396 266.996 42.4292ZM283.158 52.3335L275.445 42.8804V52.3335H271.492V32.5249H275.445V41.1187L282.277 32.5249H286.896L279.205 41.7632L287.992 52.3335H283.158Z" fill="black"/>
</svg>
