<svg width="407" height="89" viewBox="0 0 407 89" fill="none" xmlns="http://www.w3.org/2000/svg">
<rect x="0.0410156" width="406" height="88.6667" rx="18.3333" fill="#3F8AE0"/>
<path d="M41.3867 42.2144C41.888 42.4722 42.3249 42.8088 42.6973 43.2241C43.0267 43.5822 43.3346 44.0262 43.6211 44.5562C43.9219 45.0718 44.0723 45.6877 44.0723 46.4038C44.0723 48.1655 43.4349 49.6336 42.1602 50.8081C40.8997 51.9683 39.1165 52.5483 36.8105 52.5483C34.3757 52.5483 32.5495 51.9754 31.332 50.8296C30.1146 49.6838 29.4414 48.0581 29.3125 45.9526H33.2871C33.4017 46.8263 33.7383 47.521 34.2969 48.0366C34.8555 48.5522 35.6934 48.8101 36.8105 48.8101C38.0423 48.8101 38.9303 48.5809 39.4746 48.1226C40.0332 47.6499 40.3125 47.077 40.3125 46.4038C40.3125 45.7306 40.0332 45.1577 39.4746 44.6851C38.9303 44.2124 38.0423 43.9761 36.8105 43.9761H35.0488V40.4526H36.8105C37.9277 40.4526 38.7155 40.2306 39.1738 39.7866C39.6465 39.3283 39.8828 38.8198 39.8828 38.2612C39.8828 37.7026 39.6465 37.1942 39.1738 36.7358C38.7012 36.2775 37.9134 36.0483 36.8105 36.0483C35.8079 36.0483 35.0345 36.2847 34.4902 36.7573C33.946 37.23 33.6165 37.8029 33.502 38.4761H29.5488C29.6634 36.5998 30.3223 35.103 31.5254 33.9858C32.7285 32.8687 34.4902 32.3101 36.8105 32.3101C37.8704 32.3101 38.8158 32.4676 39.6465 32.7827C40.4772 33.0835 41.1862 33.506 41.7734 34.0503C42.3607 34.5946 42.8118 35.2248 43.127 35.9409C43.4564 36.6571 43.6211 37.4305 43.6211 38.2612C43.6211 38.9344 43.4993 39.5216 43.2559 40.0229C43.0267 40.5099 42.7689 40.9181 42.4824 41.2476C42.1673 41.6343 41.8021 41.9565 41.3867 42.2144ZM61.3299 41.9995C61.8599 42.2573 62.3326 42.6082 62.7479 43.0522C63.106 43.439 63.4354 43.9259 63.7362 44.5132C64.037 45.0861 64.1874 45.7879 64.1874 46.6187C64.1874 47.4351 64.037 48.1942 63.7362 48.896C63.4497 49.5978 63.0487 50.1994 62.5331 50.7007C62.0318 51.202 61.4087 51.603 60.6639 51.9038C59.9335 52.1903 59.1314 52.3335 58.2577 52.3335H48.3534V32.5249H57.5917C58.4654 32.5249 59.2674 32.6681 59.9979 32.9546C60.7427 33.2267 61.3658 33.6134 61.8671 34.1147C62.3827 34.616 62.7837 35.2033 63.0702 35.8765C63.371 36.5496 63.5214 37.2658 63.5214 38.0249C63.5214 38.7554 63.4068 39.3641 63.1776 39.8511C62.9484 40.3381 62.6978 40.7463 62.4257 41.0757C62.1105 41.4338 61.7453 41.7417 61.3299 41.9995ZM52.3065 35.8335V40.6675H57.1405C57.8137 40.6675 58.3866 40.4383 58.8592 39.98C59.3319 39.5073 59.5682 38.9344 59.5682 38.2612C59.5682 37.5881 59.3319 37.0151 58.8592 36.5425C58.4009 36.0698 57.828 35.8335 57.1405 35.8335H52.3065ZM57.8065 49.0249C58.4797 49.0249 59.0526 48.7814 59.5253 48.2944C59.9979 47.7931 60.2342 47.1629 60.2342 46.4038C60.2342 45.7306 59.9979 45.1577 59.5253 44.6851C59.0526 44.2124 58.4797 43.9761 57.8065 43.9761H52.3065V49.0249H57.8065ZM66.2556 32.5249H70.4451L75.9451 46.8335L81.4451 32.5249H85.6345L77.2556 53.644C76.8116 54.7612 76.3747 55.6922 75.9451 56.437C75.5297 57.1961 75.0714 57.8049 74.5701 58.2632C74.0831 58.7358 73.5388 59.0724 72.9372 59.2729C72.3357 59.4878 71.6553 59.5952 70.8962 59.5952C70.7243 59.5952 70.5596 59.5881 70.4021 59.5737C70.2589 59.5594 70.1156 59.5379 69.9724 59.5093C69.8292 59.4806 69.6931 59.4377 69.5642 59.3804V56.0718C70.6814 56.0718 71.5264 55.8354 72.0993 55.3628C72.6723 54.9045 73.0733 54.3315 73.3025 53.644L73.9685 51.6675L66.2556 32.5249ZM100.679 52.3335L92.9664 42.8804V52.3335H89.0133V32.5249H92.9664V41.1187L99.7984 32.5249H104.418L96.7262 41.7632L105.513 52.3335H100.679ZM121.224 42.4292C121.224 41.4839 121.067 40.6245 120.751 39.8511C120.451 39.0776 120.05 38.4045 119.548 37.8315C119.047 37.2586 118.46 36.8218 117.787 36.521C117.113 36.2059 116.426 36.0483 115.724 36.0483C115.022 36.0483 114.335 36.2059 113.662 36.521C112.988 36.8218 112.401 37.2586 111.9 37.8315C111.399 38.4045 110.99 39.0848 110.675 39.8726C110.374 40.646 110.224 41.4982 110.224 42.4292C110.224 43.3745 110.374 44.2339 110.675 45.0073C110.99 45.7808 111.399 46.4539 111.9 47.0269C112.401 47.5998 112.988 48.0438 113.662 48.3589C114.335 48.6597 115.022 48.8101 115.724 48.8101C116.426 48.8101 117.113 48.6597 117.787 48.3589C118.46 48.0438 119.047 47.5998 119.548 47.0269C120.05 46.4539 120.451 45.7808 120.751 45.0073C121.067 44.2339 121.224 43.3745 121.224 42.4292ZM125.177 42.4292C125.177 43.9188 124.934 45.2866 124.447 46.5327C123.974 47.7645 123.301 48.8315 122.427 49.7339C121.568 50.6219 120.565 51.3166 119.419 51.8179C118.274 52.3049 117.042 52.5483 115.724 52.5483C114.406 52.5483 113.175 52.3049 112.029 51.8179C110.883 51.3166 109.873 50.6219 108.999 49.7339C108.14 48.8315 107.467 47.7645 106.98 46.5327C106.507 45.3009 106.271 43.9331 106.271 42.4292C106.271 40.9396 106.507 39.5789 106.98 38.3472C107.467 37.1154 108.14 36.0555 108.999 35.1675C109.873 34.2651 110.883 33.5633 112.029 33.062C113.175 32.5607 114.406 32.3101 115.724 32.3101C117.042 32.3101 118.274 32.5607 119.419 33.062C120.565 33.5633 121.568 34.2651 122.427 35.1675C123.301 36.0555 123.974 37.1154 124.447 38.3472C124.934 39.5789 125.177 40.9396 125.177 42.4292ZM142.435 41.9995C142.965 42.2573 143.438 42.6082 143.853 43.0522C144.211 43.439 144.54 43.9259 144.841 44.5132C145.142 45.0861 145.292 45.7879 145.292 46.6187C145.292 47.4351 145.142 48.1942 144.841 48.896C144.555 49.5978 144.154 50.1994 143.638 50.7007C143.137 51.202 142.514 51.603 141.769 51.9038C141.038 52.1903 140.236 52.3335 139.363 52.3335H129.458V32.5249H138.697C139.57 32.5249 140.372 32.6681 141.103 32.9546C141.848 33.2267 142.471 33.6134 142.972 34.1147C143.488 34.616 143.889 35.2033 144.175 35.8765C144.476 36.5496 144.626 37.2658 144.626 38.0249C144.626 38.7554 144.512 39.3641 144.283 39.8511C144.053 40.3381 143.803 40.7463 143.531 41.0757C143.215 41.4338 142.85 41.7417 142.435 41.9995ZM133.411 35.8335V40.6675H138.245C138.919 40.6675 139.492 40.4383 139.964 39.98C140.437 39.5073 140.673 38.9344 140.673 38.2612C140.673 37.5881 140.437 37.0151 139.964 36.5425C139.506 36.0698 138.933 35.8335 138.245 35.8335H133.411ZM138.911 49.0249C139.585 49.0249 140.158 48.7814 140.63 48.2944C141.103 47.7931 141.339 47.1629 141.339 46.4038C141.339 45.7306 141.103 45.1577 140.63 44.6851C140.158 44.2124 139.585 43.9761 138.911 43.9761H133.411V49.0249H138.911ZM171.359 32.5249V52.3335H167.384V32.5249H171.359ZM157.931 39.1421C158.933 39.1421 159.85 39.314 160.681 39.6577C161.512 39.9871 162.228 40.4455 162.829 41.0327C163.431 41.62 163.896 42.3146 164.226 43.1167C164.57 43.9188 164.741 44.7925 164.741 45.7378C164.741 46.6831 164.57 47.5568 164.226 48.3589C163.896 49.161 163.431 49.8556 162.829 50.4429C162.228 51.0301 161.512 51.4956 160.681 51.8394C159.85 52.1688 158.933 52.3335 157.931 52.3335H149.573V32.5249H153.527V39.1421H157.931ZM157.931 48.5952C158.69 48.5952 159.356 48.3088 159.929 47.7358C160.502 47.1629 160.788 46.4969 160.788 45.7378C160.788 44.9787 160.502 44.3127 159.929 43.7397C159.356 43.1668 158.69 42.8804 157.931 42.8804H153.527V48.5952H157.931ZM193.901 46.6187C193.572 47.4351 193.157 48.2013 192.655 48.9175C192.154 49.6336 191.552 50.2638 190.851 50.8081C190.149 51.3524 189.332 51.7821 188.401 52.0972C187.485 52.3979 186.454 52.5483 185.308 52.5483C183.99 52.5483 182.758 52.3049 181.612 51.8179C180.467 51.3166 179.464 50.6219 178.605 49.7339C177.745 48.8315 177.072 47.7645 176.585 46.5327C176.098 45.3009 175.855 43.9331 175.855 42.4292C175.855 40.9396 176.098 39.5789 176.585 38.3472C177.072 37.1154 177.731 36.0555 178.562 35.1675C179.392 34.2651 180.373 33.5633 181.505 33.062C182.636 32.5607 183.832 32.3101 185.093 32.3101C186.353 32.3101 187.549 32.5607 188.681 33.062C189.812 33.5633 190.793 34.2651 191.624 35.1675C192.455 36.0555 193.114 37.1154 193.601 38.3472C194.088 39.5789 194.331 40.9396 194.331 42.4292C194.331 42.6584 194.317 42.8875 194.288 43.1167C194.26 43.3315 194.231 43.5177 194.202 43.6753C194.174 43.8758 194.145 44.0477 194.116 44.1909H180.023C180.08 44.8068 180.259 45.394 180.56 45.9526C180.86 46.5112 181.233 47.0054 181.677 47.4351C182.135 47.8504 182.679 48.187 183.31 48.4448C183.94 48.6883 184.606 48.8101 185.308 48.8101C186.511 48.8101 187.463 48.5522 188.165 48.0366C188.881 47.521 189.397 47.0483 189.712 46.6187H193.901ZM185.093 36.0483C183.775 36.0483 182.658 36.4995 181.741 37.4019C180.839 38.2899 180.266 39.4572 180.023 40.9038H190.593C190.364 39.4715 189.776 38.3042 188.831 37.4019C187.9 36.4995 186.654 36.0483 185.093 36.0483ZM215.634 32.3101C216.951 32.3101 218.183 32.5607 219.329 33.062C220.475 33.5633 221.477 34.2651 222.337 35.1675C223.21 36.0555 223.884 37.1154 224.356 38.3472C224.843 39.5789 225.087 40.9396 225.087 42.4292C225.087 43.9188 224.843 45.2866 224.356 46.5327C223.884 47.7645 223.21 48.8315 222.337 49.7339C221.477 50.6219 220.475 51.3166 219.329 51.8179C218.183 52.3049 216.951 52.5483 215.634 52.5483C214.488 52.5483 213.421 52.3621 212.432 51.9897C211.458 51.603 210.592 51.0874 209.833 50.4429C209.088 49.7983 208.479 49.0535 208.007 48.2085C207.548 47.3491 207.226 46.4539 207.04 45.5229H211.229C211.458 46.3966 211.938 47.1629 212.669 47.8218C213.414 48.4806 214.402 48.8101 215.634 48.8101C216.278 48.8101 216.901 48.6883 217.503 48.4448C218.104 48.187 218.634 47.8504 219.093 47.4351C219.565 47.0054 219.952 46.5112 220.253 45.9526C220.568 45.394 220.79 44.8068 220.919 44.1909H214.302V40.9038H220.919C220.804 40.2593 220.589 39.6434 220.274 39.0562C219.959 38.4689 219.565 37.9533 219.093 37.5093C218.634 37.0653 218.104 36.7144 217.503 36.4565C216.901 36.1844 216.278 36.0483 215.634 36.0483C214.402 36.0483 213.414 36.3778 212.669 37.0366C211.938 37.6955 211.458 38.4689 211.229 39.3569H207.04C207.212 38.4116 207.534 37.5164 208.007 36.6714C208.479 35.8263 209.088 35.0815 209.833 34.437C210.592 33.7782 211.458 33.2625 212.432 32.8901C213.421 32.5034 214.488 32.3101 215.634 32.3101ZM241.227 24.6187H245.18V33.6421C245.538 33.4129 245.932 33.1909 246.362 32.9761C246.749 32.8328 247.193 32.6896 247.694 32.5464C248.195 32.3888 248.754 32.3101 249.37 32.3101C250.516 32.3101 251.618 32.5607 252.678 33.062C253.753 33.5633 254.691 34.2651 255.493 35.1675C256.309 36.0555 256.954 37.1154 257.426 38.3472C257.913 39.5789 258.157 40.9396 258.157 42.4292C258.157 43.9188 257.913 45.2866 257.426 46.5327C256.954 47.7645 256.309 48.8315 255.493 49.7339C254.691 50.6219 253.753 51.3166 252.678 51.8179C251.618 52.3049 250.516 52.5483 249.37 52.5483C248.754 52.5483 248.195 52.4839 247.694 52.355C247.193 52.2261 246.749 52.0757 246.362 51.9038C245.918 51.7319 245.524 51.5099 245.18 51.2378V59.3804H241.227V51.2378C240.869 51.4956 240.475 51.7176 240.046 51.9038C239.659 52.0757 239.208 52.2261 238.692 52.355C238.176 52.4839 237.625 52.5483 237.038 52.5483C235.892 52.5483 234.782 52.3049 233.708 51.8179C232.648 51.3166 231.71 50.6219 230.893 49.7339C230.091 48.8315 229.447 47.7645 228.96 46.5327C228.487 45.3009 228.251 43.9331 228.251 42.4292C228.251 40.9396 228.487 39.5789 228.96 38.3472C229.447 37.1154 230.091 36.0555 230.893 35.1675C231.71 34.2651 232.648 33.5633 233.708 33.062C234.782 32.5607 235.892 32.3101 237.038 32.3101C237.625 32.3101 238.176 32.3888 238.692 32.5464C239.208 32.6896 239.659 32.8328 240.046 32.9761C240.49 33.1766 240.883 33.3986 241.227 33.6421V24.6187ZM241.227 37.8101C240.898 37.4806 240.547 37.187 240.174 36.9292C239.845 36.7 239.451 36.4995 238.993 36.3276C238.549 36.1414 238.048 36.0483 237.489 36.0483C236.787 36.0483 236.107 36.1987 235.448 36.4995C234.803 36.786 234.238 37.2085 233.751 37.7671C233.278 38.3257 232.898 38.9989 232.612 39.7866C232.34 40.5601 232.204 41.4409 232.204 42.4292C232.204 43.4318 232.34 44.327 232.612 45.1147C232.898 45.9025 233.278 46.5685 233.751 47.1128C234.238 47.6571 234.803 48.0796 235.448 48.3804C236.107 48.6668 236.787 48.8101 237.489 48.8101C238.048 48.8101 238.549 48.7241 238.993 48.5522C239.451 48.3804 239.845 48.1727 240.174 47.9292C240.561 47.6714 240.912 47.3778 241.227 47.0483V37.8101ZM245.18 47.0483C245.51 47.3778 245.861 47.6714 246.233 47.9292C246.563 48.1584 246.949 48.366 247.393 48.5522C247.852 48.7241 248.36 48.8101 248.919 48.8101C249.62 48.8101 250.294 48.6668 250.938 48.3804C251.597 48.0796 252.163 47.6571 252.635 47.1128C253.122 46.5685 253.502 45.9025 253.774 45.1147C254.061 44.327 254.204 43.4318 254.204 42.4292C254.204 41.4266 254.061 40.5386 253.774 39.7651C253.502 38.9917 253.122 38.3257 252.635 37.7671C252.163 37.2085 251.597 36.786 250.938 36.4995C250.294 36.1987 249.62 36.0483 248.919 36.0483C248.36 36.0483 247.852 36.1414 247.393 36.3276C246.949 36.4995 246.563 36.7 246.233 36.9292C245.846 37.187 245.495 37.4806 245.18 37.8101V47.0483ZM274.319 24.6187H278.272V33.6421C278.63 33.4129 279.024 33.1909 279.454 32.9761C279.84 32.8328 280.284 32.6896 280.786 32.5464C281.287 32.3888 281.846 32.3101 282.461 32.3101C283.607 32.3101 284.71 32.5607 285.77 33.062C286.844 33.5633 287.782 34.2651 288.585 35.1675C289.401 36.0555 290.045 37.1154 290.518 38.3472C291.005 39.5789 291.249 40.9396 291.249 42.4292C291.249 43.9188 291.005 45.2866 290.518 46.5327C290.045 47.7645 289.401 48.8315 288.585 49.7339C287.782 50.6219 286.844 51.3166 285.77 51.8179C284.71 52.3049 283.607 52.5483 282.461 52.5483C281.846 52.5483 281.287 52.4839 280.786 52.355C280.284 52.2261 279.84 52.0757 279.454 51.9038C279.01 51.7319 278.616 51.5099 278.272 51.2378V59.3804H274.319V51.2378C273.961 51.4956 273.567 51.7176 273.137 51.9038C272.751 52.0757 272.299 52.2261 271.784 52.355C271.268 52.4839 270.717 52.5483 270.129 52.5483C268.984 52.5483 267.874 52.3049 266.799 51.8179C265.739 51.3166 264.801 50.6219 263.985 49.7339C263.183 48.8315 262.538 47.7645 262.051 46.5327C261.579 45.3009 261.342 43.9331 261.342 42.4292C261.342 40.9396 261.579 39.5789 262.051 38.3472C262.538 37.1154 263.183 36.0555 263.985 35.1675C264.801 34.2651 265.739 33.5633 266.799 33.062C267.874 32.5607 268.984 32.3101 270.129 32.3101C270.717 32.3101 271.268 32.3888 271.784 32.5464C272.299 32.6896 272.751 32.8328 273.137 32.9761C273.581 33.1766 273.975 33.3986 274.319 33.6421V24.6187ZM274.319 37.8101C273.989 37.4806 273.639 37.187 273.266 36.9292C272.937 36.7 272.543 36.4995 272.085 36.3276C271.64 36.1414 271.139 36.0483 270.581 36.0483C269.879 36.0483 269.198 36.1987 268.54 36.4995C267.895 36.786 267.329 37.2085 266.842 37.7671C266.37 38.3257 265.99 38.9989 265.704 39.7866C265.432 40.5601 265.295 41.4409 265.295 42.4292C265.295 43.4318 265.432 44.327 265.704 45.1147C265.99 45.9025 266.37 46.5685 266.842 47.1128C267.329 47.6571 267.895 48.0796 268.54 48.3804C269.198 48.6668 269.879 48.8101 270.581 48.8101C271.139 48.8101 271.64 48.7241 272.085 48.5522C272.543 48.3804 272.937 48.1727 273.266 47.9292C273.653 47.6714 274.004 47.3778 274.319 47.0483V37.8101ZM278.272 47.0483C278.601 47.3778 278.952 47.6714 279.325 47.9292C279.654 48.1584 280.041 48.366 280.485 48.5522C280.943 48.7241 281.452 48.8101 282.01 48.8101C282.712 48.8101 283.385 48.6668 284.03 48.3804C284.689 48.0796 285.254 47.6571 285.727 47.1128C286.214 46.5685 286.594 45.9025 286.866 45.1147C287.152 44.327 287.295 43.4318 287.295 42.4292C287.295 41.4266 287.152 40.5386 286.866 39.7651C286.594 38.9917 286.214 38.3257 285.727 37.7671C285.254 37.2085 284.689 36.786 284.03 36.4995C283.385 36.1987 282.712 36.0483 282.01 36.0483C281.452 36.0483 280.943 36.1414 280.485 36.3276C280.041 36.4995 279.654 36.7 279.325 36.9292C278.938 37.187 278.587 37.4806 278.272 37.8101V47.0483ZM312.696 46.6187C312.366 47.4351 311.951 48.2013 311.45 48.9175C310.948 49.6336 310.347 50.2638 309.645 50.8081C308.943 51.3524 308.127 51.7821 307.196 52.0972C306.279 52.3979 305.248 52.5483 304.102 52.5483C302.784 52.5483 301.552 52.3049 300.407 51.8179C299.261 51.3166 298.258 50.6219 297.399 49.7339C296.539 48.8315 295.866 47.7645 295.379 46.5327C294.892 45.3009 294.649 43.9331 294.649 42.4292C294.649 40.9396 294.892 39.5789 295.379 38.3472C295.866 37.1154 296.525 36.0555 297.356 35.1675C298.187 34.2651 299.168 33.5633 300.299 33.062C301.431 32.5607 302.627 32.3101 303.887 32.3101C305.148 32.3101 306.343 32.5607 307.475 33.062C308.607 33.5633 309.588 34.2651 310.418 35.1675C311.249 36.0555 311.908 37.1154 312.395 38.3472C312.882 39.5789 313.125 40.9396 313.125 42.4292C313.125 42.6584 313.111 42.8875 313.082 43.1167C313.054 43.3315 313.025 43.5177 312.996 43.6753C312.968 43.8758 312.939 44.0477 312.911 44.1909H298.817C298.874 44.8068 299.053 45.394 299.354 45.9526C299.655 46.5112 300.027 47.0054 300.471 47.4351C300.929 47.8504 301.474 48.187 302.104 48.4448C302.734 48.6883 303.4 48.8101 304.102 48.8101C305.305 48.8101 306.258 48.5522 306.959 48.0366C307.676 47.521 308.191 47.0483 308.506 46.6187H312.696ZM303.887 36.0483C302.569 36.0483 301.452 36.4995 300.536 37.4019C299.633 38.2899 299.06 39.4572 298.817 40.9038H309.387C309.158 39.4715 308.571 38.3042 307.625 37.4019C306.694 36.4995 305.448 36.0483 303.887 36.0483ZM329.287 52.3335L321.574 42.8804V52.3335H317.621V32.5249H321.574V41.1187L328.407 32.5249H333.026L325.334 41.7632L334.121 52.3335H329.287ZM334.428 32.5249H350.692V36.2632H344.547V52.3335H340.572V36.2632H334.428V32.5249ZM375.898 32.5249V52.3335H371.924V32.5249H375.898ZM362.471 39.1421C363.473 39.1421 364.39 39.314 365.221 39.6577C366.051 39.9871 366.768 40.4455 367.369 41.0327C367.971 41.62 368.436 42.3146 368.766 43.1167C369.109 43.9188 369.281 44.7925 369.281 45.7378C369.281 46.6831 369.109 47.5568 368.766 48.3589C368.436 49.161 367.971 49.8556 367.369 50.4429C366.768 51.0301 366.051 51.4956 365.221 51.8394C364.39 52.1688 363.473 52.3335 362.471 52.3335H354.113V32.5249H358.066V39.1421H362.471ZM362.471 48.5952C363.23 48.5952 363.896 48.3088 364.469 47.7358C365.042 47.1629 365.328 46.4969 365.328 45.7378C365.328 44.9787 365.042 44.3127 364.469 43.7397C363.896 43.1668 363.23 42.8804 362.471 42.8804H358.066V48.5952H362.471Z" fill="white"/>
</svg>
