<svg width="716" height="225" viewBox="0 0 716 225" fill="none" xmlns="http://www.w3.org/2000/svg">
<path d="M34.4062 15.9844V52H27.2188V26.8047L9.99219 52H2.80469V15.9844H9.99219V41.2188L27.2188 15.9844H34.4062ZM34.4062 95.9844V132H27.2188V102.781H9.99219V132H2.80469V95.9844H34.4062ZM61.4641 95.5938C63.8599 95.5938 66.0995 96.0495 68.1828 96.9609C70.2661 97.8724 72.0891 99.1484 73.6516 100.789C75.2401 102.404 76.4771 104.331 77.3625 106.57C78.2479 108.81 78.6906 111.284 78.6906 113.992C78.6906 116.701 78.2479 119.188 77.3625 121.453C76.4771 123.693 75.2401 125.633 73.6516 127.273C72.0891 128.888 70.2661 130.151 68.1828 131.062C66.0995 131.948 63.8599 132.391 61.4641 132.391C59.7453 132.391 58.274 132.195 57.05 131.805C55.826 131.414 54.7974 130.945 53.9641 130.398C53.0005 129.799 52.1672 129.135 51.4641 128.406V144.812H44.2766V95.9844H49.4719L51.0734 99.6172C51.7766 98.862 52.5969 98.1849 53.5344 97.5859C54.3937 97.1172 55.4745 96.6745 56.7766 96.2578C58.0786 95.8151 59.6411 95.5938 61.4641 95.5938ZM61.0734 125.594C62.4536 125.594 63.7687 125.32 65.0187 124.773C66.2687 124.201 67.3755 123.393 68.3391 122.352C69.3026 121.31 70.0578 120.086 70.6047 118.68C71.1776 117.273 71.4641 115.711 71.4641 113.992C71.4641 112.273 71.1776 110.711 70.6047 109.305C70.0578 107.898 69.3026 106.674 68.3391 105.633C67.3755 104.591 66.2687 103.797 65.0187 103.25C63.7687 102.677 62.4536 102.391 61.0734 102.391C59.6932 102.391 58.3651 102.677 57.0891 103.25C55.8391 103.797 54.7323 104.591 53.7687 105.633C52.8312 106.674 52.076 107.911 51.5031 109.344C50.9562 110.75 50.6828 112.299 50.6828 113.992C50.6828 115.711 50.9562 117.273 51.5031 118.68C52.076 120.086 52.8312 121.31 53.7687 122.352C54.7323 123.393 55.8391 124.201 57.0891 124.773C58.3651 125.32 59.6932 125.594 61.0734 125.594ZM111.803 113.992C111.803 112.273 111.517 110.711 110.944 109.305C110.397 107.898 109.668 106.674 108.756 105.633C107.845 104.591 106.777 103.797 105.553 103.25C104.329 102.677 103.079 102.391 101.803 102.391C100.527 102.391 99.2771 102.677 98.0531 103.25C96.8292 103.797 95.7615 104.591 94.85 105.633C93.9385 106.674 93.1964 107.911 92.6234 109.344C92.0766 110.75 91.8031 112.299 91.8031 113.992C91.8031 115.711 92.0766 117.273 92.6234 118.68C93.1964 120.086 93.9385 121.31 94.85 122.352C95.7615 123.393 96.8292 124.201 98.0531 124.773C99.2771 125.32 100.527 125.594 101.803 125.594C103.079 125.594 104.329 125.32 105.553 124.773C106.777 124.201 107.845 123.393 108.756 122.352C109.668 121.31 110.397 120.086 110.944 118.68C111.517 117.273 111.803 115.711 111.803 113.992ZM118.991 113.992C118.991 116.701 118.548 119.188 117.662 121.453C116.803 123.693 115.579 125.633 113.991 127.273C112.428 128.888 110.605 130.151 108.522 131.062C106.439 131.948 104.199 132.391 101.803 132.391C99.4073 132.391 97.1677 131.948 95.0844 131.062C93.001 130.151 91.1651 128.888 89.5766 127.273C88.0141 125.633 86.7901 123.693 85.9047 121.453C85.0453 119.214 84.6156 116.727 84.6156 113.992C84.6156 111.284 85.0453 108.81 85.9047 106.57C86.7901 104.331 88.0141 102.404 89.5766 100.789C91.1651 99.1484 93.001 97.8724 95.0844 96.9609C97.1677 96.0495 99.4073 95.5938 101.803 95.5938C104.199 95.5938 106.439 96.0495 108.522 96.9609C110.605 97.8724 112.428 99.1484 113.991 100.789C115.579 102.404 116.803 104.331 117.662 106.57C118.548 108.81 118.991 111.284 118.991 113.992ZM170.502 140.398V132H126.908V95.9844H134.095V125.203H146.088V95.9844H153.314V125.203H165.306V95.9844H172.494V125.203H177.298V140.398H170.502ZM197.598 95.5938C199.682 95.5938 201.583 95.9323 203.302 96.6094C205.046 97.2604 206.531 98.1589 207.755 99.3047C208.979 100.451 209.929 101.805 210.606 103.367C211.283 104.904 211.622 106.583 211.622 108.406V132H206.427L204.825 128.406C204.122 129.161 203.289 129.826 202.325 130.398C201.466 130.919 200.385 131.388 199.083 131.805C197.781 132.195 196.218 132.391 194.395 132.391C190.385 132.391 187.312 131.401 185.177 129.422C183.067 127.417 182.012 124.812 182.012 121.609C182.012 119.786 182.351 118.146 183.028 116.688C183.731 115.203 184.916 113.953 186.583 112.938C188.276 111.896 190.554 111.089 193.419 110.516C196.309 109.917 199.968 109.617 204.395 109.617V108.406C204.395 106.583 203.822 105.125 202.677 104.031C201.531 102.938 199.838 102.391 197.598 102.391C195.203 102.391 193.458 102.82 192.364 103.68C191.27 104.539 190.619 105.581 190.411 106.805H183.223C183.432 103.602 184.773 100.932 187.247 98.7969C189.721 96.6615 193.171 95.5938 197.598 95.5938ZM194.825 125.984C197.872 125.984 200.229 125.203 201.895 123.641C203.562 122.078 204.395 120.177 204.395 117.938V115.984C201.192 115.984 198.601 116.141 196.622 116.453C194.669 116.74 193.132 117.143 192.012 117.664C190.893 118.159 190.137 118.784 189.747 119.539C189.382 120.268 189.2 121.089 189.2 122C189.2 123.016 189.682 123.94 190.645 124.773C191.609 125.581 193.002 125.984 194.825 125.984ZM216.727 95.9844H246.297V102.781H235.125V132H227.898V102.781H216.727V95.9844ZM268.628 108.016C270.451 108.016 272.118 108.328 273.628 108.953C275.165 109.552 276.48 110.385 277.573 111.453C278.667 112.521 279.514 113.784 280.113 115.242C280.738 116.701 281.05 118.289 281.05 120.008C281.05 121.727 280.738 123.315 280.113 124.773C279.514 126.232 278.667 127.495 277.573 128.562C276.48 129.63 275.165 130.477 273.628 131.102C272.118 131.701 270.451 132 268.628 132H252.652V95.9844H259.839V108.016H268.628ZM268.628 125.203C270.008 125.203 271.219 124.682 272.261 123.641C273.329 122.599 273.863 121.388 273.863 120.008C273.863 118.628 273.342 117.417 272.3 116.375C271.258 115.333 270.034 114.812 268.628 114.812H259.839V125.203H268.628ZM319.397 118.797C318.98 120.724 318.316 122.521 317.405 124.188C316.493 125.828 315.334 127.26 313.928 128.484C312.548 129.708 310.959 130.672 309.163 131.375C307.392 132.052 305.465 132.391 303.381 132.391C300.985 132.391 298.746 131.948 296.663 131.062C294.579 130.151 292.743 128.888 291.155 127.273C289.592 125.633 288.368 123.693 287.483 121.453C286.623 119.214 286.194 116.727 286.194 113.992C286.194 111.284 286.623 108.81 287.483 106.57C288.368 104.331 289.592 102.404 291.155 100.789C292.743 99.1484 294.579 97.8724 296.663 96.9609C298.746 96.0495 300.985 95.5938 303.381 95.5938C305.465 95.5938 307.392 95.9453 309.163 96.6484C310.959 97.3255 312.548 98.2891 313.928 99.5391C315.334 100.763 316.48 102.208 317.366 103.875C318.277 105.516 318.954 107.286 319.397 109.188H311.78C311.181 107.156 310.191 105.516 308.811 104.266C307.431 103.016 305.621 102.391 303.381 102.391C302.105 102.391 300.855 102.677 299.631 103.25C298.407 103.797 297.34 104.591 296.428 105.633C295.517 106.674 294.774 107.911 294.202 109.344C293.655 110.75 293.381 112.299 293.381 113.992C293.381 115.711 293.655 117.273 294.202 118.68C294.774 120.086 295.517 121.31 296.428 122.352C297.34 123.393 298.407 124.201 299.631 124.773C300.855 125.32 302.105 125.594 303.381 125.594C305.621 125.594 307.431 124.969 308.811 123.719C310.217 122.469 311.207 120.828 311.78 118.797H319.397ZM354.502 95.9844V132H347.314V120.008H340.127L332.509 132H324.502L332.9 118.797C331.52 118.276 330.322 117.534 329.306 116.57C328.395 115.711 327.561 114.604 326.806 113.25C326.077 111.896 325.712 110.151 325.712 108.016C325.712 106.297 326.012 104.708 326.611 103.25C327.236 101.766 328.095 100.503 329.189 99.4609C330.283 98.3932 331.585 97.5469 333.095 96.9219C334.632 96.2969 336.311 95.9844 338.134 95.9844H354.502ZM338.134 102.781C336.754 102.781 335.53 103.302 334.462 104.344C333.421 105.385 332.9 106.609 332.9 108.016C332.9 109.396 333.421 110.607 334.462 111.648C335.504 112.69 336.728 113.211 338.134 113.211H347.314V102.781H338.134ZM413.5 118.797C413.083 120.724 412.419 122.521 411.508 124.188C410.596 125.828 409.438 127.26 408.031 128.484C406.651 129.708 405.062 130.672 403.266 131.375C401.495 132.052 399.568 132.391 397.484 132.391C395.089 132.391 392.849 131.948 390.766 131.062C388.682 130.151 386.846 128.888 385.258 127.273C383.695 125.633 382.471 123.693 381.586 121.453C380.727 119.214 380.297 116.727 380.297 113.992C380.297 111.284 380.727 108.81 381.586 106.57C382.471 104.331 383.695 102.404 385.258 100.789C386.846 99.1484 388.682 97.8724 390.766 96.9609C392.849 96.0495 395.089 95.5938 397.484 95.5938C399.568 95.5938 401.495 95.9453 403.266 96.6484C405.062 97.3255 406.651 98.2891 408.031 99.5391C409.438 100.763 410.583 102.208 411.469 103.875C412.38 105.516 413.057 107.286 413.5 109.188H405.883C405.284 107.156 404.294 105.516 402.914 104.266C401.534 103.016 399.724 102.391 397.484 102.391C396.208 102.391 394.958 102.677 393.734 103.25C392.51 103.797 391.443 104.591 390.531 105.633C389.62 106.674 388.878 107.911 388.305 109.344C387.758 110.75 387.484 112.299 387.484 113.992C387.484 115.711 387.758 117.273 388.305 118.68C388.878 120.086 389.62 121.31 390.531 122.352C391.443 123.393 392.51 124.201 393.734 124.773C394.958 125.32 396.208 125.594 397.484 125.594C399.724 125.594 401.534 124.969 402.914 123.719C404.32 122.469 405.31 120.828 405.883 118.797H413.5ZM445.441 113.992C445.441 112.273 445.154 110.711 444.581 109.305C444.034 107.898 443.305 106.674 442.394 105.633C441.482 104.591 440.415 103.797 439.191 103.25C437.967 102.677 436.717 102.391 435.441 102.391C434.165 102.391 432.915 102.677 431.691 103.25C430.467 103.797 429.399 104.591 428.487 105.633C427.576 106.674 426.834 107.911 426.261 109.344C425.714 110.75 425.441 112.299 425.441 113.992C425.441 115.711 425.714 117.273 426.261 118.68C426.834 120.086 427.576 121.31 428.487 122.352C429.399 123.393 430.467 124.201 431.691 124.773C432.915 125.32 434.165 125.594 435.441 125.594C436.717 125.594 437.967 125.32 439.191 124.773C440.415 124.201 441.482 123.393 442.394 122.352C443.305 121.31 444.034 120.086 444.581 118.68C445.154 117.273 445.441 115.711 445.441 113.992ZM452.628 113.992C452.628 116.701 452.185 119.188 451.3 121.453C450.441 123.693 449.217 125.633 447.628 127.273C446.066 128.888 444.243 130.151 442.159 131.062C440.076 131.948 437.836 132.391 435.441 132.391C433.045 132.391 430.805 131.948 428.722 131.062C426.639 130.151 424.803 128.888 423.214 127.273C421.652 125.633 420.428 123.693 419.542 121.453C418.683 119.214 418.253 116.727 418.253 113.992C418.253 111.284 418.683 108.81 419.542 106.57C420.428 104.331 421.652 102.404 423.214 100.789C424.803 99.1484 426.639 97.8724 428.722 96.9609C430.805 96.0495 433.045 95.5938 435.441 95.5938C437.836 95.5938 440.076 96.0495 442.159 96.9609C444.243 97.8724 446.066 99.1484 447.628 100.789C449.217 102.404 450.441 104.331 451.3 106.57C452.185 108.81 452.628 111.284 452.628 113.992ZM509.634 118.797C509.218 120.724 508.554 122.521 507.642 124.188C506.731 125.828 505.572 127.26 504.166 128.484C502.785 129.708 501.197 130.672 499.4 131.375C497.629 132.052 495.702 132.391 493.619 132.391C491.223 132.391 488.983 131.948 486.9 131.062C484.817 130.151 482.981 128.888 481.392 127.273C479.83 125.633 478.606 123.693 477.72 121.453C476.861 119.214 476.431 116.727 476.431 113.992C476.431 111.284 476.861 108.81 477.72 106.57C478.606 104.331 479.83 102.404 481.392 100.789C482.981 99.1484 484.817 97.8724 486.9 96.9609C488.983 96.0495 491.223 95.5938 493.619 95.5938C495.702 95.5938 497.629 95.9453 499.4 96.6484C501.197 97.3255 502.785 98.2891 504.166 99.5391C505.572 100.763 506.718 102.208 507.603 103.875C508.515 105.516 509.192 107.286 509.634 109.188H502.017C501.418 107.156 500.429 105.516 499.048 104.266C497.668 103.016 495.858 102.391 493.619 102.391C492.343 102.391 491.093 102.677 489.869 103.25C488.645 103.797 487.577 104.591 486.666 105.633C485.754 106.674 485.012 107.911 484.439 109.344C483.892 110.75 483.619 112.299 483.619 113.992C483.619 115.711 483.892 117.273 484.439 118.68C485.012 120.086 485.754 121.31 486.666 122.352C487.577 123.393 488.645 124.201 489.869 124.773C491.093 125.32 492.343 125.594 493.619 125.594C495.858 125.594 497.668 124.969 499.048 123.719C500.455 122.469 501.444 120.828 502.017 118.797H509.634ZM540.755 113.211C541.718 113.68 542.578 114.318 543.333 115.125C543.984 115.828 544.583 116.714 545.13 117.781C545.677 118.823 545.95 120.099 545.95 121.609C545.95 123.094 545.677 124.474 545.13 125.75C544.609 127.026 543.88 128.12 542.942 129.031C542.031 129.943 540.898 130.672 539.544 131.219C538.216 131.74 536.757 132 535.169 132H517.161V95.9844H533.958C535.546 95.9844 537.005 96.2448 538.333 96.7656C539.687 97.2604 540.82 97.9635 541.731 98.875C542.669 99.7865 543.398 100.854 543.919 102.078C544.466 103.302 544.739 104.604 544.739 105.984C544.739 107.312 544.531 108.419 544.114 109.305C543.697 110.19 543.242 110.932 542.747 111.531C542.174 112.182 541.51 112.742 540.755 113.211ZM524.348 102V110.789H533.138C534.361 110.789 535.403 110.372 536.263 109.539C537.122 108.68 537.552 107.638 537.552 106.414C537.552 105.19 537.122 104.148 536.263 103.289C535.429 102.43 534.388 102 533.138 102H524.348ZM534.348 125.984C535.572 125.984 536.614 125.542 537.473 124.656C538.333 123.745 538.763 122.599 538.763 121.219C538.763 119.995 538.333 118.953 537.473 118.094C536.614 117.234 535.572 116.805 534.348 116.805H524.348V125.984H534.348ZM579.062 113.992C579.062 112.273 578.776 110.711 578.203 109.305C577.656 107.898 576.927 106.674 576.016 105.633C575.104 104.591 574.036 103.797 572.812 103.25C571.589 102.677 570.339 102.391 569.062 102.391C567.786 102.391 566.536 102.677 565.312 103.25C564.089 103.797 563.021 104.591 562.109 105.633C561.198 106.674 560.456 107.911 559.883 109.344C559.336 110.75 559.062 112.299 559.062 113.992C559.062 115.711 559.336 117.273 559.883 118.68C560.456 120.086 561.198 121.31 562.109 122.352C563.021 123.393 564.089 124.201 565.312 124.773C566.536 125.32 567.786 125.594 569.062 125.594C570.339 125.594 571.589 125.32 572.812 124.773C574.036 124.201 575.104 123.393 576.016 122.352C576.927 121.31 577.656 120.086 578.203 118.68C578.776 117.273 579.062 115.711 579.062 113.992ZM586.25 113.992C586.25 116.701 585.807 119.188 584.922 121.453C584.062 123.693 582.839 125.633 581.25 127.273C579.688 128.888 577.865 130.151 575.781 131.062C573.698 131.948 571.458 132.391 569.062 132.391C566.667 132.391 564.427 131.948 562.344 131.062C560.26 130.151 558.424 128.888 556.836 127.273C555.273 125.633 554.049 123.693 553.164 121.453C552.305 119.214 551.875 116.727 551.875 113.992C551.875 111.284 552.305 108.81 553.164 106.57C554.049 104.331 555.273 102.404 556.836 100.789C558.424 99.1484 560.26 97.8724 562.344 96.9609C564.427 96.0495 566.667 95.5938 569.062 95.5938C571.458 95.5938 573.698 96.0495 575.781 96.9609C577.865 97.8724 579.688 99.1484 581.25 100.789C582.839 102.404 584.062 104.331 584.922 106.57C585.807 108.81 586.25 111.284 586.25 113.992ZM625.769 95.9844V132H618.581V106.805L601.355 132H594.167V95.9844H601.355V121.219L618.581 95.9844H625.769ZM652.436 132L642.827 112V132H635.639V95.9844H642.045L654.819 122.391L667.631 95.9844H674.037V132H666.85V112L657.241 132H652.436ZM715.509 95.9844V132H708.322V106.805L691.095 132H683.908V95.9844H691.095V121.219L708.322 95.9844H715.509ZM22.3359 193.602C23.2474 194.07 24.0417 194.682 24.7188 195.438C25.3177 196.089 25.8776 196.896 26.3984 197.859C26.9453 198.797 27.2188 199.917 27.2188 201.219C27.2188 204.422 26.0599 207.091 23.7422 209.227C21.4505 211.336 18.2083 212.391 14.0156 212.391C9.58854 212.391 6.26823 211.349 4.05469 209.266C1.84115 207.182 0.617188 204.227 0.382812 200.398H7.60938C7.81771 201.987 8.42969 203.25 9.44531 204.188C10.4609 205.125 11.9844 205.594 14.0156 205.594C16.2552 205.594 17.8698 205.177 18.8594 204.344C19.875 203.484 20.3828 202.443 20.3828 201.219C20.3828 199.995 19.875 198.953 18.8594 198.094C17.8698 197.234 16.2552 196.805 14.0156 196.805H10.8125V190.398H14.0156C16.0469 190.398 17.4792 189.995 18.3125 189.188C19.1719 188.354 19.6016 187.43 19.6016 186.414C19.6016 185.398 19.1719 184.474 18.3125 183.641C17.4531 182.807 16.0208 182.391 14.0156 182.391C12.1927 182.391 10.7865 182.82 9.79688 183.68C8.80729 184.539 8.20833 185.581 8 186.805H0.8125C1.02083 183.393 2.21875 180.672 4.40625 178.641C6.59375 176.609 9.79688 175.594 14.0156 175.594C15.9427 175.594 17.6615 175.88 19.1719 176.453C20.6823 177 21.9714 177.768 23.0391 178.758C24.1068 179.747 24.9271 180.893 25.5 182.195C26.099 183.497 26.3984 184.904 26.3984 186.414C26.3984 187.638 26.1771 188.706 25.7344 189.617C25.3177 190.503 24.849 191.245 24.3281 191.844C23.7552 192.547 23.0911 193.133 22.3359 193.602ZM52.3234 175.594C54.7193 175.594 56.9589 176.049 59.0422 176.961C61.1255 177.872 62.9484 179.148 64.5109 180.789C66.0995 182.404 67.3365 184.331 68.2219 186.57C69.1073 188.81 69.55 191.284 69.55 193.992C69.55 196.701 69.1073 199.188 68.2219 201.453C67.3365 203.693 66.0995 205.633 64.5109 207.273C62.9484 208.888 61.1255 210.151 59.0422 211.062C56.9589 211.948 54.7193 212.391 52.3234 212.391C50.6047 212.391 49.1333 212.195 47.9094 211.805C46.6854 211.414 45.6568 210.945 44.8234 210.398C43.8599 209.799 43.0266 209.135 42.3234 208.406V224.812H35.1359V175.984H40.3312L41.9328 179.617C42.6359 178.862 43.4562 178.185 44.3937 177.586C45.2531 177.117 46.3339 176.674 47.6359 176.258C48.938 175.815 50.5005 175.594 52.3234 175.594ZM51.9328 205.594C53.313 205.594 54.6281 205.32 55.8781 204.773C57.1281 204.201 58.2349 203.393 59.1984 202.352C60.162 201.31 60.9172 200.086 61.4641 198.68C62.037 197.273 62.3234 195.711 62.3234 193.992C62.3234 192.273 62.037 190.711 61.4641 189.305C60.9172 187.898 60.162 186.674 59.1984 185.633C58.2349 184.591 57.1281 183.797 55.8781 183.25C54.6281 182.677 53.313 182.391 51.9328 182.391C50.5526 182.391 49.2245 182.677 47.9484 183.25C46.6984 183.797 45.5917 184.591 44.6281 185.633C43.6906 186.674 42.9354 187.911 42.3625 189.344C41.8156 190.75 41.5422 192.299 41.5422 193.992C41.5422 195.711 41.8156 197.273 42.3625 198.68C42.9354 200.086 43.6906 201.31 44.6281 202.352C45.5917 203.393 46.6984 204.201 47.9484 204.773C49.2245 205.32 50.5526 205.594 51.9328 205.594ZM109.069 175.984V212H101.881V186.805L84.6547 212H77.4672V175.984H84.6547V201.219L101.881 175.984H109.069ZM115.345 175.984H144.916V182.781H133.744V212H126.517V182.781H115.345V175.984ZM181.7 201.609C181.101 203.094 180.346 204.487 179.434 205.789C178.523 207.091 177.429 208.237 176.153 209.227C174.877 210.216 173.393 210.997 171.7 211.57C170.033 212.117 168.158 212.391 166.075 212.391C163.679 212.391 161.44 211.948 159.356 211.062C157.273 210.151 155.45 208.888 153.887 207.273C152.325 205.633 151.101 203.693 150.216 201.453C149.33 199.214 148.887 196.727 148.887 193.992C148.887 191.284 149.33 188.81 150.216 186.57C151.101 184.331 152.299 182.404 153.809 180.789C155.32 179.148 157.104 177.872 159.161 176.961C161.218 176.049 163.393 175.594 165.684 175.594C167.976 175.594 170.151 176.049 172.208 176.961C174.265 177.872 176.049 179.148 177.559 180.789C179.07 182.404 180.268 184.331 181.153 186.57C182.039 188.81 182.481 191.284 182.481 193.992C182.481 194.409 182.455 194.826 182.403 195.242C182.351 195.633 182.299 195.971 182.247 196.258C182.195 196.622 182.143 196.935 182.091 197.195H156.466C156.57 198.315 156.895 199.383 157.442 200.398C157.989 201.414 158.666 202.312 159.473 203.094C160.307 203.849 161.296 204.461 162.442 204.93C163.588 205.372 164.799 205.594 166.075 205.594C168.262 205.594 169.994 205.125 171.27 204.188C172.572 203.25 173.51 202.391 174.083 201.609H181.7ZM165.684 182.391C163.289 182.391 161.257 183.211 159.591 184.852C157.95 186.466 156.908 188.589 156.466 191.219H175.684C175.268 188.615 174.2 186.492 172.481 184.852C170.789 183.211 168.523 182.391 165.684 182.391ZM219.617 175.984V212H212.391V182.781H200.398L199.188 200.008C198.927 204.018 197.781 207.091 195.75 209.227C193.745 211.336 191.023 212.391 187.586 212.391C187.273 212.391 186.987 212.378 186.727 212.352C186.466 212.326 186.193 212.286 185.906 212.234C185.646 212.182 185.411 212.104 185.203 212V205.984H185.984C189.656 205.984 191.661 203.992 192 200.008L193.992 175.984H219.617ZM257.105 175.984V212H249.917V200.008H242.73L235.113 212H227.105L235.503 198.797C234.123 198.276 232.925 197.534 231.909 196.57C230.998 195.711 230.165 194.604 229.409 193.25C228.68 191.896 228.316 190.151 228.316 188.016C228.316 186.297 228.615 184.708 229.214 183.25C229.839 181.766 230.698 180.503 231.792 179.461C232.886 178.393 234.188 177.547 235.698 176.922C237.235 176.297 238.915 175.984 240.738 175.984H257.105ZM240.738 182.781C239.357 182.781 238.133 183.302 237.066 184.344C236.024 185.385 235.503 186.609 235.503 188.016C235.503 189.396 236.024 190.607 237.066 191.648C238.107 192.69 239.331 193.211 240.738 193.211H249.917V182.781H240.738ZM283.811 212L274.202 192V212H267.014V175.984H273.42L286.194 202.391L299.006 175.984H305.413V212H298.225V192L288.616 212H283.811ZM346.884 175.984V212H339.697V186.805L322.47 212H315.283V175.984H322.47V201.219L339.697 175.984H346.884Z" fill="black"/>
<path d="M93.7562 15.9844V52H86.5687V37.1953H69.3422V52H62.1547V15.9844H69.3422V30.3984H86.5687V15.9844H93.7562ZM134.838 41.6094C134.239 43.0938 133.483 44.487 132.572 45.7891C131.66 47.0911 130.567 48.237 129.291 49.2266C128.015 50.2161 126.53 50.9974 124.838 51.5703C123.171 52.1172 121.296 52.3906 119.213 52.3906C116.817 52.3906 114.577 51.9479 112.494 51.0625C110.41 50.151 108.588 48.888 107.025 47.2734C105.463 45.6328 104.239 43.6927 103.353 41.4531C102.468 39.2135 102.025 36.7266 102.025 33.9922C102.025 31.2839 102.468 28.8099 103.353 26.5703C104.239 24.3307 105.436 22.4036 106.947 20.7891C108.457 19.1484 110.241 17.8724 112.298 16.9609C114.356 16.0495 116.53 15.5938 118.822 15.5938C121.114 15.5938 123.288 16.0495 125.345 16.9609C127.403 17.8724 129.186 19.1484 130.697 20.7891C132.207 22.4036 133.405 24.3307 134.291 26.5703C135.176 28.8099 135.619 31.2839 135.619 33.9922C135.619 34.4089 135.593 34.8255 135.541 35.2422C135.489 35.6328 135.436 35.9714 135.384 36.2578C135.332 36.6224 135.28 36.9349 135.228 37.1953H109.603C109.707 38.3151 110.033 39.3828 110.58 40.3984C111.127 41.4141 111.804 42.3125 112.611 43.0938C113.444 43.849 114.434 44.4609 115.58 44.9297C116.726 45.3724 117.936 45.5938 119.213 45.5938C121.4 45.5938 123.132 45.125 124.408 44.1875C125.71 43.25 126.647 42.3906 127.22 41.6094H134.838ZM118.822 22.3906C116.426 22.3906 114.395 23.2109 112.728 24.8516C111.088 26.4661 110.046 28.5885 109.603 31.2188H128.822C128.405 28.6146 127.338 26.4922 125.619 24.8516C123.926 23.2109 121.66 22.3906 118.822 22.3906ZM180.945 33.6016C181.857 34.0703 182.651 34.6823 183.328 35.4375C183.927 36.0885 184.487 36.8958 185.008 37.8594C185.555 38.7969 185.828 39.9167 185.828 41.2188C185.828 44.4219 184.669 47.0911 182.352 49.2266C180.06 51.3359 176.818 52.3906 172.625 52.3906C168.198 52.3906 164.878 51.349 162.664 49.2656C160.451 47.1823 159.227 44.2266 158.992 40.3984H166.219C166.427 41.987 167.039 43.25 168.055 44.1875C169.07 45.125 170.594 45.5938 172.625 45.5938C174.865 45.5938 176.479 45.1771 177.469 44.3438C178.484 43.4844 178.992 42.4427 178.992 41.2188C178.992 39.9948 178.484 38.9531 177.469 38.0938C176.479 37.2344 174.865 36.8047 172.625 36.8047H169.422V30.3984H172.625C174.656 30.3984 176.089 29.9948 176.922 29.1875C177.781 28.3542 178.211 27.4297 178.211 26.4141C178.211 25.3984 177.781 24.474 176.922 23.6406C176.062 22.8073 174.63 22.3906 172.625 22.3906C170.802 22.3906 169.396 22.8203 168.406 23.6797C167.417 24.5391 166.818 25.5807 166.609 26.8047H159.422C159.63 23.3932 160.828 20.6719 163.016 18.6406C165.203 16.6094 168.406 15.5938 172.625 15.5938C174.552 15.5938 176.271 15.8802 177.781 16.4531C179.292 17 180.581 17.7682 181.648 18.7578C182.716 19.7474 183.536 20.8932 184.109 22.1953C184.708 23.4974 185.008 24.9036 185.008 26.4141C185.008 27.638 184.786 28.7057 184.344 29.6172C183.927 30.5026 183.458 31.2448 182.938 31.8438C182.365 32.5469 181.701 33.1328 180.945 33.6016ZM207.73 15.5938C209.813 15.5938 211.714 15.9323 213.433 16.6094C215.178 17.2604 216.662 18.1589 217.886 19.3047C219.11 20.4505 220.06 21.8047 220.738 23.3672C221.415 24.9036 221.753 26.5833 221.753 28.4062V52H216.558L214.956 48.4062C214.253 49.1615 213.42 49.8255 212.456 50.3984C211.597 50.9193 210.516 51.388 209.214 51.8047C207.912 52.1953 206.349 52.3906 204.527 52.3906C200.516 52.3906 197.443 51.401 195.308 49.4219C193.198 47.4167 192.144 44.8125 192.144 41.6094C192.144 39.7865 192.482 38.1458 193.159 36.6875C193.863 35.2031 195.047 33.9531 196.714 32.9375C198.407 31.8958 200.685 31.0885 203.55 30.5156C206.441 29.9167 210.099 29.6172 214.527 29.6172V28.4062C214.527 26.5833 213.954 25.125 212.808 24.0312C211.662 22.9375 209.969 22.3906 207.73 22.3906C205.334 22.3906 203.589 22.8203 202.495 23.6797C201.402 24.5391 200.751 25.5807 200.542 26.8047H193.355C193.563 23.6016 194.904 20.9323 197.378 18.7969C199.852 16.6615 203.303 15.5938 207.73 15.5938ZM204.956 45.9844C208.003 45.9844 210.36 45.2031 212.027 43.6406C213.693 42.0781 214.527 40.1771 214.527 37.9375V35.9844C211.323 35.9844 208.732 36.1406 206.753 36.4531C204.8 36.7396 203.264 37.1432 202.144 37.6641C201.024 38.1589 200.269 38.7839 199.878 39.5391C199.514 40.2682 199.331 41.0885 199.331 42C199.331 43.0156 199.813 43.9401 200.777 44.7734C201.74 45.5807 203.133 45.9844 204.956 45.9844ZM248.03 17.1953C250.217 17.1953 252.314 17.651 254.319 18.5625C256.324 19.474 258.069 20.724 259.553 22.3125C261.038 23.875 262.222 25.724 263.108 27.8594C263.993 29.9688 264.436 32.2865 264.436 34.8125C264.436 37.3125 263.993 39.6302 263.108 41.7656C262.222 43.901 260.985 45.763 259.397 47.3516C257.834 48.9141 256.011 50.151 253.928 51.0625C251.871 51.9479 249.631 52.3906 247.209 52.3906C244.709 52.3906 242.392 51.9349 240.256 51.0234C238.121 50.0859 236.272 48.6667 234.709 46.7656C233.147 44.8646 231.91 42.5208 230.998 39.7344C230.087 36.9219 229.631 33.6797 229.631 30.0078C229.631 24.8255 230.152 20.4245 231.194 16.8047C232.235 13.1849 233.941 10.2292 236.311 7.9375C238.681 5.61979 241.793 3.90104 245.647 2.78125C249.527 1.66146 254.319 0.997396 260.022 0.789062V8.01562C255.699 8.11979 252.131 8.48438 249.319 9.10938C246.532 9.70833 244.293 10.6068 242.6 11.8047C240.933 13.0026 239.696 14.513 238.889 16.3359C238.108 18.1328 237.548 20.2812 237.209 22.7812C237.913 21.7656 238.772 20.8411 239.788 20.0078C240.699 19.3047 241.819 18.6667 243.147 18.0938C244.475 17.4948 246.103 17.1953 248.03 17.1953ZM247.209 45.5938C248.485 45.5938 249.735 45.3203 250.959 44.7734C252.209 44.2005 253.277 43.4193 254.163 42.4297C255.074 41.4401 255.803 40.2943 256.35 38.9922C256.923 37.6901 257.209 36.2969 257.209 34.8125C257.209 33.3281 256.923 31.9349 256.35 30.6328C255.803 29.3047 255.074 28.1458 254.163 27.1562C253.277 26.1667 252.222 25.3984 250.998 24.8516C249.774 24.2786 248.511 23.9922 247.209 23.9922C245.933 23.9922 244.683 24.2786 243.459 24.8516C242.235 25.3984 241.168 26.1667 240.256 27.1562C239.345 28.1458 238.603 29.2917 238.03 30.5938C237.483 31.8958 237.209 33.3021 237.209 34.8125C237.209 36.2969 237.483 37.6901 238.03 38.9922C238.603 40.2943 239.345 41.4401 240.256 42.4297C241.168 43.4193 242.235 44.2005 243.459 44.7734C244.683 45.3203 245.933 45.5938 247.209 45.5938ZM311.923 15.9844V52H304.697V15.9844H311.923ZM287.509 28.0156C289.332 28.0156 290.999 28.3281 292.509 28.9531C294.02 29.5521 295.322 30.3854 296.416 31.4531C297.509 32.5208 298.356 33.7839 298.955 35.2422C299.58 36.7005 299.892 38.2891 299.892 40.0078C299.892 41.7266 299.58 43.3151 298.955 44.7734C298.356 46.2318 297.509 47.4948 296.416 48.5625C295.322 49.6302 294.02 50.4766 292.509 51.1016C290.999 51.7005 289.332 52 287.509 52H272.314V15.9844H279.502V28.0156H287.509ZM287.509 45.2031C288.89 45.2031 290.101 44.6823 291.142 43.6406C292.184 42.599 292.705 41.388 292.705 40.0078C292.705 38.6276 292.184 37.4167 291.142 36.375C290.101 35.3333 288.89 34.8125 287.509 34.8125H279.502V45.2031H287.509ZM345.427 33.2109C346.39 33.6797 347.249 34.3177 348.005 35.125C348.656 35.8281 349.255 36.7135 349.802 37.7812C350.348 38.8229 350.622 40.099 350.622 41.6094C350.622 43.0938 350.348 44.474 349.802 45.75C349.281 47.026 348.552 48.1198 347.614 49.0312C346.703 49.9427 345.57 50.6719 344.216 51.2188C342.888 51.7396 341.429 52 339.841 52H321.833V15.9844H338.63C340.218 15.9844 341.677 16.2448 343.005 16.7656C344.359 17.2604 345.492 17.9635 346.403 18.875C347.341 19.7865 348.07 20.8542 348.591 22.0781C349.138 23.3021 349.411 24.6042 349.411 25.9844C349.411 27.3125 349.203 28.4193 348.786 29.3047C348.369 30.1901 347.914 30.9323 347.419 31.5312C346.846 32.1823 346.182 32.7422 345.427 33.2109ZM329.02 22V30.7891H337.809C339.033 30.7891 340.075 30.3724 340.934 29.5391C341.794 28.6797 342.223 27.638 342.223 26.4141C342.223 25.1901 341.794 24.1484 340.934 23.2891C340.101 22.4297 339.059 22 337.809 22H329.02ZM339.02 45.9844C340.244 45.9844 341.286 45.5417 342.145 44.6562C343.005 43.7448 343.434 42.599 343.434 41.2188C343.434 39.9948 343.005 38.9531 342.145 38.0938C341.286 37.2344 340.244 36.8047 339.02 36.8047H329.02V45.9844H339.02ZM372.523 15.5938C374.607 15.5938 376.508 15.9323 378.227 16.6094C379.971 17.2604 381.456 18.1589 382.68 19.3047C383.904 20.4505 384.854 21.8047 385.531 23.3672C386.208 24.9036 386.547 26.5833 386.547 28.4062V52H381.352L379.75 48.4062C379.047 49.1615 378.214 49.8255 377.25 50.3984C376.391 50.9193 375.31 51.388 374.008 51.8047C372.706 52.1953 371.143 52.3906 369.32 52.3906C365.31 52.3906 362.237 51.401 360.102 49.4219C357.992 47.4167 356.938 44.8125 356.938 41.6094C356.938 39.7865 357.276 38.1458 357.953 36.6875C358.656 35.2031 359.841 33.9531 361.508 32.9375C363.201 31.8958 365.479 31.0885 368.344 30.5156C371.234 29.9167 374.893 29.6172 379.32 29.6172V28.4062C379.32 26.5833 378.747 25.125 377.602 24.0312C376.456 22.9375 374.763 22.3906 372.523 22.3906C370.128 22.3906 368.383 22.8203 367.289 23.6797C366.195 24.5391 365.544 25.5807 365.336 26.8047H358.148C358.357 23.6016 359.698 20.9323 362.172 18.7969C364.646 16.6615 368.096 15.5938 372.523 15.5938ZM369.75 45.9844C372.797 45.9844 375.154 45.2031 376.82 43.6406C378.487 42.0781 379.32 40.1771 379.32 37.9375V35.9844C376.117 35.9844 373.526 36.1406 371.547 36.4531C369.594 36.7396 368.057 37.1432 366.938 37.6641C365.818 38.1589 365.062 38.7839 364.672 39.5391C364.307 40.2682 364.125 41.0885 364.125 42C364.125 43.0156 364.607 43.9401 365.57 44.7734C366.534 45.5807 367.927 45.9844 369.75 45.9844ZM427.628 15.9844V52H420.441V26.8047L403.214 52H396.027V15.9844H403.214V41.2188L420.441 15.9844H427.628ZM411.612 10.7891C408.774 10.7891 406.43 9.91667 404.581 8.17188C402.758 6.40104 401.639 4.21354 401.222 1.60938H406.808C407.016 2.83333 407.563 3.875 408.448 4.73438C409.334 5.56771 410.389 5.98438 411.612 5.98438C412.836 5.98438 413.891 5.56771 414.777 4.73438C415.662 3.875 416.209 2.83333 416.417 1.60938H422.003C421.586 4.21354 420.454 6.40104 418.605 8.17188C416.782 9.91667 414.451 10.7891 411.612 10.7891Z" fill="#3F8AE0"/>
</svg>
