<svg width="263" height="89" viewBox="0 0 263 89" fill="none" xmlns="http://www.w3.org/2000/svg">
<rect x="0.0410156" width="262" height="88.6667" rx="18.3333" fill="black"/>
<path d="M47.8819 32.5249V52.3335H43.9288V38.4761L34.4542 52.3335H30.501V32.5249H34.4542V46.4038L43.9288 32.5249H47.8819ZM70.6181 32.5249V52.3335H66.665V44.1909H57.1904V52.3335H53.2372V32.5249H57.1904V40.4526H66.665V32.5249H70.6181ZM73.9969 32.5249H90.2605V36.2632H84.116V52.3335H80.1414V36.2632H73.9969V32.5249ZM110.419 46.6187C110.089 47.4351 109.674 48.2013 109.173 48.9175C108.671 49.6336 108.07 50.2638 107.368 50.8081C106.666 51.3524 105.85 51.7821 104.919 52.0972C104.002 52.3979 102.971 52.5483 101.825 52.5483C100.507 52.5483 99.2754 52.3049 98.1296 51.8179C96.9837 51.3166 95.9811 50.6219 95.1217 49.7339C94.2624 48.8315 93.5892 47.7645 93.1022 46.5327C92.6152 45.3009 92.3717 43.9331 92.3717 42.4292C92.3717 40.9396 92.6152 39.5789 93.1022 38.3472C93.5892 37.1154 94.248 36.0555 95.0788 35.1675C95.9095 34.2651 96.8906 33.5633 98.0221 33.062C99.1536 32.5607 100.35 32.3101 101.61 32.3101C102.87 32.3101 104.066 32.5607 105.198 33.062C106.329 33.5633 107.311 34.2651 108.141 35.1675C108.972 36.0555 109.631 37.1154 110.118 38.3472C110.605 39.5789 110.848 40.9396 110.848 42.4292C110.848 42.6584 110.834 42.8875 110.805 43.1167C110.777 43.3315 110.748 43.5177 110.719 43.6753C110.691 43.8758 110.662 44.0477 110.633 44.1909H96.5397C96.597 44.8068 96.776 45.394 97.0768 45.9526C97.3776 46.5112 97.75 47.0054 98.194 47.4351C98.6523 47.8504 99.1966 48.187 99.8268 48.4448C100.457 48.6883 101.123 48.8101 101.825 48.8101C103.028 48.8101 103.98 48.5522 104.682 48.0366C105.398 47.521 105.914 47.0483 106.229 46.6187H110.419ZM101.61 36.0483C100.292 36.0483 99.1751 36.4995 98.2585 37.4019C97.3561 38.2899 96.7832 39.4572 96.5397 40.9038H107.11C106.881 39.4715 106.294 38.3042 105.348 37.4019C104.417 36.4995 103.171 36.0483 101.61 36.0483ZM124.583 32.3101C125.9 32.3101 127.132 32.5607 128.278 33.062C129.424 33.5633 130.426 34.2651 131.286 35.1675C132.159 36.0555 132.84 37.1154 133.327 38.3472C133.814 39.5789 134.057 40.9396 134.057 42.4292C134.057 43.9188 133.814 45.2866 133.327 46.5327C132.84 47.7645 132.159 48.8315 131.286 49.7339C130.426 50.6219 129.424 51.3166 128.278 51.8179C127.132 52.3049 125.9 52.5483 124.583 52.5483C123.637 52.5483 122.828 52.4409 122.155 52.2261C121.482 52.0112 120.916 51.7534 120.458 51.4526C119.928 51.1232 119.469 50.758 119.083 50.3569V59.3804H115.129V32.5249H117.987L118.868 34.5229C119.254 34.1076 119.706 33.7352 120.221 33.4058C120.694 33.1479 121.288 32.9045 122.004 32.6753C122.721 32.4318 123.58 32.3101 124.583 32.3101ZM124.368 48.8101C125.127 48.8101 125.85 48.6597 126.538 48.3589C127.225 48.0438 127.834 47.5998 128.364 47.0269C128.894 46.4539 129.309 45.7808 129.61 45.0073C129.925 44.2339 130.083 43.3745 130.083 42.4292C130.083 41.4839 129.925 40.6245 129.61 39.8511C129.309 39.0776 128.894 38.4045 128.364 37.8315C127.834 37.2586 127.225 36.8218 126.538 36.521C125.85 36.2059 125.127 36.0483 124.368 36.0483C123.609 36.0483 122.878 36.2059 122.176 36.521C121.489 36.8218 120.88 37.2586 120.35 37.8315C119.835 38.4045 119.419 39.0848 119.104 39.8726C118.803 40.646 118.653 41.4982 118.653 42.4292C118.653 43.3745 118.803 44.2339 119.104 45.0073C119.419 45.7808 119.835 46.4539 120.35 47.0269C120.88 47.5998 121.489 48.0438 122.176 48.3589C122.878 48.6597 123.609 48.8101 124.368 48.8101ZM150.219 24.6187H154.172V33.6421C154.53 33.4129 154.924 33.1909 155.354 32.9761C155.741 32.8328 156.185 32.6896 156.686 32.5464C157.187 32.3888 157.746 32.3101 158.362 32.3101C159.508 32.3101 160.61 32.5607 161.67 33.062C162.745 33.5633 163.683 34.2651 164.485 35.1675C165.301 36.0555 165.946 37.1154 166.418 38.3472C166.905 39.5789 167.149 40.9396 167.149 42.4292C167.149 43.9188 166.905 45.2866 166.418 46.5327C165.946 47.7645 165.301 48.8315 164.485 49.7339C163.683 50.6219 162.745 51.3166 161.67 51.8179C160.61 52.3049 159.508 52.5483 158.362 52.5483C157.746 52.5483 157.187 52.4839 156.686 52.355C156.185 52.2261 155.741 52.0757 155.354 51.9038C154.91 51.7319 154.516 51.5099 154.172 51.2378V59.3804H150.219V51.2378C149.861 51.4956 149.467 51.7176 149.037 51.9038C148.651 52.0757 148.2 52.2261 147.684 52.355C147.168 52.4839 146.617 52.5483 146.03 52.5483C144.884 52.5483 143.774 52.3049 142.7 51.8179C141.64 51.3166 140.702 50.6219 139.885 49.7339C139.083 48.8315 138.439 47.7645 137.952 46.5327C137.479 45.3009 137.243 43.9331 137.243 42.4292C137.243 40.9396 137.479 39.5789 137.952 38.3472C138.439 37.1154 139.083 36.0555 139.885 35.1675C140.702 34.2651 141.64 33.5633 142.7 33.062C143.774 32.5607 144.884 32.3101 146.03 32.3101C146.617 32.3101 147.168 32.3888 147.684 32.5464C148.2 32.6896 148.651 32.8328 149.037 32.9761C149.482 33.1766 149.875 33.3986 150.219 33.6421V24.6187ZM150.219 37.8101C149.89 37.4806 149.539 37.187 149.166 36.9292C148.837 36.7 148.443 36.4995 147.985 36.3276C147.541 36.1414 147.039 36.0483 146.481 36.0483C145.779 36.0483 145.099 36.1987 144.44 36.4995C143.795 36.786 143.23 37.2085 142.743 37.7671C142.27 38.3257 141.89 38.9989 141.604 39.7866C141.332 40.5601 141.196 41.4409 141.196 42.4292C141.196 43.4318 141.332 44.327 141.604 45.1147C141.89 45.9025 142.27 46.5685 142.743 47.1128C143.23 47.6571 143.795 48.0796 144.44 48.3804C145.099 48.6668 145.779 48.8101 146.481 48.8101C147.039 48.8101 147.541 48.7241 147.985 48.5522C148.443 48.3804 148.837 48.1727 149.166 47.9292C149.553 47.6714 149.904 47.3778 150.219 47.0483V37.8101ZM154.172 47.0483C154.502 47.3778 154.853 47.6714 155.225 47.9292C155.554 48.1584 155.941 48.366 156.385 48.5522C156.843 48.7241 157.352 48.8101 157.911 48.8101C158.612 48.8101 159.286 48.6668 159.93 48.3804C160.589 48.0796 161.155 47.6571 161.627 47.1128C162.114 46.5685 162.494 45.9025 162.766 45.1147C163.052 44.327 163.196 43.4318 163.196 42.4292C163.196 41.4266 163.052 40.5386 162.766 39.7651C162.494 38.9917 162.114 38.3257 161.627 37.7671C161.155 37.2085 160.589 36.786 159.93 36.4995C159.286 36.1987 158.612 36.0483 157.911 36.0483C157.352 36.0483 156.843 36.1414 156.385 36.3276C155.941 36.4995 155.554 36.7 155.225 36.9292C154.838 37.187 154.487 37.4806 154.172 37.8101V47.0483ZM188.596 46.6187C188.267 47.4351 187.851 48.2013 187.35 48.9175C186.849 49.6336 186.247 50.2638 185.545 50.8081C184.843 51.3524 184.027 51.7821 183.096 52.0972C182.179 52.3979 181.148 52.5483 180.002 52.5483C178.685 52.5483 177.453 52.3049 176.307 51.8179C175.161 51.3166 174.158 50.6219 173.299 49.7339C172.44 48.8315 171.767 47.7645 171.28 46.5327C170.793 45.3009 170.549 43.9331 170.549 42.4292C170.549 40.9396 170.793 39.5789 171.28 38.3472C171.767 37.1154 172.425 36.0555 173.256 35.1675C174.087 34.2651 175.068 33.5633 176.199 33.062C177.331 32.5607 178.527 32.3101 179.787 32.3101C181.048 32.3101 182.244 32.5607 183.375 33.062C184.507 33.5633 185.488 34.2651 186.319 35.1675C187.149 36.0555 187.808 37.1154 188.295 38.3472C188.782 39.5789 189.026 40.9396 189.026 42.4292C189.026 42.6584 189.011 42.8875 188.983 43.1167C188.954 43.3315 188.925 43.5177 188.897 43.6753C188.868 43.8758 188.839 44.0477 188.811 44.1909H174.717C174.774 44.8068 174.953 45.394 175.254 45.9526C175.555 46.5112 175.927 47.0054 176.371 47.4351C176.83 47.8504 177.374 48.187 178.004 48.4448C178.634 48.6883 179.3 48.8101 180.002 48.8101C181.205 48.8101 182.158 48.5522 182.86 48.0366C183.576 47.521 184.091 47.0483 184.407 46.6187H188.596ZM179.787 36.0483C178.47 36.0483 177.352 36.4995 176.436 37.4019C175.533 38.2899 174.961 39.4572 174.717 40.9038H185.287C185.058 39.4715 184.471 38.3042 183.526 37.4019C182.595 36.4995 181.349 36.0483 179.787 36.0483ZM210.688 32.5249V52.3335H206.734V38.4761L197.26 52.3335H193.307V32.5249H197.26V46.4038L206.734 32.5249H210.688ZM201.879 29.6675C200.318 29.6675 199.029 29.1877 198.012 28.228C197.009 27.2541 196.393 26.0509 196.164 24.6187H199.236C199.351 25.2918 199.652 25.8647 200.139 26.3374C200.626 26.7957 201.206 27.0249 201.879 27.0249C202.552 27.0249 203.132 26.7957 203.619 26.3374C204.106 25.8647 204.407 25.2918 204.522 24.6187H207.594C207.365 26.0509 206.742 27.2541 205.725 28.228C204.722 29.1877 203.44 29.6675 201.879 29.6675ZM233.209 45.0718C232.98 46.1317 232.615 47.12 232.113 48.0366C231.612 48.939 230.975 49.7267 230.201 50.3999C229.442 51.0731 228.568 51.603 227.58 51.9897C226.606 52.3621 225.546 52.5483 224.4 52.5483C223.083 52.5483 221.851 52.3049 220.705 51.8179C219.559 51.3166 218.549 50.6219 217.676 49.7339C216.816 48.8315 216.143 47.7645 215.656 46.5327C215.184 45.3009 214.947 43.9331 214.947 42.4292C214.947 40.9396 215.184 39.5789 215.656 38.3472C216.143 37.1154 216.816 36.0555 217.676 35.1675C218.549 34.2651 219.559 33.5633 220.705 33.062C221.851 32.5607 223.083 32.3101 224.4 32.3101C225.546 32.3101 226.606 32.5034 227.58 32.8901C228.568 33.2625 229.442 33.7925 230.201 34.48C230.975 35.1532 231.605 35.9481 232.092 36.8647C232.593 37.7671 232.965 38.741 233.209 39.7866H229.02C228.69 38.6694 228.146 37.7671 227.387 37.0796C226.628 36.3921 225.632 36.0483 224.4 36.0483C223.699 36.0483 223.011 36.2059 222.338 36.521C221.665 36.8218 221.077 37.2586 220.576 37.8315C220.075 38.4045 219.667 39.0848 219.352 39.8726C219.051 40.646 218.9 41.4982 218.9 42.4292C218.9 43.3745 219.051 44.2339 219.352 45.0073C219.667 45.7808 220.075 46.4539 220.576 47.0269C221.077 47.5998 221.665 48.0438 222.338 48.3589C223.011 48.6597 223.699 48.8101 224.4 48.8101C225.632 48.8101 226.628 48.4663 227.387 47.7788C228.16 47.0913 228.704 46.189 229.02 45.0718H233.209Z" fill="white"/>
</svg>
