<svg width="585" height="298" viewBox="0 0 585 298" fill="none" xmlns="http://www.w3.org/2000/svg">
<path d="M34.4688 181.984V218H27.2422V188.781H15.25L14.0391 206.008C13.7786 210.018 12.6328 213.091 10.6016 215.227C8.59635 217.336 5.875 218.391 2.4375 218.391C2.125 218.391 1.83854 218.378 1.57812 218.352C1.31771 218.326 1.04427 218.286 0.757812 218.234C0.497396 218.182 0.263021 218.104 0.0546875 218V211.984H0.835938C4.50781 211.984 6.51302 209.992 6.85156 206.008L8.84375 181.984H34.4688ZM75.5891 207.609C74.9901 209.094 74.2349 210.487 73.3234 211.789C72.412 213.091 71.3182 214.237 70.0422 215.227C68.7661 216.216 67.2818 216.997 65.5891 217.57C63.9224 218.117 62.0474 218.391 59.9641 218.391C57.5682 218.391 55.3286 217.948 53.2453 217.062C51.162 216.151 49.3391 214.888 47.7766 213.273C46.2141 211.633 44.9901 209.693 44.1047 207.453C43.2193 205.214 42.7766 202.727 42.7766 199.992C42.7766 197.284 43.2193 194.81 44.1047 192.57C44.9901 190.331 46.188 188.404 47.6984 186.789C49.2089 185.148 50.9927 183.872 53.05 182.961C55.1073 182.049 57.2818 181.594 59.5734 181.594C61.8651 181.594 64.0396 182.049 66.0969 182.961C68.1542 183.872 69.938 185.148 71.4484 186.789C72.9589 188.404 74.1568 190.331 75.0422 192.57C75.9276 194.81 76.3703 197.284 76.3703 199.992C76.3703 200.409 76.3443 200.826 76.2922 201.242C76.2401 201.633 76.188 201.971 76.1359 202.258C76.0839 202.622 76.0318 202.935 75.9797 203.195H50.3547C50.4589 204.315 50.7844 205.383 51.3312 206.398C51.8781 207.414 52.5552 208.312 53.3625 209.094C54.1958 209.849 55.1854 210.461 56.3312 210.93C57.4771 211.372 58.688 211.594 59.9641 211.594C62.1516 211.594 63.8833 211.125 65.1594 210.188C66.4615 209.25 67.399 208.391 67.9719 207.609H75.5891ZM59.5734 188.391C57.1776 188.391 55.1464 189.211 53.4797 190.852C51.8391 192.466 50.7974 194.589 50.3547 197.219H69.5734C69.1568 194.615 68.0891 192.492 66.3703 190.852C64.6776 189.211 62.412 188.391 59.5734 188.391ZM105.889 218L91.8656 200.812V218H84.6781V181.984H91.8656V197.609L104.287 181.984H112.686L98.7016 198.781L114.678 218H105.889ZM154.548 211.203V226.398H147.752V218H118.963V181.984H126.15V211.203H142.556V181.984H149.744V211.203H154.548ZM192.895 181.984V218H185.708V192.805L168.481 218H161.294V181.984H168.481V207.219L185.708 181.984H192.895ZM234.367 181.984V218H227.18V192.805L209.953 218H202.766V181.984H209.953V207.219L227.18 181.984H234.367ZM285.709 199.211C286.673 199.68 287.532 200.318 288.288 201.125C288.939 201.828 289.538 202.714 290.084 203.781C290.631 204.823 290.905 206.099 290.905 207.609C290.905 209.094 290.631 210.474 290.084 211.75C289.564 213.026 288.834 214.12 287.897 215.031C286.985 215.943 285.853 216.672 284.498 217.219C283.17 217.74 281.712 218 280.123 218H262.116V181.984H278.913C280.501 181.984 281.959 182.245 283.288 182.766C284.642 183.26 285.774 183.964 286.686 184.875C287.623 185.786 288.353 186.854 288.873 188.078C289.42 189.302 289.694 190.604 289.694 191.984C289.694 193.312 289.485 194.419 289.069 195.305C288.652 196.19 288.196 196.932 287.702 197.531C287.129 198.182 286.465 198.742 285.709 199.211ZM269.303 188V196.789H278.092C279.316 196.789 280.358 196.372 281.217 195.539C282.077 194.68 282.506 193.638 282.506 192.414C282.506 191.19 282.077 190.148 281.217 189.289C280.384 188.43 279.342 188 278.092 188H269.303ZM279.303 211.984C280.527 211.984 281.569 211.542 282.428 210.656C283.288 209.745 283.717 208.599 283.717 207.219C283.717 205.995 283.288 204.953 282.428 204.094C281.569 203.234 280.527 202.805 279.303 202.805H269.303V211.984H279.303ZM320.423 218L306.4 200.812V218H299.212V181.984H306.4V197.609L318.822 181.984H327.22L313.236 198.781L329.212 218H320.423ZM357.911 199.992C357.911 198.273 357.624 196.711 357.052 195.305C356.505 193.898 355.776 192.674 354.864 191.633C353.953 190.591 352.885 189.797 351.661 189.25C350.437 188.677 349.187 188.391 347.911 188.391C346.635 188.391 345.385 188.677 344.161 189.25C342.937 189.797 341.869 190.591 340.958 191.633C340.046 192.674 339.304 193.911 338.731 195.344C338.184 196.75 337.911 198.299 337.911 199.992C337.911 201.711 338.184 203.273 338.731 204.68C339.304 206.086 340.046 207.31 340.958 208.352C341.869 209.393 342.937 210.201 344.161 210.773C345.385 211.32 346.635 211.594 347.911 211.594C349.187 211.594 350.437 211.32 351.661 210.773C352.885 210.201 353.953 209.393 354.864 208.352C355.776 207.31 356.505 206.086 357.052 204.68C357.624 203.273 357.911 201.711 357.911 199.992ZM365.098 199.992C365.098 202.701 364.656 205.188 363.77 207.453C362.911 209.693 361.687 211.633 360.098 213.273C358.536 214.888 356.713 216.151 354.63 217.062C352.546 217.948 350.307 218.391 347.911 218.391C345.515 218.391 343.276 217.948 341.192 217.062C339.109 216.151 337.273 214.888 335.684 213.273C334.122 211.633 332.898 209.693 332.013 207.453C331.153 205.214 330.723 202.727 330.723 199.992C330.723 197.284 331.153 194.81 332.013 192.57C332.898 190.331 334.122 188.404 335.684 186.789C337.273 185.148 339.109 183.872 341.192 182.961C343.276 182.049 345.515 181.594 347.911 181.594C350.307 181.594 352.546 182.049 354.63 182.961C356.713 183.872 358.536 185.148 360.098 186.789C361.687 188.404 362.911 190.331 363.77 192.57C364.656 194.81 365.098 197.284 365.098 199.992ZM404.617 181.984V218H397.43V203.195H380.203V218H373.016V181.984H380.203V196.398H397.43V181.984H404.617ZM410.894 181.984H440.464V188.781H429.292V218H422.066V188.781H410.894V181.984ZM460.413 181.594C462.496 181.594 464.397 181.932 466.116 182.609C467.86 183.26 469.345 184.159 470.569 185.305C471.793 186.451 472.743 187.805 473.42 189.367C474.097 190.904 474.436 192.583 474.436 194.406V218H469.241L467.639 214.406C466.936 215.161 466.103 215.826 465.139 216.398C464.28 216.919 463.199 217.388 461.897 217.805C460.595 218.195 459.032 218.391 457.209 218.391C453.199 218.391 450.126 217.401 447.991 215.422C445.881 213.417 444.827 210.812 444.827 207.609C444.827 205.786 445.165 204.146 445.842 202.688C446.545 201.203 447.73 199.953 449.397 198.938C451.09 197.896 453.368 197.089 456.233 196.516C459.123 195.917 462.782 195.617 467.209 195.617V194.406C467.209 192.583 466.636 191.125 465.491 190.031C464.345 188.938 462.652 188.391 460.413 188.391C458.017 188.391 456.272 188.82 455.178 189.68C454.084 190.539 453.433 191.581 453.225 192.805H446.038C446.246 189.602 447.587 186.932 450.061 184.797C452.535 182.661 455.985 181.594 460.413 181.594ZM457.639 211.984C460.686 211.984 463.043 211.203 464.709 209.641C466.376 208.078 467.209 206.177 467.209 203.938V201.984C464.006 201.984 461.415 202.141 459.436 202.453C457.483 202.74 455.946 203.143 454.827 203.664C453.707 204.159 452.952 204.784 452.561 205.539C452.196 206.268 452.014 207.089 452.014 208C452.014 209.016 452.496 209.94 453.459 210.773C454.423 211.581 455.816 211.984 457.639 211.984ZM505.517 218L491.494 200.812V218H484.306V181.984H491.494V197.609L503.916 181.984H512.314L498.33 198.781L514.306 218H505.517ZM514.997 181.984H544.567V188.781H533.395V218H526.169V188.781H514.997V181.984ZM581.352 207.609C580.753 209.094 579.997 210.487 579.086 211.789C578.174 213.091 577.081 214.237 575.805 215.227C574.529 216.216 573.044 216.997 571.352 217.57C569.685 218.117 567.81 218.391 565.727 218.391C563.331 218.391 561.091 217.948 559.008 217.062C556.924 216.151 555.102 214.888 553.539 213.273C551.977 211.633 550.753 209.693 549.867 207.453C548.982 205.214 548.539 202.727 548.539 199.992C548.539 197.284 548.982 194.81 549.867 192.57C550.753 190.331 551.951 188.404 553.461 186.789C554.971 185.148 556.755 183.872 558.812 182.961C560.87 182.049 563.044 181.594 565.336 181.594C567.628 181.594 569.802 182.049 571.859 182.961C573.917 183.872 575.701 185.148 577.211 186.789C578.721 188.404 579.919 190.331 580.805 192.57C581.69 194.81 582.133 197.284 582.133 199.992C582.133 200.409 582.107 200.826 582.055 201.242C582.003 201.633 581.951 201.971 581.898 202.258C581.846 202.622 581.794 202.935 581.742 203.195H556.117C556.221 204.315 556.547 205.383 557.094 206.398C557.641 207.414 558.318 208.312 559.125 209.094C559.958 209.849 560.948 210.461 562.094 210.93C563.24 211.372 564.451 211.594 565.727 211.594C567.914 211.594 569.646 211.125 570.922 210.188C572.224 209.25 573.161 208.391 573.734 207.609H581.352ZM565.336 188.391C562.94 188.391 560.909 189.211 559.242 190.852C557.602 192.466 556.56 194.589 556.117 197.219H575.336C574.919 194.615 573.852 192.492 572.133 190.852C570.44 189.211 568.174 188.391 565.336 188.391Z" fill="black"/>
<path d="M309.867 0C340.667 0 348 7.33333 348 38.1333V71.8667C348 102.667 340.667 110 309.867 110H276.133C245.333 110 238 102.667 238 71.8667V38.1333C238 7.33333 245.333 0 276.133 0H309.867Z" fill="#4793EF"/>
<path d="M266.646 34.375H258.625C256.333 34.375 255.875 35.4538 255.875 36.6434C255.875 38.7679 258.594 49.3048 268.536 63.2406C275.164 72.7577 284.503 77.9167 293 77.9167C298.098 77.9167 298.729 76.7708 298.729 74.7971V67.6042C298.729 65.3125 299.212 64.8551 300.827 64.8551C302.016 64.8551 304.056 65.4499 308.814 70.0386C314.253 75.477 315.149 77.9167 318.208 77.9167H326.229C328.521 77.9167 329.667 76.7708 329.006 74.5096C328.282 72.2559 325.686 68.9861 322.24 65.11C320.371 62.9007 317.567 60.5215 316.717 59.3316C315.527 57.8023 315.867 57.1223 316.717 55.7628L316.86 55.5605C318.068 53.8427 326.562 41.6631 327.509 37.3234C328.019 35.6238 327.509 34.375 325.083 34.375H317.063C315.023 34.375 314.083 35.4538 313.573 36.6434C313.573 36.6434 309.494 46.5855 303.716 53.0436C301.846 54.913 300.997 55.5078 299.977 55.5078C299.467 55.5078 298.729 54.913 298.729 53.2136V37.3234C298.729 35.2839 298.137 34.375 296.438 34.375H283.833C282.559 34.375 281.792 35.3216 281.792 36.2186C281.792 38.152 284.681 38.5978 284.979 44.0363V55.8479C284.979 58.4375 284.512 58.907 283.492 58.907C280.773 58.907 274.158 48.9205 270.236 37.4932C269.467 35.2722 268.696 34.375 266.646 34.375Z" fill="white"/>
<path d="M143.002 277H140.119V254.324H143.002V277ZM143.002 265.486L151.809 254.324H155.236L146.236 265.486L155.957 277H152.529L143.002 265.486ZM159.467 268.896C159.467 269.764 159.602 270.549 159.871 271.252C160.141 271.955 160.498 272.564 160.944 273.08C161.401 273.584 161.922 273.971 162.508 274.24C163.094 274.521 163.704 274.662 164.336 274.662C164.957 274.662 165.561 274.521 166.147 274.24C166.733 273.959 167.248 273.572 167.694 273.08C168.139 272.576 168.502 271.967 168.784 271.252C169.065 270.549 169.2 269.764 169.188 268.896C169.188 268.029 169.053 267.244 168.784 266.541C168.502 265.838 168.139 265.234 167.694 264.73C167.248 264.227 166.733 263.834 166.147 263.553C165.561 263.271 164.957 263.137 164.336 263.148C163.715 263.148 163.106 263.283 162.508 263.553C161.922 263.834 161.401 264.227 160.944 264.73C160.487 265.234 160.129 265.838 159.871 266.541C159.602 267.244 159.467 268.029 159.467 268.896ZM171.895 268.896C171.895 270.115 171.696 271.234 171.297 272.254C170.899 273.262 170.36 274.129 169.68 274.855C169 275.582 168.198 276.15 167.272 276.561C166.346 276.971 165.368 277.176 164.336 277.176C163.305 277.176 162.327 276.971 161.401 276.561C160.475 276.15 159.672 275.582 158.993 274.855C158.313 274.129 157.768 273.262 157.358 272.254C156.959 271.246 156.766 270.127 156.778 268.896C156.778 267.678 156.971 266.564 157.358 265.557C157.756 264.549 158.301 263.676 158.993 262.938C159.672 262.211 160.475 261.643 161.401 261.232C162.327 260.822 163.305 260.617 164.336 260.617C165.368 260.617 166.346 260.822 167.272 261.232C168.198 261.643 169 262.211 169.68 262.938C170.36 263.664 170.899 264.537 171.297 265.557C171.696 266.564 171.895 267.678 171.895 268.896ZM187.85 260.793V277H185.143V263.148H179.202L178.675 271.779C178.557 273.502 178.059 274.832 177.18 275.77C176.302 276.707 175.177 277.176 173.805 277.176C173.665 277.176 173.53 277.17 173.401 277.158C173.284 277.146 173.167 277.129 173.05 277.105C172.932 277.082 172.827 277.047 172.733 277V274.662H173.085C174.843 274.662 175.804 273.701 175.968 271.779L176.864 260.793H187.85ZM206.32 260.793V277H203.63V263.324H195.351V277H192.644V260.793H206.32ZM217.213 260.617C218.103 260.617 218.929 260.77 219.691 261.074C220.453 261.379 221.097 261.777 221.625 262.27C222.164 262.773 222.586 263.365 222.89 264.045C223.195 264.713 223.341 265.434 223.33 266.207V277H221.361L220.64 275.207C220.277 275.594 219.867 275.928 219.41 276.209C219 276.479 218.496 276.707 217.898 276.895C217.3 277.082 216.591 277.176 215.771 277.176C214.951 277.176 214.213 277.053 213.556 276.807C212.9 276.549 212.338 276.197 211.869 275.752C211.4 275.307 211.037 274.791 210.779 274.205C210.509 273.619 210.375 272.992 210.375 272.324C210.375 271.551 210.533 270.848 210.849 270.215C211.166 269.582 211.705 269.031 212.466 268.562C213.24 268.094 214.289 267.73 215.613 267.473C216.949 267.215 218.625 267.092 220.64 267.104V266.207C220.64 265.387 220.324 264.672 219.691 264.062C219.058 263.453 218.232 263.148 217.213 263.148C216.205 263.148 215.461 263.354 214.98 263.764C214.5 264.186 214.166 264.76 213.978 265.486H211.095C211.189 264.818 211.394 264.186 211.711 263.588C212.027 263.002 212.443 262.486 212.959 262.041C213.474 261.596 214.084 261.25 214.787 261.004C215.49 260.746 216.298 260.617 217.213 260.617ZM215.771 274.662C216.486 274.662 217.148 274.545 217.757 274.311C218.355 274.088 218.865 273.795 219.287 273.432C219.709 273.068 220.037 272.67 220.271 272.236C220.505 271.791 220.629 271.34 220.64 270.883V269.617C219.011 269.617 217.705 269.682 216.72 269.811C215.736 269.939 214.974 270.133 214.435 270.391C213.896 270.648 213.533 270.947 213.345 271.287C213.17 271.639 213.082 272.043 213.082 272.5C213.082 273.051 213.328 273.549 213.82 273.994C214.3 274.439 214.951 274.662 215.771 274.662ZM230.637 277H227.93V260.793H230.637V277ZM237.475 277L230.637 268.545L236.754 260.793H239.812L233.695 268.352L240.709 277H237.475ZM244.237 268.896C244.237 269.764 244.371 270.549 244.641 271.252C244.911 271.955 245.268 272.564 245.713 273.08C246.17 273.584 246.692 273.971 247.278 274.24C247.864 274.521 248.473 274.662 249.106 274.662C249.727 274.662 250.33 274.521 250.916 274.24C251.502 273.959 252.018 273.572 252.463 273.08C252.909 272.576 253.272 271.967 253.553 271.252C253.834 270.549 253.969 269.764 253.957 268.896C253.957 268.029 253.823 267.244 253.553 266.541C253.272 265.838 252.909 265.234 252.463 264.73C252.018 264.227 251.502 263.834 250.916 263.553C250.33 263.271 249.727 263.137 249.106 263.148C248.485 263.148 247.875 263.283 247.278 263.553C246.692 263.834 246.17 264.227 245.713 264.73C245.256 265.234 244.899 265.838 244.641 266.541C244.371 267.244 244.237 268.029 244.237 268.896ZM256.664 268.896C256.664 270.115 256.465 271.234 256.067 272.254C255.668 273.262 255.129 274.129 254.45 274.855C253.77 275.582 252.967 276.15 252.041 276.561C251.116 276.971 250.137 277.176 249.106 277.176C248.075 277.176 247.096 276.971 246.17 276.561C245.245 276.15 244.442 275.582 243.762 274.855C243.082 274.129 242.537 273.262 242.127 272.254C241.729 271.246 241.536 270.127 241.547 268.896C241.547 267.678 241.741 266.564 242.127 265.557C242.526 264.549 243.071 263.676 243.762 262.938C244.442 262.211 245.245 261.643 246.17 261.232C247.096 260.822 248.075 260.617 249.106 260.617C250.137 260.617 251.116 260.822 252.041 261.232C252.967 261.643 253.77 262.211 254.45 262.938C255.129 263.664 255.668 264.537 256.067 265.557C256.465 266.564 256.664 267.678 256.664 268.896ZM270.264 268.545C270.721 268.756 271.143 269.031 271.53 269.371C271.846 269.664 272.134 270.051 272.391 270.531C272.661 271 272.796 271.598 272.796 272.324C272.796 273.695 272.356 274.82 271.477 275.699C270.598 276.566 269.473 277 268.102 277H260.368V260.793H267.575C268.243 260.793 268.864 260.91 269.438 261.145C270.012 261.367 270.505 261.684 270.915 262.094C271.325 262.504 271.647 262.984 271.882 263.535C272.128 264.086 272.251 264.672 272.251 265.293C272.251 265.891 272.145 266.389 271.934 266.787C271.735 267.186 271.507 267.52 271.249 267.789C270.956 268.082 270.628 268.334 270.264 268.545ZM263.075 263.324V267.455H267.206C267.921 267.455 268.489 267.268 268.911 266.893C269.333 266.506 269.544 266.037 269.544 265.486C269.544 264.865 269.333 264.35 268.911 263.939C268.501 263.529 267.932 263.324 267.206 263.324H263.075ZM267.751 274.486C268.372 274.486 268.917 274.252 269.386 273.783C269.854 273.314 270.089 272.77 270.089 272.148C270.089 271.879 270.03 271.615 269.913 271.357C269.796 271.088 269.626 270.854 269.403 270.654C269.192 270.443 268.94 270.279 268.647 270.162C268.366 270.045 268.067 269.986 267.751 269.986H263.075V274.486H267.751ZM303.23 274.486V281.676H300.523V277H284.879V281.676H282.171V274.486H283.437C283.847 274.17 284.216 273.795 284.545 273.361C284.837 272.975 285.119 272.506 285.388 271.955C285.67 271.404 285.857 270.748 285.951 269.986L287.744 254.324H300.716V274.486H303.23ZM297.834 256.838H290.38L288.834 269.986C288.74 270.76 288.587 271.422 288.377 271.973C288.177 272.512 287.978 272.975 287.779 273.361C287.545 273.795 287.293 274.17 287.023 274.486H297.834V256.838ZM313.965 277L309.113 266.928V277H306.406V260.793H308.744L314.861 273.396L320.996 260.793H323.334V277H320.627V266.928L315.775 277H313.965ZM341.768 260.793V277H339.079V264.941L330.799 277H328.092V260.793H330.799V272.852L339.079 260.793H341.768ZM344.751 260.793H357.53V263.324H352.485V277H349.778V263.324H344.751V260.793ZM362.833 268.896C362.833 269.764 362.974 270.549 363.255 271.252C363.536 271.955 363.9 272.564 364.345 273.08C364.802 273.584 365.335 273.971 365.945 274.24C366.554 274.521 367.198 274.662 367.878 274.662C368.546 274.662 369.191 274.521 369.812 274.24C370.421 273.959 370.954 273.572 371.411 273.08C371.868 272.576 372.232 271.967 372.501 271.252C372.782 270.549 372.923 269.764 372.923 268.896C372.923 268.029 372.782 267.244 372.501 266.541C372.22 265.838 371.857 265.234 371.411 264.73C370.954 264.227 370.421 263.834 369.812 263.553C369.202 263.271 368.558 263.137 367.878 263.148C367.21 263.148 366.566 263.283 365.945 263.553C365.335 263.834 364.802 264.227 364.345 264.73C363.888 265.234 363.525 265.838 363.255 266.541C362.974 267.244 362.833 268.029 362.833 268.896ZM363.202 262.604C363.542 262.24 363.946 261.918 364.415 261.637C364.825 261.367 365.329 261.133 365.927 260.934C366.525 260.734 367.234 260.629 368.054 260.617C369.085 260.617 370.064 260.822 370.989 261.232C371.915 261.643 372.718 262.211 373.398 262.938C374.077 263.664 374.616 264.537 375.015 265.557C375.413 266.564 375.613 267.678 375.613 268.896C375.613 270.115 375.413 271.234 375.015 272.254C374.616 273.262 374.077 274.129 373.398 274.855C372.718 275.582 371.915 276.15 370.989 276.561C370.064 276.971 369.085 277.176 368.054 277.176C367.234 277.176 366.525 277.064 365.927 276.842C365.329 276.619 364.825 276.373 364.415 276.104C363.935 275.787 363.53 275.424 363.202 275.014V282.766H360.495V260.793H362.482L363.202 262.604ZM392.974 260.793V277H390.285V264.941L382.005 277H379.298V260.793H382.005V272.852L390.285 260.793H392.974ZM404.588 258.279C403.416 258.279 402.449 257.887 401.688 257.102C400.926 256.316 400.451 255.391 400.264 254.324H402.426C402.52 254.945 402.766 255.461 403.164 255.871C403.562 256.281 404.037 256.486 404.588 256.486C405.139 256.486 405.613 256.281 406.012 255.871C406.41 255.461 406.656 254.945 406.75 254.324H408.912C408.725 255.402 408.25 256.328 407.488 257.102C406.727 257.887 405.76 258.279 404.588 258.279ZM411.426 260.793V277H408.736V264.941L400.457 277H397.75V260.793H400.457V272.852L408.736 260.793H411.426Z" fill="black"/>
</svg>
