<svg width="354" height="89" viewBox="0 0 354 89" fill="none" xmlns="http://www.w3.org/2000/svg">
<rect x="0.0410156" width="353" height="88.6667" rx="18.3333" fill="#3F8AE0"/>
<path d="M40.1325 52.3335L34.8474 41.3335V52.3335H30.8943V32.5249H34.4177L41.4431 47.0483L48.49 32.5249H52.0134V52.3335H48.0603V41.3335L42.7751 52.3335H40.1325ZM71.2262 42.4292C71.2262 41.4839 71.0686 40.6245 70.7535 39.8511C70.4527 39.0776 70.0517 38.4045 69.5504 37.8315C69.0491 37.2586 68.4618 36.8218 67.7887 36.521C67.1155 36.2059 66.428 36.0483 65.7262 36.0483C65.0243 36.0483 64.3368 36.2059 63.6637 36.521C62.9905 36.8218 62.4032 37.2586 61.9019 37.8315C61.4006 38.4045 60.9924 39.0848 60.6773 39.8726C60.3765 40.646 60.2262 41.4982 60.2262 42.4292C60.2262 43.3745 60.3765 44.2339 60.6773 45.0073C60.9924 45.7808 61.4006 46.4539 61.9019 47.0269C62.4032 47.5998 62.9905 48.0438 63.6637 48.3589C64.3368 48.6597 65.0243 48.8101 65.7262 48.8101C66.428 48.8101 67.1155 48.6597 67.7887 48.3589C68.4618 48.0438 69.0491 47.5998 69.5504 47.0269C70.0517 46.4539 70.4527 45.7808 70.7535 45.0073C71.0686 44.2339 71.2262 43.3745 71.2262 42.4292ZM75.1793 42.4292C75.1793 43.9188 74.9358 45.2866 74.4488 46.5327C73.9762 47.7645 73.303 48.8315 72.4293 49.7339C71.5699 50.6219 70.5673 51.3166 69.4215 51.8179C68.2756 52.3049 67.0439 52.5483 65.7262 52.5483C64.4084 52.5483 63.1767 52.3049 62.0308 51.8179C60.885 51.3166 59.8752 50.6219 59.0015 49.7339C58.1422 48.8315 57.469 47.7645 56.982 46.5327C56.5094 45.3009 56.273 43.9331 56.273 42.4292C56.273 40.9396 56.5094 39.5789 56.982 38.3472C57.469 37.1154 58.1422 36.0555 59.0015 35.1675C59.8752 34.2651 60.885 33.5633 62.0308 33.062C63.1767 32.5607 64.4084 32.3101 65.7262 32.3101C67.0439 32.3101 68.2756 32.5607 69.4215 33.062C70.5673 33.5633 71.5699 34.2651 72.4293 35.1675C73.303 36.0555 73.9762 37.1154 74.4488 38.3472C74.9358 39.5789 75.1793 40.9396 75.1793 42.4292ZM96.8413 32.5249V52.3335H92.8881V38.4761L83.4135 52.3335H79.4604V32.5249H83.4135V46.4038L92.8881 32.5249H96.8413ZM109.98 32.5249H126.243V36.2632H120.099V52.3335H116.124V36.2632H109.98V32.5249ZM139.118 32.3101C140.436 32.3101 141.668 32.5607 142.814 33.062C143.959 33.5633 144.962 34.2651 145.821 35.1675C146.695 36.0555 147.375 37.1154 147.862 38.3472C148.349 39.5789 148.593 40.9396 148.593 42.4292C148.593 43.9188 148.349 45.2866 147.862 46.5327C147.375 47.7645 146.695 48.8315 145.821 49.7339C144.962 50.6219 143.959 51.3166 142.814 51.8179C141.668 52.3049 140.436 52.5483 139.118 52.5483C138.173 52.5483 137.364 52.4409 136.69 52.2261C136.017 52.0112 135.452 51.7534 134.993 51.4526C134.463 51.1232 134.005 50.758 133.618 50.3569V59.3804H129.665V32.5249H132.523L133.403 34.5229C133.79 34.1076 134.241 33.7352 134.757 33.4058C135.23 33.1479 135.824 32.9045 136.54 32.6753C137.256 32.4318 138.116 32.3101 139.118 32.3101ZM138.903 48.8101C139.662 48.8101 140.386 48.6597 141.073 48.3589C141.761 48.0438 142.37 47.5998 142.899 47.0269C143.429 46.4539 143.845 45.7808 144.146 45.0073C144.461 44.2339 144.618 43.3745 144.618 42.4292C144.618 41.4839 144.461 40.6245 144.146 39.8511C143.845 39.0776 143.429 38.4045 142.899 37.8315C142.37 37.2586 141.761 36.8218 141.073 36.521C140.386 36.2059 139.662 36.0483 138.903 36.0483C138.144 36.0483 137.414 36.2059 136.712 36.521C136.024 36.8218 135.416 37.2586 134.886 37.8315C134.37 38.4045 133.955 39.0848 133.64 39.8726C133.339 40.646 133.189 41.4982 133.189 42.4292C133.189 43.3745 133.339 44.2339 133.64 45.0073C133.955 45.7808 134.37 46.4539 134.886 47.0269C135.416 47.5998 136.024 48.0438 136.712 48.3589C137.414 48.6597 138.144 48.8101 138.903 48.8101ZM160.565 32.3101C161.711 32.3101 162.757 32.4963 163.702 32.8687C164.662 33.2267 165.478 33.7209 166.151 34.3511C166.824 34.9813 167.347 35.7261 167.72 36.5854C168.092 37.4305 168.278 38.3543 168.278 39.3569V52.3335H165.421L164.54 50.3569C164.153 50.7723 163.695 51.1375 163.165 51.4526C162.692 51.7391 162.098 51.9969 161.382 52.2261C160.666 52.4409 159.806 52.5483 158.804 52.5483C156.598 52.5483 154.908 52.0041 153.733 50.9155C152.573 49.8127 151.993 48.3804 151.993 46.6187C151.993 45.616 152.179 44.7137 152.552 43.9116C152.938 43.0952 153.59 42.4077 154.507 41.8491C155.438 41.2762 156.691 40.8322 158.267 40.5171C159.856 40.1877 161.869 40.0229 164.304 40.0229V39.3569C164.304 38.3543 163.989 37.5522 163.358 36.9507C162.728 36.3491 161.797 36.0483 160.565 36.0483C159.248 36.0483 158.288 36.2847 157.686 36.7573C157.085 37.23 156.727 37.8029 156.612 38.4761H152.659C152.774 36.7144 153.511 35.2463 154.872 34.0718C156.233 32.8973 158.13 32.3101 160.565 32.3101ZM159.04 49.0249C160.716 49.0249 162.012 48.5952 162.929 47.7358C163.845 46.8765 164.304 45.8309 164.304 44.5991V43.5249C162.542 43.5249 161.117 43.6108 160.028 43.7827C158.954 43.9403 158.109 44.1623 157.493 44.4487C156.877 44.7209 156.462 45.0646 156.247 45.48C156.046 45.881 155.946 46.3322 155.946 46.8335C155.946 47.3921 156.211 47.9006 156.741 48.3589C157.271 48.8029 158.037 49.0249 159.04 49.0249ZM190.8 32.5249V52.3335H186.846V44.1909H177.372V52.3335H173.419V32.5249H177.372V40.4526H186.846V32.5249H190.8ZM213.321 45.0718C213.092 46.1317 212.727 47.12 212.225 48.0366C211.724 48.939 211.087 49.7267 210.313 50.3999C209.554 51.0731 208.68 51.603 207.692 51.9897C206.718 52.3621 205.658 52.5483 204.512 52.5483C203.195 52.5483 201.963 52.3049 200.817 51.8179C199.671 51.3166 198.661 50.6219 197.788 49.7339C196.928 48.8315 196.255 47.7645 195.768 46.5327C195.296 45.3009 195.059 43.9331 195.059 42.4292C195.059 40.9396 195.296 39.5789 195.768 38.3472C196.255 37.1154 196.928 36.0555 197.788 35.1675C198.661 34.2651 199.671 33.5633 200.817 33.062C201.963 32.5607 203.195 32.3101 204.512 32.3101C205.658 32.3101 206.718 32.5034 207.692 32.8901C208.68 33.2625 209.554 33.7925 210.313 34.48C211.087 35.1532 211.717 35.9481 212.204 36.8647C212.705 37.7671 213.077 38.741 213.321 39.7866H209.132C208.802 38.6694 208.258 37.7671 207.499 37.0796C206.74 36.3921 205.744 36.0483 204.512 36.0483C203.811 36.0483 203.123 36.2059 202.45 36.521C201.777 36.8218 201.189 37.2586 200.688 37.8315C200.187 38.4045 199.779 39.0848 199.464 39.8726C199.163 40.646 199.012 41.4982 199.012 42.4292C199.012 43.3745 199.163 44.2339 199.464 45.0073C199.779 45.7808 200.187 46.4539 200.688 47.0269C201.189 47.5998 201.777 48.0438 202.45 48.3589C203.123 48.6597 203.811 48.8101 204.512 48.8101C205.744 48.8101 206.74 48.4663 207.499 47.7788C208.272 47.0913 208.816 46.189 209.132 45.0718H213.321ZM233.672 32.5249V52.3335H229.698V36.2632H223.102L222.436 45.7378C222.293 47.9435 221.663 49.6336 220.545 50.8081C219.443 51.9683 217.946 52.5483 216.055 52.5483C215.883 52.5483 215.726 52.5412 215.583 52.5269C215.439 52.5125 215.289 52.491 215.131 52.4624C214.988 52.4338 214.859 52.3908 214.745 52.3335V49.0249H215.174C217.194 49.0249 218.297 47.9292 218.483 45.7378L219.579 32.5249H233.672ZM254.217 32.5249V52.3335H250.264V45.7378H246.311L242.121 52.3335H237.717L242.336 45.0718C241.577 44.7853 240.918 44.3771 240.36 43.8472C239.858 43.3745 239.4 42.7658 238.985 42.021C238.584 41.2762 238.383 40.3166 238.383 39.1421C238.383 38.1968 238.548 37.3231 238.877 36.521C239.221 35.7046 239.694 35.0099 240.295 34.437C240.897 33.8498 241.613 33.3843 242.444 33.0405C243.289 32.6968 244.213 32.5249 245.215 32.5249H254.217ZM245.215 36.2632C244.456 36.2632 243.783 36.5496 243.196 37.1226C242.623 37.6955 242.336 38.3687 242.336 39.1421C242.336 39.9012 242.623 40.5672 243.196 41.1401C243.769 41.7131 244.442 41.9995 245.215 41.9995H250.264V36.2632H245.215ZM279.166 48.5952V56.9526H275.428V52.3335H259.594V32.5249H263.547V48.5952H272.571V32.5249H276.524V48.5952H279.166ZM300.184 32.5249V52.3335H296.231V38.4761L286.756 52.3335H282.803V32.5249H286.756V46.4038L296.231 32.5249H300.184ZM322.92 32.5249V52.3335H318.967V38.4761L309.492 52.3335H305.539V32.5249H309.492V46.4038L318.967 32.5249H322.92Z" fill="white"/>
</svg>
