<svg width="751" height="145" viewBox="0 0 751 145" fill="none" xmlns="http://www.w3.org/2000/svg">
<path d="M19.6016 52L9.99219 32V52H2.80469V15.9844H9.21094L21.9844 42.3906L34.7969 15.9844H41.2031V52H34.0156V32L24.4062 52H19.6016ZM90.6828 15.9844V52H83.4562V15.9844H90.6828ZM66.2687 28.0156C68.0917 28.0156 69.7583 28.3281 71.2687 28.9531C72.7792 29.5521 74.0812 30.3854 75.175 31.4531C76.2687 32.5208 77.1151 33.7839 77.7141 35.2422C78.3391 36.7005 78.6516 38.2891 78.6516 40.0078C78.6516 41.7266 78.3391 43.3151 77.7141 44.7734C77.1151 46.2318 76.2687 47.4948 75.175 48.5625C74.0812 49.6302 72.7792 50.4766 71.2687 51.1016C69.7583 51.7005 68.0917 52 66.2687 52H51.0734V15.9844H58.2609V28.0156H66.2687ZM66.2687 45.2031C67.649 45.2031 68.8599 44.6823 69.9016 43.6406C70.9432 42.599 71.4641 41.388 71.4641 40.0078C71.4641 38.6276 70.9432 37.4167 69.9016 36.375C68.8599 35.3333 67.649 34.8125 66.2687 34.8125H58.2609V45.2031H66.2687ZM28 113.992C28 112.273 27.7135 110.711 27.1406 109.305C26.5938 107.898 25.8646 106.674 24.9531 105.633C24.0417 104.591 22.974 103.797 21.75 103.25C20.526 102.677 19.276 102.391 18 102.391C16.724 102.391 15.474 102.677 14.25 103.25C13.026 103.797 11.9583 104.591 11.0469 105.633C10.1354 106.674 9.39323 107.911 8.82031 109.344C8.27344 110.75 8 112.299 8 113.992C8 115.711 8.27344 117.273 8.82031 118.68C9.39323 120.086 10.1354 121.31 11.0469 122.352C11.9583 123.393 13.026 124.201 14.25 124.773C15.474 125.32 16.724 125.594 18 125.594C19.276 125.594 20.526 125.32 21.75 124.773C22.974 124.201 24.0417 123.393 24.9531 122.352C25.8646 121.31 26.5938 120.086 27.1406 118.68C27.7135 117.273 28 115.711 28 113.992ZM35.1875 113.992C35.1875 116.701 34.7448 119.188 33.8594 121.453C33 123.693 31.776 125.633 30.1875 127.273C28.625 128.888 26.8021 130.151 24.7188 131.062C22.6354 131.948 20.3958 132.391 18 132.391C15.6042 132.391 13.3646 131.948 11.2812 131.062C9.19792 130.151 7.36198 128.888 5.77344 127.273C4.21094 125.633 2.98698 123.693 2.10156 121.453C1.24219 119.214 0.8125 116.727 0.8125 113.992C0.8125 111.284 1.24219 108.81 2.10156 106.57C2.98698 104.331 4.21094 102.404 5.77344 100.789C7.36198 99.1484 9.19792 97.8724 11.2812 96.9609C13.3646 96.0495 15.6042 95.5938 18 95.5938C20.3958 95.5938 22.6354 96.0495 24.7188 96.9609C26.8021 97.8724 28.625 99.1484 30.1875 100.789C31.776 102.404 33 104.331 33.8594 106.57C34.7448 108.81 35.1875 111.284 35.1875 113.992ZM92.5844 95.9844V132H85.3969V102.781H68.1703V132H60.9828V95.9844H92.5844ZM119.642 95.5938C122.038 95.5938 124.278 96.0495 126.361 96.9609C128.444 97.8724 130.267 99.1484 131.83 100.789C133.418 102.404 134.655 104.331 135.541 106.57C136.426 108.81 136.869 111.284 136.869 113.992C136.869 116.701 136.426 119.188 135.541 121.453C134.655 123.693 133.418 125.633 131.83 127.273C130.267 128.888 128.444 130.151 126.361 131.062C124.278 131.948 122.038 132.391 119.642 132.391C117.923 132.391 116.452 132.195 115.228 131.805C114.004 131.414 112.976 130.945 112.142 130.398C111.179 129.799 110.345 129.135 109.642 128.406V144.812H102.455V95.9844H107.65L109.252 99.6172C109.955 98.862 110.775 98.1849 111.713 97.5859C112.572 97.1172 113.653 96.6745 114.955 96.2578C116.257 95.8151 117.819 95.5938 119.642 95.5938ZM119.252 125.594C120.632 125.594 121.947 125.32 123.197 124.773C124.447 124.201 125.554 123.393 126.517 122.352C127.481 121.31 128.236 120.086 128.783 118.68C129.356 117.273 129.642 115.711 129.642 113.992C129.642 112.273 129.356 110.711 128.783 109.305C128.236 107.898 127.481 106.674 126.517 105.633C125.554 104.591 124.447 103.797 123.197 103.25C121.947 102.677 120.632 102.391 119.252 102.391C117.871 102.391 116.543 102.677 115.267 103.25C114.017 103.797 112.91 104.591 111.947 105.633C111.009 106.674 110.254 107.911 109.681 109.344C109.134 110.75 108.861 112.299 108.861 113.992C108.861 115.711 109.134 117.273 109.681 118.68C110.254 120.086 111.009 121.31 111.947 122.352C112.91 123.393 114.017 124.201 115.267 124.773C116.543 125.32 117.871 125.594 119.252 125.594ZM175.997 121.609C175.398 123.094 174.643 124.487 173.731 125.789C172.82 127.091 171.726 128.237 170.45 129.227C169.174 130.216 167.69 130.997 165.997 131.57C164.33 132.117 162.455 132.391 160.372 132.391C157.976 132.391 155.736 131.948 153.653 131.062C151.57 130.151 149.747 128.888 148.184 127.273C146.622 125.633 145.398 123.693 144.512 121.453C143.627 119.214 143.184 116.727 143.184 113.992C143.184 111.284 143.627 108.81 144.512 106.57C145.398 104.331 146.596 102.404 148.106 100.789C149.617 99.1484 151.401 97.8724 153.458 96.9609C155.515 96.0495 157.69 95.5938 159.981 95.5938C162.273 95.5938 164.447 96.0495 166.505 96.9609C168.562 97.8724 170.346 99.1484 171.856 100.789C173.367 102.404 174.565 104.331 175.45 106.57C176.335 108.81 176.778 111.284 176.778 113.992C176.778 114.409 176.752 114.826 176.7 115.242C176.648 115.633 176.596 115.971 176.544 116.258C176.492 116.622 176.44 116.935 176.387 117.195H150.762C150.867 118.315 151.192 119.383 151.739 120.398C152.286 121.414 152.963 122.312 153.77 123.094C154.604 123.849 155.593 124.461 156.739 124.93C157.885 125.372 159.096 125.594 160.372 125.594C162.559 125.594 164.291 125.125 165.567 124.188C166.869 123.25 167.807 122.391 168.38 121.609H175.997ZM159.981 102.391C157.585 102.391 155.554 103.211 153.887 104.852C152.247 106.466 151.205 108.589 150.762 111.219H169.981C169.565 108.615 168.497 106.492 166.778 104.852C165.085 103.211 162.82 102.391 159.981 102.391ZM218.289 125.203V140.398H211.492V132H186.688V140.398H179.891V125.203H182.273C183.029 124.682 183.706 124.096 184.305 123.445C184.826 122.846 185.32 122.143 185.789 121.336C186.284 120.503 186.583 119.526 186.688 118.406L189.109 95.9844H213.484V125.203H218.289ZM193.875 118.406C193.771 119.526 193.562 120.503 193.25 121.336C192.938 122.143 192.612 122.846 192.273 123.445C191.909 124.096 191.518 124.682 191.102 125.203H206.297V102.781H195.477L193.875 118.406ZM256.206 118.797C255.79 120.724 255.126 122.521 254.214 124.188C253.303 125.828 252.144 127.26 250.738 128.484C249.357 129.708 247.769 130.672 245.972 131.375C244.201 132.052 242.274 132.391 240.191 132.391C237.795 132.391 235.555 131.948 233.472 131.062C231.389 130.151 229.553 128.888 227.964 127.273C226.402 125.633 225.178 123.693 224.292 121.453C223.433 119.214 223.003 116.727 223.003 113.992C223.003 111.284 223.433 108.81 224.292 106.57C225.178 104.331 226.402 102.404 227.964 100.789C229.553 99.1484 231.389 97.8724 233.472 96.9609C235.555 96.0495 237.795 95.5938 240.191 95.5938C242.274 95.5938 244.201 95.9453 245.972 96.6484C247.769 97.3255 249.357 98.2891 250.738 99.5391C252.144 100.763 253.29 102.208 254.175 103.875C255.086 105.516 255.764 107.286 256.206 109.188H248.589C247.99 107.156 247.001 105.516 245.62 104.266C244.24 103.016 242.43 102.391 240.191 102.391C238.915 102.391 237.665 102.677 236.441 103.25C235.217 103.797 234.149 104.591 233.238 105.633C232.326 106.674 231.584 107.911 231.011 109.344C230.464 110.75 230.191 112.299 230.191 113.992C230.191 115.711 230.464 117.273 231.011 118.68C231.584 120.086 232.326 121.31 233.238 122.352C234.149 123.393 235.217 124.201 236.441 124.773C237.665 125.32 238.915 125.594 240.191 125.594C242.43 125.594 244.24 124.969 245.62 123.719C247.027 122.469 248.016 120.828 248.589 118.797H256.206ZM260.139 95.9844H289.709V102.781H278.538V132H271.311V102.781H260.139V95.9844ZM320.478 113.992C320.478 112.273 320.192 110.711 319.619 109.305C319.072 107.898 318.343 106.674 317.431 105.633C316.52 104.591 315.452 103.797 314.228 103.25C313.004 102.677 311.754 102.391 310.478 102.391C309.202 102.391 307.952 102.677 306.728 103.25C305.504 103.797 304.436 104.591 303.525 105.633C302.614 106.674 301.871 107.911 301.298 109.344C300.752 110.75 300.478 112.299 300.478 113.992C300.478 115.711 300.752 117.273 301.298 118.68C301.871 120.086 302.614 121.31 303.525 122.352C304.436 123.393 305.504 124.201 306.728 124.773C307.952 125.32 309.202 125.594 310.478 125.594C311.754 125.594 313.004 125.32 314.228 124.773C315.452 124.201 316.52 123.393 317.431 122.352C318.343 121.31 319.072 120.086 319.619 118.68C320.192 117.273 320.478 115.711 320.478 113.992ZM327.666 113.992C327.666 116.701 327.223 119.188 326.337 121.453C325.478 123.693 324.254 125.633 322.666 127.273C321.103 128.888 319.28 130.151 317.197 131.062C315.114 131.948 312.874 132.391 310.478 132.391C308.082 132.391 305.843 131.948 303.759 131.062C301.676 130.151 299.84 128.888 298.252 127.273C296.689 125.633 295.465 123.693 294.58 121.453C293.72 119.214 293.291 116.727 293.291 113.992C293.291 111.284 293.72 108.81 294.58 106.57C295.465 104.331 296.689 102.404 298.252 100.789C299.84 99.1484 301.676 97.8724 303.759 96.9609C305.843 96.0495 308.082 95.5938 310.478 95.5938C312.874 95.5938 315.114 96.0495 317.197 96.9609C319.28 97.8724 321.103 99.1484 322.666 100.789C324.254 102.404 325.478 104.331 326.337 106.57C327.223 108.81 327.666 111.284 327.666 113.992ZM363.161 95.9844V132H355.973V120.008H348.786L341.169 132H333.161L341.559 118.797C340.179 118.276 338.981 117.534 337.966 116.57C337.054 115.711 336.221 114.604 335.466 113.25C334.736 111.896 334.372 110.151 334.372 108.016C334.372 106.297 334.671 104.708 335.27 103.25C335.895 101.766 336.755 100.503 337.848 99.4609C338.942 98.3932 340.244 97.5469 341.755 96.9219C343.291 96.2969 344.971 95.9844 346.794 95.9844H363.161ZM346.794 102.781C345.414 102.781 344.19 103.302 343.122 104.344C342.08 105.385 341.559 106.609 341.559 108.016C341.559 109.396 342.08 110.607 343.122 111.648C344.164 112.69 345.388 113.211 346.794 113.211H355.973V102.781H346.794ZM416.664 140.398V132H373.07V95.9844H380.258V125.203H392.25V95.9844H399.477V125.203H411.469V95.9844H418.656V125.203H423.461V140.398H416.664ZM461.378 121.609C460.779 123.094 460.024 124.487 459.112 125.789C458.201 127.091 457.107 128.237 455.831 129.227C454.555 130.216 453.071 130.997 451.378 131.57C449.711 132.117 447.836 132.391 445.753 132.391C443.357 132.391 441.118 131.948 439.034 131.062C436.951 130.151 435.128 128.888 433.566 127.273C432.003 125.633 430.779 123.693 429.894 121.453C429.008 119.214 428.566 116.727 428.566 113.992C428.566 111.284 429.008 108.81 429.894 106.57C430.779 104.331 431.977 102.404 433.487 100.789C434.998 99.1484 436.782 97.8724 438.839 96.9609C440.896 96.0495 443.071 95.5938 445.362 95.5938C447.654 95.5938 449.829 96.0495 451.886 96.9609C453.943 97.8724 455.727 99.1484 457.237 100.789C458.748 102.404 459.946 104.331 460.831 106.57C461.717 108.81 462.159 111.284 462.159 113.992C462.159 114.409 462.133 114.826 462.081 115.242C462.029 115.633 461.977 115.971 461.925 116.258C461.873 116.622 461.821 116.935 461.769 117.195H436.144C436.248 118.315 436.573 119.383 437.12 120.398C437.667 121.414 438.344 122.312 439.152 123.094C439.985 123.849 440.974 124.461 442.12 124.93C443.266 125.372 444.477 125.594 445.753 125.594C447.941 125.594 449.672 125.125 450.948 124.188C452.251 123.25 453.188 122.391 453.761 121.609H461.378ZM445.362 102.391C442.967 102.391 440.935 103.211 439.269 104.852C437.628 106.466 436.586 108.589 436.144 111.219H455.362C454.946 108.615 453.878 106.492 452.159 104.852C450.467 103.211 448.201 102.391 445.362 102.391ZM486.873 132L477.264 112V132H470.077V95.9844H476.483L489.256 122.391L502.069 95.9844H508.475V132H501.288V112L491.678 132H486.873ZM549.427 95.5938C551.822 95.5938 554.062 96.0495 556.145 96.9609C558.229 97.8724 560.052 99.1484 561.614 100.789C563.203 102.404 564.427 104.331 565.286 106.57C566.171 108.81 566.614 111.284 566.614 113.992C566.614 116.701 566.171 119.188 565.286 121.453C564.427 123.693 563.203 125.633 561.614 127.273C560.052 128.888 558.229 130.151 556.145 131.062C554.062 131.948 551.822 132.391 549.427 132.391C547.343 132.391 545.403 132.052 543.606 131.375C541.835 130.672 540.26 129.734 538.88 128.562C537.526 127.391 536.419 126.036 535.559 124.5C534.726 122.938 534.14 121.31 533.802 119.617H541.419C541.835 121.206 542.708 122.599 544.036 123.797C545.39 124.995 547.187 125.594 549.427 125.594C550.598 125.594 551.731 125.372 552.825 124.93C553.919 124.461 554.882 123.849 555.716 123.094C556.575 122.312 557.278 121.414 557.825 120.398C558.398 119.383 558.802 118.315 559.036 117.195H547.005V111.219H559.036C558.828 110.047 558.437 108.927 557.864 107.859C557.291 106.792 556.575 105.854 555.716 105.047C554.882 104.24 553.919 103.602 552.825 103.133C551.731 102.638 550.598 102.391 549.427 102.391C547.187 102.391 545.39 102.99 544.036 104.188C542.708 105.385 541.835 106.792 541.419 108.406H533.802C534.114 106.688 534.7 105.06 535.559 103.523C536.419 101.987 537.526 100.633 538.88 99.4609C540.26 98.263 541.835 97.3255 543.606 96.6484C545.403 95.9453 547.343 95.5938 549.427 95.5938ZM596.094 81.6094H603.281V98.0156C603.932 97.599 604.648 97.1953 605.43 96.8047C606.133 96.5443 606.94 96.2839 607.852 96.0234C608.763 95.737 609.779 95.5938 610.898 95.5938C612.982 95.5938 614.987 96.0495 616.914 96.9609C618.867 97.8724 620.573 99.1484 622.031 100.789C623.516 102.404 624.688 104.331 625.547 106.57C626.432 108.81 626.875 111.284 626.875 113.992C626.875 116.701 626.432 119.188 625.547 121.453C624.688 123.693 623.516 125.633 622.031 127.273C620.573 128.888 618.867 130.151 616.914 131.062C614.987 131.948 612.982 132.391 610.898 132.391C609.779 132.391 608.763 132.273 607.852 132.039C606.94 131.805 606.133 131.531 605.43 131.219C604.622 130.906 603.906 130.503 603.281 130.008V144.812H596.094V130.008C595.443 130.477 594.727 130.88 593.945 131.219C593.242 131.531 592.422 131.805 591.484 132.039C590.547 132.273 589.544 132.391 588.477 132.391C586.393 132.391 584.375 131.948 582.422 131.062C580.495 130.151 578.789 128.888 577.305 127.273C575.846 125.633 574.674 123.693 573.789 121.453C572.93 119.214 572.5 116.727 572.5 113.992C572.5 111.284 572.93 108.81 573.789 106.57C574.674 104.331 575.846 102.404 577.305 100.789C578.789 99.1484 580.495 97.8724 582.422 96.9609C584.375 96.0495 586.393 95.5938 588.477 95.5938C589.544 95.5938 590.547 95.737 591.484 96.0234C592.422 96.2839 593.242 96.5443 593.945 96.8047C594.753 97.1693 595.469 97.5729 596.094 98.0156V81.6094ZM596.094 105.594C595.495 104.995 594.857 104.461 594.18 103.992C593.581 103.576 592.865 103.211 592.031 102.898C591.224 102.56 590.312 102.391 589.297 102.391C588.021 102.391 586.784 102.664 585.586 103.211C584.414 103.732 583.385 104.5 582.5 105.516C581.641 106.531 580.951 107.755 580.43 109.188C579.935 110.594 579.688 112.195 579.688 113.992C579.688 115.815 579.935 117.443 580.43 118.875C580.951 120.307 581.641 121.518 582.5 122.508C583.385 123.497 584.414 124.266 585.586 124.812C586.784 125.333 588.021 125.594 589.297 125.594C590.312 125.594 591.224 125.438 592.031 125.125C592.865 124.812 593.581 124.435 594.18 123.992C594.883 123.523 595.521 122.99 596.094 122.391V105.594ZM603.281 122.391C603.88 122.99 604.518 123.523 605.195 123.992C605.794 124.409 606.497 124.786 607.305 125.125C608.138 125.438 609.062 125.594 610.078 125.594C611.354 125.594 612.578 125.333 613.75 124.812C614.948 124.266 615.977 123.497 616.836 122.508C617.721 121.518 618.411 120.307 618.906 118.875C619.427 117.443 619.688 115.815 619.688 113.992C619.688 112.169 619.427 110.555 618.906 109.148C618.411 107.742 617.721 106.531 616.836 105.516C615.977 104.5 614.948 103.732 613.75 103.211C612.578 102.664 611.354 102.391 610.078 102.391C609.062 102.391 608.138 102.56 607.305 102.898C606.497 103.211 605.794 103.576 605.195 103.992C604.492 104.461 603.854 104.995 603.281 105.594V122.391ZM666.394 95.9844V132H659.206V106.805L641.98 132H634.792V95.9844H641.98V121.219L659.206 95.9844H666.394ZM693.452 95.5938C695.847 95.5938 698.087 96.0495 700.17 96.9609C702.254 97.8724 704.077 99.1484 705.639 100.789C707.228 102.404 708.465 104.331 709.35 106.57C710.235 108.81 710.678 111.284 710.678 113.992C710.678 116.701 710.235 119.188 709.35 121.453C708.465 123.693 707.228 125.633 705.639 127.273C704.077 128.888 702.254 130.151 700.17 131.062C698.087 131.948 695.847 132.391 693.452 132.391C691.733 132.391 690.261 132.195 689.037 131.805C687.814 131.414 686.785 130.945 685.952 130.398C684.988 129.799 684.155 129.135 683.452 128.406V144.812H676.264V95.9844H681.459L683.061 99.6172C683.764 98.862 684.584 98.1849 685.522 97.5859C686.381 97.1172 687.462 96.6745 688.764 96.2578C690.066 95.8151 691.629 95.5938 693.452 95.5938ZM693.061 125.594C694.441 125.594 695.756 125.32 697.006 124.773C698.256 124.201 699.363 123.393 700.327 122.352C701.29 121.31 702.045 120.086 702.592 118.68C703.165 117.273 703.452 115.711 703.452 113.992C703.452 112.273 703.165 110.711 702.592 109.305C702.045 107.898 701.29 106.674 700.327 105.633C699.363 104.591 698.256 103.797 697.006 103.25C695.756 102.677 694.441 102.391 693.061 102.391C691.681 102.391 690.353 102.677 689.077 103.25C687.827 103.797 686.72 104.591 685.756 105.633C684.819 106.674 684.064 107.911 683.491 109.344C682.944 110.75 682.67 112.299 682.67 113.992C682.67 115.711 682.944 117.273 683.491 118.68C684.064 120.086 684.819 121.31 685.756 122.352C686.72 123.393 687.827 124.201 689.077 124.773C690.353 125.32 691.681 125.594 693.061 125.594ZM749.806 121.609C749.207 123.094 748.452 124.487 747.541 125.789C746.629 127.091 745.535 128.237 744.259 129.227C742.983 130.216 741.499 130.997 739.806 131.57C738.14 132.117 736.265 132.391 734.181 132.391C731.785 132.391 729.546 131.948 727.463 131.062C725.379 130.151 723.556 128.888 721.994 127.273C720.431 125.633 719.207 123.693 718.322 121.453C717.436 119.214 716.994 116.727 716.994 113.992C716.994 111.284 717.436 108.81 718.322 106.57C719.207 104.331 720.405 102.404 721.916 100.789C723.426 99.1484 725.21 97.8724 727.267 96.9609C729.325 96.0495 731.499 95.5938 733.791 95.5938C736.082 95.5938 738.257 96.0495 740.314 96.9609C742.371 97.8724 744.155 99.1484 745.666 100.789C747.176 102.404 748.374 104.331 749.259 106.57C750.145 108.81 750.588 111.284 750.588 113.992C750.588 114.409 750.561 114.826 750.509 115.242C750.457 115.633 750.405 115.971 750.353 116.258C750.301 116.622 750.249 116.935 750.197 117.195H724.572C724.676 118.315 725.002 119.383 725.548 120.398C726.095 121.414 726.772 122.312 727.58 123.094C728.413 123.849 729.403 124.461 730.548 124.93C731.694 125.372 732.905 125.594 734.181 125.594C736.369 125.594 738.101 125.125 739.377 124.188C740.679 123.25 741.616 122.391 742.189 121.609H749.806ZM733.791 102.391C731.395 102.391 729.364 103.211 727.697 104.852C726.056 106.466 725.015 108.589 724.572 111.219H743.791C743.374 108.615 742.306 106.492 740.588 104.852C738.895 103.211 736.629 102.391 733.791 102.391Z" fill="black"/>
<path d="M150.072 15.9844V52H142.884V37.1953H125.658V52H118.47V15.9844H125.658V30.3984H142.884V15.9844H150.072ZM173.927 15.5938C176.01 15.5938 177.911 15.9323 179.63 16.6094C181.374 17.2604 182.859 18.1589 184.083 19.3047C185.307 20.4505 186.257 21.8047 186.934 23.3672C187.611 24.9036 187.95 26.5833 187.95 28.4062V52H182.755L181.153 48.4062C180.45 49.1615 179.617 49.8255 178.653 50.3984C177.794 50.9193 176.713 51.388 175.411 51.8047C174.109 52.1953 172.546 52.3906 170.723 52.3906C166.713 52.3906 163.64 51.401 161.505 49.4219C159.395 47.4167 158.341 44.8125 158.341 41.6094C158.341 39.7865 158.679 38.1458 159.356 36.6875C160.059 35.2031 161.244 33.9531 162.911 32.9375C164.604 31.8958 166.882 31.0885 169.747 30.5156C172.637 29.9167 176.296 29.6172 180.723 29.6172V28.4062C180.723 26.5833 180.151 25.125 179.005 24.0312C177.859 22.9375 176.166 22.3906 173.927 22.3906C171.531 22.3906 169.786 22.8203 168.692 23.6797C167.598 24.5391 166.947 25.5807 166.739 26.8047H159.552C159.76 23.6016 161.101 20.9323 163.575 18.7969C166.049 16.6615 169.499 15.5938 173.927 15.5938ZM171.153 45.9844C174.2 45.9844 176.557 45.2031 178.223 43.6406C179.89 42.0781 180.723 40.1771 180.723 37.9375V35.9844C177.52 35.9844 174.929 36.1406 172.95 36.4531C170.997 36.7396 169.46 37.1432 168.341 37.6641C167.221 38.1589 166.466 38.7839 166.075 39.5391C165.71 40.2682 165.528 41.0885 165.528 42C165.528 43.0156 166.01 43.9401 166.973 44.7734C167.937 45.5807 169.33 45.9844 171.153 45.9844ZM229.031 15.9844V52H221.844V22.7812H204.617V52H197.43V15.9844H229.031ZM264.097 33.9922C264.097 32.2734 263.81 30.7109 263.238 29.3047C262.691 27.8984 261.961 26.6745 261.05 25.6328C260.139 24.5911 259.071 23.7969 257.847 23.25C256.623 22.6771 255.373 22.3906 254.097 22.3906C252.821 22.3906 251.571 22.6771 250.347 23.25C249.123 23.7969 248.055 24.5911 247.144 25.6328C246.232 26.6745 245.49 27.9115 244.917 29.3438C244.37 30.75 244.097 32.2995 244.097 33.9922C244.097 35.7109 244.37 37.2734 244.917 38.6797C245.49 40.0859 246.232 41.3099 247.144 42.3516C248.055 43.3932 249.123 44.2005 250.347 44.7734C251.571 45.3203 252.821 45.5938 254.097 45.5938C255.373 45.5938 256.623 45.3203 257.847 44.7734C259.071 44.2005 260.139 43.3932 261.05 42.3516C261.961 41.3099 262.691 40.0859 263.238 38.6797C263.81 37.2734 264.097 35.7109 264.097 33.9922ZM271.284 33.9922C271.284 36.7005 270.842 39.1875 269.956 41.4531C269.097 43.6927 267.873 45.6328 266.284 47.2734C264.722 48.888 262.899 50.151 260.816 51.0625C258.732 51.9479 256.493 52.3906 254.097 52.3906C251.701 52.3906 249.461 51.9479 247.378 51.0625C245.295 50.151 243.459 48.888 241.87 47.2734C240.308 45.6328 239.084 43.6927 238.198 41.4531C237.339 39.2135 236.909 36.7266 236.909 33.9922C236.909 31.2839 237.339 28.8099 238.198 26.5703C239.084 24.3307 240.308 22.4036 241.87 20.7891C243.459 19.1484 245.295 17.8724 247.378 16.9609C249.461 16.0495 251.701 15.5938 254.097 15.5938C256.493 15.5938 258.732 16.0495 260.816 16.9609C262.899 17.8724 264.722 19.1484 266.284 20.7891C267.873 22.4036 269.097 24.3307 269.956 26.5703C270.842 28.8099 271.284 31.2839 271.284 33.9922ZM295.998 52L286.389 32V52H279.202V15.9844H285.608L298.381 42.3906L311.194 15.9844H317.6V52H310.413V32L300.803 52H295.998ZM359.072 15.9844V52H351.884V37.1953H334.658V52H327.47V15.9844H334.658V30.3984H351.884V15.9844H359.072ZM400.544 15.9844V52H393.356V26.8047L376.13 52H368.942V15.9844H376.13V41.2188L393.356 15.9844H400.544ZM427.211 52L417.602 32V52H410.414V15.9844H416.82L429.594 42.3906L442.406 15.9844H448.812V52H441.625V32L432.016 52H427.211ZM472.967 15.9844H502.538V22.7812H491.366V52H484.139V22.7812H472.967V15.9844ZM539.322 41.6094C538.723 43.0938 537.968 44.487 537.056 45.7891C536.145 47.0911 535.051 48.237 533.775 49.2266C532.499 50.2161 531.015 50.9974 529.322 51.5703C527.655 52.1172 525.78 52.3906 523.697 52.3906C521.301 52.3906 519.061 51.9479 516.978 51.0625C514.895 50.151 513.072 48.888 511.509 47.2734C509.947 45.6328 508.723 43.6927 507.837 41.4531C506.952 39.2135 506.509 36.7266 506.509 33.9922C506.509 31.2839 506.952 28.8099 507.837 26.5703C508.723 24.3307 509.921 22.4036 511.431 20.7891C512.942 19.1484 514.726 17.8724 516.783 16.9609C518.84 16.0495 521.015 15.5938 523.306 15.5938C525.598 15.5938 527.772 16.0495 529.83 16.9609C531.887 17.8724 533.671 19.1484 535.181 20.7891C536.692 22.4036 537.89 24.3307 538.775 26.5703C539.66 28.8099 540.103 31.2839 540.103 33.9922C540.103 34.4089 540.077 34.8255 540.025 35.2422C539.973 35.6328 539.921 35.9714 539.869 36.2578C539.817 36.6224 539.765 36.9349 539.712 37.1953H514.087C514.192 38.3151 514.517 39.3828 515.064 40.3984C515.611 41.4141 516.288 42.3125 517.095 43.0938C517.929 43.849 518.918 44.4609 520.064 44.9297C521.21 45.3724 522.421 45.5938 523.697 45.5938C525.884 45.5938 527.616 45.125 528.892 44.1875C530.194 43.25 531.132 42.3906 531.705 41.6094H539.322ZM523.306 22.3906C520.91 22.3906 518.879 23.2109 517.212 24.8516C515.572 26.4661 514.53 28.5885 514.087 31.2188H533.306C532.89 28.6146 531.822 26.4922 530.103 24.8516C528.41 23.2109 526.145 22.3906 523.306 22.3906ZM564.817 17.1953C567.005 17.1953 569.101 17.651 571.106 18.5625C573.111 19.474 574.856 20.724 576.341 22.3125C577.825 23.875 579.01 25.724 579.895 27.8594C580.781 29.9688 581.223 32.2865 581.223 34.8125C581.223 37.3125 580.781 39.6302 579.895 41.7656C579.01 43.901 577.773 45.763 576.184 47.3516C574.622 48.9141 572.799 50.151 570.716 51.0625C568.658 51.9479 566.419 52.3906 563.997 52.3906C561.497 52.3906 559.179 51.9349 557.044 51.0234C554.908 50.0859 553.059 48.6667 551.497 46.7656C549.934 44.8646 548.697 42.5208 547.786 39.7344C546.874 36.9219 546.419 33.6797 546.419 30.0078C546.419 24.8255 546.94 20.4245 547.981 16.8047C549.023 13.1849 550.729 10.2292 553.098 7.9375C555.468 5.61979 558.58 3.90104 562.434 2.78125C566.315 1.66146 571.106 0.997396 576.809 0.789062V8.01562C572.486 8.11979 568.919 8.48438 566.106 9.10938C563.32 9.70833 561.08 10.6068 559.388 11.8047C557.721 13.0026 556.484 14.513 555.677 16.3359C554.895 18.1328 554.335 20.2812 553.997 22.7812C554.7 21.7656 555.559 20.8411 556.575 20.0078C557.486 19.3047 558.606 18.6667 559.934 18.0938C561.263 17.4948 562.89 17.1953 564.817 17.1953ZM563.997 45.5938C565.273 45.5938 566.523 45.3203 567.747 44.7734C568.997 44.2005 570.065 43.4193 570.95 42.4297C571.861 41.4401 572.591 40.2943 573.138 38.9922C573.71 37.6901 573.997 36.2969 573.997 34.8125C573.997 33.3281 573.71 31.9349 573.138 30.6328C572.591 29.3047 571.861 28.1458 570.95 27.1562C570.065 26.1667 569.01 25.3984 567.786 24.8516C566.562 24.2786 565.299 23.9922 563.997 23.9922C562.721 23.9922 561.471 24.2786 560.247 24.8516C559.023 25.3984 557.955 26.1667 557.044 27.1562C556.132 28.1458 555.39 29.2917 554.817 30.5938C554.27 31.8958 553.997 33.3021 553.997 34.8125C553.997 36.2969 554.27 37.6901 554.817 38.9922C555.39 40.2943 556.132 41.4401 557.044 42.4297C557.955 43.4193 559.023 44.2005 560.247 44.7734C561.471 45.3203 562.721 45.5938 563.997 45.5938ZM620.312 41.6094C619.714 43.0938 618.958 44.487 618.047 45.7891C617.135 47.0911 616.042 48.237 614.766 49.2266C613.49 50.2161 612.005 50.9974 610.312 51.5703C608.646 52.1172 606.771 52.3906 604.688 52.3906C602.292 52.3906 600.052 51.9479 597.969 51.0625C595.885 50.151 594.062 48.888 592.5 47.2734C590.938 45.6328 589.714 43.6927 588.828 41.4531C587.943 39.2135 587.5 36.7266 587.5 33.9922C587.5 31.2839 587.943 28.8099 588.828 26.5703C589.714 24.3307 590.911 22.4036 592.422 20.7891C593.932 19.1484 595.716 17.8724 597.773 16.9609C599.831 16.0495 602.005 15.5938 604.297 15.5938C606.589 15.5938 608.763 16.0495 610.82 16.9609C612.878 17.8724 614.661 19.1484 616.172 20.7891C617.682 22.4036 618.88 24.3307 619.766 26.5703C620.651 28.8099 621.094 31.2839 621.094 33.9922C621.094 34.4089 621.068 34.8255 621.016 35.2422C620.964 35.6328 620.911 35.9714 620.859 36.2578C620.807 36.6224 620.755 36.9349 620.703 37.1953H595.078C595.182 38.3151 595.508 39.3828 596.055 40.3984C596.602 41.4141 597.279 42.3125 598.086 43.0938C598.919 43.849 599.909 44.4609 601.055 44.9297C602.201 45.3724 603.411 45.5938 604.688 45.5938C606.875 45.5938 608.607 45.125 609.883 44.1875C611.185 43.25 612.122 42.3906 612.695 41.6094H620.312ZM604.297 22.3906C601.901 22.3906 599.87 23.2109 598.203 24.8516C596.562 26.4661 595.521 28.5885 595.078 31.2188H614.297C613.88 28.6146 612.812 26.4922 611.094 24.8516C609.401 23.2109 607.135 22.3906 604.297 22.3906Z" fill="#3F8AE0"/>
</svg>
