<svg width="405" height="89" viewBox="0 0 405 89" fill="none" xmlns="http://www.w3.org/2000/svg">
<rect x="0.0410156" width="404" height="88.6667" rx="18.3333" fill="#F2F3F5"/>
<path d="M48.0764 32.5249V52.3335H44.1233V36.2632H34.6487V52.3335H30.6956V32.5249H48.0764ZM67.2892 42.4292C67.2892 41.4839 67.1317 40.6245 66.8166 39.8511C66.5158 39.0776 66.1147 38.4045 65.6134 37.8315C65.1121 37.2586 64.5249 36.8218 63.8517 36.521C63.1785 36.2059 62.491 36.0483 61.7892 36.0483C61.0874 36.0483 60.3999 36.2059 59.7267 36.521C59.0535 36.8218 58.4663 37.2586 57.965 37.8315C57.4637 38.4045 57.0555 39.0848 56.7404 39.8726C56.4396 40.646 56.2892 41.4982 56.2892 42.4292C56.2892 43.3745 56.4396 44.2339 56.7404 45.0073C57.0555 45.7808 57.4637 46.4539 57.965 47.0269C58.4663 47.5998 59.0535 48.0438 59.7267 48.3589C60.3999 48.6597 61.0874 48.8101 61.7892 48.8101C62.491 48.8101 63.1785 48.6597 63.8517 48.3589C64.5249 48.0438 65.1121 47.5998 65.6134 47.0269C66.1147 46.4539 66.5158 45.7808 66.8166 45.0073C67.1317 44.2339 67.2892 43.3745 67.2892 42.4292ZM71.2423 42.4292C71.2423 43.9188 70.9988 45.2866 70.5119 46.5327C70.0392 47.7645 69.366 48.8315 68.4923 49.7339C67.633 50.6219 66.6304 51.3166 65.4845 51.8179C64.3387 52.3049 63.1069 52.5483 61.7892 52.5483C60.4715 52.5483 59.2397 52.3049 58.0939 51.8179C56.9481 51.3166 55.9383 50.6219 55.0646 49.7339C54.2052 48.8315 53.532 47.7645 53.0451 46.5327C52.5724 45.3009 52.3361 43.9331 52.3361 42.4292C52.3361 40.9396 52.5724 39.5789 53.0451 38.3472C53.532 37.1154 54.2052 36.0555 55.0646 35.1675C55.9383 34.2651 56.9481 33.5633 58.0939 33.062C59.2397 32.5607 60.4715 32.3101 61.7892 32.3101C63.1069 32.3101 64.3387 32.5607 65.4845 33.062C66.6304 33.5633 67.633 34.2651 68.4923 35.1675C69.366 36.0555 70.0392 37.1154 70.5119 38.3472C70.9988 39.5789 71.2423 40.9396 71.2423 42.4292ZM92.6895 45.0718C92.4603 46.1317 92.0951 47.12 91.5938 48.0366C91.0925 48.939 90.4551 49.7267 89.6817 50.3999C88.9225 51.0731 88.0488 51.603 87.0606 51.9897C86.0866 52.3621 85.0267 52.5483 83.8809 52.5483C82.5632 52.5483 81.3314 52.3049 80.1856 51.8179C79.0397 51.3166 78.03 50.6219 77.1563 49.7339C76.2969 48.8315 75.6237 47.7645 75.1367 46.5327C74.6641 45.3009 74.4277 43.9331 74.4277 42.4292C74.4277 40.9396 74.6641 39.5789 75.1367 38.3472C75.6237 37.1154 76.2969 36.0555 77.1563 35.1675C78.03 34.2651 79.0397 33.5633 80.1856 33.062C81.3314 32.5607 82.5632 32.3101 83.8809 32.3101C85.0267 32.3101 86.0866 32.5034 87.0606 32.8901C88.0488 33.2625 88.9225 33.7925 89.6817 34.48C90.4551 35.1532 91.0853 35.9481 91.5723 36.8647C92.0736 37.7671 92.446 38.741 92.6895 39.7866H88.5C88.1706 38.6694 87.6263 37.7671 86.8672 37.0796C86.1081 36.3921 85.1126 36.0483 83.8809 36.0483C83.1791 36.0483 82.4916 36.2059 81.8184 36.521C81.1452 36.8218 80.558 37.2586 80.0567 37.8315C79.5554 38.4045 79.1472 39.0848 78.832 39.8726C78.5313 40.646 78.3809 41.4982 78.3809 42.4292C78.3809 43.3745 78.5313 44.2339 78.832 45.0073C79.1472 45.7808 79.5554 46.4539 80.0567 47.0269C80.558 47.5998 81.1452 48.0438 81.8184 48.3589C82.4916 48.6597 83.1791 48.8101 83.8809 48.8101C85.1126 48.8101 86.1081 48.4663 86.8672 47.7788C87.6406 47.0913 88.1849 46.189 88.5 45.0718H92.6895ZM94.7792 32.5249H111.043V36.2632H104.898V52.3335H100.924V36.2632H94.7792V32.5249ZM121.941 32.3101C123.087 32.3101 124.133 32.4963 125.078 32.8687C126.038 33.2267 126.854 33.7209 127.527 34.3511C128.2 34.9813 128.723 35.7261 129.095 36.5854C129.468 37.4305 129.654 38.3543 129.654 39.3569V52.3335H126.797L125.916 50.3569C125.529 50.7723 125.071 51.1375 124.541 51.4526C124.068 51.7391 123.474 51.9969 122.758 52.2261C122.041 52.4409 121.182 52.5483 120.179 52.5483C117.974 52.5483 116.284 52.0041 115.109 50.9155C113.949 49.8127 113.369 48.3804 113.369 46.6187C113.369 45.616 113.555 44.7137 113.927 43.9116C114.314 43.0952 114.966 42.4077 115.883 41.8491C116.814 41.2762 118.067 40.8322 119.642 40.5171C121.232 40.1877 123.245 40.0229 125.679 40.0229V39.3569C125.679 38.3543 125.364 37.5522 124.734 36.9507C124.104 36.3491 123.173 36.0483 121.941 36.0483C120.623 36.0483 119.664 36.2847 119.062 36.7573C118.461 37.23 118.103 37.8029 117.988 38.4761H114.035C114.149 36.7144 114.887 35.2463 116.248 34.0718C117.608 32.8973 119.506 32.3101 121.941 32.3101ZM120.416 49.0249C122.092 49.0249 123.388 48.5952 124.304 47.7358C125.221 46.8765 125.679 45.8309 125.679 44.5991V43.5249C123.918 43.5249 122.493 43.6108 121.404 43.7827C120.33 43.9403 119.485 44.1623 118.869 44.4487C118.253 44.7209 117.838 45.0646 117.623 45.48C117.422 45.881 117.322 46.3322 117.322 46.8335C117.322 47.3921 117.587 47.9006 118.117 48.3589C118.647 48.8029 119.413 49.0249 120.416 49.0249ZM147.771 41.9995C148.301 42.2573 148.774 42.6082 149.189 43.0522C149.547 43.439 149.877 43.9259 150.177 44.5132C150.478 45.0861 150.629 45.7879 150.629 46.6187C150.629 47.4351 150.478 48.1942 150.177 48.896C149.891 49.5978 149.49 50.1994 148.974 50.7007C148.473 51.202 147.85 51.603 147.105 51.9038C146.375 52.1903 145.573 52.3335 144.699 52.3335H134.795V32.5249H144.033C144.907 32.5249 145.709 32.6681 146.439 32.9546C147.184 33.2267 147.807 33.6134 148.308 34.1147C148.824 34.616 149.225 35.2033 149.511 35.8765C149.812 36.5496 149.963 37.2658 149.963 38.0249C149.963 38.7554 149.848 39.3641 149.619 39.8511C149.39 40.3381 149.139 40.7463 148.867 41.0757C148.552 41.4338 148.186 41.7417 147.771 41.9995ZM138.748 35.8335V40.6675H143.582C144.255 40.6675 144.828 40.4383 145.3 39.98C145.773 39.5073 146.009 38.9344 146.009 38.2612C146.009 37.5881 145.773 37.0151 145.3 36.5425C144.842 36.0698 144.269 35.8335 143.582 35.8335H138.748ZM144.248 49.0249C144.921 49.0249 145.494 48.7814 145.966 48.2944C146.439 47.7931 146.675 47.1629 146.675 46.4038C146.675 45.7306 146.439 45.1577 145.966 44.6851C145.494 44.2124 144.921 43.9761 144.248 43.9761H138.748V49.0249H144.248ZM172.291 32.5249V52.3335H168.337V38.4761L158.863 52.3335H154.91V32.5249H158.863V46.4038L168.337 32.5249H172.291ZM175.669 32.5249H191.933V36.2632H185.788V52.3335H181.814V36.2632H175.669V32.5249ZM204.142 39.1421C205.144 39.1421 206.061 39.314 206.892 39.6577C207.737 39.9871 208.46 40.4455 209.062 41.0327C209.663 41.62 210.129 42.3146 210.458 43.1167C210.802 43.9188 210.974 44.7925 210.974 45.7378C210.974 46.6831 210.802 47.5568 210.458 48.3589C210.129 49.161 209.663 49.8556 209.062 50.4429C208.46 51.0301 207.737 51.4956 206.892 51.8394C206.061 52.1688 205.144 52.3335 204.142 52.3335H195.355V32.5249H199.308V39.1421H204.142ZM204.142 48.5952C204.901 48.5952 205.567 48.3088 206.14 47.7358C206.727 47.1629 207.021 46.4969 207.021 45.7378C207.021 44.9787 206.734 44.3127 206.161 43.7397C205.588 43.1668 204.915 42.8804 204.142 42.8804H199.308V48.5952H204.142ZM241.966 32.5249V52.3335H238.013V44.1909H228.538V52.3335H224.585V32.5249H228.538V40.4526H238.013V32.5249H241.966ZM255.013 32.3101C256.158 32.3101 257.204 32.4963 258.149 32.8687C259.109 33.2267 259.925 33.7209 260.598 34.3511C261.272 34.9813 261.794 35.7261 262.167 36.5854C262.539 37.4305 262.725 38.3543 262.725 39.3569V52.3335H259.868L258.987 50.3569C258.6 50.7723 258.142 51.1375 257.612 51.4526C257.139 51.7391 256.545 51.9969 255.829 52.2261C255.113 52.4409 254.253 52.5483 253.251 52.5483C251.045 52.5483 249.355 52.0041 248.18 50.9155C247.02 49.8127 246.44 48.3804 246.44 46.6187C246.44 45.616 246.626 44.7137 246.999 43.9116C247.386 43.0952 248.037 42.4077 248.954 41.8491C249.885 41.2762 251.138 40.8322 252.714 40.5171C254.304 40.1877 256.316 40.0229 258.751 40.0229V39.3569C258.751 38.3543 258.436 37.5522 257.805 36.9507C257.175 36.3491 256.244 36.0483 255.013 36.0483C253.695 36.0483 252.735 36.2847 252.134 36.7573C251.532 37.23 251.174 37.8029 251.059 38.4761H247.106C247.221 36.7144 247.958 35.2463 249.319 34.0718C250.68 32.8973 252.578 32.3101 255.013 32.3101ZM253.487 49.0249C255.163 49.0249 256.459 48.5952 257.376 47.7358C258.292 46.8765 258.751 45.8309 258.751 44.5991V43.5249C256.989 43.5249 255.564 43.6108 254.475 43.7827C253.401 43.9403 252.556 44.1623 251.94 44.4487C251.324 44.7209 250.909 45.0646 250.694 45.48C250.494 45.881 250.393 46.3322 250.393 46.8335C250.393 47.3921 250.658 47.9006 251.188 48.3589C251.718 48.8029 252.485 49.0249 253.487 49.0249ZM295.006 32.5249V52.3335H291.053V36.2632H281.579V52.3335H277.626V32.5249H295.006ZM308.053 32.3101C309.199 32.3101 310.245 32.4963 311.19 32.8687C312.149 33.2267 312.966 33.7209 313.639 34.3511C314.312 34.9813 314.835 35.7261 315.207 36.5854C315.58 37.4305 315.766 38.3543 315.766 39.3569V52.3335H312.909L312.028 50.3569C311.641 50.7723 311.183 51.1375 310.653 51.4526C310.18 51.7391 309.586 51.9969 308.87 52.2261C308.153 52.4409 307.294 52.5483 306.291 52.5483C304.086 52.5483 302.396 52.0041 301.221 50.9155C300.061 49.8127 299.481 48.3804 299.481 46.6187C299.481 45.616 299.667 44.7137 300.039 43.9116C300.426 43.0952 301.078 42.4077 301.995 41.8491C302.926 41.2762 304.179 40.8322 305.754 40.5171C307.344 40.1877 309.357 40.0229 311.791 40.0229V39.3569C311.791 38.3543 311.476 37.5522 310.846 36.9507C310.216 36.3491 309.285 36.0483 308.053 36.0483C306.735 36.0483 305.776 36.2847 305.174 36.7573C304.573 37.23 304.215 37.8029 304.1 38.4761H300.147C300.261 36.7144 300.999 35.2463 302.36 34.0718C303.72 32.8973 305.618 32.3101 308.053 32.3101ZM306.528 49.0249C308.204 49.0249 309.5 48.5952 310.416 47.7358C311.333 46.8765 311.791 45.8309 311.791 44.5991V43.5249C310.03 43.5249 308.605 43.6108 307.516 43.7827C306.442 43.9403 305.597 44.1623 304.981 44.4487C304.365 44.7209 303.95 45.0646 303.735 45.48C303.534 45.881 303.434 46.3322 303.434 46.8335C303.434 47.3921 303.699 47.9006 304.229 48.3589C304.759 48.8029 305.525 49.0249 306.528 49.0249ZM318.694 32.5249H322.883L328.383 46.8335L333.883 32.5249H338.073L329.694 53.644C329.25 54.7612 328.813 55.6922 328.383 56.437C327.968 57.1961 327.509 57.8049 327.008 58.2632C326.521 58.7358 325.977 59.0724 325.375 59.2729C324.774 59.4878 324.093 59.5952 323.334 59.5952C323.162 59.5952 322.998 59.5881 322.84 59.5737C322.697 59.5594 322.554 59.5379 322.41 59.5093C322.267 59.4806 322.131 59.4377 322.002 59.3804V56.0718C323.119 56.0718 323.964 55.8354 324.537 55.3628C325.11 54.9045 325.511 54.3315 325.741 53.644L326.407 51.6675L318.694 32.5249ZM351.979 42.2144C352.48 42.4722 352.917 42.8088 353.289 43.2241C353.619 43.5822 353.927 44.0262 354.213 44.5562C354.514 45.0718 354.664 45.6877 354.664 46.4038C354.664 48.1655 354.027 49.6336 352.752 50.8081C351.492 51.9683 349.708 52.5483 347.402 52.5483C344.968 52.5483 343.141 51.9754 341.924 50.8296C340.707 49.6838 340.033 48.0581 339.904 45.9526H343.879C343.994 46.8263 344.33 47.521 344.889 48.0366C345.447 48.5522 346.285 48.8101 347.402 48.8101C348.634 48.8101 349.522 48.5809 350.067 48.1226C350.625 47.6499 350.904 47.077 350.904 46.4038C350.904 45.7306 350.625 45.1577 350.067 44.6851C349.522 44.2124 348.634 43.9761 347.402 43.9761H345.641V40.4526H347.402C348.52 40.4526 349.307 40.2306 349.766 39.7866C350.238 39.3283 350.475 38.8198 350.475 38.2612C350.475 37.7026 350.238 37.1942 349.766 36.7358C349.293 36.2775 348.505 36.0483 347.402 36.0483C346.4 36.0483 345.626 36.2847 345.082 36.7573C344.538 37.23 344.208 37.8029 344.094 38.4761H340.141C340.255 36.5998 340.914 35.103 342.117 33.9858C343.32 32.8687 345.082 32.3101 347.402 32.3101C348.462 32.3101 349.408 32.4676 350.238 32.7827C351.069 33.0835 351.778 33.506 352.365 34.0503C352.953 34.5946 353.404 35.2248 353.719 35.9409C354.048 36.6571 354.213 37.4305 354.213 38.2612C354.213 38.9344 354.091 39.5216 353.848 40.0229C353.619 40.5099 353.361 40.9181 353.074 41.2476C352.759 41.6343 352.394 41.9565 351.979 42.2144ZM356.732 32.5249H360.922L366.422 46.8335L371.922 32.5249H376.111L367.732 53.644C367.288 54.7612 366.852 55.6922 366.422 56.437C366.007 57.1961 365.548 57.8049 365.047 58.2632C364.56 58.7358 364.016 59.0724 363.414 59.2729C362.812 59.4878 362.132 59.5952 361.373 59.5952C361.201 59.5952 361.036 59.5881 360.879 59.5737C360.736 59.5594 360.592 59.5379 360.449 59.5093C360.306 59.4806 360.17 59.4377 360.041 59.3804V56.0718C361.158 56.0718 362.003 55.8354 362.576 55.3628C363.149 54.9045 363.55 54.3315 363.779 53.644L364.445 51.6675L356.732 32.5249Z" fill="#3F8AE0"/>
</svg>
