<svg width="710" height="141" viewBox="0 0 710 141" fill="none" xmlns="http://www.w3.org/2000/svg">
<path d="M35.4062 15.9844V52H28.2188V22.7812H10.9922V52H3.80469V15.9844H35.4062ZM62.4641 15.5938C64.8599 15.5938 67.0995 16.0495 69.1828 16.9609C71.2661 17.8724 73.0891 19.1484 74.6516 20.7891C76.2401 22.4036 77.4771 24.3307 78.3625 26.5703C79.2479 28.8099 79.6906 31.2839 79.6906 33.9922C79.6906 36.7005 79.2479 39.1875 78.3625 41.4531C77.4771 43.6927 76.2401 45.6328 74.6516 47.2734C73.0891 48.888 71.2661 50.151 69.1828 51.0625C67.0995 51.9479 64.8599 52.3906 62.4641 52.3906C60.7453 52.3906 59.274 52.1953 58.05 51.8047C56.826 51.4141 55.7974 50.9453 54.9641 50.3984C54.0005 49.7995 53.1672 49.1354 52.4641 48.4062V64.8125H45.2766V15.9844H50.4719L52.0734 19.6172C52.7766 18.862 53.5969 18.1849 54.5344 17.5859C55.3937 17.1172 56.4745 16.6745 57.7766 16.2578C59.0786 15.8151 60.6411 15.5938 62.4641 15.5938ZM62.0734 45.5938C63.4536 45.5938 64.7687 45.3203 66.0187 44.7734C67.2687 44.2005 68.3755 43.3932 69.3391 42.3516C70.3026 41.3099 71.0578 40.0859 71.6047 38.6797C72.1776 37.2734 72.4641 35.7109 72.4641 33.9922C72.4641 32.2734 72.1776 30.7109 71.6047 29.3047C71.0578 27.8984 70.3026 26.6745 69.3391 25.6328C68.3755 24.5911 67.2687 23.7969 66.0187 23.25C64.7687 22.6771 63.4536 22.3906 62.0734 22.3906C60.6932 22.3906 59.3651 22.6771 58.0891 23.25C56.8391 23.7969 55.7323 24.5911 54.7687 25.6328C53.8312 26.6745 53.076 27.9115 52.5031 29.3438C51.9562 30.75 51.6828 32.2995 51.6828 33.9922C51.6828 35.7109 51.9562 37.2734 52.5031 38.6797C53.076 40.0859 53.8312 41.3099 54.7687 42.3516C55.7323 43.3932 56.8391 44.2005 58.0891 44.7734C59.3651 45.3203 60.6932 45.5938 62.0734 45.5938ZM112.803 33.9922C112.803 32.2734 112.517 30.7109 111.944 29.3047C111.397 27.8984 110.668 26.6745 109.756 25.6328C108.845 24.5911 107.777 23.7969 106.553 23.25C105.329 22.6771 104.079 22.3906 102.803 22.3906C101.527 22.3906 100.277 22.6771 99.0531 23.25C97.8292 23.7969 96.7615 24.5911 95.85 25.6328C94.9385 26.6745 94.1964 27.9115 93.6234 29.3438C93.0766 30.75 92.8031 32.2995 92.8031 33.9922C92.8031 35.7109 93.0766 37.2734 93.6234 38.6797C94.1964 40.0859 94.9385 41.3099 95.85 42.3516C96.7615 43.3932 97.8292 44.2005 99.0531 44.7734C100.277 45.3203 101.527 45.5938 102.803 45.5938C104.079 45.5938 105.329 45.3203 106.553 44.7734C107.777 44.2005 108.845 43.3932 109.756 42.3516C110.668 41.3099 111.397 40.0859 111.944 38.6797C112.517 37.2734 112.803 35.7109 112.803 33.9922ZM119.991 33.9922C119.991 36.7005 119.548 39.1875 118.662 41.4531C117.803 43.6927 116.579 45.6328 114.991 47.2734C113.428 48.888 111.605 50.151 109.522 51.0625C107.439 51.9479 105.199 52.3906 102.803 52.3906C100.407 52.3906 98.1677 51.9479 96.0844 51.0625C94.001 50.151 92.1651 48.888 90.5766 47.2734C89.0141 45.6328 87.7901 43.6927 86.9047 41.4531C86.0453 39.2135 85.6156 36.7266 85.6156 33.9922C85.6156 31.2839 86.0453 28.8099 86.9047 26.5703C87.7901 24.3307 89.0141 22.4036 90.5766 20.7891C92.1651 19.1484 94.001 17.8724 96.0844 16.9609C98.1677 16.0495 100.407 15.5938 102.803 15.5938C105.199 15.5938 107.439 16.0495 109.522 16.9609C111.605 17.8724 113.428 19.1484 114.991 20.7891C116.579 22.4036 117.803 24.3307 118.662 26.5703C119.548 28.8099 119.991 31.2839 119.991 33.9922ZM159.119 38.7969C158.702 40.724 158.038 42.5208 157.127 44.1875C156.215 45.8281 155.056 47.2604 153.65 48.4844C152.27 49.7083 150.681 50.6719 148.884 51.375C147.114 52.0521 145.186 52.3906 143.103 52.3906C140.707 52.3906 138.468 51.9479 136.384 51.0625C134.301 50.151 132.465 48.888 130.877 47.2734C129.314 45.6328 128.09 43.6927 127.205 41.4531C126.345 39.2135 125.916 36.7266 125.916 33.9922C125.916 31.2839 126.345 28.8099 127.205 26.5703C128.09 24.3307 129.314 22.4036 130.877 20.7891C132.465 19.1484 134.301 17.8724 136.384 16.9609C138.468 16.0495 140.707 15.5938 143.103 15.5938C145.186 15.5938 147.114 15.9453 148.884 16.6484C150.681 17.3255 152.27 18.2891 153.65 19.5391C155.056 20.763 156.202 22.2083 157.088 23.875C157.999 25.5156 158.676 27.2865 159.119 29.1875H151.502C150.903 27.1562 149.913 25.5156 148.533 24.2656C147.153 23.0156 145.343 22.3906 143.103 22.3906C141.827 22.3906 140.577 22.6771 139.353 23.25C138.129 23.7969 137.061 24.5911 136.15 25.6328C135.239 26.6745 134.496 27.9115 133.923 29.3438C133.377 30.75 133.103 32.2995 133.103 33.9922C133.103 35.7109 133.377 37.2734 133.923 38.6797C134.496 40.0859 135.239 41.3099 136.15 42.3516C137.061 43.3932 138.129 44.2005 139.353 44.7734C140.577 45.3203 141.827 45.5938 143.103 45.5938C145.343 45.5938 147.153 44.9688 148.533 43.7188C149.939 42.4688 150.929 40.8281 151.502 38.7969H159.119ZM198.247 15.9844V52H191.059V22.7812H173.833V52H166.645V15.9844H198.247ZM222.102 15.5938C224.185 15.5938 226.086 15.9323 227.805 16.6094C229.549 17.2604 231.034 18.1589 232.258 19.3047C233.482 20.4505 234.432 21.8047 235.109 23.3672C235.786 24.9036 236.125 26.5833 236.125 28.4062V52H230.93L229.328 48.4062C228.625 49.1615 227.792 49.8255 226.828 50.3984C225.969 50.9193 224.888 51.388 223.586 51.8047C222.284 52.1953 220.721 52.3906 218.898 52.3906C214.888 52.3906 211.815 51.401 209.68 49.4219C207.57 47.4167 206.516 44.8125 206.516 41.6094C206.516 39.7865 206.854 38.1458 207.531 36.6875C208.234 35.2031 209.419 33.9531 211.086 32.9375C212.779 31.8958 215.057 31.0885 217.922 30.5156C220.812 29.9167 224.471 29.6172 228.898 29.6172V28.4062C228.898 26.5833 228.326 25.125 227.18 24.0312C226.034 22.9375 224.341 22.3906 222.102 22.3906C219.706 22.3906 217.961 22.8203 216.867 23.6797C215.773 24.5391 215.122 25.5807 214.914 26.8047H207.727C207.935 23.6016 209.276 20.9323 211.75 18.7969C214.224 16.6615 217.674 15.5938 222.102 15.5938ZM219.328 45.9844C222.375 45.9844 224.732 45.2031 226.398 43.6406C228.065 42.0781 228.898 40.1771 228.898 37.9375V35.9844C225.695 35.9844 223.104 36.1406 221.125 36.4531C219.172 36.7396 217.635 37.1432 216.516 37.6641C215.396 38.1589 214.641 38.7839 214.25 39.5391C213.885 40.2682 213.703 41.0885 213.703 42C213.703 43.0156 214.185 43.9401 215.148 44.7734C216.112 45.5807 217.505 45.9844 219.328 45.9844ZM275.214 15.9844V52H267.988V22.7812H255.995L254.784 40.0078C254.524 44.0182 253.378 47.0911 251.347 49.2266C249.342 51.3359 246.62 52.3906 243.183 52.3906C242.87 52.3906 242.584 52.3776 242.323 52.3516C242.063 52.3255 241.79 52.2865 241.503 52.2344C241.243 52.1823 241.008 52.1042 240.8 52V45.9844H241.581C245.253 45.9844 247.258 43.9922 247.597 40.0078L249.589 15.9844H275.214ZM320.189 15.5938C322.585 15.5938 324.824 16.0495 326.908 16.9609C328.991 17.8724 330.814 19.1484 332.377 20.7891C333.965 22.4036 335.202 24.3307 336.087 26.5703C336.973 28.8099 337.416 31.2839 337.416 33.9922C337.416 36.7005 336.973 39.1875 336.087 41.4531C335.202 43.6927 333.965 45.6328 332.377 47.2734C330.814 48.888 328.991 50.151 326.908 51.0625C324.824 51.9479 322.585 52.3906 320.189 52.3906C318.47 52.3906 316.999 52.1953 315.775 51.8047C314.551 51.4141 313.522 50.9453 312.689 50.3984C311.726 49.7995 310.892 49.1354 310.189 48.4062V64.8125H303.002V15.9844H308.197L309.798 19.6172C310.502 18.862 311.322 18.1849 312.259 17.5859C313.119 17.1172 314.199 16.6745 315.502 16.2578C316.804 15.8151 318.366 15.5938 320.189 15.5938ZM319.798 45.5938C321.179 45.5938 322.494 45.3203 323.744 44.7734C324.994 44.2005 326.101 43.3932 327.064 42.3516C328.028 41.3099 328.783 40.0859 329.33 38.6797C329.903 37.2734 330.189 35.7109 330.189 33.9922C330.189 32.2734 329.903 30.7109 329.33 29.3047C328.783 27.8984 328.028 26.6745 327.064 25.6328C326.101 24.5911 324.994 23.7969 323.744 23.25C322.494 22.6771 321.179 22.3906 319.798 22.3906C318.418 22.3906 317.09 22.6771 315.814 23.25C314.564 23.7969 313.457 24.5911 312.494 25.6328C311.556 26.6745 310.801 27.9115 310.228 29.3438C309.681 30.75 309.408 32.2995 309.408 33.9922C309.408 35.7109 309.681 37.2734 310.228 38.6797C310.801 40.0859 311.556 41.3099 312.494 42.3516C313.457 43.3932 314.564 44.2005 315.814 44.7734C317.09 45.3203 318.418 45.5938 319.798 45.5938ZM359.317 15.5938C361.401 15.5938 363.302 15.9323 365.02 16.6094C366.765 17.2604 368.249 18.1589 369.473 19.3047C370.697 20.4505 371.648 21.8047 372.325 23.3672C373.002 24.9036 373.341 26.5833 373.341 28.4062V52H368.145L366.544 48.4062C365.841 49.1615 365.007 49.8255 364.044 50.3984C363.184 50.9193 362.104 51.388 360.802 51.8047C359.499 52.1953 357.937 52.3906 356.114 52.3906C352.104 52.3906 349.031 51.401 346.895 49.4219C344.786 47.4167 343.731 44.8125 343.731 41.6094C343.731 39.7865 344.07 38.1458 344.747 36.6875C345.45 35.2031 346.635 33.9531 348.302 32.9375C349.994 31.8958 352.273 31.0885 355.138 30.5156C358.028 29.9167 361.687 29.6172 366.114 29.6172V28.4062C366.114 26.5833 365.541 25.125 364.395 24.0312C363.249 22.9375 361.557 22.3906 359.317 22.3906C356.921 22.3906 355.177 22.8203 354.083 23.6797C352.989 24.5391 352.338 25.5807 352.13 26.8047H344.942C345.151 23.6016 346.492 20.9323 348.966 18.7969C351.44 16.6615 354.89 15.5938 359.317 15.5938ZM356.544 45.9844C359.591 45.9844 361.947 45.2031 363.614 43.6406C365.281 42.0781 366.114 40.1771 366.114 37.9375V35.9844C362.911 35.9844 360.32 36.1406 358.341 36.4531C356.388 36.7396 354.851 37.1432 353.731 37.6641C352.611 38.1589 351.856 38.7839 351.466 39.5391C351.101 40.2682 350.919 41.0885 350.919 42C350.919 43.0156 351.401 43.9401 352.364 44.7734C353.328 45.5807 354.721 45.9844 356.544 45.9844ZM399.617 17.1953C401.805 17.1953 403.901 17.651 405.906 18.5625C407.911 19.474 409.656 20.724 411.141 22.3125C412.625 23.875 413.81 25.724 414.695 27.8594C415.581 29.9688 416.023 32.2865 416.023 34.8125C416.023 37.3125 415.581 39.6302 414.695 41.7656C413.81 43.901 412.573 45.763 410.984 47.3516C409.422 48.9141 407.599 50.151 405.516 51.0625C403.458 51.9479 401.219 52.3906 398.797 52.3906C396.297 52.3906 393.979 51.9349 391.844 51.0234C389.708 50.0859 387.859 48.6667 386.297 46.7656C384.734 44.8646 383.497 42.5208 382.586 39.7344C381.674 36.9219 381.219 33.6797 381.219 30.0078C381.219 24.8255 381.74 20.4245 382.781 16.8047C383.823 13.1849 385.529 10.2292 387.898 7.9375C390.268 5.61979 393.38 3.90104 397.234 2.78125C401.115 1.66146 405.906 0.997396 411.609 0.789062V8.01562C407.286 8.11979 403.719 8.48438 400.906 9.10938C398.12 9.70833 395.88 10.6068 394.188 11.8047C392.521 13.0026 391.284 14.513 390.477 16.3359C389.695 18.1328 389.135 20.2812 388.797 22.7812C389.5 21.7656 390.359 20.8411 391.375 20.0078C392.286 19.3047 393.406 18.6667 394.734 18.0938C396.062 17.4948 397.69 17.1953 399.617 17.1953ZM398.797 45.5938C400.073 45.5938 401.323 45.3203 402.547 44.7734C403.797 44.2005 404.865 43.4193 405.75 42.4297C406.661 41.4401 407.391 40.2943 407.938 38.9922C408.51 37.6901 408.797 36.2969 408.797 34.8125C408.797 33.3281 408.51 31.9349 407.938 30.6328C407.391 29.3047 406.661 28.1458 405.75 27.1562C404.865 26.1667 403.81 25.3984 402.586 24.8516C401.362 24.2786 400.099 23.9922 398.797 23.9922C397.521 23.9922 396.271 24.2786 395.047 24.8516C393.823 25.3984 392.755 26.1667 391.844 27.1562C390.932 28.1458 390.19 29.2917 389.617 30.5938C389.07 31.8958 388.797 33.3021 388.797 34.8125C388.797 36.2969 389.07 37.6901 389.617 38.9922C390.19 40.2943 390.932 41.4401 391.844 42.4297C392.755 43.4193 393.823 44.2005 395.047 44.7734C396.271 45.3203 397.521 45.5938 398.797 45.5938ZM449.097 33.9922C449.097 32.2734 448.81 30.7109 448.237 29.3047C447.691 27.8984 446.961 26.6745 446.05 25.6328C445.139 24.5911 444.071 23.7969 442.847 23.25C441.623 22.6771 440.373 22.3906 439.097 22.3906C437.821 22.3906 436.571 22.6771 435.347 23.25C434.123 23.7969 433.055 24.5911 432.144 25.6328C431.232 26.6745 430.49 27.9115 429.917 29.3438C429.37 30.75 429.097 32.2995 429.097 33.9922C429.097 35.7109 429.37 37.2734 429.917 38.6797C430.49 40.0859 431.232 41.3099 432.144 42.3516C433.055 43.3932 434.123 44.2005 435.347 44.7734C436.571 45.3203 437.821 45.5938 439.097 45.5938C440.373 45.5938 441.623 45.3203 442.847 44.7734C444.071 44.2005 445.139 43.3932 446.05 42.3516C446.961 41.3099 447.691 40.0859 448.237 38.6797C448.81 37.2734 449.097 35.7109 449.097 33.9922ZM456.284 33.9922C456.284 36.7005 455.842 39.1875 454.956 41.4531C454.097 43.6927 452.873 45.6328 451.284 47.2734C449.722 48.888 447.899 50.151 445.816 51.0625C443.732 51.9479 441.493 52.3906 439.097 52.3906C436.701 52.3906 434.461 51.9479 432.378 51.0625C430.295 50.151 428.459 48.888 426.87 47.2734C425.308 45.6328 424.084 43.6927 423.198 41.4531C422.339 39.2135 421.909 36.7266 421.909 33.9922C421.909 31.2839 422.339 28.8099 423.198 26.5703C424.084 24.3307 425.308 22.4036 426.87 20.7891C428.459 19.1484 430.295 17.8724 432.378 16.9609C434.461 16.0495 436.701 15.5938 439.097 15.5938C441.493 15.5938 443.732 16.0495 445.816 16.9609C447.899 17.8724 449.722 19.1484 451.284 20.7891C452.873 22.4036 454.097 24.3307 454.956 26.5703C455.842 28.8099 456.284 31.2839 456.284 33.9922ZM459.827 15.9844H489.397V22.7812H478.225V52H470.998V22.7812H459.827V15.9844ZM491.728 15.9844H499.345L509.345 42L519.345 15.9844H526.962L511.728 54.3828C510.921 56.4141 510.127 58.1068 509.345 59.4609C508.59 60.8411 507.757 61.9479 506.845 62.7812C505.96 63.6406 504.97 64.2526 503.877 64.6172C502.783 65.0078 501.546 65.2031 500.166 65.2031C499.853 65.2031 499.554 65.1901 499.267 65.1641C499.007 65.138 498.746 65.099 498.486 65.0469C498.226 64.9948 497.978 64.9167 497.744 64.8125V58.7969C499.775 58.7969 501.311 58.3672 502.353 57.5078C503.395 56.6745 504.124 55.6328 504.541 54.3828L505.752 50.7891L491.728 15.9844ZM560.036 15.5938C560.036 17.5208 559.749 19.1484 559.177 20.4766C558.63 21.8047 557.914 22.9766 557.028 23.9922C556.169 25.0078 555.244 25.9583 554.255 26.8438C553.265 27.7292 552.328 28.6927 551.442 29.7344C550.557 30.776 549.828 31.987 549.255 33.3672C548.708 34.7474 548.434 36.4271 548.434 38.4062V39.1875H541.247V38.4062C541.247 35.9062 541.52 33.7839 542.067 32.0391C542.64 30.2943 543.369 28.8099 544.255 27.5859C545.14 26.362 546.065 25.3203 547.028 24.4609C548.018 23.5755 548.955 22.7031 549.841 21.8438C550.726 20.9844 551.442 20.0729 551.989 19.1094C552.562 18.1458 552.848 16.974 552.848 15.5938C552.848 13.5625 552.132 11.8568 550.7 10.4766C549.294 9.09635 547.471 8.40625 545.231 8.40625C542.992 8.40625 541.169 9.1875 539.763 10.75C538.356 12.2865 537.653 14.5651 537.653 17.5859V18.4062H530.427V17.5859C530.427 15.0859 530.804 12.8203 531.559 10.7891C532.315 8.75781 533.356 7.03906 534.684 5.63281C536.013 4.22656 537.575 3.14583 539.372 2.39062C541.195 1.60938 543.148 1.21875 545.231 1.21875C547.315 1.21875 549.255 1.59635 551.052 2.35156C552.874 3.08073 554.45 4.09635 555.778 5.39844C557.132 6.70052 558.174 8.23698 558.903 10.0078C559.658 11.7526 560.036 13.6146 560.036 15.5938ZM549.255 48.0156C549.255 49.2396 548.825 50.2812 547.966 51.1406C547.106 51.974 546.065 52.3906 544.841 52.3906C543.617 52.3906 542.575 51.974 541.716 51.1406C540.856 50.2812 540.427 49.2396 540.427 48.0156C540.427 46.7917 540.856 45.75 541.716 44.8906C542.575 44.0312 543.617 43.6016 544.841 43.6016C546.065 43.6016 547.106 44.0312 547.966 44.8906C548.825 45.75 549.255 46.7917 549.255 48.0156ZM392.859 95.9844V132H385.672V119.188C384.76 119.656 383.797 120.06 382.781 120.398C381.87 120.711 380.802 120.997 379.578 121.258C378.354 121.492 377.052 121.609 375.672 121.609C373.745 121.609 372 121.31 370.438 120.711C368.875 120.086 367.534 119.188 366.414 118.016C365.294 116.844 364.422 115.464 363.797 113.875C363.172 112.26 362.859 110.438 362.859 108.406V95.9844H370.086V108.406C370.086 110.438 370.724 112.078 372 113.328C373.276 114.578 375.034 115.203 377.273 115.203C378.497 115.203 379.617 115.086 380.633 114.852C381.648 114.591 382.534 114.305 383.289 113.992C384.201 113.68 384.995 113.276 385.672 112.781V95.9844H392.859ZM399.214 95.9844H428.784V102.781H417.612V132H410.386V102.781H399.214V95.9844ZM459.553 113.992C459.553 112.273 459.267 110.711 458.694 109.305C458.147 107.898 457.418 106.674 456.506 105.633C455.595 104.591 454.527 103.797 453.303 103.25C452.079 102.677 450.829 102.391 449.553 102.391C448.277 102.391 447.027 102.677 445.803 103.25C444.579 103.797 443.511 104.591 442.6 105.633C441.689 106.674 440.946 107.911 440.373 109.344C439.827 110.75 439.553 112.299 439.553 113.992C439.553 115.711 439.827 117.273 440.373 118.68C440.946 120.086 441.689 121.31 442.6 122.352C443.511 123.393 444.579 124.201 445.803 124.773C447.027 125.32 448.277 125.594 449.553 125.594C450.829 125.594 452.079 125.32 453.303 124.773C454.527 124.201 455.595 123.393 456.506 122.352C457.418 121.31 458.147 120.086 458.694 118.68C459.267 117.273 459.553 115.711 459.553 113.992ZM466.741 113.992C466.741 116.701 466.298 119.188 465.413 121.453C464.553 123.693 463.329 125.633 461.741 127.273C460.178 128.888 458.355 130.151 456.272 131.062C454.189 131.948 451.949 132.391 449.553 132.391C447.157 132.391 444.918 131.948 442.834 131.062C440.751 130.151 438.915 128.888 437.327 127.273C435.764 125.633 434.54 123.693 433.655 121.453C432.795 119.214 432.366 116.727 432.366 113.992C432.366 111.284 432.795 108.81 433.655 106.57C434.54 104.331 435.764 102.404 437.327 100.789C438.915 99.1484 440.751 97.8724 442.834 96.9609C444.918 96.0495 447.157 95.5938 449.553 95.5938C451.949 95.5938 454.189 96.0495 456.272 96.9609C458.355 97.8724 460.178 99.1484 461.741 100.789C463.329 102.404 464.553 104.331 465.413 106.57C466.298 108.81 466.741 111.284 466.741 113.992ZM526.13 125.203V140.398H519.333V132H494.528V140.398H487.731V125.203H490.114C490.869 124.682 491.546 124.096 492.145 123.445C492.666 122.846 493.161 122.143 493.63 121.336C494.124 120.503 494.424 119.526 494.528 118.406L496.95 95.9844H521.325V125.203H526.13ZM501.716 118.406C501.611 119.526 501.403 120.503 501.091 121.336C500.778 122.143 500.453 122.846 500.114 123.445C499.749 124.096 499.359 124.682 498.942 125.203H514.138V102.781H503.317L501.716 118.406ZM564.047 121.609C563.448 123.094 562.693 124.487 561.781 125.789C560.87 127.091 559.776 128.237 558.5 129.227C557.224 130.216 555.74 130.997 554.047 131.57C552.38 132.117 550.505 132.391 548.422 132.391C546.026 132.391 543.786 131.948 541.703 131.062C539.62 130.151 537.797 128.888 536.234 127.273C534.672 125.633 533.448 123.693 532.562 121.453C531.677 119.214 531.234 116.727 531.234 113.992C531.234 111.284 531.677 108.81 532.562 106.57C533.448 104.331 534.646 102.404 536.156 100.789C537.667 99.1484 539.451 97.8724 541.508 96.9609C543.565 96.0495 545.74 95.5938 548.031 95.5938C550.323 95.5938 552.497 96.0495 554.555 96.9609C556.612 97.8724 558.396 99.1484 559.906 100.789C561.417 102.404 562.615 104.331 563.5 106.57C564.385 108.81 564.828 111.284 564.828 113.992C564.828 114.409 564.802 114.826 564.75 115.242C564.698 115.633 564.646 115.971 564.594 116.258C564.542 116.622 564.49 116.935 564.438 117.195H538.812C538.917 118.315 539.242 119.383 539.789 120.398C540.336 121.414 541.013 122.312 541.82 123.094C542.654 123.849 543.643 124.461 544.789 124.93C545.935 125.372 547.146 125.594 548.422 125.594C550.609 125.594 552.341 125.125 553.617 124.188C554.919 123.25 555.857 122.391 556.43 121.609H564.047ZM548.031 102.391C545.635 102.391 543.604 103.211 541.938 104.852C540.297 106.466 539.255 108.589 538.812 111.219H558.031C557.615 108.615 556.547 106.492 554.828 104.852C553.135 103.211 550.87 102.391 548.031 102.391ZM601.964 95.9844V132H594.737V102.781H582.745L581.534 120.008C581.274 124.018 580.128 127.091 578.097 129.227C576.092 131.336 573.37 132.391 569.933 132.391C569.62 132.391 569.334 132.378 569.073 132.352C568.813 132.326 568.54 132.286 568.253 132.234C567.993 132.182 567.758 132.104 567.55 132V125.984H568.331C572.003 125.984 574.008 123.992 574.347 120.008L576.339 95.9844H601.964ZM625.858 95.5938C627.941 95.5938 629.842 95.9323 631.561 96.6094C633.306 97.2604 634.79 98.1589 636.014 99.3047C637.238 100.451 638.189 101.805 638.866 103.367C639.543 104.904 639.881 106.583 639.881 108.406V132H634.686L633.084 128.406C632.381 129.161 631.548 129.826 630.584 130.398C629.725 130.919 628.644 131.388 627.342 131.805C626.04 132.195 624.478 132.391 622.655 132.391C618.644 132.391 615.571 131.401 613.436 129.422C611.327 127.417 610.272 124.812 610.272 121.609C610.272 119.786 610.61 118.146 611.287 116.688C611.991 115.203 613.175 113.953 614.842 112.938C616.535 111.896 618.814 111.089 621.678 110.516C624.569 109.917 628.228 109.617 632.655 109.617V108.406C632.655 106.583 632.082 105.125 630.936 104.031C629.79 102.938 628.097 102.391 625.858 102.391C623.462 102.391 621.717 102.82 620.623 103.68C619.53 104.539 618.879 105.581 618.67 106.805H611.483C611.691 103.602 613.032 100.932 615.506 98.7969C617.98 96.6615 621.431 95.5938 625.858 95.5938ZM623.084 125.984C626.131 125.984 628.488 125.203 630.155 123.641C631.821 122.078 632.655 120.177 632.655 117.938V115.984C629.452 115.984 626.86 116.141 624.881 116.453C622.928 116.74 621.392 117.143 620.272 117.664C619.152 118.159 618.397 118.784 618.006 119.539C617.642 120.268 617.459 121.089 617.459 122C617.459 123.016 617.941 123.94 618.905 124.773C619.868 125.581 621.261 125.984 623.084 125.984ZM644.986 95.9844H674.556V102.781H663.384V132H656.158V102.781H644.986V95.9844ZM696.888 108.016C698.71 108.016 700.377 108.328 701.888 108.953C703.424 109.552 704.739 110.385 705.833 111.453C706.927 112.521 707.773 113.784 708.372 115.242C708.997 116.701 709.309 118.289 709.309 120.008C709.309 121.727 708.997 123.315 708.372 124.773C707.773 126.232 706.927 127.495 705.833 128.562C704.739 129.63 703.424 130.477 701.888 131.102C700.377 131.701 698.71 132 696.888 132H680.911V95.9844H688.098V108.016H696.888ZM696.888 125.203C698.268 125.203 699.479 124.682 700.52 123.641C701.588 122.599 702.122 121.388 702.122 120.008C702.122 118.628 701.601 117.417 700.559 116.375C699.518 115.333 698.294 114.812 696.888 114.812H688.098V125.203H696.888Z" fill="black"/>
<path d="M0.210938 95.9844H29.7812V102.781H18.6094V132H11.3828V102.781H0.210938V95.9844ZM75.7453 95.9844V132H68.5187V95.9844H75.7453ZM51.3312 108.016C53.1542 108.016 54.8208 108.328 56.3312 108.953C57.8417 109.552 59.1437 110.385 60.2375 111.453C61.3312 112.521 62.1776 113.784 62.7766 115.242C63.4016 116.701 63.7141 118.289 63.7141 120.008C63.7141 121.727 63.4016 123.315 62.7766 124.773C62.1776 126.232 61.3312 127.495 60.2375 128.562C59.1437 129.63 57.8417 130.477 56.3312 131.102C54.8208 131.701 53.1542 132 51.3312 132H36.1359V95.9844H43.3234V108.016H51.3312ZM51.3312 125.203C52.7115 125.203 53.9224 124.682 54.9641 123.641C56.0057 122.599 56.5266 121.388 56.5266 120.008C56.5266 118.628 56.0057 117.417 54.9641 116.375C53.9224 115.333 52.7115 114.812 51.3312 114.812H43.3234V125.203H51.3312ZM123.064 113.602C123.976 114.07 124.77 114.682 125.447 115.438C126.046 116.089 126.606 116.896 127.127 117.859C127.673 118.797 127.947 119.917 127.947 121.219C127.947 124.422 126.788 127.091 124.47 129.227C122.179 131.336 118.936 132.391 114.744 132.391C110.317 132.391 106.996 131.349 104.783 129.266C102.569 127.182 101.345 124.227 101.111 120.398H108.338C108.546 121.987 109.158 123.25 110.173 124.188C111.189 125.125 112.713 125.594 114.744 125.594C116.983 125.594 118.598 125.177 119.588 124.344C120.603 123.484 121.111 122.443 121.111 121.219C121.111 119.995 120.603 118.953 119.588 118.094C118.598 117.234 116.983 116.805 114.744 116.805H111.541V110.398H114.744C116.775 110.398 118.207 109.995 119.041 109.188C119.9 108.354 120.33 107.43 120.33 106.414C120.33 105.398 119.9 104.474 119.041 103.641C118.181 102.807 116.749 102.391 114.744 102.391C112.921 102.391 111.515 102.82 110.525 103.68C109.535 104.539 108.936 105.581 108.728 106.805H101.541C101.749 103.393 102.947 100.672 105.134 98.6406C107.322 96.6094 110.525 95.5938 114.744 95.5938C116.671 95.5938 118.39 95.8802 119.9 96.4531C121.41 97 122.699 97.7682 123.767 98.7578C124.835 99.7474 125.655 100.893 126.228 102.195C126.827 103.497 127.127 104.904 127.127 106.414C127.127 107.638 126.905 108.706 126.463 109.617C126.046 110.503 125.577 111.245 125.056 111.844C124.483 112.547 123.819 113.133 123.064 113.602ZM167.466 95.9844V132H160.278V117.195H143.052V132H135.864V95.9844H143.052V110.398H160.278V95.9844H167.466ZM191.32 95.5938C193.404 95.5938 195.305 95.9323 197.023 96.6094C198.768 97.2604 200.253 98.1589 201.477 99.3047C202.701 100.451 203.651 101.805 204.328 103.367C205.005 104.904 205.344 106.583 205.344 108.406V132H200.148L198.547 128.406C197.844 129.161 197.01 129.826 196.047 130.398C195.188 130.919 194.107 131.388 192.805 131.805C191.503 132.195 189.94 132.391 188.117 132.391C184.107 132.391 181.034 131.401 178.898 129.422C176.789 127.417 175.734 124.812 175.734 121.609C175.734 119.786 176.073 118.146 176.75 116.688C177.453 115.203 178.638 113.953 180.305 112.938C181.997 111.896 184.276 111.089 187.141 110.516C190.031 109.917 193.69 109.617 198.117 109.617V108.406C198.117 106.583 197.544 105.125 196.398 104.031C195.253 102.938 193.56 102.391 191.32 102.391C188.924 102.391 187.18 102.82 186.086 103.68C184.992 104.539 184.341 105.581 184.133 106.805H176.945C177.154 103.602 178.495 100.932 180.969 98.7969C183.443 96.6615 186.893 95.5938 191.32 95.5938ZM188.547 125.984C191.594 125.984 193.951 125.203 195.617 123.641C197.284 122.078 198.117 120.177 198.117 117.938V115.984C194.914 115.984 192.323 116.141 190.344 116.453C188.391 116.74 186.854 117.143 185.734 117.664C184.615 118.159 183.859 118.784 183.469 119.539C183.104 120.268 182.922 121.089 182.922 122C182.922 123.016 183.404 123.94 184.367 124.773C185.331 125.581 186.724 125.984 188.547 125.984ZM246.034 121.609C245.435 123.094 244.68 124.487 243.769 125.789C242.857 127.091 241.764 128.237 240.488 129.227C239.211 130.216 237.727 130.997 236.034 131.57C234.368 132.117 232.493 132.391 230.409 132.391C228.014 132.391 225.774 131.948 223.691 131.062C221.607 130.151 219.784 128.888 218.222 127.273C216.659 125.633 215.435 123.693 214.55 121.453C213.665 119.214 213.222 116.727 213.222 113.992C213.222 111.284 213.665 108.81 214.55 106.57C215.435 104.331 216.633 102.404 218.144 100.789C219.654 99.1484 221.438 97.8724 223.495 96.9609C225.553 96.0495 227.727 95.5938 230.019 95.5938C232.31 95.5938 234.485 96.0495 236.542 96.9609C238.599 97.8724 240.383 99.1484 241.894 100.789C243.404 102.404 244.602 104.331 245.488 106.57C246.373 108.81 246.816 111.284 246.816 113.992C246.816 114.409 246.79 114.826 246.738 115.242C246.685 115.633 246.633 115.971 246.581 116.258C246.529 116.622 246.477 116.935 246.425 117.195H220.8C220.904 118.315 221.23 119.383 221.777 120.398C222.323 121.414 223.001 122.312 223.808 123.094C224.641 123.849 225.631 124.461 226.777 124.93C227.922 125.372 229.133 125.594 230.409 125.594C232.597 125.594 234.329 125.125 235.605 124.188C236.907 123.25 237.844 122.391 238.417 121.609H246.034ZM230.019 102.391C227.623 102.391 225.592 103.211 223.925 104.852C222.284 106.466 221.243 108.589 220.8 111.219H240.019C239.602 108.615 238.534 106.492 236.816 104.852C235.123 103.211 232.857 102.391 230.019 102.391ZM300.319 95.9844V132H254.733V95.9844H261.92V125.203H273.913V95.9844H281.139V125.203H293.131V95.9844H300.319ZM326.244 108.016C328.067 108.016 329.733 108.328 331.244 108.953C332.78 109.552 334.095 110.385 335.189 111.453C336.283 112.521 337.129 113.784 337.728 115.242C338.353 116.701 338.666 118.289 338.666 120.008C338.666 121.727 338.353 123.315 337.728 124.773C337.129 126.232 336.283 127.495 335.189 128.562C334.095 129.63 332.78 130.477 331.244 131.102C329.733 131.701 328.067 132 326.244 132H310.267V95.9844H317.455V108.016H326.244ZM326.244 125.203C327.624 125.203 328.835 124.682 329.877 123.641C330.944 122.599 331.478 121.388 331.478 120.008C331.478 118.628 330.957 117.417 329.916 116.375C328.874 115.333 327.65 114.812 326.244 114.812H317.455V125.203H326.244Z" fill="#3F8AE0"/>
</svg>
