<svg width="523" height="89" viewBox="0 0 523 89" fill="none" xmlns="http://www.w3.org/2000/svg">
<rect x="0.0410156" width="522" height="88.6667" rx="18.3333" fill="#F2F3F5"/>
<path d="M41.0846 42.2144C41.5859 42.4722 42.0228 42.8088 42.3952 43.2241C42.7246 43.5822 43.0325 44.0262 43.319 44.5562C43.6198 45.0718 43.7702 45.6877 43.7702 46.4038C43.7702 48.1655 43.1328 49.6336 41.8581 50.8081C40.5976 51.9683 38.8144 52.5483 36.5085 52.5483C34.0736 52.5483 32.2474 51.9754 31.0299 50.8296C29.8125 49.6838 29.1393 48.0581 29.0104 45.9526H32.985C33.0996 46.8263 33.4362 47.521 33.9948 48.0366C34.5534 48.5522 35.3913 48.8101 36.5085 48.8101C37.7402 48.8101 38.6282 48.5809 39.1725 48.1226C39.7311 47.6499 40.0104 47.077 40.0104 46.4038C40.0104 45.7306 39.7311 45.1577 39.1725 44.6851C38.6282 44.2124 37.7402 43.9761 36.5085 43.9761H34.7467V40.4526H36.5085C37.6256 40.4526 38.4134 40.2306 38.8717 39.7866C39.3444 39.3283 39.5807 38.8198 39.5807 38.2612C39.5807 37.7026 39.3444 37.1942 38.8717 36.7358C38.3991 36.2775 37.6113 36.0483 36.5085 36.0483C35.5058 36.0483 34.7324 36.2847 34.1881 36.7573C33.6439 37.23 33.3144 37.8029 33.1999 38.4761H29.2467C29.3613 36.5998 30.0202 35.103 31.2233 33.9858C32.4264 32.8687 34.1881 32.3101 36.5085 32.3101C37.5683 32.3101 38.5137 32.4676 39.3444 32.7827C40.1751 33.0835 40.8841 33.506 41.4713 34.0503C42.0586 34.5946 42.5098 35.2248 42.8249 35.9409C43.1543 36.6571 43.319 37.4305 43.319 38.2612C43.319 38.9344 43.1973 39.5216 42.9538 40.0229C42.7246 40.5099 42.4668 40.9181 42.1803 41.2476C41.8652 41.6343 41.5 41.9565 41.0846 42.2144ZM55.7427 32.3101C56.8885 32.3101 57.9341 32.4963 58.8794 32.8687C59.8391 33.2267 60.6555 33.7209 61.3286 34.3511C62.0018 34.9813 62.5246 35.7261 62.897 36.5854C63.2694 37.4305 63.4556 38.3543 63.4556 39.3569V52.3335H60.5982L59.7173 50.3569C59.3306 50.7723 58.8723 51.1375 58.3423 51.4526C57.8697 51.7391 57.2753 51.9969 56.5591 52.2261C55.843 52.4409 54.9836 52.5483 53.981 52.5483C51.7753 52.5483 50.0851 52.0041 48.9107 50.9155C47.7505 49.8127 47.1704 48.3804 47.1704 46.6187C47.1704 45.616 47.3566 44.7137 47.729 43.9116C48.1157 43.0952 48.7674 42.4077 49.6841 41.8491C50.6151 41.2762 51.8683 40.8322 53.4439 40.5171C55.0337 40.1877 57.0461 40.0229 59.481 40.0229V39.3569C59.481 38.3543 59.1659 37.5522 58.5357 36.9507C57.9055 36.3491 56.9745 36.0483 55.7427 36.0483C54.425 36.0483 53.4654 36.2847 52.8638 36.7573C52.2622 37.23 51.9042 37.8029 51.7896 38.4761H47.8364C47.951 36.7144 48.6887 35.2463 50.0493 34.0718C51.41 32.8973 53.3078 32.3101 55.7427 32.3101ZM54.2173 49.0249C55.8931 49.0249 57.1893 48.5952 58.106 47.7358C59.0226 46.8765 59.481 45.8309 59.481 44.5991V43.5249C57.7193 43.5249 56.2941 43.6108 55.2056 43.7827C54.1314 43.9403 53.2863 44.1623 52.6704 44.4487C52.0545 44.7209 51.6392 45.0646 51.4243 45.48C51.2238 45.881 51.1236 46.3322 51.1236 46.8335C51.1236 47.3921 51.3885 47.9006 51.9185 48.3589C52.4484 48.8029 53.2147 49.0249 54.2173 49.0249ZM85.9769 32.5249V52.3335H82.0238V36.2632H72.5492V52.3335H68.5961V32.5249H85.9769ZM107.617 32.5249V52.3335H103.643V36.2632H97.0471L96.3811 45.7378C96.2379 47.9435 95.6077 49.6336 94.4905 50.8081C93.3876 51.9683 91.8909 52.5483 90.0003 52.5483C89.8284 52.5483 89.6708 52.5412 89.5276 52.5269C89.3844 52.5125 89.234 52.491 89.0764 52.4624C88.9332 52.4338 88.8043 52.3908 88.6897 52.3335V49.0249H89.1194C91.1389 49.0249 92.2418 47.9292 92.428 45.7378L93.5237 32.5249H107.617ZM120.686 32.3101C121.832 32.3101 122.877 32.4963 123.822 32.8687C124.782 33.2267 125.598 33.7209 126.272 34.3511C126.945 34.9813 127.468 35.7261 127.84 36.5854C128.212 37.4305 128.399 38.3543 128.399 39.3569V52.3335H125.541L124.66 50.3569C124.274 50.7723 123.815 51.1375 123.285 51.4526C122.813 51.7391 122.218 51.9969 121.502 52.2261C120.786 52.4409 119.927 52.5483 118.924 52.5483C116.718 52.5483 115.028 52.0041 113.854 50.9155C112.693 49.8127 112.113 48.3804 112.113 46.6187C112.113 45.616 112.3 44.7137 112.672 43.9116C113.059 43.0952 113.71 42.4077 114.627 41.8491C115.558 41.2762 116.811 40.8322 118.387 40.5171C119.977 40.1877 121.989 40.0229 124.424 40.0229V39.3569C124.424 38.3543 124.109 37.5522 123.479 36.9507C122.848 36.3491 121.917 36.0483 120.686 36.0483C119.368 36.0483 118.408 36.2847 117.807 36.7573C117.205 37.23 116.847 37.8029 116.733 38.4761H112.779C112.894 36.7144 113.632 35.2463 114.992 34.0718C116.353 32.8973 118.251 32.3101 120.686 32.3101ZM119.16 49.0249C120.836 49.0249 122.132 48.5952 123.049 47.7358C123.966 46.8765 124.424 45.8309 124.424 44.5991V43.5249C122.662 43.5249 121.237 43.6108 120.149 43.7827C119.074 43.9403 118.229 44.1623 117.613 44.4487C116.998 44.7209 116.582 45.0646 116.367 45.48C116.167 45.881 116.067 46.3322 116.067 46.8335C116.067 47.3921 116.332 47.9006 116.861 48.3589C117.391 48.8029 118.158 49.0249 119.16 49.0249ZM150.92 32.5249V52.3335H146.967V44.1909H137.492V52.3335H133.539V32.5249H137.492V40.4526H146.967V32.5249H150.92ZM173.656 32.5249V52.3335H169.703V38.4761L160.228 52.3335H156.275V32.5249H160.228V46.4038L169.703 32.5249H173.656ZM188.465 32.3101C189.782 32.3101 191.014 32.5607 192.16 33.062C193.306 33.5633 194.308 34.2651 195.168 35.1675C196.041 36.0555 196.722 37.1154 197.209 38.3472C197.696 39.5789 197.939 40.9396 197.939 42.4292C197.939 43.9188 197.696 45.2866 197.209 46.5327C196.722 47.7645 196.041 48.8315 195.168 49.7339C194.308 50.6219 193.306 51.3166 192.16 51.8179C191.014 52.3049 189.782 52.5483 188.465 52.5483C187.519 52.5483 186.71 52.4409 186.037 52.2261C185.364 52.0112 184.798 51.7534 184.34 51.4526C183.81 51.1232 183.351 50.758 182.965 50.3569V59.3804H179.011V32.5249H181.869L182.75 34.5229C183.136 34.1076 183.588 33.7352 184.103 33.4058C184.576 33.1479 185.17 32.9045 185.886 32.6753C186.603 32.4318 187.462 32.3101 188.465 32.3101ZM188.25 48.8101C189.009 48.8101 189.732 48.6597 190.42 48.3589C191.107 48.0438 191.716 47.5998 192.246 47.0269C192.776 46.4539 193.191 45.7808 193.492 45.0073C193.807 44.2339 193.965 43.3745 193.965 42.4292C193.965 41.4839 193.807 40.6245 193.492 39.8511C193.191 39.0776 192.776 38.4045 192.246 37.8315C191.716 37.2586 191.107 36.8218 190.42 36.521C189.732 36.2059 189.009 36.0483 188.25 36.0483C187.491 36.0483 186.76 36.2059 186.058 36.521C185.371 36.8218 184.762 37.2586 184.232 37.8315C183.717 38.4045 183.301 39.0848 182.986 39.8726C182.685 40.646 182.535 41.4982 182.535 42.4292C182.535 43.3745 182.685 44.2339 182.986 45.0073C183.301 45.7808 183.717 46.4539 184.232 47.0269C184.762 47.5998 185.371 48.0438 186.058 48.3589C186.76 48.6597 187.491 48.8101 188.25 48.8101ZM216.078 42.4292C216.078 41.4839 215.92 40.6245 215.605 39.8511C215.304 39.0776 214.903 38.4045 214.402 37.8315C213.901 37.2586 213.313 36.8218 212.64 36.521C211.967 36.2059 211.28 36.0483 210.578 36.0483C209.876 36.0483 209.188 36.2059 208.515 36.521C207.842 36.8218 207.255 37.2586 206.754 37.8315C206.252 38.4045 205.844 39.0848 205.529 39.8726C205.228 40.646 205.078 41.4982 205.078 42.4292C205.078 43.3745 205.228 44.2339 205.529 45.0073C205.844 45.7808 206.252 46.4539 206.754 47.0269C207.255 47.5998 207.842 48.0438 208.515 48.3589C209.188 48.6597 209.876 48.8101 210.578 48.8101C211.28 48.8101 211.967 48.6597 212.64 48.3589C213.313 48.0438 213.901 47.5998 214.402 47.0269C214.903 46.4539 215.304 45.7808 215.605 45.0073C215.92 44.2339 216.078 43.3745 216.078 42.4292ZM220.031 42.4292C220.031 43.9188 219.787 45.2866 219.3 46.5327C218.828 47.7645 218.155 48.8315 217.281 49.7339C216.421 50.6219 215.419 51.3166 214.273 51.8179C213.127 52.3049 211.895 52.5483 210.578 52.5483C209.26 52.5483 208.028 52.3049 206.882 51.8179C205.737 51.3166 204.727 50.6219 203.853 49.7339C202.994 48.8315 202.321 47.7645 201.834 46.5327C201.361 45.3009 201.125 43.9331 201.125 42.4292C201.125 40.9396 201.361 39.5789 201.834 38.3472C202.321 37.1154 202.994 36.0555 203.853 35.1675C204.727 34.2651 205.737 33.5633 206.882 33.062C208.028 32.5607 209.26 32.3101 210.578 32.3101C211.895 32.3101 213.127 32.5607 214.273 33.062C215.419 33.5633 216.421 34.2651 217.281 35.1675C218.155 36.0555 218.828 37.1154 219.3 38.3472C219.787 39.5789 220.031 40.9396 220.031 42.4292ZM237.289 41.9995C237.818 42.2573 238.291 42.6082 238.706 43.0522C239.065 43.439 239.394 43.9259 239.695 44.5132C239.996 45.0861 240.146 45.7879 240.146 46.6187C240.146 47.4351 239.996 48.1942 239.695 48.896C239.408 49.5978 239.007 50.1994 238.492 50.7007C237.99 51.202 237.367 51.603 236.623 51.9038C235.892 52.1903 235.09 52.3335 234.216 52.3335H224.312V32.5249H233.55C234.424 32.5249 235.226 32.6681 235.956 32.9546C236.701 33.2267 237.324 33.6134 237.826 34.1147C238.341 34.616 238.742 35.2033 239.029 35.8765C239.33 36.5496 239.48 37.2658 239.48 38.0249C239.48 38.7554 239.365 39.3641 239.136 39.8511C238.907 40.3381 238.656 40.7463 238.384 41.0757C238.069 41.4338 237.704 41.7417 237.289 41.9995ZM228.265 35.8335V40.6675H233.099C233.772 40.6675 234.345 40.4383 234.818 39.98C235.29 39.5073 235.527 38.9344 235.527 38.2612C235.527 37.5881 235.29 37.0151 234.818 36.5425C234.359 36.0698 233.787 35.8335 233.099 35.8335H228.265ZM233.765 49.0249C234.438 49.0249 235.011 48.7814 235.484 48.2944C235.956 47.7931 236.193 47.1629 236.193 46.4038C236.193 45.7306 235.956 45.1577 235.484 44.6851C235.011 44.2124 234.438 43.9761 233.765 43.9761H228.265V49.0249H233.765ZM252.118 32.3101C253.264 32.3101 254.31 32.4963 255.255 32.8687C256.215 33.2267 257.031 33.7209 257.704 34.3511C258.378 34.9813 258.9 35.7261 259.273 36.5854C259.645 37.4305 259.831 38.3543 259.831 39.3569V52.3335H256.974L256.093 50.3569C255.706 50.7723 255.248 51.1375 254.718 51.4526C254.245 51.7391 253.651 51.9969 252.935 52.2261C252.219 52.4409 251.359 52.5483 250.357 52.5483C248.151 52.5483 246.461 52.0041 245.286 50.9155C244.126 49.8127 243.546 48.3804 243.546 46.6187C243.546 45.616 243.732 44.7137 244.105 43.9116C244.492 43.0952 245.143 42.4077 246.06 41.8491C246.991 41.2762 248.244 40.8322 249.82 40.5171C251.41 40.1877 253.422 40.0229 255.857 40.0229V39.3569C255.857 38.3543 255.542 37.5522 254.911 36.9507C254.281 36.3491 253.35 36.0483 252.118 36.0483C250.801 36.0483 249.841 36.2847 249.24 36.7573C248.638 37.23 248.28 37.8029 248.165 38.4761H244.212C244.327 36.7144 245.064 35.2463 246.425 34.0718C247.786 32.8973 249.684 32.3101 252.118 32.3101ZM250.593 49.0249C252.269 49.0249 253.565 48.5952 254.482 47.7358C255.398 46.8765 255.857 45.8309 255.857 44.5991V43.5249C254.095 43.5249 252.67 43.6108 251.581 43.7827C250.507 43.9403 249.662 44.1623 249.046 44.4487C248.43 44.7209 248.015 45.0646 247.8 45.48C247.6 45.881 247.499 46.3322 247.499 46.8335C247.499 47.3921 247.764 47.9006 248.294 48.3589C248.824 48.8029 249.59 49.0249 250.593 49.0249ZM282.353 32.5249V52.3335H278.4V44.1909H268.925V52.3335H264.972V32.5249H268.925V40.4526H278.4V32.5249H282.353ZM305.089 32.5249V52.3335H301.136V44.1909H291.661V52.3335H287.708V32.5249H291.661V40.4526H301.136V32.5249H305.089ZM332.229 32.5249V52.3335H328.255V32.5249H332.229ZM318.802 39.1421C319.804 39.1421 320.721 39.314 321.552 39.6577C322.382 39.9871 323.099 40.4455 323.7 41.0327C324.302 41.62 324.767 42.3146 325.097 43.1167C325.44 43.9188 325.612 44.7925 325.612 45.7378C325.612 46.6831 325.44 47.5568 325.097 48.3589C324.767 49.161 324.302 49.8556 323.7 50.4429C323.099 51.0301 322.382 51.4956 321.552 51.8394C320.721 52.1688 319.804 52.3335 318.802 52.3335H310.444V32.5249H314.397V39.1421H318.802ZM318.802 48.5952C319.561 48.5952 320.227 48.3088 320.8 47.7358C321.373 47.1629 321.659 46.4969 321.659 45.7378C321.659 44.9787 321.373 44.3127 320.8 43.7397C320.227 43.1668 319.561 42.8804 318.802 42.8804H314.397V48.5952H318.802ZM354.987 32.5249V52.3335H351.034V38.4761L341.559 52.3335H337.606V32.5249H341.559V46.4038L351.034 32.5249H354.987ZM346.178 29.6675C344.617 29.6675 343.328 29.1877 342.311 28.228C341.309 27.2541 340.693 26.0509 340.464 24.6187H343.536C343.651 25.2918 343.951 25.8647 344.438 26.3374C344.925 26.7957 345.505 27.0249 346.178 27.0249C346.852 27.0249 347.432 26.7957 347.919 26.3374C348.406 25.8647 348.706 25.2918 348.821 24.6187H351.893C351.664 26.0509 351.041 27.2541 350.024 28.228C349.022 29.1877 347.74 29.6675 346.178 29.6675ZM377.364 32.3101C378.682 32.3101 379.913 32.5607 381.059 33.062C382.205 33.5633 383.208 34.2651 384.067 35.1675C384.941 36.0555 385.614 37.1154 386.086 38.3472C386.573 39.5789 386.817 40.9396 386.817 42.4292C386.817 43.9188 386.573 45.2866 386.086 46.5327C385.614 47.7645 384.941 48.8315 384.067 49.7339C383.208 50.6219 382.205 51.3166 381.059 51.8179C379.913 52.3049 378.682 52.5483 377.364 52.5483C376.218 52.5483 375.151 52.3621 374.163 51.9897C373.189 51.603 372.322 51.0874 371.563 50.4429C370.818 49.7983 370.21 49.0535 369.737 48.2085C369.279 47.3491 368.956 46.4539 368.77 45.5229H372.96C373.189 46.3966 373.668 47.1629 374.399 47.8218C375.144 48.4806 376.132 48.8101 377.364 48.8101C378.008 48.8101 378.631 48.6883 379.233 48.4448C379.835 48.187 380.364 47.8504 380.823 47.4351C381.295 47.0054 381.682 46.5112 381.983 45.9526C382.298 45.394 382.52 44.8068 382.649 44.1909H376.032V40.9038H382.649C382.534 40.2593 382.32 39.6434 382.004 39.0562C381.689 38.4689 381.295 37.9533 380.823 37.5093C380.364 37.0653 379.835 36.7144 379.233 36.4565C378.631 36.1844 378.008 36.0483 377.364 36.0483C376.132 36.0483 375.144 36.3778 374.399 37.0366C373.668 37.6955 373.189 38.4689 372.96 39.3569H368.77C368.942 38.4116 369.264 37.5164 369.737 36.6714C370.21 35.8263 370.818 35.0815 371.563 34.437C372.322 33.7782 373.189 33.2625 374.163 32.8901C375.151 32.5034 376.218 32.3101 377.364 32.3101ZM402.957 24.6187H406.911V33.6421C407.269 33.4129 407.662 33.1909 408.092 32.9761C408.479 32.8328 408.923 32.6896 409.424 32.5464C409.925 32.3888 410.484 32.3101 411.1 32.3101C412.246 32.3101 413.349 32.5607 414.409 33.062C415.483 33.5633 416.421 34.2651 417.223 35.1675C418.039 36.0555 418.684 37.1154 419.157 38.3472C419.644 39.5789 419.887 40.9396 419.887 42.4292C419.887 43.9188 419.644 45.2866 419.157 46.5327C418.684 47.7645 418.039 48.8315 417.223 49.7339C416.421 50.6219 415.483 51.3166 414.409 51.8179C413.349 52.3049 412.246 52.5483 411.1 52.5483C410.484 52.5483 409.925 52.4839 409.424 52.355C408.923 52.2261 408.479 52.0757 408.092 51.9038C407.648 51.7319 407.254 51.5099 406.911 51.2378V59.3804H402.957V51.2378C402.599 51.4956 402.205 51.7176 401.776 51.9038C401.389 52.0757 400.938 52.2261 400.422 52.355C399.907 52.4839 399.355 52.5483 398.768 52.5483C397.622 52.5483 396.512 52.3049 395.438 51.8179C394.378 51.3166 393.44 50.6219 392.623 49.7339C391.821 48.8315 391.177 47.7645 390.69 46.5327C390.217 45.3009 389.981 43.9331 389.981 42.4292C389.981 40.9396 390.217 39.5789 390.69 38.3472C391.177 37.1154 391.821 36.0555 392.623 35.1675C393.44 34.2651 394.378 33.5633 395.438 33.062C396.512 32.5607 397.622 32.3101 398.768 32.3101C399.355 32.3101 399.907 32.3888 400.422 32.5464C400.938 32.6896 401.389 32.8328 401.776 32.9761C402.22 33.1766 402.614 33.3986 402.957 33.6421V24.6187ZM402.957 37.8101C402.628 37.4806 402.277 37.187 401.905 36.9292C401.575 36.7 401.181 36.4995 400.723 36.3276C400.279 36.1414 399.778 36.0483 399.219 36.0483C398.517 36.0483 397.837 36.1987 397.178 36.4995C396.534 36.786 395.968 37.2085 395.481 37.7671C395.008 38.3257 394.629 38.9989 394.342 39.7866C394.07 40.5601 393.934 41.4409 393.934 42.4292C393.934 43.4318 394.07 44.327 394.342 45.1147C394.629 45.9025 395.008 46.5685 395.481 47.1128C395.968 47.6571 396.534 48.0796 397.178 48.3804C397.837 48.6668 398.517 48.8101 399.219 48.8101C399.778 48.8101 400.279 48.7241 400.723 48.5522C401.181 48.3804 401.575 48.1727 401.905 47.9292C402.291 47.6714 402.642 47.3778 402.957 47.0483V37.8101ZM406.911 47.0483C407.24 47.3778 407.591 47.6714 407.963 47.9292C408.293 48.1584 408.679 48.366 409.123 48.5522C409.582 48.7241 410.09 48.8101 410.649 48.8101C411.351 48.8101 412.024 48.6668 412.668 48.3804C413.327 48.0796 413.893 47.6571 414.366 47.1128C414.853 46.5685 415.232 45.9025 415.504 45.1147C415.791 44.327 415.934 43.4318 415.934 42.4292C415.934 41.4266 415.791 40.5386 415.504 39.7651C415.232 38.9917 414.853 38.3257 414.366 37.7671C413.893 37.2085 413.327 36.786 412.668 36.4995C412.024 36.1987 411.351 36.0483 410.649 36.0483C410.09 36.0483 409.582 36.1414 409.123 36.3276C408.679 36.4995 408.293 36.7 407.963 36.9292C407.577 37.187 407.226 37.4806 406.911 37.8101V47.0483ZM441.549 32.5249V52.3335H437.596V38.4761L428.121 52.3335H424.168V32.5249H428.121V46.4038L437.596 32.5249H441.549ZM456.358 32.3101C457.675 32.3101 458.907 32.5607 460.053 33.062C461.199 33.5633 462.201 34.2651 463.061 35.1675C463.934 36.0555 464.615 37.1154 465.102 38.3472C465.589 39.5789 465.832 40.9396 465.832 42.4292C465.832 43.9188 465.589 45.2866 465.102 46.5327C464.615 47.7645 463.934 48.8315 463.061 49.7339C462.201 50.6219 461.199 51.3166 460.053 51.8179C458.907 52.3049 457.675 52.5483 456.358 52.5483C455.412 52.5483 454.603 52.4409 453.93 52.2261C453.257 52.0112 452.691 51.7534 452.233 51.4526C451.703 51.1232 451.244 50.758 450.858 50.3569V59.3804H446.904V32.5249H449.762L450.643 34.5229C451.029 34.1076 451.481 33.7352 451.996 33.4058C452.469 33.1479 453.063 32.9045 453.779 32.6753C454.496 32.4318 455.355 32.3101 456.358 32.3101ZM456.143 48.8101C456.902 48.8101 457.625 48.6597 458.313 48.3589C459 48.0438 459.609 47.5998 460.139 47.0269C460.669 46.4539 461.084 45.7808 461.385 45.0073C461.7 44.2339 461.858 43.3745 461.858 42.4292C461.858 41.4839 461.7 40.6245 461.385 39.8511C461.084 39.0776 460.669 38.4045 460.139 37.8315C459.609 37.2586 459 36.8218 458.313 36.521C457.625 36.2059 456.902 36.0483 456.143 36.0483C455.384 36.0483 454.653 36.2059 453.951 36.521C453.264 36.8218 452.655 37.2586 452.125 37.8315C451.609 38.4045 451.194 39.0848 450.879 39.8726C450.578 40.646 450.428 41.4982 450.428 42.4292C450.428 43.3745 450.578 44.2339 450.879 45.0073C451.194 45.7808 451.609 46.4539 452.125 47.0269C452.655 47.5998 453.264 48.0438 453.951 48.3589C454.653 48.6597 455.384 48.8101 456.143 48.8101ZM491.898 32.5249V52.3335H487.924V32.5249H491.898ZM478.471 39.1421C479.473 39.1421 480.39 39.314 481.221 39.6577C482.051 39.9871 482.768 40.4455 483.369 41.0327C483.971 41.62 484.436 42.3146 484.766 43.1167C485.109 43.9188 485.281 44.7925 485.281 45.7378C485.281 46.6831 485.109 47.5568 484.766 48.3589C484.436 49.161 483.971 49.8556 483.369 50.4429C482.768 51.0301 482.051 51.4956 481.221 51.8394C480.39 52.1688 479.473 52.3335 478.471 52.3335H470.113V32.5249H474.066V39.1421H478.471ZM478.471 48.5952C479.23 48.5952 479.896 48.3088 480.469 47.7358C481.042 47.1629 481.328 46.4969 481.328 45.7378C481.328 44.9787 481.042 44.3127 480.469 43.7397C479.896 43.1668 479.23 42.8804 478.471 42.8804H474.066V48.5952H478.471Z" fill="black"/>
</svg>
