<svg width="673" height="212" viewBox="0 0 673 212" fill="none" xmlns="http://www.w3.org/2000/svg">
<path d="M8.00781 51H0L12.3828 32.6016L0.78125 14.9844H8.78906L16.7969 27.0156L24.8047 14.9844H32.8125L21.2109 32.6016L33.5938 51H25.5859L16.7969 37.7969L8.00781 51ZM55.8859 14.5938C58.2818 14.5938 60.5214 15.0495 62.6047 15.9609C64.688 16.8724 66.5109 18.1484 68.0734 19.7891C69.662 21.4036 70.899 23.3307 71.7844 25.5703C72.6698 27.8099 73.1125 30.2839 73.1125 32.9922C73.1125 35.7005 72.6698 38.1875 71.7844 40.4531C70.899 42.6927 69.662 44.6328 68.0734 46.2734C66.5109 47.888 64.688 49.151 62.6047 50.0625C60.5214 50.9479 58.2818 51.3906 55.8859 51.3906C54.1672 51.3906 52.6958 51.1953 51.4719 50.8047C50.2479 50.4141 49.2193 49.9453 48.3859 49.3984C47.4224 48.7995 46.5891 48.1354 45.8859 47.4062V63.8125H38.6984V14.9844H43.8937L45.4953 18.6172C46.1984 17.862 47.0187 17.1849 47.9562 16.5859C48.8156 16.1172 49.8964 15.6745 51.1984 15.2578C52.5005 14.8151 54.063 14.5938 55.8859 14.5938ZM55.4953 44.5938C56.8755 44.5938 58.1906 44.3203 59.4406 43.7734C60.6906 43.2005 61.7974 42.3932 62.7609 41.3516C63.7245 40.3099 64.4797 39.0859 65.0266 37.6797C65.5995 36.2734 65.8859 34.7109 65.8859 32.9922C65.8859 31.2734 65.5995 29.7109 65.0266 28.3047C64.4797 26.8984 63.7245 25.6745 62.7609 24.6328C61.7974 23.5911 60.6906 22.7969 59.4406 22.25C58.1906 21.6771 56.8755 21.3906 55.4953 21.3906C54.1151 21.3906 52.787 21.6771 51.5109 22.25C50.2609 22.7969 49.1542 23.5911 48.1906 24.6328C47.2531 25.6745 46.4979 26.9115 45.925 28.3438C45.3781 29.75 45.1047 31.2995 45.1047 32.9922C45.1047 34.7109 45.3781 36.2734 45.925 37.6797C46.4979 39.0859 47.2531 40.3099 48.1906 41.3516C49.1542 42.3932 50.2609 43.2005 51.5109 43.7734C52.787 44.3203 54.1151 44.5938 55.4953 44.5938ZM95.0141 14.5938C97.0974 14.5938 98.9984 14.9323 100.717 15.6094C102.462 16.2604 103.946 17.1589 105.17 18.3047C106.394 19.4505 107.345 20.8047 108.022 22.3672C108.699 23.9036 109.037 25.5833 109.037 27.4062V51H103.842L102.241 47.4062C101.537 48.1615 100.704 48.8255 99.7406 49.3984C98.8812 49.9193 97.8005 50.388 96.4984 50.8047C95.1964 51.1953 93.6339 51.3906 91.8109 51.3906C87.8005 51.3906 84.7276 50.401 82.5922 48.4219C80.4828 46.4167 79.4281 43.8125 79.4281 40.6094C79.4281 38.7865 79.7667 37.1458 80.4437 35.6875C81.1469 34.2031 82.3318 32.9531 83.9984 31.9375C85.6911 30.8958 87.9698 30.0885 90.8344 29.5156C93.725 28.9167 97.3839 28.6172 101.811 28.6172V27.4062C101.811 25.5833 101.238 24.125 100.092 23.0312C98.9464 21.9375 97.2536 21.3906 95.0141 21.3906C92.6182 21.3906 90.8734 21.8203 89.7797 22.6797C88.6859 23.5391 88.0349 24.5807 87.8266 25.8047H80.6391C80.8474 22.6016 82.1885 19.9323 84.6625 17.7969C87.1365 15.6615 90.587 14.5938 95.0141 14.5938ZM92.2406 44.9844C95.2875 44.9844 97.6443 44.2031 99.3109 42.6406C100.978 41.0781 101.811 39.1771 101.811 36.9375V34.9844C98.6078 34.9844 96.0167 35.1406 94.0375 35.4531C92.0844 35.7396 90.5479 36.1432 89.4281 36.6641C88.3083 37.1589 87.5531 37.7839 87.1625 38.5391C86.7979 39.2682 86.6156 40.0885 86.6156 41C86.6156 42.0156 87.0974 42.9401 88.0609 43.7734C89.0245 44.5807 90.4177 44.9844 92.2406 44.9844ZM150.119 14.9844V51H142.931V36.1953H125.705V51H118.517V14.9844H125.705V29.3984H142.931V14.9844H150.119ZM191.591 14.9844V51H184.403V25.8047L167.177 51H159.989V14.9844H167.177V40.2188L184.403 14.9844H191.591ZM250.941 14.9844V51H243.753V25.8047L226.527 51H219.339V14.9844H226.527V40.2188L243.753 14.9844H250.941ZM310.291 14.9844V51H303.103V21.7812H285.877V51H278.689V14.9844H310.291ZM349.77 14.9844V51H342.544V21.7812H330.552L329.341 39.0078C329.08 43.0182 327.934 46.0911 325.903 48.2266C323.898 50.3359 321.177 51.3906 317.739 51.3906C317.427 51.3906 317.14 51.3776 316.88 51.3516C316.619 51.3255 316.346 51.2865 316.059 51.2344C315.799 51.1823 315.565 51.1042 315.356 51V44.9844H316.138C319.809 44.9844 321.815 42.9922 322.153 39.0078L324.145 14.9844H349.77ZM373.664 14.5938C375.747 14.5938 377.648 14.9323 379.367 15.6094C381.112 16.2604 382.596 17.1589 383.82 18.3047C385.044 19.4505 385.995 20.8047 386.672 22.3672C387.349 23.9036 387.688 25.5833 387.688 27.4062V51H382.492L380.891 47.4062C380.188 48.1615 379.354 48.8255 378.391 49.3984C377.531 49.9193 376.451 50.388 375.148 50.8047C373.846 51.1953 372.284 51.3906 370.461 51.3906C366.451 51.3906 363.378 50.401 361.242 48.4219C359.133 46.4167 358.078 43.8125 358.078 40.6094C358.078 38.7865 358.417 37.1458 359.094 35.6875C359.797 34.2031 360.982 32.9531 362.648 31.9375C364.341 30.8958 366.62 30.0885 369.484 29.5156C372.375 28.9167 376.034 28.6172 380.461 28.6172V27.4062C380.461 25.5833 379.888 24.125 378.742 23.0312C377.596 21.9375 375.904 21.3906 373.664 21.3906C371.268 21.3906 369.523 21.8203 368.43 22.6797C367.336 23.5391 366.685 24.5807 366.477 25.8047H359.289C359.497 22.6016 360.839 19.9323 363.312 17.7969C365.786 15.6615 369.237 14.5938 373.664 14.5938ZM370.891 44.9844C373.938 44.9844 376.294 44.2031 377.961 42.6406C379.628 41.0781 380.461 39.1771 380.461 36.9375V34.9844C377.258 34.9844 374.667 35.1406 372.688 35.4531C370.734 35.7396 369.198 36.1432 368.078 36.6641C366.958 37.1589 366.203 37.7839 365.812 38.5391C365.448 39.2682 365.266 40.0885 365.266 41C365.266 42.0156 365.747 42.9401 366.711 43.7734C367.674 44.5807 369.068 44.9844 370.891 44.9844ZM428.769 14.9844V51H421.581V36.1953H404.355V51H397.167V14.9844H404.355V29.3984H421.581V14.9844H428.769ZM470.241 14.9844V51H463.053V25.8047L445.827 51H438.639V14.9844H445.827V40.2188L463.053 14.9844H470.241ZM497.298 14.5938C499.694 14.5938 501.934 15.0495 504.017 15.9609C506.101 16.8724 507.923 18.1484 509.486 19.7891C511.074 21.4036 512.311 23.3307 513.197 25.5703C514.082 27.8099 514.525 30.2839 514.525 32.9922C514.525 35.7005 514.082 38.1875 513.197 40.4531C512.311 42.6927 511.074 44.6328 509.486 46.2734C507.923 47.888 506.101 49.151 504.017 50.0625C501.934 50.9479 499.694 51.3906 497.298 51.3906C495.58 51.3906 494.108 51.1953 492.884 50.8047C491.66 50.4141 490.632 49.9453 489.798 49.3984C488.835 48.7995 488.002 48.1354 487.298 47.4062V63.8125H480.111V14.9844H485.306L486.908 18.6172C487.611 17.862 488.431 17.1849 489.369 16.5859C490.228 16.1172 491.309 15.6745 492.611 15.2578C493.913 14.8151 495.476 14.5938 497.298 14.5938ZM496.908 44.5938C498.288 44.5938 499.603 44.3203 500.853 43.7734C502.103 43.2005 503.21 42.3932 504.173 41.3516C505.137 40.3099 505.892 39.0859 506.439 37.6797C507.012 36.2734 507.298 34.7109 507.298 32.9922C507.298 31.2734 507.012 29.7109 506.439 28.3047C505.892 26.8984 505.137 25.6745 504.173 24.6328C503.21 23.5911 502.103 22.7969 500.853 22.25C499.603 21.6771 498.288 21.3906 496.908 21.3906C495.528 21.3906 494.199 21.6771 492.923 22.25C491.673 22.7969 490.567 23.5911 489.603 24.6328C488.666 25.6745 487.91 26.9115 487.337 28.3438C486.791 29.75 486.517 31.2995 486.517 32.9922C486.517 34.7109 486.791 36.2734 487.337 37.6797C487.91 39.0859 488.666 40.3099 489.603 41.3516C490.567 42.3932 491.673 43.2005 492.923 43.7734C494.199 44.3203 495.528 44.5938 496.908 44.5938ZM518.419 14.9844H526.036L536.036 41L546.036 14.9844H553.653L538.419 53.3828C537.611 55.4141 536.817 57.1068 536.036 58.4609C535.281 59.8411 534.447 60.9479 533.536 61.7812C532.651 62.6406 531.661 63.2526 530.567 63.6172C529.473 64.0078 528.236 64.2031 526.856 64.2031C526.544 64.2031 526.244 64.1901 525.958 64.1641C525.697 64.138 525.437 64.099 525.177 64.0469C524.916 63.9948 524.669 63.9167 524.434 63.8125V57.7969C526.466 57.7969 528.002 57.3672 529.044 56.5078C530.085 55.6745 530.815 54.6328 531.231 53.3828L532.442 49.7891L518.419 14.9844ZM591.141 14.9844V51H583.953V25.8047L566.727 51H559.539V14.9844H566.727V40.2188L583.953 14.9844H591.141ZM575.125 9.78906C572.286 9.78906 569.943 8.91667 568.094 7.17188C566.271 5.40104 565.151 3.21354 564.734 0.609375H570.32C570.529 1.83333 571.076 2.875 571.961 3.73438C572.846 4.56771 573.901 4.98438 575.125 4.98438C576.349 4.98438 577.404 4.56771 578.289 3.73438C579.174 2.875 579.721 1.83333 579.93 0.609375H585.516C585.099 3.21354 583.966 5.40104 582.117 7.17188C580.294 8.91667 577.964 9.78906 575.125 9.78906ZM1.21094 94.9844H30.7812V101.781H19.6094V131H12.3828V101.781H1.21094V94.9844ZM54.3234 94.5938C56.7193 94.5938 58.9589 95.0495 61.0422 95.9609C63.1255 96.8724 64.9484 98.1484 66.5109 99.7891C68.0995 101.404 69.3365 103.331 70.2219 105.57C71.1073 107.81 71.55 110.284 71.55 112.992C71.55 115.701 71.1073 118.188 70.2219 120.453C69.3365 122.693 68.0995 124.633 66.5109 126.273C64.9484 127.888 63.1255 129.151 61.0422 130.062C58.9589 130.948 56.7193 131.391 54.3234 131.391C52.6047 131.391 51.1333 131.195 49.9094 130.805C48.6854 130.414 47.6568 129.945 46.8234 129.398C45.8599 128.799 45.0266 128.135 44.3234 127.406V143.812H37.1359V94.9844H42.3312L43.9328 98.6172C44.6359 97.862 45.4562 97.1849 46.3937 96.5859C47.2531 96.1172 48.3339 95.6745 49.6359 95.2578C50.938 94.8151 52.5005 94.5938 54.3234 94.5938ZM53.9328 124.594C55.313 124.594 56.6281 124.32 57.8781 123.773C59.1281 123.201 60.2349 122.393 61.1984 121.352C62.162 120.31 62.9172 119.086 63.4641 117.68C64.037 116.273 64.3234 114.711 64.3234 112.992C64.3234 111.273 64.037 109.711 63.4641 108.305C62.9172 106.898 62.162 105.674 61.1984 104.633C60.2349 103.591 59.1281 102.797 57.8781 102.25C56.6281 101.677 55.313 101.391 53.9328 101.391C52.5526 101.391 51.2245 101.677 49.9484 102.25C48.6984 102.797 47.5917 103.591 46.6281 104.633C45.6906 105.674 44.9354 106.911 44.3625 108.344C43.8156 109.75 43.5422 111.299 43.5422 112.992C43.5422 114.711 43.8156 116.273 44.3625 117.68C44.9354 119.086 45.6906 120.31 46.6281 121.352C47.5917 122.393 48.6984 123.201 49.9484 123.773C51.2245 124.32 52.5526 124.594 53.9328 124.594ZM93.4516 94.5938C95.5349 94.5938 97.4359 94.9323 99.1547 95.6094C100.899 96.2604 102.384 97.1589 103.608 98.3047C104.832 99.4505 105.782 100.805 106.459 102.367C107.136 103.904 107.475 105.583 107.475 107.406V131H102.28L100.678 127.406C99.975 128.161 99.1417 128.826 98.1781 129.398C97.3187 129.919 96.238 130.388 94.9359 130.805C93.6339 131.195 92.0714 131.391 90.2484 131.391C86.238 131.391 83.1651 130.401 81.0297 128.422C78.9203 126.417 77.8656 123.812 77.8656 120.609C77.8656 118.786 78.2042 117.146 78.8812 115.688C79.5844 114.203 80.7693 112.953 82.4359 111.938C84.1286 110.896 86.4073 110.089 89.2719 109.516C92.1625 108.917 95.8214 108.617 100.248 108.617V107.406C100.248 105.583 99.6755 104.125 98.5297 103.031C97.3839 101.938 95.6911 101.391 93.4516 101.391C91.0557 101.391 89.3109 101.82 88.2172 102.68C87.1234 103.539 86.4724 104.581 86.2641 105.805H79.0766C79.2849 102.602 80.626 99.9323 83.1 97.7969C85.574 95.6615 89.0245 94.5938 93.4516 94.5938ZM90.6781 124.984C93.725 124.984 96.0818 124.203 97.7484 122.641C99.4151 121.078 100.248 119.177 100.248 116.938V114.984C97.0453 114.984 94.4542 115.141 92.475 115.453C90.5219 115.74 88.9854 116.143 87.8656 116.664C86.7458 117.159 85.9906 117.784 85.6 118.539C85.2354 119.268 85.0531 120.089 85.0531 121C85.0531 122.016 85.5349 122.94 86.4984 123.773C87.462 124.581 88.8552 124.984 90.6781 124.984ZM148.556 94.9844V131H141.369V116.195H124.142V131H116.955V94.9844H124.142V109.398H141.369V94.9844H148.556ZM189.637 117.797C189.221 119.724 188.557 121.521 187.645 123.188C186.734 124.828 185.575 126.26 184.169 127.484C182.789 128.708 181.2 129.672 179.403 130.375C177.632 131.052 175.705 131.391 173.622 131.391C171.226 131.391 168.986 130.948 166.903 130.062C164.82 129.151 162.984 127.888 161.395 126.273C159.833 124.633 158.609 122.693 157.723 120.453C156.864 118.214 156.434 115.727 156.434 112.992C156.434 110.284 156.864 107.81 157.723 105.57C158.609 103.331 159.833 101.404 161.395 99.7891C162.984 98.1484 164.82 96.8724 166.903 95.9609C168.986 95.0495 171.226 94.5938 173.622 94.5938C175.705 94.5938 177.632 94.9453 179.403 95.6484C181.2 96.3255 182.789 97.2891 184.169 98.5391C185.575 99.763 186.721 101.208 187.606 102.875C188.518 104.516 189.195 106.286 189.637 108.188H182.02C181.421 106.156 180.432 104.516 179.052 103.266C177.671 102.016 175.861 101.391 173.622 101.391C172.346 101.391 171.096 101.677 169.872 102.25C168.648 102.797 167.58 103.591 166.669 104.633C165.757 105.674 165.015 106.911 164.442 108.344C163.895 109.75 163.622 111.299 163.622 112.992C163.622 114.711 163.895 116.273 164.442 117.68C165.015 119.086 165.757 120.31 166.669 121.352C167.58 122.393 168.648 123.201 169.872 123.773C171.096 124.32 172.346 124.594 173.622 124.594C175.861 124.594 177.671 123.969 179.052 122.719C180.458 121.469 181.447 119.828 182.02 117.797H189.637ZM226.773 94.9844V131H219.547V101.781H207.555L206.344 119.008C206.083 123.018 204.938 126.091 202.906 128.227C200.901 130.336 198.18 131.391 194.742 131.391C194.43 131.391 194.143 131.378 193.883 131.352C193.622 131.326 193.349 131.286 193.062 131.234C192.802 131.182 192.568 131.104 192.359 131V124.984H193.141C196.812 124.984 198.818 122.992 199.156 119.008L201.148 94.9844H226.773ZM264.261 94.9844V131H257.073V119.008H249.886L242.269 131H234.261L242.659 117.797C241.279 117.276 240.081 116.534 239.066 115.57C238.154 114.711 237.321 113.604 236.566 112.25C235.836 110.896 235.472 109.151 235.472 107.016C235.472 105.297 235.771 103.708 236.37 102.25C236.995 100.766 237.855 99.5026 238.948 98.4609C240.042 97.3932 241.344 96.5469 242.855 95.9219C244.391 95.2969 246.071 94.9844 247.894 94.9844H264.261ZM247.894 101.781C246.514 101.781 245.29 102.302 244.222 103.344C243.18 104.385 242.659 105.609 242.659 107.016C242.659 108.396 243.18 109.607 244.222 110.648C245.264 111.69 246.488 112.211 247.894 112.211H257.073V101.781H247.894ZM309.756 124.203V139.398H302.959V131H274.17V94.9844H281.358V124.203H297.764V94.9844H304.952V124.203H309.756ZM348.103 94.9844V131H340.916V105.805L323.689 131H316.502V94.9844H323.689V120.219L340.916 94.9844H348.103ZM389.575 94.9844V131H382.388V105.805L365.161 131H357.973V94.9844H365.161V120.219L382.388 94.9844H389.575Z" fill="black"/>
<path d="M440.917 112.211C441.881 112.68 442.74 113.318 443.495 114.125C444.146 114.828 444.745 115.714 445.292 116.781C445.839 117.823 446.112 119.099 446.112 120.609C446.112 122.094 445.839 123.474 445.292 124.75C444.771 126.026 444.042 127.12 443.105 128.031C442.193 128.943 441.06 129.672 439.706 130.219C438.378 130.74 436.92 131 435.331 131H417.323V94.9844H434.12C435.709 94.9844 437.167 95.2448 438.495 95.7656C439.849 96.2604 440.982 96.9635 441.894 97.875C442.831 98.7865 443.56 99.8542 444.081 101.078C444.628 102.302 444.902 103.604 444.902 104.984C444.902 106.312 444.693 107.419 444.277 108.305C443.86 109.19 443.404 109.932 442.909 110.531C442.336 111.182 441.672 111.742 440.917 112.211ZM424.511 101V109.789H433.3C434.524 109.789 435.566 109.372 436.425 108.539C437.284 107.68 437.714 106.638 437.714 105.414C437.714 104.19 437.284 103.148 436.425 102.289C435.592 101.43 434.55 101 433.3 101H424.511ZM434.511 124.984C435.735 124.984 436.777 124.542 437.636 123.656C438.495 122.745 438.925 121.599 438.925 120.219C438.925 118.995 438.495 117.953 437.636 117.094C436.777 116.234 435.735 115.805 434.511 115.805H424.511V124.984H434.511ZM497.103 112.992C497.103 111.273 496.817 109.711 496.244 108.305C495.697 106.898 494.968 105.674 494.056 104.633C493.145 103.591 492.077 102.797 490.853 102.25C489.629 101.677 488.379 101.391 487.103 101.391C485.827 101.391 484.577 101.677 483.353 102.25C482.129 102.797 481.061 103.591 480.15 104.633C479.239 105.674 478.496 106.911 477.923 108.344C477.377 109.75 477.103 111.299 477.103 112.992C477.103 114.711 477.377 116.273 477.923 117.68C478.496 119.086 479.239 120.31 480.15 121.352C481.061 122.393 482.129 123.201 483.353 123.773C484.577 124.32 485.827 124.594 487.103 124.594C488.379 124.594 489.629 124.32 490.853 123.773C492.077 123.201 493.145 122.393 494.056 121.352C494.968 120.31 495.697 119.086 496.244 117.68C496.817 116.273 497.103 114.711 497.103 112.992ZM504.291 112.992C504.291 115.701 503.848 118.188 502.962 120.453C502.103 122.693 500.879 124.633 499.291 126.273C497.728 127.888 495.905 129.151 493.822 130.062C491.739 130.948 489.499 131.391 487.103 131.391C484.707 131.391 482.468 130.948 480.384 130.062C478.301 129.151 476.465 127.888 474.877 126.273C473.314 124.633 472.09 122.693 471.205 120.453C470.345 118.214 469.916 115.727 469.916 112.992C469.916 110.284 470.345 107.81 471.205 105.57C472.09 103.331 473.314 101.404 474.877 99.7891C476.465 98.1484 478.301 96.8724 480.384 95.9609C482.468 95.0495 484.707 94.5938 487.103 94.5938C489.499 94.5938 491.739 95.0495 493.822 95.9609C495.905 96.8724 497.728 98.1484 499.291 99.7891C500.879 101.404 502.103 103.331 502.962 105.57C503.848 107.81 504.291 110.284 504.291 112.992ZM545.802 124.203V139.398H539.005V131H514.2V139.398H507.403V124.203H509.786C510.541 123.682 511.218 123.096 511.817 122.445C512.338 121.846 512.833 121.143 513.302 120.336C513.796 119.503 514.096 118.526 514.2 117.406L516.622 94.9844H540.997V124.203H545.802ZM521.388 117.406C521.283 118.526 521.075 119.503 520.763 120.336C520.45 121.143 520.124 121.846 519.786 122.445C519.421 123.096 519.031 123.682 518.614 124.203H533.809V101.781H522.989L521.388 117.406ZM584.109 94.9844V131H576.922V116.195H559.695V131H552.508V94.9844H559.695V109.398H576.922V94.9844H584.109ZM619.175 112.992C619.175 111.273 618.889 109.711 618.316 108.305C617.769 106.898 617.04 105.674 616.128 104.633C615.217 103.591 614.149 102.797 612.925 102.25C611.701 101.677 610.451 101.391 609.175 101.391C607.899 101.391 606.649 101.677 605.425 102.25C604.201 102.797 603.133 103.591 602.222 104.633C601.31 105.674 600.568 106.911 599.995 108.344C599.448 109.75 599.175 111.299 599.175 112.992C599.175 114.711 599.448 116.273 599.995 117.68C600.568 119.086 601.31 120.31 602.222 121.352C603.133 122.393 604.201 123.201 605.425 123.773C606.649 124.32 607.899 124.594 609.175 124.594C610.451 124.594 611.701 124.32 612.925 123.773C614.149 123.201 615.217 122.393 616.128 121.352C617.04 120.31 617.769 119.086 618.316 117.68C618.889 116.273 619.175 114.711 619.175 112.992ZM626.362 112.992C626.362 115.701 625.92 118.188 625.034 120.453C624.175 122.693 622.951 124.633 621.362 126.273C619.8 127.888 617.977 129.151 615.894 130.062C613.81 130.948 611.571 131.391 609.175 131.391C606.779 131.391 604.54 130.948 602.456 130.062C600.373 129.151 598.537 127.888 596.948 126.273C595.386 124.633 594.162 122.693 593.277 120.453C592.417 118.214 591.987 115.727 591.987 112.992C591.987 110.284 592.417 107.81 593.277 105.57C594.162 103.331 595.386 101.404 596.948 99.7891C598.537 98.1484 600.373 96.8724 602.456 95.9609C604.54 95.0495 606.779 94.5938 609.175 94.5938C611.571 94.5938 613.81 95.0495 615.894 95.9609C617.977 96.8724 619.8 98.1484 621.362 99.7891C622.951 101.404 624.175 103.331 625.034 105.57C625.92 107.81 626.362 110.284 626.362 112.992ZM651.077 131L641.467 111V131H634.28V94.9844H640.686L653.459 121.391L666.272 94.9844H672.678V131H665.491V111L655.881 131H651.077ZM21.6016 211L11.9922 191V211H4.80469V174.984H11.2109L23.9844 201.391L36.7969 174.984H43.2031V211H36.0156V191L26.4062 211H21.6016ZM84.2844 200.609C83.6854 202.094 82.9302 203.487 82.0187 204.789C81.1073 206.091 80.0135 207.237 78.7375 208.227C77.4615 209.216 75.9771 209.997 74.2844 210.57C72.6177 211.117 70.7427 211.391 68.6594 211.391C66.2635 211.391 64.024 210.948 61.9406 210.062C59.8573 209.151 58.0344 207.888 56.4719 206.273C54.9094 204.633 53.6854 202.693 52.8 200.453C51.9146 198.214 51.4719 195.727 51.4719 192.992C51.4719 190.284 51.9146 187.81 52.8 185.57C53.6854 183.331 54.8833 181.404 56.3937 179.789C57.9042 178.148 59.688 176.872 61.7453 175.961C63.8026 175.049 65.9771 174.594 68.2687 174.594C70.5604 174.594 72.7349 175.049 74.7922 175.961C76.8495 176.872 78.6333 178.148 80.1437 179.789C81.6542 181.404 82.8521 183.331 83.7375 185.57C84.6229 187.81 85.0656 190.284 85.0656 192.992C85.0656 193.409 85.0396 193.826 84.9875 194.242C84.9354 194.633 84.8833 194.971 84.8312 195.258C84.7792 195.622 84.7271 195.935 84.675 196.195H59.05C59.1542 197.315 59.4797 198.383 60.0266 199.398C60.5734 200.414 61.2505 201.312 62.0578 202.094C62.8911 202.849 63.8807 203.461 65.0266 203.93C66.1724 204.372 67.3833 204.594 68.6594 204.594C70.8469 204.594 72.5786 204.125 73.8547 203.188C75.1568 202.25 76.0943 201.391 76.6672 200.609H84.2844ZM68.2687 181.391C65.8729 181.391 63.8417 182.211 62.175 183.852C60.5344 185.466 59.4927 187.589 59.05 190.219H78.2687C77.8521 187.615 76.7844 185.492 75.0656 183.852C73.3729 182.211 71.1073 181.391 68.2687 181.391ZM124.194 197.797C123.777 199.724 123.113 201.521 122.202 203.188C121.29 204.828 120.131 206.26 118.725 207.484C117.345 208.708 115.756 209.672 113.959 210.375C112.189 211.052 110.261 211.391 108.178 211.391C105.782 211.391 103.543 210.948 101.459 210.062C99.376 209.151 97.5401 207.888 95.9516 206.273C94.3891 204.633 93.1651 202.693 92.2797 200.453C91.4203 198.214 90.9906 195.727 90.9906 192.992C90.9906 190.284 91.4203 187.81 92.2797 185.57C93.1651 183.331 94.3891 181.404 95.9516 179.789C97.5401 178.148 99.376 176.872 101.459 175.961C103.543 175.049 105.782 174.594 108.178 174.594C110.261 174.594 112.189 174.945 113.959 175.648C115.756 176.326 117.345 177.289 118.725 178.539C120.131 179.763 121.277 181.208 122.162 182.875C123.074 184.516 123.751 186.286 124.194 188.188H116.577C115.978 186.156 114.988 184.516 113.608 183.266C112.228 182.016 110.418 181.391 108.178 181.391C106.902 181.391 105.652 181.677 104.428 182.25C103.204 182.797 102.136 183.591 101.225 184.633C100.314 185.674 99.5714 186.911 98.9984 188.344C98.4516 189.75 98.1781 191.299 98.1781 192.992C98.1781 194.711 98.4516 196.273 98.9984 197.68C99.5714 199.086 100.314 200.31 101.225 201.352C102.136 202.393 103.204 203.201 104.428 203.773C105.652 204.32 106.902 204.594 108.178 204.594C110.418 204.594 112.228 203.969 113.608 202.719C115.014 201.469 116.004 199.828 116.577 197.797H124.194ZM128.127 174.984H157.697V181.781H146.525V211H139.298V181.781H128.127V174.984ZM194.481 200.609C193.882 202.094 193.127 203.487 192.216 204.789C191.304 206.091 190.21 207.237 188.934 208.227C187.658 209.216 186.174 209.997 184.481 210.57C182.815 211.117 180.94 211.391 178.856 211.391C176.46 211.391 174.221 210.948 172.137 210.062C170.054 209.151 168.231 207.888 166.669 206.273C165.106 204.633 163.882 202.693 162.997 200.453C162.111 198.214 161.669 195.727 161.669 192.992C161.669 190.284 162.111 187.81 162.997 185.57C163.882 183.331 165.08 181.404 166.591 179.789C168.101 178.148 169.885 176.872 171.942 175.961C173.999 175.049 176.174 174.594 178.466 174.594C180.757 174.594 182.932 175.049 184.989 175.961C187.046 176.872 188.83 178.148 190.341 179.789C191.851 181.404 193.049 183.331 193.934 185.57C194.82 187.81 195.262 190.284 195.262 192.992C195.262 193.409 195.236 193.826 195.184 194.242C195.132 194.633 195.08 194.971 195.028 195.258C194.976 195.622 194.924 195.935 194.872 196.195H169.247C169.351 197.315 169.677 198.383 170.223 199.398C170.77 200.414 171.447 201.312 172.255 202.094C173.088 202.849 174.078 203.461 175.223 203.93C176.369 204.372 177.58 204.594 178.856 204.594C181.044 204.594 182.776 204.125 184.052 203.188C185.354 202.25 186.291 201.391 186.864 200.609H194.481ZM178.466 181.391C176.07 181.391 174.039 182.211 172.372 183.852C170.731 185.466 169.69 187.589 169.247 190.219H188.466C188.049 187.615 186.981 185.492 185.262 183.852C183.57 182.211 181.304 181.391 178.466 181.391Z" fill="#4793EF"/>
</svg>
