<svg width="690" height="225" viewBox="0 0 690 225" fill="none" xmlns="http://www.w3.org/2000/svg">
<path d="M16.0078 14.5938C18.4036 14.5938 20.6432 15.0495 22.7266 15.9609C24.8099 16.8724 26.6328 18.1484 28.1953 19.7891C29.7839 21.4036 31.0078 23.3307 31.8672 25.5703C32.7526 27.8099 33.1953 30.2839 33.1953 32.9922C33.1953 35.7005 32.7526 38.1875 31.8672 40.4531C31.0078 42.6927 29.7839 44.6328 28.1953 46.2734C26.6328 47.888 24.8099 49.151 22.7266 50.0625C20.6432 50.9479 18.4036 51.3906 16.0078 51.3906C13.9245 51.3906 11.9844 51.0521 10.1875 50.375C8.41667 49.6719 6.84115 48.7344 5.46094 47.5625C4.10677 46.3906 3 45.0365 2.14062 43.5C1.30729 41.9375 0.721354 40.3099 0.382812 38.6172H8C8.41667 40.2057 9.28906 41.599 10.6172 42.7969C11.9714 43.9948 13.7682 44.5938 16.0078 44.5938C17.1797 44.5938 18.3125 44.3724 19.4062 43.9297C20.5 43.4609 21.4635 42.849 22.2969 42.0938C23.1562 41.3125 23.8594 40.4141 24.4062 39.3984C24.9792 38.3828 25.3828 37.3151 25.6172 36.1953H13.5859V30.2188H25.6172C25.4089 29.0469 25.0182 27.9271 24.4453 26.8594C23.8724 25.7917 23.1562 24.8542 22.2969 24.0469C21.4635 23.2396 20.5 22.6016 19.4062 22.1328C18.3125 21.638 17.1797 21.3906 16.0078 21.3906C13.7682 21.3906 11.9714 21.9896 10.6172 23.1875C9.28906 24.3854 8.41667 25.7917 8 27.4062H0.382812C0.695312 25.6875 1.28125 24.0599 2.14062 22.5234C3 20.987 4.10677 19.6328 5.46094 18.4609C6.84115 17.263 8.41667 16.3255 10.1875 15.6484C11.9844 14.9453 13.9245 14.5938 16.0078 14.5938ZM62.675 0.609375H69.8625V17.0156C70.5135 16.599 71.2297 16.1953 72.0109 15.8047C72.7141 15.5443 73.5214 15.2839 74.4328 15.0234C75.3443 14.737 76.3599 14.5938 77.4797 14.5938C79.563 14.5938 81.5682 15.0495 83.4953 15.9609C85.4484 16.8724 87.1542 18.1484 88.6125 19.7891C90.0969 21.4036 91.2687 23.3307 92.1281 25.5703C93.0135 27.8099 93.4562 30.2839 93.4562 32.9922C93.4562 35.7005 93.0135 38.1875 92.1281 40.4531C91.2687 42.6927 90.0969 44.6328 88.6125 46.2734C87.1542 47.888 85.4484 49.151 83.4953 50.0625C81.5682 50.9479 79.563 51.3906 77.4797 51.3906C76.3599 51.3906 75.3443 51.2734 74.4328 51.0391C73.5214 50.8047 72.7141 50.5312 72.0109 50.2188C71.2036 49.9062 70.4875 49.5026 69.8625 49.0078V63.8125H62.675V49.0078C62.024 49.4766 61.3078 49.8802 60.5266 50.2188C59.8234 50.5312 59.0031 50.8047 58.0656 51.0391C57.1281 51.2734 56.1255 51.3906 55.0578 51.3906C52.9745 51.3906 50.9562 50.9479 49.0031 50.0625C47.076 49.151 45.3703 47.888 43.8859 46.2734C42.4276 44.6328 41.2557 42.6927 40.3703 40.4531C39.5109 38.2135 39.0812 35.7266 39.0812 32.9922C39.0812 30.2839 39.5109 27.8099 40.3703 25.5703C41.2557 23.3307 42.4276 21.4036 43.8859 19.7891C45.3703 18.1484 47.076 16.8724 49.0031 15.9609C50.9562 15.0495 52.9745 14.5938 55.0578 14.5938C56.1255 14.5938 57.1281 14.737 58.0656 15.0234C59.0031 15.2839 59.8234 15.5443 60.5266 15.8047C61.3339 16.1693 62.05 16.5729 62.675 17.0156V0.609375ZM62.675 24.5938C62.076 23.9948 61.438 23.4609 60.7609 22.9922C60.162 22.5755 59.4458 22.2109 58.6125 21.8984C57.8052 21.5599 56.8937 21.3906 55.8781 21.3906C54.6021 21.3906 53.3651 21.6641 52.1672 22.2109C50.9953 22.7318 49.9667 23.5 49.0812 24.5156C48.2219 25.5312 47.5318 26.7552 47.0109 28.1875C46.5161 29.5938 46.2687 31.1953 46.2687 32.9922C46.2687 34.8151 46.5161 36.4427 47.0109 37.875C47.5318 39.3073 48.2219 40.5182 49.0812 41.5078C49.9667 42.4974 50.9953 43.2656 52.1672 43.8125C53.3651 44.3333 54.6021 44.5938 55.8781 44.5938C56.8937 44.5938 57.8052 44.4375 58.6125 44.125C59.4458 43.8125 60.162 43.4349 60.7609 42.9922C61.4641 42.5234 62.1021 41.9896 62.675 41.3906V24.5938ZM69.8625 41.3906C70.4615 41.9896 71.0995 42.5234 71.7766 42.9922C72.3755 43.4089 73.0786 43.7865 73.8859 44.125C74.7193 44.4375 75.6437 44.5938 76.6594 44.5938C77.9354 44.5938 79.1594 44.3333 80.3312 43.8125C81.5292 43.2656 82.5578 42.4974 83.4172 41.5078C84.3026 40.5182 84.9927 39.3073 85.4875 37.875C86.0083 36.4427 86.2687 34.8151 86.2687 32.9922C86.2687 31.1693 86.0083 29.5547 85.4875 28.1484C84.9927 26.7422 84.3026 25.5312 83.4172 24.5156C82.5578 23.5 81.5292 22.7318 80.3312 22.2109C79.1594 21.6641 77.9354 21.3906 76.6594 21.3906C75.6437 21.3906 74.7193 21.5599 73.8859 21.8984C73.0786 22.2109 72.3755 22.5755 71.7766 22.9922C71.0734 23.4609 70.4354 23.9948 69.8625 24.5938V41.3906ZM132.975 14.9844V51H125.787V25.8047L108.561 51H101.373V14.9844H108.561V40.2188L125.787 14.9844H132.975ZM160.033 14.5938C162.429 14.5938 164.668 15.0495 166.752 15.9609C168.835 16.8724 170.658 18.1484 172.22 19.7891C173.809 21.4036 175.046 23.3307 175.931 25.5703C176.817 27.8099 177.259 30.2839 177.259 32.9922C177.259 35.7005 176.817 38.1875 175.931 40.4531C175.046 42.6927 173.809 44.6328 172.22 46.2734C170.658 47.888 168.835 49.151 166.752 50.0625C164.668 50.9479 162.429 51.3906 160.033 51.3906C158.314 51.3906 156.843 51.1953 155.619 50.8047C154.395 50.4141 153.366 49.9453 152.533 49.3984C151.569 48.7995 150.736 48.1354 150.033 47.4062V63.8125H142.845V14.9844H148.041L149.642 18.6172C150.345 17.862 151.166 17.1849 152.103 16.5859C152.962 16.1172 154.043 15.6745 155.345 15.2578C156.647 14.8151 158.21 14.5938 160.033 14.5938ZM159.642 44.5938C161.022 44.5938 162.337 44.3203 163.587 43.7734C164.837 43.2005 165.944 42.3932 166.908 41.3516C167.871 40.3099 168.627 39.0859 169.173 37.6797C169.746 36.2734 170.033 34.7109 170.033 32.9922C170.033 31.2734 169.746 29.7109 169.173 28.3047C168.627 26.8984 167.871 25.6745 166.908 24.6328C165.944 23.5911 164.837 22.7969 163.587 22.25C162.337 21.6771 161.022 21.3906 159.642 21.3906C158.262 21.3906 156.934 21.6771 155.658 22.25C154.408 22.7969 153.301 23.5911 152.337 24.6328C151.4 25.6745 150.645 26.9115 150.072 28.3438C149.525 29.75 149.252 31.2995 149.252 32.9922C149.252 34.7109 149.525 36.2734 150.072 37.6797C150.645 39.0859 151.4 40.3099 152.337 41.3516C153.301 42.3932 154.408 43.2005 155.658 43.7734C156.934 44.3203 158.262 44.5938 159.642 44.5938ZM234.656 14.9844V51H227.469V25.8047L210.242 51H203.055V14.9844H210.242V40.2188L227.469 14.9844H234.656ZM278.12 44.2031V59.3984H271.323V51H246.519V59.3984H239.722V44.2031H242.105C242.86 43.6823 243.537 43.0964 244.136 42.4453C244.657 41.8464 245.152 41.1432 245.62 40.3359C246.115 39.5026 246.415 38.526 246.519 37.4062L248.941 14.9844H273.316V44.2031H278.12ZM253.706 37.4062C253.602 38.526 253.394 39.5026 253.081 40.3359C252.769 41.1432 252.443 41.8464 252.105 42.4453C251.74 43.0964 251.349 43.6823 250.933 44.2031H266.128V21.7812H255.308L253.706 37.4062ZM316.038 40.6094C315.439 42.0938 314.683 43.487 313.772 44.7891C312.86 46.0911 311.767 47.237 310.491 48.2266C309.215 49.2161 307.73 49.9974 306.038 50.5703C304.371 51.1172 302.496 51.3906 300.413 51.3906C298.017 51.3906 295.777 50.9479 293.694 50.0625C291.61 49.151 289.788 47.888 288.225 46.2734C286.663 44.6328 285.439 42.6927 284.553 40.4531C283.668 38.2135 283.225 35.7266 283.225 32.9922C283.225 30.2839 283.668 27.8099 284.553 25.5703C285.439 23.3307 286.636 21.4036 288.147 19.7891C289.657 18.1484 291.441 16.8724 293.498 15.9609C295.556 15.0495 297.73 14.5938 300.022 14.5938C302.314 14.5938 304.488 15.0495 306.545 15.9609C308.603 16.8724 310.386 18.1484 311.897 19.7891C313.407 21.4036 314.605 23.3307 315.491 25.5703C316.376 27.8099 316.819 30.2839 316.819 32.9922C316.819 33.4089 316.793 33.8255 316.741 34.2422C316.689 34.6328 316.636 34.9714 316.584 35.2578C316.532 35.6224 316.48 35.9349 316.428 36.1953H290.803C290.907 37.3151 291.233 38.3828 291.78 39.3984C292.327 40.4141 293.004 41.3125 293.811 42.0938C294.644 42.849 295.634 43.4609 296.78 43.9297C297.926 44.3724 299.136 44.5938 300.413 44.5938C302.6 44.5938 304.332 44.125 305.608 43.1875C306.91 42.25 307.847 41.3906 308.42 40.6094H316.038ZM300.022 21.3906C297.626 21.3906 295.595 22.2109 293.928 23.8516C292.288 25.4661 291.246 27.5885 290.803 30.2188H310.022C309.605 27.6146 308.538 25.4922 306.819 23.8516C305.126 22.2109 302.86 21.3906 300.022 21.3906ZM320.752 14.9844H350.322V21.7812H339.15V51H331.923V21.7812H320.752V14.9844ZM408.148 44.2031V59.3984H401.352V51H376.547V59.3984H369.75V44.2031H372.133C372.888 43.6823 373.565 43.0964 374.164 42.4453C374.685 41.8464 375.18 41.1432 375.648 40.3359C376.143 39.5026 376.443 38.526 376.547 37.4062L378.969 14.9844H403.344V44.2031H408.148ZM383.734 37.4062C383.63 38.526 383.422 39.5026 383.109 40.3359C382.797 41.1432 382.471 41.8464 382.133 42.4453C381.768 43.0964 381.378 43.6823 380.961 44.2031H396.156V21.7812H385.336L383.734 37.4062ZM440.05 32.9922C440.05 31.2734 439.764 29.7109 439.191 28.3047C438.644 26.8984 437.915 25.6745 437.003 24.6328C436.092 23.5911 435.024 22.7969 433.8 22.25C432.576 21.6771 431.326 21.3906 430.05 21.3906C428.774 21.3906 427.524 21.6771 426.3 22.25C425.076 22.7969 424.008 23.5911 423.097 24.6328C422.185 25.6745 421.443 26.9115 420.87 28.3438C420.323 29.75 420.05 31.2995 420.05 32.9922C420.05 34.7109 420.323 36.2734 420.87 37.6797C421.443 39.0859 422.185 40.3099 423.097 41.3516C424.008 42.3932 425.076 43.2005 426.3 43.7734C427.524 44.3203 428.774 44.5938 430.05 44.5938C431.326 44.5938 432.576 44.3203 433.8 43.7734C435.024 43.2005 436.092 42.3932 437.003 41.3516C437.915 40.3099 438.644 39.0859 439.191 37.6797C439.764 36.2734 440.05 34.7109 440.05 32.9922ZM447.237 32.9922C447.237 35.7005 446.795 38.1875 445.909 40.4531C445.05 42.6927 443.826 44.6328 442.237 46.2734C440.675 47.888 438.852 49.151 436.769 50.0625C434.685 50.9479 432.446 51.3906 430.05 51.3906C427.654 51.3906 425.415 50.9479 423.331 50.0625C421.248 49.151 419.412 47.888 417.823 46.2734C416.261 44.6328 415.037 42.6927 414.152 40.4531C413.292 38.2135 412.862 35.7266 412.862 32.9922C412.862 30.2839 413.292 27.8099 414.152 25.5703C415.037 23.3307 416.261 21.4036 417.823 19.7891C419.412 18.1484 421.248 16.8724 423.331 15.9609C425.415 15.0495 427.654 14.5938 430.05 14.5938C432.446 14.5938 434.685 15.0495 436.769 15.9609C438.852 16.8724 440.675 18.1484 442.237 19.7891C443.826 21.4036 445.05 23.3307 445.909 25.5703C446.795 27.8099 447.237 30.2839 447.237 32.9922ZM483.983 14.9844V51H476.756V21.7812H464.764L463.553 39.0078C463.293 43.0182 462.147 46.0911 460.116 48.2266C458.11 50.3359 455.389 51.3906 451.952 51.3906C451.639 51.3906 451.353 51.3776 451.092 51.3516C450.832 51.3255 450.558 51.2865 450.272 51.2344C450.011 51.1823 449.777 51.1042 449.569 51V44.9844H450.35C454.022 44.9844 456.027 42.9922 456.366 39.0078L458.358 14.9844H483.983ZM518.306 21.7812H501.08V51H493.892V14.9844H518.306V21.7812ZM548.606 32.9922C548.606 31.2734 548.32 29.7109 547.747 28.3047C547.2 26.8984 546.471 25.6745 545.559 24.6328C544.648 23.5911 543.58 22.7969 542.356 22.25C541.132 21.6771 539.882 21.3906 538.606 21.3906C537.33 21.3906 536.08 21.6771 534.856 22.25C533.632 22.7969 532.565 23.5911 531.653 24.6328C530.742 25.6745 529.999 26.9115 529.427 28.3438C528.88 29.75 528.606 31.2995 528.606 32.9922C528.606 34.7109 528.88 36.2734 529.427 37.6797C529.999 39.0859 530.742 40.3099 531.653 41.3516C532.565 42.3932 533.632 43.2005 534.856 43.7734C536.08 44.3203 537.33 44.5938 538.606 44.5938C539.882 44.5938 541.132 44.3203 542.356 43.7734C543.58 43.2005 544.648 42.3932 545.559 41.3516C546.471 40.3099 547.2 39.0859 547.747 37.6797C548.32 36.2734 548.606 34.7109 548.606 32.9922ZM555.794 32.9922C555.794 35.7005 555.351 38.1875 554.466 40.4531C553.606 42.6927 552.382 44.6328 550.794 46.2734C549.231 47.888 547.408 49.151 545.325 50.0625C543.242 50.9479 541.002 51.3906 538.606 51.3906C536.21 51.3906 533.971 50.9479 531.888 50.0625C529.804 49.151 527.968 47.888 526.38 46.2734C524.817 44.6328 523.593 42.6927 522.708 40.4531C521.848 38.2135 521.419 35.7266 521.419 32.9922C521.419 30.2839 521.848 27.8099 522.708 25.5703C523.593 23.3307 524.817 21.4036 526.38 19.7891C527.968 18.1484 529.804 16.8724 531.888 15.9609C533.971 15.0495 536.21 14.5938 538.606 14.5938C541.002 14.5938 543.242 15.0495 545.325 15.9609C547.408 16.8724 549.231 18.1484 550.794 19.7891C552.382 21.4036 553.606 23.3307 554.466 25.5703C555.351 27.8099 555.794 30.2839 555.794 32.9922ZM590.898 14.5938C590.898 16.5208 590.612 18.1484 590.039 19.4766C589.492 20.8047 588.776 21.9766 587.891 22.9922C587.031 24.0078 586.107 24.9583 585.117 25.8438C584.128 26.7292 583.19 27.6927 582.305 28.7344C581.419 29.776 580.69 30.987 580.117 32.3672C579.57 33.7474 579.297 35.4271 579.297 37.4062V38.1875H572.109V37.4062C572.109 34.9062 572.383 32.7839 572.93 31.0391C573.503 29.2943 574.232 27.8099 575.117 26.5859C576.003 25.362 576.927 24.3203 577.891 23.4609C578.88 22.5755 579.818 21.7031 580.703 20.8438C581.589 19.9844 582.305 19.0729 582.852 18.1094C583.424 17.1458 583.711 15.974 583.711 14.5938C583.711 12.5625 582.995 10.8568 581.562 9.47656C580.156 8.09635 578.333 7.40625 576.094 7.40625C573.854 7.40625 572.031 8.1875 570.625 9.75C569.219 11.2865 568.516 13.5651 568.516 16.5859V17.4062H561.289V16.5859C561.289 14.0859 561.667 11.8203 562.422 9.78906C563.177 7.75781 564.219 6.03906 565.547 4.63281C566.875 3.22656 568.438 2.14583 570.234 1.39062C572.057 0.609375 574.01 0.21875 576.094 0.21875C578.177 0.21875 580.117 0.596354 581.914 1.35156C583.737 2.08073 585.312 3.09635 586.641 4.39844C587.995 5.70052 589.036 7.23698 589.766 9.00781C590.521 10.7526 590.898 12.6146 590.898 14.5938ZM580.117 47.0156C580.117 48.2396 579.688 49.2812 578.828 50.1406C577.969 50.974 576.927 51.3906 575.703 51.3906C574.479 51.3906 573.438 50.974 572.578 50.1406C571.719 49.2812 571.289 48.2396 571.289 47.0156C571.289 45.7917 571.719 44.75 572.578 43.8906C573.438 43.0312 574.479 42.6016 575.703 42.6016C576.927 42.6016 577.969 43.0312 578.828 43.8906C579.688 44.75 580.117 45.7917 580.117 47.0156ZM647.866 14.9844V51H640.678V36.1953H623.452V51H616.264V14.9844H623.452V29.3984H640.678V14.9844H647.866ZM688.947 40.6094C688.348 42.0938 687.593 43.487 686.681 44.7891C685.77 46.0911 684.676 47.237 683.4 48.2266C682.124 49.2161 680.64 49.9974 678.947 50.5703C677.28 51.1172 675.405 51.3906 673.322 51.3906C670.926 51.3906 668.686 50.9479 666.603 50.0625C664.52 49.151 662.697 47.888 661.134 46.2734C659.572 44.6328 658.348 42.6927 657.463 40.4531C656.577 38.2135 656.134 35.7266 656.134 32.9922C656.134 30.2839 656.577 27.8099 657.463 25.5703C658.348 23.3307 659.546 21.4036 661.056 19.7891C662.567 18.1484 664.351 16.8724 666.408 15.9609C668.465 15.0495 670.64 14.5938 672.931 14.5938C675.223 14.5938 677.397 15.0495 679.455 15.9609C681.512 16.8724 683.296 18.1484 684.806 19.7891C686.317 21.4036 687.515 23.3307 688.4 25.5703C689.285 27.8099 689.728 30.2839 689.728 32.9922C689.728 33.4089 689.702 33.8255 689.65 34.2422C689.598 34.6328 689.546 34.9714 689.494 35.2578C689.442 35.6224 689.39 35.9349 689.338 36.1953H663.713C663.817 37.3151 664.142 38.3828 664.689 39.3984C665.236 40.4141 665.913 41.3125 666.72 42.0938C667.554 42.849 668.543 43.4609 669.689 43.9297C670.835 44.3724 672.046 44.5938 673.322 44.5938C675.509 44.5938 677.241 44.125 678.517 43.1875C679.819 42.25 680.757 41.3906 681.33 40.6094H688.947ZM672.931 21.3906C670.535 21.3906 668.504 22.2109 666.838 23.8516C665.197 25.4661 664.155 27.5885 663.713 30.2188H682.931C682.515 27.6146 681.447 25.4922 679.728 23.8516C678.035 22.2109 675.77 21.3906 672.931 21.3906ZM34.4062 94.9844V131H27.2188V101.781H9.99219V131H2.80469V94.9844H34.4062ZM61.4641 94.5938C63.8599 94.5938 66.0995 95.0495 68.1828 95.9609C70.2661 96.8724 72.0891 98.1484 73.6516 99.7891C75.2401 101.404 76.4771 103.331 77.3625 105.57C78.2479 107.81 78.6906 110.284 78.6906 112.992C78.6906 115.701 78.2479 118.188 77.3625 120.453C76.4771 122.693 75.2401 124.633 73.6516 126.273C72.0891 127.888 70.2661 129.151 68.1828 130.062C66.0995 130.948 63.8599 131.391 61.4641 131.391C59.7453 131.391 58.274 131.195 57.05 130.805C55.826 130.414 54.7974 129.945 53.9641 129.398C53.0005 128.799 52.1672 128.135 51.4641 127.406V143.812H44.2766V94.9844H49.4719L51.0734 98.6172C51.7766 97.862 52.5969 97.1849 53.5344 96.5859C54.3937 96.1172 55.4745 95.6745 56.7766 95.2578C58.0786 94.8151 59.6411 94.5938 61.4641 94.5938ZM61.0734 124.594C62.4536 124.594 63.7687 124.32 65.0187 123.773C66.2687 123.201 67.3755 122.393 68.3391 121.352C69.3026 120.31 70.0578 119.086 70.6047 117.68C71.1776 116.273 71.4641 114.711 71.4641 112.992C71.4641 111.273 71.1776 109.711 70.6047 108.305C70.0578 106.898 69.3026 105.674 68.3391 104.633C67.3755 103.591 66.2687 102.797 65.0187 102.25C63.7687 101.677 62.4536 101.391 61.0734 101.391C59.6932 101.391 58.3651 101.677 57.0891 102.25C55.8391 102.797 54.7323 103.591 53.7687 104.633C52.8312 105.674 52.076 106.911 51.5031 108.344C50.9562 109.75 50.6828 111.299 50.6828 112.992C50.6828 114.711 50.9562 116.273 51.5031 117.68C52.076 119.086 52.8312 120.31 53.7687 121.352C54.7323 122.393 55.8391 123.201 57.0891 123.773C58.3651 124.32 59.6932 124.594 61.0734 124.594ZM111.803 112.992C111.803 111.273 111.517 109.711 110.944 108.305C110.397 106.898 109.668 105.674 108.756 104.633C107.845 103.591 106.777 102.797 105.553 102.25C104.329 101.677 103.079 101.391 101.803 101.391C100.527 101.391 99.2771 101.677 98.0531 102.25C96.8292 102.797 95.7615 103.591 94.85 104.633C93.9385 105.674 93.1964 106.911 92.6234 108.344C92.0766 109.75 91.8031 111.299 91.8031 112.992C91.8031 114.711 92.0766 116.273 92.6234 117.68C93.1964 119.086 93.9385 120.31 94.85 121.352C95.7615 122.393 96.8292 123.201 98.0531 123.773C99.2771 124.32 100.527 124.594 101.803 124.594C103.079 124.594 104.329 124.32 105.553 123.773C106.777 123.201 107.845 122.393 108.756 121.352C109.668 120.31 110.397 119.086 110.944 117.68C111.517 116.273 111.803 114.711 111.803 112.992ZM118.991 112.992C118.991 115.701 118.548 118.188 117.662 120.453C116.803 122.693 115.579 124.633 113.991 126.273C112.428 127.888 110.605 129.151 108.522 130.062C106.439 130.948 104.199 131.391 101.803 131.391C99.4073 131.391 97.1677 130.948 95.0844 130.062C93.001 129.151 91.1651 127.888 89.5766 126.273C88.0141 124.633 86.7901 122.693 85.9047 120.453C85.0453 118.214 84.6156 115.727 84.6156 112.992C84.6156 110.284 85.0453 107.81 85.9047 105.57C86.7901 103.331 88.0141 101.404 89.5766 99.7891C91.1651 98.1484 93.001 96.8724 95.0844 95.9609C97.1677 95.0495 99.4073 94.5938 101.803 94.5938C104.199 94.5938 106.439 95.0495 108.522 95.9609C110.605 96.8724 112.428 98.1484 113.991 99.7891C115.579 101.404 116.803 103.331 117.662 105.57C118.548 107.81 118.991 110.284 118.991 112.992ZM143.705 96.1953C145.892 96.1953 147.989 96.651 149.994 97.5625C151.999 98.474 153.744 99.724 155.228 101.312C156.713 102.875 157.897 104.724 158.783 106.859C159.668 108.969 160.111 111.286 160.111 113.812C160.111 116.312 159.668 118.63 158.783 120.766C157.897 122.901 156.66 124.763 155.072 126.352C153.509 127.914 151.686 129.151 149.603 130.062C147.546 130.948 145.306 131.391 142.884 131.391C140.384 131.391 138.067 130.935 135.931 130.023C133.796 129.086 131.947 127.667 130.384 125.766C128.822 123.865 127.585 121.521 126.673 118.734C125.762 115.922 125.306 112.68 125.306 109.008C125.306 103.826 125.827 99.4245 126.869 95.8047C127.91 92.1849 129.616 89.2292 131.986 86.9375C134.356 84.6198 137.468 82.901 141.322 81.7812C145.202 80.6615 149.994 79.9974 155.697 79.7891V87.0156C151.374 87.1198 147.806 87.4844 144.994 88.1094C142.207 88.7083 139.968 89.6068 138.275 90.8047C136.608 92.0026 135.371 93.513 134.564 95.3359C133.783 97.1328 133.223 99.2812 132.884 101.781C133.588 100.766 134.447 99.8411 135.463 99.0078C136.374 98.3047 137.494 97.6667 138.822 97.0938C140.15 96.4948 141.778 96.1953 143.705 96.1953ZM142.884 124.594C144.16 124.594 145.41 124.32 146.634 123.773C147.884 123.201 148.952 122.419 149.838 121.43C150.749 120.44 151.478 119.294 152.025 117.992C152.598 116.69 152.884 115.297 152.884 113.812C152.884 112.328 152.598 110.935 152.025 109.633C151.478 108.305 150.749 107.146 149.838 106.156C148.952 105.167 147.897 104.398 146.673 103.852C145.449 103.279 144.186 102.992 142.884 102.992C141.608 102.992 140.358 103.279 139.134 103.852C137.91 104.398 136.843 105.167 135.931 106.156C135.02 107.146 134.278 108.292 133.705 109.594C133.158 110.896 132.884 112.302 132.884 113.812C132.884 115.297 133.158 116.69 133.705 117.992C134.278 119.294 135.02 120.44 135.931 121.43C136.843 122.419 137.91 123.201 139.134 123.773C140.358 124.32 141.608 124.594 142.884 124.594ZM196.817 94.9844V131H189.591V101.781H177.598L176.387 119.008C176.127 123.018 174.981 126.091 172.95 128.227C170.945 130.336 168.223 131.391 164.786 131.391C164.473 131.391 164.187 131.378 163.927 131.352C163.666 131.326 163.393 131.286 163.106 131.234C162.846 131.182 162.611 131.104 162.403 131V124.984H163.184C166.856 124.984 168.861 122.992 169.2 119.008L171.192 94.9844H196.817ZM237.938 120.609C237.339 122.094 236.583 123.487 235.672 124.789C234.76 126.091 233.667 127.237 232.391 128.227C231.115 129.216 229.63 129.997 227.938 130.57C226.271 131.117 224.396 131.391 222.312 131.391C219.917 131.391 217.677 130.948 215.594 130.062C213.51 129.151 211.688 127.888 210.125 126.273C208.562 124.633 207.339 122.693 206.453 120.453C205.568 118.214 205.125 115.727 205.125 112.992C205.125 110.284 205.568 107.81 206.453 105.57C207.339 103.331 208.536 101.404 210.047 99.7891C211.557 98.1484 213.341 96.8724 215.398 95.9609C217.456 95.0495 219.63 94.5938 221.922 94.5938C224.214 94.5938 226.388 95.0495 228.445 95.9609C230.503 96.8724 232.286 98.1484 233.797 99.7891C235.307 101.404 236.505 103.331 237.391 105.57C238.276 107.81 238.719 110.284 238.719 112.992C238.719 113.409 238.693 113.826 238.641 114.242C238.589 114.633 238.536 114.971 238.484 115.258C238.432 115.622 238.38 115.935 238.328 116.195H212.703C212.807 117.315 213.133 118.383 213.68 119.398C214.227 120.414 214.904 121.312 215.711 122.094C216.544 122.849 217.534 123.461 218.68 123.93C219.826 124.372 221.036 124.594 222.312 124.594C224.5 124.594 226.232 124.125 227.508 123.188C228.81 122.25 229.747 121.391 230.32 120.609H237.938ZM221.922 101.391C219.526 101.391 217.495 102.211 215.828 103.852C214.188 105.466 213.146 107.589 212.703 110.219H231.922C231.505 107.615 230.438 105.492 228.719 103.852C227.026 102.211 224.76 101.391 221.922 101.391ZM263.433 131L253.823 111V131H246.636V94.9844H253.042L265.816 121.391L278.628 94.9844H285.034V131H277.847V111L268.238 131H263.433ZM308.889 94.5938C310.972 94.5938 312.873 94.9323 314.592 95.6094C316.337 96.2604 317.821 97.1589 319.045 98.3047C320.269 99.4505 321.22 100.805 321.897 102.367C322.574 103.904 322.913 105.583 322.913 107.406V131H317.717L316.116 127.406C315.413 128.161 314.579 128.826 313.616 129.398C312.756 129.919 311.676 130.388 310.373 130.805C309.071 131.195 307.509 131.391 305.686 131.391C301.676 131.391 298.603 130.401 296.467 128.422C294.358 126.417 293.303 123.812 293.303 120.609C293.303 118.786 293.642 117.146 294.319 115.688C295.022 114.203 296.207 112.953 297.873 111.938C299.566 110.896 301.845 110.089 304.709 109.516C307.6 108.917 311.259 108.617 315.686 108.617V107.406C315.686 105.583 315.113 104.125 313.967 103.031C312.821 101.938 311.129 101.391 308.889 101.391C306.493 101.391 304.748 101.82 303.655 102.68C302.561 103.539 301.91 104.581 301.702 105.805H294.514C294.722 102.602 296.064 99.9323 298.538 97.7969C301.011 95.6615 304.462 94.5938 308.889 94.5938ZM306.116 124.984C309.163 124.984 311.519 124.203 313.186 122.641C314.853 121.078 315.686 119.177 315.686 116.938V114.984C312.483 114.984 309.892 115.141 307.913 115.453C305.959 115.74 304.423 116.143 303.303 116.664C302.183 117.159 301.428 117.784 301.038 118.539C300.673 119.268 300.491 120.089 300.491 121C300.491 122.016 300.972 122.94 301.936 123.773C302.899 124.581 304.293 124.984 306.116 124.984ZM380.661 113.812H347.848V107.406H380.661V113.812ZM237.769 174.984V211H230.581V196.195H213.355V211H206.167V174.984H213.355V189.398H230.581V174.984H237.769ZM261.623 174.594C263.707 174.594 265.608 174.932 267.327 175.609C269.071 176.26 270.556 177.159 271.78 178.305C273.004 179.451 273.954 180.805 274.631 182.367C275.308 183.904 275.647 185.583 275.647 187.406V211H270.452L268.85 207.406C268.147 208.161 267.314 208.826 266.35 209.398C265.491 209.919 264.41 210.388 263.108 210.805C261.806 211.195 260.243 211.391 258.42 211.391C254.41 211.391 251.337 210.401 249.202 208.422C247.092 206.417 246.038 203.812 246.038 200.609C246.038 198.786 246.376 197.146 247.053 195.688C247.756 194.203 248.941 192.953 250.608 191.938C252.301 190.896 254.579 190.089 257.444 189.516C260.334 188.917 263.993 188.617 268.42 188.617V187.406C268.42 185.583 267.847 184.125 266.702 183.031C265.556 181.938 263.863 181.391 261.623 181.391C259.228 181.391 257.483 181.82 256.389 182.68C255.295 183.539 254.644 184.581 254.436 185.805H247.248C247.457 182.602 248.798 179.932 251.272 177.797C253.746 175.661 257.196 174.594 261.623 174.594ZM258.85 204.984C261.897 204.984 264.254 204.203 265.92 202.641C267.587 201.078 268.42 199.177 268.42 196.938V194.984C265.217 194.984 262.626 195.141 260.647 195.453C258.694 195.74 257.157 196.143 256.038 196.664C254.918 197.159 254.163 197.784 253.772 198.539C253.407 199.268 253.225 200.089 253.225 201C253.225 202.016 253.707 202.94 254.67 203.773C255.634 204.581 257.027 204.984 258.85 204.984ZM328.2 192.992C328.2 191.273 327.914 189.711 327.341 188.305C326.794 186.898 326.065 185.674 325.153 184.633C324.242 183.591 323.174 182.797 321.95 182.25C320.726 181.677 319.476 181.391 318.2 181.391C316.924 181.391 315.674 181.677 314.45 182.25C313.226 182.797 312.158 183.591 311.247 184.633C310.335 185.674 309.593 186.911 309.02 188.344C308.473 189.75 308.2 191.299 308.2 192.992C308.2 194.711 308.473 196.273 309.02 197.68C309.593 199.086 310.335 200.31 311.247 201.352C312.158 202.393 313.226 203.201 314.45 203.773C315.674 204.32 316.924 204.594 318.2 204.594C319.476 204.594 320.726 204.32 321.95 203.773C323.174 203.201 324.242 202.393 325.153 201.352C326.065 200.31 326.794 199.086 327.341 197.68C327.914 196.273 328.2 194.711 328.2 192.992ZM335.388 192.992C335.388 195.701 334.945 198.188 334.059 200.453C333.2 202.693 331.976 204.633 330.388 206.273C328.825 207.888 327.002 209.151 324.919 210.062C322.835 210.948 320.596 211.391 318.2 211.391C315.804 211.391 313.565 210.948 311.481 210.062C309.398 209.151 307.562 207.888 305.973 206.273C304.411 204.633 303.187 202.693 302.302 200.453C301.442 198.214 301.013 195.727 301.013 192.992C301.013 190.284 301.442 187.81 302.302 185.57C303.187 183.331 304.411 181.404 305.973 179.789C307.562 178.148 309.398 176.872 311.481 175.961C313.565 175.049 315.804 174.594 318.2 174.594C320.596 174.594 322.835 175.049 324.919 175.961C327.002 176.872 328.825 178.148 330.388 179.789C331.976 181.404 333.2 183.331 334.059 185.57C334.945 187.81 335.388 190.284 335.388 192.992ZM338.93 174.984H368.5V181.781H357.328V211H350.102V181.781H338.93V174.984ZM407.667 204.203V219.398H400.87V211H376.066V219.398H369.269V204.203H371.652C372.407 203.682 373.084 203.096 373.683 202.445C374.204 201.846 374.698 201.143 375.167 200.336C375.662 199.503 375.961 198.526 376.066 197.406L378.487 174.984H402.862V204.203H407.667ZM383.253 197.406C383.149 198.526 382.941 199.503 382.628 200.336C382.316 201.143 381.99 201.846 381.652 202.445C381.287 203.096 380.896 203.682 380.48 204.203H395.675V181.781H384.855L383.253 197.406ZM453.983 174.984V211H446.756V174.984H453.983ZM429.569 187.016C431.392 187.016 433.058 187.328 434.569 187.953C436.079 188.552 437.381 189.385 438.475 190.453C439.569 191.521 440.415 192.784 441.014 194.242C441.639 195.701 441.952 197.289 441.952 199.008C441.952 200.727 441.639 202.315 441.014 203.773C440.415 205.232 439.569 206.495 438.475 207.562C437.381 208.63 436.079 209.477 434.569 210.102C433.058 210.701 431.392 211 429.569 211H414.373V174.984H421.561V187.016H429.569ZM429.569 204.203C430.949 204.203 432.16 203.682 433.202 202.641C434.243 201.599 434.764 200.388 434.764 199.008C434.764 197.628 434.243 196.417 433.202 195.375C432.16 194.333 430.949 193.812 429.569 193.812H421.561V204.203H429.569ZM467.095 211H459.087L471.47 192.602L459.869 174.984H467.877L475.884 187.016L483.892 174.984H491.9L480.298 192.602L492.681 211H484.673L475.884 197.797L467.095 211Z" fill="black"/>
<path d="M437.237 117.797C436.821 119.724 436.157 121.521 435.245 123.188C434.334 124.828 433.175 126.26 431.769 127.484C430.389 128.708 428.8 129.672 427.003 130.375C425.232 131.052 423.305 131.391 421.222 131.391C418.826 131.391 416.586 130.948 414.503 130.062C412.42 129.151 410.584 127.888 408.995 126.273C407.433 124.633 406.209 122.693 405.323 120.453C404.464 118.214 404.034 115.727 404.034 112.992C404.034 110.284 404.464 107.81 405.323 105.57C406.209 103.331 407.433 101.404 408.995 99.7891C410.584 98.1484 412.42 96.8724 414.503 95.9609C416.586 95.0495 418.826 94.5938 421.222 94.5938C423.305 94.5938 425.232 94.9453 427.003 95.6484C428.8 96.3255 430.389 97.2891 431.769 98.5391C433.175 99.763 434.321 101.208 435.206 102.875C436.118 104.516 436.795 106.286 437.237 108.188H429.62C429.021 106.156 428.032 104.516 426.652 103.266C425.271 102.016 423.461 101.391 421.222 101.391C419.946 101.391 418.696 101.677 417.472 102.25C416.248 102.797 415.18 103.591 414.269 104.633C413.357 105.674 412.615 106.911 412.042 108.344C411.495 109.75 411.222 111.299 411.222 112.992C411.222 114.711 411.495 116.273 412.042 117.68C412.615 119.086 413.357 120.31 414.269 121.352C415.18 122.393 416.248 123.201 417.472 123.773C418.696 124.32 419.946 124.594 421.222 124.594C423.461 124.594 425.271 123.969 426.652 122.719C428.058 121.469 429.047 119.828 429.62 117.797H437.237ZM478.358 124.203V139.398H471.561V131H446.756V139.398H439.959V124.203H442.342C443.097 123.682 443.774 123.096 444.373 122.445C444.894 121.846 445.389 121.143 445.858 120.336C446.353 119.503 446.652 118.526 446.756 117.406L449.178 94.9844H473.553V124.203H478.358ZM453.944 117.406C453.84 118.526 453.631 119.503 453.319 120.336C453.006 121.143 452.681 121.846 452.342 122.445C451.978 123.096 451.587 123.682 451.17 124.203H466.366V101.781H455.545L453.944 117.406ZM516.275 120.609C515.676 122.094 514.921 123.487 514.009 124.789C513.098 126.091 512.004 127.237 510.728 128.227C509.452 129.216 507.968 129.997 506.275 130.57C504.608 131.117 502.733 131.391 500.65 131.391C498.254 131.391 496.015 130.948 493.931 130.062C491.848 129.151 490.025 127.888 488.462 126.273C486.9 124.633 485.676 122.693 484.791 120.453C483.905 118.214 483.462 115.727 483.462 112.992C483.462 110.284 483.905 107.81 484.791 105.57C485.676 103.331 486.874 101.404 488.384 99.7891C489.895 98.1484 491.679 96.8724 493.736 95.9609C495.793 95.0495 497.968 94.5938 500.259 94.5938C502.551 94.5938 504.726 95.0495 506.783 95.9609C508.84 96.8724 510.624 98.1484 512.134 99.7891C513.645 101.404 514.843 103.331 515.728 105.57C516.614 107.81 517.056 110.284 517.056 112.992C517.056 113.409 517.03 113.826 516.978 114.242C516.926 114.633 516.874 114.971 516.822 115.258C516.77 115.622 516.718 115.935 516.666 116.195H491.041C491.145 117.315 491.47 118.383 492.017 119.398C492.564 120.414 493.241 121.312 494.048 122.094C494.882 122.849 495.871 123.461 497.017 123.93C498.163 124.372 499.374 124.594 500.65 124.594C502.837 124.594 504.569 124.125 505.845 123.188C507.147 122.25 508.085 121.391 508.658 120.609H516.275ZM500.259 101.391C497.864 101.391 495.832 102.211 494.166 103.852C492.525 105.466 491.483 107.589 491.041 110.219H510.259C509.843 107.615 508.775 105.492 507.056 103.852C505.364 102.211 503.098 101.391 500.259 101.391ZM554.192 94.9844V131H546.966V101.781H534.973L533.763 119.008C533.502 123.018 532.356 126.091 530.325 128.227C528.32 130.336 525.598 131.391 522.161 131.391C521.848 131.391 521.562 131.378 521.302 131.352C521.041 131.326 520.768 131.286 520.481 131.234C520.221 131.182 519.986 131.104 519.778 131V124.984H520.559C524.231 124.984 526.236 122.992 526.575 119.008L528.567 94.9844H554.192ZM578.086 94.5938C580.169 94.5938 582.07 94.9323 583.789 95.6094C585.534 96.2604 587.018 97.1589 588.242 98.3047C589.466 99.4505 590.417 100.805 591.094 102.367C591.771 103.904 592.109 105.583 592.109 107.406V131H586.914L585.312 127.406C584.609 128.161 583.776 128.826 582.812 129.398C581.953 129.919 580.872 130.388 579.57 130.805C578.268 131.195 576.706 131.391 574.883 131.391C570.872 131.391 567.799 130.401 565.664 128.422C563.555 126.417 562.5 123.812 562.5 120.609C562.5 118.786 562.839 117.146 563.516 115.688C564.219 114.203 565.404 112.953 567.07 111.938C568.763 110.896 571.042 110.089 573.906 109.516C576.797 108.917 580.456 108.617 584.883 108.617V107.406C584.883 105.583 584.31 104.125 583.164 103.031C582.018 101.938 580.326 101.391 578.086 101.391C575.69 101.391 573.945 101.82 572.852 102.68C571.758 103.539 571.107 104.581 570.898 105.805H563.711C563.919 102.602 565.26 99.9323 567.734 97.7969C570.208 95.6615 573.659 94.5938 578.086 94.5938ZM575.312 124.984C578.359 124.984 580.716 124.203 582.383 122.641C584.049 121.078 584.883 119.177 584.883 116.938V114.984C581.68 114.984 579.089 115.141 577.109 115.453C575.156 115.74 573.62 116.143 572.5 116.664C571.38 117.159 570.625 117.784 570.234 118.539C569.87 119.268 569.688 120.089 569.688 121C569.688 122.016 570.169 122.94 571.133 123.773C572.096 124.581 573.49 124.984 575.312 124.984ZM633.191 94.9844V131H626.003V105.805L608.777 131H601.589V94.9844H608.777V120.219L626.003 94.9844H633.191ZM617.175 89.7891C614.336 89.7891 611.993 88.9167 610.144 87.1719C608.321 85.401 607.201 83.2135 606.784 80.6094H612.37C612.579 81.8333 613.126 82.875 614.011 83.7344C614.896 84.5677 615.951 84.9844 617.175 84.9844C618.399 84.9844 619.454 84.5677 620.339 83.7344C621.224 82.875 621.771 81.8333 621.98 80.6094H627.566C627.149 83.2135 626.016 85.401 624.167 87.1719C622.344 88.9167 620.014 89.7891 617.175 89.7891ZM34.4062 174.984V211H27.2188V181.781H9.99219V211H2.80469V174.984H34.4062ZM58.2609 174.594C60.3443 174.594 62.2453 174.932 63.9641 175.609C65.7089 176.26 67.1932 177.159 68.4172 178.305C69.6411 179.451 70.5917 180.805 71.2687 182.367C71.9458 183.904 72.2844 185.583 72.2844 187.406V211H67.0891L65.4875 207.406C64.7844 208.161 63.951 208.826 62.9875 209.398C62.1281 209.919 61.0474 210.388 59.7453 210.805C58.4432 211.195 56.8807 211.391 55.0578 211.391C51.0474 211.391 47.9745 210.401 45.8391 208.422C43.7297 206.417 42.675 203.812 42.675 200.609C42.675 198.786 43.0135 197.146 43.6906 195.688C44.3937 194.203 45.5786 192.953 47.2453 191.938C48.938 190.896 51.2167 190.089 54.0812 189.516C56.9719 188.917 60.6307 188.617 65.0578 188.617V187.406C65.0578 185.583 64.4849 184.125 63.3391 183.031C62.1932 181.938 60.5005 181.391 58.2609 181.391C55.8651 181.391 54.1203 181.82 53.0266 182.68C51.9328 183.539 51.2818 184.581 51.0734 185.805H43.8859C44.0943 182.602 45.4354 179.932 47.9094 177.797C50.3833 175.661 53.8339 174.594 58.2609 174.594ZM55.4875 204.984C58.5344 204.984 60.8911 204.203 62.5578 202.641C64.2245 201.078 65.0578 199.177 65.0578 196.938V194.984C61.8547 194.984 59.2635 195.141 57.2844 195.453C55.3312 195.74 53.7948 196.143 52.675 196.664C51.5552 197.159 50.8 197.784 50.4094 198.539C50.0448 199.268 49.8625 200.089 49.8625 201C49.8625 202.016 50.3443 202.94 51.3078 203.773C52.2714 204.581 53.6646 204.984 55.4875 204.984ZM77.7406 174.984H85.3578L95.3578 201L105.358 174.984H112.975L97.7406 213.383C96.9333 215.414 96.1391 217.107 95.3578 218.461C94.6026 219.841 93.7693 220.948 92.8578 221.781C91.9724 222.641 90.9828 223.253 89.8891 223.617C88.7953 224.008 87.5583 224.203 86.1781 224.203C85.8656 224.203 85.5661 224.19 85.2797 224.164C85.0193 224.138 84.7589 224.099 84.4984 224.047C84.238 223.995 83.9906 223.917 83.7562 223.812V217.797C85.7875 217.797 87.324 217.367 88.3656 216.508C89.4073 215.674 90.1365 214.633 90.5531 213.383L91.7641 209.789L77.7406 174.984ZM138.392 192.602C139.304 193.07 140.098 193.682 140.775 194.438C141.374 195.089 141.934 195.896 142.455 196.859C143.002 197.797 143.275 198.917 143.275 200.219C143.275 203.422 142.116 206.091 139.798 208.227C137.507 210.336 134.265 211.391 130.072 211.391C125.645 211.391 122.324 210.349 120.111 208.266C117.897 206.182 116.673 203.227 116.439 199.398H123.666C123.874 200.987 124.486 202.25 125.502 203.188C126.517 204.125 128.041 204.594 130.072 204.594C132.311 204.594 133.926 204.177 134.916 203.344C135.931 202.484 136.439 201.443 136.439 200.219C136.439 198.995 135.931 197.953 134.916 197.094C133.926 196.234 132.311 195.805 130.072 195.805H126.869V189.398H130.072C132.103 189.398 133.535 188.995 134.369 188.188C135.228 187.354 135.658 186.43 135.658 185.414C135.658 184.398 135.228 183.474 134.369 182.641C133.509 181.807 132.077 181.391 130.072 181.391C128.249 181.391 126.843 181.82 125.853 182.68C124.864 183.539 124.265 184.581 124.056 185.805H116.869C117.077 182.393 118.275 179.672 120.463 177.641C122.65 175.609 125.853 174.594 130.072 174.594C131.999 174.594 133.718 174.88 135.228 175.453C136.739 176 138.028 176.768 139.095 177.758C140.163 178.747 140.983 179.893 141.556 181.195C142.155 182.497 142.455 183.904 142.455 185.414C142.455 186.638 142.233 187.706 141.791 188.617C141.374 189.503 140.905 190.245 140.384 190.844C139.811 191.547 139.147 192.133 138.392 192.602ZM147.169 174.984H154.786L164.786 201L174.786 174.984H182.403L167.169 213.383C166.361 215.414 165.567 217.107 164.786 218.461C164.031 219.841 163.197 220.948 162.286 221.781C161.401 222.641 160.411 223.253 159.317 223.617C158.223 224.008 156.986 224.203 155.606 224.203C155.294 224.203 154.994 224.19 154.708 224.164C154.447 224.138 154.187 224.099 153.927 224.047C153.666 223.995 153.419 223.917 153.184 223.812V217.797C155.216 217.797 156.752 217.367 157.794 216.508C158.835 215.674 159.565 214.633 159.981 213.383L161.192 209.789L147.169 174.984Z" fill="#3F8AE0"/>
</svg>
