<svg width="292" height="225" viewBox="0 0 292 225" fill="none" xmlns="http://www.w3.org/2000/svg">
<path d="M33.1953 34.8125H0.382812V28.4062H33.1953V34.8125ZM54.5375 15.9844H62.1547L72.1547 42L82.1547 15.9844H89.7719L74.5375 54.3828C73.7302 56.4141 72.9359 58.1068 72.1547 59.4609C71.3995 60.8411 70.5661 61.9479 69.6547 62.7812C68.7693 63.6406 67.7797 64.2526 66.6859 64.6172C65.5922 65.0078 64.3552 65.2031 62.975 65.2031C62.6625 65.2031 62.363 65.1901 62.0766 65.1641C61.8161 65.138 61.5557 65.099 61.2953 65.0469C61.0349 64.9948 60.7875 64.9167 60.5531 64.8125V58.7969C62.5844 58.7969 64.1208 58.3672 65.1625 57.5078C66.2042 56.6745 66.9333 55.6328 67.35 54.3828L68.5609 50.7891L54.5375 15.9844ZM129.252 45.2031V60.3984H122.455V52H97.65V60.3984H90.8531V45.2031H93.2359C93.9911 44.6823 94.6682 44.0964 95.2672 43.4453C95.788 42.8464 96.2828 42.1432 96.7516 41.3359C97.2464 40.5026 97.5458 39.526 97.65 38.4062L100.072 15.9844H124.447V45.2031H129.252ZM104.838 38.4062C104.733 39.526 104.525 40.5026 104.213 41.3359C103.9 42.1432 103.574 42.8464 103.236 43.4453C102.871 44.0964 102.481 44.6823 102.064 45.2031H117.259V22.7812H106.439L104.838 38.4062ZM161.153 33.9922C161.153 32.2734 160.867 30.7109 160.294 29.3047C159.747 27.8984 159.018 26.6745 158.106 25.6328C157.195 24.5911 156.127 23.7969 154.903 23.25C153.679 22.6771 152.429 22.3906 151.153 22.3906C149.877 22.3906 148.627 22.6771 147.403 23.25C146.179 23.7969 145.111 24.5911 144.2 25.6328C143.289 26.6745 142.546 27.9115 141.973 29.3438C141.427 30.75 141.153 32.2995 141.153 33.9922C141.153 35.7109 141.427 37.2734 141.973 38.6797C142.546 40.0859 143.289 41.3099 144.2 42.3516C145.111 43.3932 146.179 44.2005 147.403 44.7734C148.627 45.3203 149.877 45.5938 151.153 45.5938C152.429 45.5938 153.679 45.3203 154.903 44.7734C156.127 44.2005 157.195 43.3932 158.106 42.3516C159.018 41.3099 159.747 40.0859 160.294 38.6797C160.867 37.2734 161.153 35.7109 161.153 33.9922ZM168.341 33.9922C168.341 36.7005 167.898 39.1875 167.012 41.4531C166.153 43.6927 164.929 45.6328 163.341 47.2734C161.778 48.888 159.955 50.151 157.872 51.0625C155.789 51.9479 153.549 52.3906 151.153 52.3906C148.757 52.3906 146.518 51.9479 144.434 51.0625C142.351 50.151 140.515 48.888 138.927 47.2734C137.364 45.6328 136.14 43.6927 135.255 41.4531C134.395 39.2135 133.966 36.7266 133.966 33.9922C133.966 31.2839 134.395 28.8099 135.255 26.5703C136.14 24.3307 137.364 22.4036 138.927 20.7891C140.515 19.1484 142.351 17.8724 144.434 16.9609C146.518 16.0495 148.757 15.5938 151.153 15.5938C153.549 15.5938 155.789 16.0495 157.872 16.9609C159.955 17.8724 161.778 19.1484 163.341 20.7891C164.929 22.4036 166.153 24.3307 167.012 26.5703C167.898 28.8099 168.341 31.2839 168.341 33.9922ZM193.055 17.1953C195.242 17.1953 197.339 17.651 199.344 18.5625C201.349 19.474 203.094 20.724 204.578 22.3125C206.062 23.875 207.247 25.724 208.133 27.8594C209.018 29.9688 209.461 32.2865 209.461 34.8125C209.461 37.3125 209.018 39.6302 208.133 41.7656C207.247 43.901 206.01 45.763 204.422 47.3516C202.859 48.9141 201.036 50.151 198.953 51.0625C196.896 51.9479 194.656 52.3906 192.234 52.3906C189.734 52.3906 187.417 51.9349 185.281 51.0234C183.146 50.0859 181.297 48.6667 179.734 46.7656C178.172 44.8646 176.935 42.5208 176.023 39.7344C175.112 36.9219 174.656 33.6797 174.656 30.0078C174.656 24.8255 175.177 20.4245 176.219 16.8047C177.26 13.1849 178.966 10.2292 181.336 7.9375C183.706 5.61979 186.818 3.90104 190.672 2.78125C194.552 1.66146 199.344 0.997396 205.047 0.789062V8.01562C200.724 8.11979 197.156 8.48438 194.344 9.10938C191.557 9.70833 189.318 10.6068 187.625 11.8047C185.958 13.0026 184.721 14.513 183.914 16.3359C183.133 18.1328 182.573 20.2812 182.234 22.7812C182.938 21.7656 183.797 20.8411 184.812 20.0078C185.724 19.3047 186.844 18.6667 188.172 18.0938C189.5 17.4948 191.128 17.1953 193.055 17.1953ZM192.234 45.5938C193.51 45.5938 194.76 45.3203 195.984 44.7734C197.234 44.2005 198.302 43.4193 199.188 42.4297C200.099 41.4401 200.828 40.2943 201.375 38.9922C201.948 37.6901 202.234 36.2969 202.234 34.8125C202.234 33.3281 201.948 31.9349 201.375 30.6328C200.828 29.3047 200.099 28.1458 199.188 27.1562C198.302 26.1667 197.247 25.3984 196.023 24.8516C194.799 24.2786 193.536 23.9922 192.234 23.9922C190.958 23.9922 189.708 24.2786 188.484 24.8516C187.26 25.3984 186.193 26.1667 185.281 27.1562C184.37 28.1458 183.628 29.2917 183.055 30.5938C182.508 31.8958 182.234 33.3021 182.234 34.8125C182.234 36.2969 182.508 37.6901 183.055 38.9922C183.628 40.2943 184.37 41.4401 185.281 42.4297C186.193 43.4193 187.26 44.2005 188.484 44.7734C189.708 45.3203 190.958 45.5938 192.234 45.5938ZM248.941 15.9844V52H241.753V37.1953H224.527V52H217.339V15.9844H224.527V30.3984H241.753V15.9844H248.941ZM284.006 33.9922C284.006 32.2734 283.72 30.7109 283.147 29.3047C282.6 27.8984 281.871 26.6745 280.959 25.6328C280.048 24.5911 278.98 23.7969 277.756 23.25C276.532 22.6771 275.282 22.3906 274.006 22.3906C272.73 22.3906 271.48 22.6771 270.256 23.25C269.032 23.7969 267.965 24.5911 267.053 25.6328C266.142 26.6745 265.399 27.9115 264.827 29.3438C264.28 30.75 264.006 32.2995 264.006 33.9922C264.006 35.7109 264.28 37.2734 264.827 38.6797C265.399 40.0859 266.142 41.3099 267.053 42.3516C267.965 43.3932 269.032 44.2005 270.256 44.7734C271.48 45.3203 272.73 45.5938 274.006 45.5938C275.282 45.5938 276.532 45.3203 277.756 44.7734C278.98 44.2005 280.048 43.3932 280.959 42.3516C281.871 41.3099 282.6 40.0859 283.147 38.6797C283.72 37.2734 284.006 35.7109 284.006 33.9922ZM291.194 33.9922C291.194 36.7005 290.751 39.1875 289.866 41.4531C289.006 43.6927 287.782 45.6328 286.194 47.2734C284.631 48.888 282.808 50.151 280.725 51.0625C278.642 51.9479 276.402 52.3906 274.006 52.3906C271.61 52.3906 269.371 51.9479 267.288 51.0625C265.204 50.151 263.368 48.888 261.78 47.2734C260.217 45.6328 258.993 43.6927 258.108 41.4531C257.248 39.2135 256.819 36.7266 256.819 33.9922C256.819 31.2839 257.248 28.8099 258.108 26.5703C258.993 24.3307 260.217 22.4036 261.78 20.7891C263.368 19.1484 265.204 17.8724 267.288 16.9609C269.371 16.0495 271.61 15.5938 274.006 15.5938C276.402 15.5938 278.642 16.0495 280.725 16.9609C282.808 17.8724 284.631 19.1484 286.194 20.7891C287.782 22.4036 289.006 24.3307 289.866 26.5703C290.751 28.8099 291.194 31.2839 291.194 33.9922ZM33.1953 114.812H0.382812V108.406H33.1953V114.812ZM88.1703 95.9844V132H80.9437V102.781H68.9516L67.7406 120.008C67.4802 124.018 66.3344 127.091 64.3031 129.227C62.2979 131.336 59.5766 132.391 56.1391 132.391C55.8266 132.391 55.5401 132.378 55.2797 132.352C55.0193 132.326 54.7458 132.286 54.4594 132.234C54.199 132.182 53.9646 132.104 53.7562 132V125.984H54.5375C58.2094 125.984 60.2146 123.992 60.5531 120.008L62.5453 95.9844H88.1703ZM129.291 121.609C128.692 123.094 127.936 124.487 127.025 125.789C126.114 127.091 125.02 128.237 123.744 129.227C122.468 130.216 120.983 130.997 119.291 131.57C117.624 132.117 115.749 132.391 113.666 132.391C111.27 132.391 109.03 131.948 106.947 131.062C104.864 130.151 103.041 128.888 101.478 127.273C99.9156 125.633 98.6917 123.693 97.8063 121.453C96.9208 119.214 96.4781 116.727 96.4781 113.992C96.4781 111.284 96.9208 108.81 97.8063 106.57C98.6917 104.331 99.8896 102.404 101.4 100.789C102.91 99.1484 104.694 97.8724 106.752 96.9609C108.809 96.0495 110.983 95.5938 113.275 95.5938C115.567 95.5938 117.741 96.0495 119.798 96.9609C121.856 97.8724 123.64 99.1484 125.15 100.789C126.66 102.404 127.858 104.331 128.744 106.57C129.629 108.81 130.072 111.284 130.072 113.992C130.072 114.409 130.046 114.826 129.994 115.242C129.942 115.633 129.89 115.971 129.838 116.258C129.785 116.622 129.733 116.935 129.681 117.195H104.056C104.16 118.315 104.486 119.383 105.033 120.398C105.58 121.414 106.257 122.312 107.064 123.094C107.897 123.849 108.887 124.461 110.033 124.93C111.179 125.372 112.39 125.594 113.666 125.594C115.853 125.594 117.585 125.125 118.861 124.188C120.163 123.25 121.101 122.391 121.673 121.609H129.291ZM113.275 102.391C110.879 102.391 108.848 103.211 107.181 104.852C105.541 106.466 104.499 108.589 104.056 111.219H123.275C122.858 108.615 121.791 106.492 120.072 104.852C118.379 103.211 116.114 102.391 113.275 102.391ZM162.403 102.781H145.177V132H137.989V95.9844H162.403V102.781ZM189.891 132L175.867 114.812V132H168.68V95.9844H175.867V111.609L188.289 95.9844H196.688L182.703 112.781L198.68 132H189.891ZM227.378 113.992C227.378 112.273 227.092 110.711 226.519 109.305C225.972 107.898 225.243 106.674 224.331 105.633C223.42 104.591 222.352 103.797 221.128 103.25C219.904 102.677 218.654 102.391 217.378 102.391C216.102 102.391 214.852 102.677 213.628 103.25C212.404 103.797 211.336 104.591 210.425 105.633C209.514 106.674 208.771 107.911 208.198 109.344C207.652 110.75 207.378 112.299 207.378 113.992C207.378 115.711 207.652 117.273 208.198 118.68C208.771 120.086 209.514 121.31 210.425 122.352C211.336 123.393 212.404 124.201 213.628 124.773C214.852 125.32 216.102 125.594 217.378 125.594C218.654 125.594 219.904 125.32 221.128 124.773C222.352 124.201 223.42 123.393 224.331 122.352C225.243 121.31 225.972 120.086 226.519 118.68C227.092 117.273 227.378 115.711 227.378 113.992ZM234.566 113.992C234.566 116.701 234.123 119.188 233.238 121.453C232.378 123.693 231.154 125.633 229.566 127.273C228.003 128.888 226.18 130.151 224.097 131.062C222.014 131.948 219.774 132.391 217.378 132.391C214.982 132.391 212.743 131.948 210.659 131.062C208.576 130.151 206.74 128.888 205.152 127.273C203.589 125.633 202.365 123.693 201.48 121.453C200.62 119.214 200.191 116.727 200.191 113.992C200.191 111.284 200.62 108.81 201.48 106.57C202.365 104.331 203.589 102.404 205.152 100.789C206.74 99.1484 208.576 97.8724 210.659 96.9609C212.743 96.0495 214.982 95.5938 217.378 95.5938C219.774 95.5938 222.014 96.0495 224.097 96.9609C226.18 97.8724 228.003 99.1484 229.566 100.789C231.154 102.404 232.378 104.331 233.238 106.57C234.123 108.81 234.566 111.284 234.566 113.992Z" fill="black"/>
<path d="M33.1953 194.812H0.382812V188.406H33.1953V194.812ZM86.1391 175.984V212H78.9516V200.008H71.7641L64.1469 212H56.1391L64.5375 198.797C63.1573 198.276 61.9594 197.534 60.9437 196.57C60.0323 195.711 59.199 194.604 58.4437 193.25C57.7146 191.896 57.35 190.151 57.35 188.016C57.35 186.297 57.6495 184.708 58.2484 183.25C58.8734 181.766 59.7328 180.503 60.8266 179.461C61.9203 178.393 63.2224 177.547 64.7328 176.922C66.2693 176.297 67.949 175.984 69.7719 175.984H86.1391ZM69.7719 182.781C68.3917 182.781 67.1677 183.302 66.1 184.344C65.0583 185.385 64.5375 186.609 64.5375 188.016C64.5375 189.396 65.0583 190.607 66.1 191.648C67.1417 192.69 68.3656 193.211 69.7719 193.211H78.9516V182.781H69.7719ZM113.236 175.594C115.632 175.594 117.871 176.049 119.955 176.961C122.038 177.872 123.861 179.148 125.423 180.789C127.012 182.404 128.249 184.331 129.134 186.57C130.02 188.81 130.463 191.284 130.463 193.992C130.463 196.701 130.02 199.188 129.134 201.453C128.249 203.693 127.012 205.633 125.423 207.273C123.861 208.888 122.038 210.151 119.955 211.062C117.871 211.948 115.632 212.391 113.236 212.391C111.517 212.391 110.046 212.195 108.822 211.805C107.598 211.414 106.569 210.945 105.736 210.398C104.772 209.799 103.939 209.135 103.236 208.406V224.812H96.0484V175.984H101.244L102.845 179.617C103.548 178.862 104.369 178.185 105.306 177.586C106.166 177.117 107.246 176.674 108.548 176.258C109.851 175.815 111.413 175.594 113.236 175.594ZM112.845 205.594C114.226 205.594 115.541 205.32 116.791 204.773C118.041 204.201 119.147 203.393 120.111 202.352C121.074 201.31 121.83 200.086 122.377 198.68C122.949 197.273 123.236 195.711 123.236 193.992C123.236 192.273 122.949 190.711 122.377 189.305C121.83 187.898 121.074 186.674 120.111 185.633C119.147 184.591 118.041 183.797 116.791 183.25C115.541 182.677 114.226 182.391 112.845 182.391C111.465 182.391 110.137 182.677 108.861 183.25C107.611 183.797 106.504 184.591 105.541 185.633C104.603 186.674 103.848 187.911 103.275 189.344C102.728 190.75 102.455 192.299 102.455 193.992C102.455 195.711 102.728 197.273 103.275 198.68C103.848 200.086 104.603 201.31 105.541 202.352C106.504 203.393 107.611 204.201 108.861 204.773C110.137 205.32 111.465 205.594 112.845 205.594ZM167.559 175.984V212H160.372V199.188C159.46 199.656 158.497 200.06 157.481 200.398C156.57 200.711 155.502 200.997 154.278 201.258C153.054 201.492 151.752 201.609 150.372 201.609C148.445 201.609 146.7 201.31 145.137 200.711C143.575 200.086 142.234 199.188 141.114 198.016C139.994 196.844 139.122 195.464 138.497 193.875C137.872 192.26 137.559 190.438 137.559 188.406V175.984H144.786V188.406C144.786 190.438 145.424 192.078 146.7 193.328C147.976 194.578 149.734 195.203 151.973 195.203C153.197 195.203 154.317 195.086 155.333 194.852C156.348 194.591 157.234 194.305 157.989 193.992C158.901 193.68 159.695 193.276 160.372 192.781V175.984H167.559ZM208.719 201.609C208.12 203.094 207.365 204.487 206.453 205.789C205.542 207.091 204.448 208.237 203.172 209.227C201.896 210.216 200.411 210.997 198.719 211.57C197.052 212.117 195.177 212.391 193.094 212.391C190.698 212.391 188.458 211.948 186.375 211.062C184.292 210.151 182.469 208.888 180.906 207.273C179.344 205.633 178.12 203.693 177.234 201.453C176.349 199.214 175.906 196.727 175.906 193.992C175.906 191.284 176.349 188.81 177.234 186.57C178.12 184.331 179.318 182.404 180.828 180.789C182.339 179.148 184.122 177.872 186.18 176.961C188.237 176.049 190.411 175.594 192.703 175.594C194.995 175.594 197.169 176.049 199.227 176.961C201.284 177.872 203.068 179.148 204.578 180.789C206.089 182.404 207.286 184.331 208.172 186.57C209.057 188.81 209.5 191.284 209.5 193.992C209.5 194.409 209.474 194.826 209.422 195.242C209.37 195.633 209.318 195.971 209.266 196.258C209.214 196.622 209.161 196.935 209.109 197.195H183.484C183.589 198.315 183.914 199.383 184.461 200.398C185.008 201.414 185.685 202.312 186.492 203.094C187.326 203.849 188.315 204.461 189.461 204.93C190.607 205.372 191.818 205.594 193.094 205.594C195.281 205.594 197.013 205.125 198.289 204.188C199.591 203.25 200.529 202.391 201.102 201.609H208.719ZM192.703 182.391C190.307 182.391 188.276 183.211 186.609 184.852C184.969 186.466 183.927 188.589 183.484 191.219H202.703C202.286 188.615 201.219 186.492 199.5 184.852C197.807 183.211 195.542 182.391 192.703 182.391Z" fill="#FD354D"/>
</svg>
